<svg width="258" height="102" viewBox="0 0 258 102" fill="none" xmlns="http://www.w3.org/2000/svg">
<path fill-rule="evenodd" clip-rule="evenodd" d="M156.809 1.82905C156.809 1.33477 157.21 0.934082 157.704 0.934082H256.987C257.481 0.934082 257.882 1.33477 257.882 1.82905V100.789C257.882 101.283 257.481 101.684 256.987 101.684H157.704C157.21 101.684 156.809 101.283 156.809 100.789V1.82905ZM158.599 2.72403V99.8941H256.092V2.72403H158.599Z" fill="black"/>
<path opacity="0.902" fill-rule="evenodd" clip-rule="evenodd" d="M182.429 1.17261C182.924 1.17261 183.324 1.5733 183.324 2.06758V100.061C183.324 100.555 182.924 100.956 182.429 100.956C181.935 100.956 181.534 100.555 181.534 100.061V2.06758C181.534 1.5733 181.935 1.17261 182.429 1.17261Z" fill="black"/>
<path opacity="0.902" fill-rule="evenodd" clip-rule="evenodd" d="M207.131 1.42334C207.625 1.42334 208.026 1.82403 208.026 2.31831V100.312C208.026 100.806 207.625 101.207 207.131 101.207C206.636 101.207 206.236 100.806 206.236 100.312V2.31831C206.236 1.82403 206.636 1.42334 207.131 1.42334Z" fill="black"/>
<path opacity="0.902" fill-rule="evenodd" clip-rule="evenodd" d="M231.844 1.9126C232.338 1.9126 232.739 2.31329 232.739 2.80757V100.789C232.739 101.283 232.338 101.684 231.844 101.684C231.349 101.684 230.949 101.283 230.949 100.789V2.80757C230.949 2.31329 231.349 1.9126 231.844 1.9126Z" fill="black"/>
<path opacity="0.902" fill-rule="evenodd" clip-rule="evenodd" d="M157.621 26.7331C157.621 26.2388 158.021 25.8381 158.516 25.8381H256.497C256.992 25.8381 257.392 26.2388 257.392 26.7331C257.392 27.2274 256.992 27.6281 256.497 27.6281H158.516C158.021 27.6281 157.621 27.2274 157.621 26.7331Z" fill="black"/>
<path opacity="0.902" fill-rule="evenodd" clip-rule="evenodd" d="M157.37 51.4345C157.37 50.9402 157.771 50.5396 158.265 50.5396H256.247C256.741 50.5396 257.142 50.9402 257.142 51.4345C257.142 51.9288 256.741 52.3295 256.247 52.3295H158.265C157.771 52.3295 157.37 51.9288 157.37 51.4345Z" fill="black"/>
<path opacity="0.902" fill-rule="evenodd" clip-rule="evenodd" d="M156.881 76.1357C156.881 75.6414 157.282 75.2407 157.776 75.2407H255.757C256.252 75.2407 256.652 75.6414 256.652 76.1357C256.652 76.63 256.252 77.0307 255.757 77.0307H157.776C157.282 77.0307 156.881 76.63 156.881 76.1357Z" fill="black"/>
<path fill-rule="evenodd" clip-rule="evenodd" d="M170.001 8.46389C170.365 8.46625 170.692 8.68901 170.826 9.02723L175.23 20.0652C175.413 20.5243 175.189 21.045 174.73 21.2281C174.271 21.4112 173.75 21.1875 173.567 20.7284L169.98 11.7356L166.252 20.7392C166.063 21.1959 165.539 21.4128 165.082 21.2237C164.626 21.0346 164.409 20.5111 164.598 20.0545L169.168 9.01646C169.308 8.68002 169.637 8.46152 170.001 8.46389Z" fill="black"/>
<path fill-rule="evenodd" clip-rule="evenodd" d="M166.296 16.3874C166.296 15.8931 166.697 15.4924 167.191 15.4924H172.668C173.162 15.4924 173.563 15.8931 173.563 16.3874C173.563 16.8817 173.162 17.2824 172.668 17.2824H167.191C166.697 17.2824 166.296 16.8817 166.296 16.3874Z" fill="black"/>
<path fill-rule="evenodd" clip-rule="evenodd" d="M244.523 31.7212C244.887 31.7237 245.213 31.9468 245.348 32.2853L249.739 43.3233C249.922 43.7826 249.698 44.303 249.239 44.4857C248.779 44.6684 248.259 44.4443 248.076 43.985L244.5 34.9956L240.773 43.9965C240.584 44.4532 240.061 44.6701 239.604 44.481C239.147 44.292 238.93 43.7685 239.119 43.3118L243.69 32.2738C243.829 31.9372 244.158 31.7187 244.523 31.7212Z" fill="black"/>
<path fill-rule="evenodd" clip-rule="evenodd" d="M240.817 39.6567C240.817 39.1624 241.218 38.7617 241.712 38.7617H247.19C247.684 38.7617 248.085 39.1624 248.085 39.6567C248.085 40.151 247.684 40.5517 247.19 40.5517H241.712C241.218 40.5517 240.817 40.151 240.817 39.6567Z" fill="black"/>
<path fill-rule="evenodd" clip-rule="evenodd" d="M219.666 32.9146C220.031 32.9171 220.357 33.1402 220.492 33.4787L224.883 44.5167C225.066 44.9759 224.842 45.4964 224.382 45.6791C223.923 45.8618 223.403 45.6376 223.22 45.1783L219.644 36.189L215.917 45.1899C215.728 45.6466 215.204 45.8635 214.747 45.6744C214.291 45.4853 214.074 44.9618 214.263 44.5051L218.833 33.4671C218.973 33.1306 219.302 32.912 219.666 32.9146Z" fill="black"/>
<path fill-rule="evenodd" clip-rule="evenodd" d="M215.949 40.8501C215.949 40.3558 216.35 39.9551 216.844 39.9551H222.321C222.815 39.9551 223.216 40.3558 223.216 40.8501C223.216 41.3443 222.815 41.745 222.321 41.745H216.844C216.35 41.745 215.949 41.3443 215.949 40.8501Z" fill="black"/>
<path fill-rule="evenodd" clip-rule="evenodd" d="M170.001 82.126C170.365 82.1284 170.692 82.3513 170.827 82.6896L175.23 93.7395C175.413 94.1987 175.189 94.7193 174.73 94.9022C174.271 95.0852 173.75 94.8613 173.567 94.4021L169.98 85.3999L166.252 94.4129C166.063 94.8697 165.54 95.0868 165.083 94.8979C164.626 94.709 164.409 94.1855 164.598 93.7288L169.168 82.6789C169.307 82.3423 169.637 82.1236 170.001 82.126Z" fill="black"/>
<path fill-rule="evenodd" clip-rule="evenodd" d="M166.296 90.0615C166.296 89.5672 166.697 89.1665 167.191 89.1665H172.668C173.162 89.1665 173.563 89.5672 173.563 90.0615C173.563 90.5558 173.162 90.9564 172.668 90.9564H167.191C166.697 90.9564 166.296 90.5558 166.296 90.0615Z" fill="black"/>
<path fill-rule="evenodd" clip-rule="evenodd" d="M244.433 7.68823C244.927 7.68823 245.328 8.08893 245.328 8.5832V19.2035C245.328 19.6978 244.927 20.0985 244.433 20.0985C243.939 20.0985 243.538 19.6978 243.538 19.2035V8.5832C243.538 8.08893 243.939 7.68823 244.433 7.68823Z" fill="black"/>
<path fill-rule="evenodd" clip-rule="evenodd" d="M238.98 8.16548C238.98 7.6712 239.38 7.27051 239.875 7.27051H248.968C249.462 7.27051 249.863 7.6712 249.863 8.16548C249.863 8.65976 249.462 9.06045 248.968 9.06045H239.875C239.38 9.06045 238.98 8.65976 238.98 8.16548Z" fill="black"/>
<path fill-rule="evenodd" clip-rule="evenodd" d="M219.565 8.88159C220.059 8.88159 220.46 9.28228 220.46 9.77656V20.3969C220.46 20.8912 220.059 21.2919 219.565 21.2919C219.07 21.2919 218.67 20.8912 218.67 20.3969V9.77656C218.67 9.28228 219.07 8.88159 219.565 8.88159Z" fill="black"/>
<path fill-rule="evenodd" clip-rule="evenodd" d="M214.123 9.35884C214.123 8.86456 214.524 8.46387 215.018 8.46387H224.111C224.605 8.46387 225.006 8.86456 225.006 9.35884C225.006 9.85312 224.605 10.2538 224.111 10.2538H215.018C214.524 10.2538 214.123 9.85312 214.123 9.35884Z" fill="black"/>
<path fill-rule="evenodd" clip-rule="evenodd" d="M169.912 57.9021C170.406 57.9021 170.807 58.3028 170.807 58.7971V69.4174C170.807 69.9117 170.406 70.3124 169.912 70.3124C169.417 70.3124 169.017 69.9117 169.017 69.4174V58.7971C169.017 58.3028 169.417 57.9021 169.912 57.9021Z" fill="black"/>
<path fill-rule="evenodd" clip-rule="evenodd" d="M164.47 58.3793C164.47 57.8851 164.871 57.4844 165.365 57.4844H174.458C174.952 57.4844 175.353 57.8851 175.353 58.3793C175.353 58.8736 174.952 59.2743 174.458 59.2743H165.365C164.871 59.2743 164.47 58.8736 164.47 58.3793Z" fill="black"/>
<path fill-rule="evenodd" clip-rule="evenodd" d="M244.433 56.4343C244.927 56.4343 245.328 56.835 245.328 57.3293V68.0809C245.328 68.5752 244.927 68.9758 244.433 68.9758C243.939 68.9758 243.538 68.5752 243.538 68.0809V57.3293C243.538 56.835 243.939 56.4343 244.433 56.4343Z" fill="black"/>
<path fill-rule="evenodd" clip-rule="evenodd" d="M238.932 57.3532C238.932 56.8589 239.333 56.4583 239.827 56.4583H249.027C249.521 56.4583 249.922 56.8589 249.922 57.3532C249.922 57.8475 249.521 58.2482 249.027 58.2482H239.827C239.333 58.2482 238.932 57.8475 238.932 57.3532Z" fill="black"/>
<path fill-rule="evenodd" clip-rule="evenodd" d="M189.53 14.7286C189.53 11.7772 191.785 8.43994 195.723 8.43994C197.305 8.43994 198.416 8.97057 199.138 9.53801C199.494 9.81752 199.748 10.0998 199.917 10.3189C200.002 10.4287 200.065 10.5234 200.11 10.5952C200.133 10.6311 200.151 10.6614 200.164 10.6852C200.171 10.6971 200.177 10.7073 200.181 10.7158L200.188 10.7272L200.19 10.7319L200.191 10.734L200.192 10.735C200.192 10.7355 200.192 10.736 199.419 11.1377L200.192 10.736C200.42 11.1746 200.249 11.7149 199.811 11.9428C199.376 12.1691 198.84 12.0026 198.609 11.5713C198.607 11.5682 198.602 11.5597 198.594 11.5464C198.577 11.519 198.546 11.472 198.499 11.4117C198.406 11.2907 198.254 11.1196 198.032 10.9456C197.6 10.6062 196.873 10.2299 195.723 10.2299C192.978 10.2299 191.319 12.5488 191.319 14.7286C191.319 17.1976 192.916 19.4779 195.723 19.4779C196.951 19.4779 197.7 19.1554 198.12 18.8824C198.335 18.7432 198.475 18.6096 198.555 18.5216C198.595 18.4775 198.62 18.4447 198.632 18.4284C198.636 18.4239 198.638 18.4207 198.639 18.4189C198.639 18.4189 198.639 18.4189 198.639 18.4189C198.897 18.0067 199.438 17.8745 199.857 18.1247C200.281 18.378 200.42 18.9274 200.167 19.3518L199.398 18.8932C200.167 19.3518 200.166 19.3524 200.166 19.3529L200.165 19.354L200.164 19.3563L200.161 19.3613L200.154 19.373C200.15 19.3795 200.145 19.3868 200.14 19.3949C200.138 19.3974 200.136 19.4 200.135 19.4026C200.12 19.4251 200.101 19.4529 200.077 19.4852C200.03 19.5498 199.964 19.6326 199.878 19.7272C199.705 19.9166 199.45 20.153 199.095 20.3837C198.376 20.8505 197.287 21.2679 195.723 21.2679C191.656 21.2679 189.53 17.8919 189.53 14.7286Z" fill="black"/>
<path fill-rule="evenodd" clip-rule="evenodd" d="M189.53 39.1793C189.53 36.2279 191.785 32.8906 195.723 32.8906C197.305 32.8906 198.416 33.4213 199.138 33.9887C199.494 34.2682 199.748 34.5505 199.917 34.7696C200.002 34.8793 200.065 34.974 200.11 35.0458C200.133 35.0818 200.151 35.1121 200.164 35.1359C200.171 35.1477 200.177 35.158 200.181 35.1665L200.188 35.1779L200.19 35.1826L200.191 35.1847L200.192 35.1857C200.192 35.1862 200.192 35.1866 199.419 35.5883L200.192 35.1867C200.42 35.6252 200.249 36.1656 199.811 36.3935C199.376 36.6198 198.84 36.4532 198.609 36.0219C198.607 36.0189 198.602 36.0103 198.594 35.9971C198.577 35.9697 198.546 35.9227 198.499 35.8624C198.406 35.7414 198.254 35.5702 198.032 35.3963C197.6 35.0568 196.873 34.6806 195.723 34.6806C192.978 34.6806 191.319 36.9995 191.319 39.1793C191.319 41.6483 192.916 43.9286 195.723 43.9286C196.951 43.9286 197.7 43.6061 198.12 43.3331C198.335 43.1939 198.475 43.0603 198.555 42.9723C198.595 42.9282 198.62 42.8954 198.632 42.8791C198.636 42.8747 198.638 42.8715 198.639 42.8696M199.398 43.3439C200.167 43.8026 200.166 43.8031 200.166 43.8036L200.165 43.8047L200.164 43.807L200.161 43.812L200.154 43.8237C200.148 43.8322 200.142 43.8421 200.135 43.8534C200.12 43.8758 200.101 43.9036 200.077 43.9359C200.03 44.0005 199.964 44.0833 199.878 44.1779C199.705 44.3673 199.45 44.6037 199.095 44.8344C198.376 45.3012 197.287 45.7186 195.723 45.7186C191.656 45.7186 189.53 42.3426 189.53 39.1793M198.639 42.8696C198.897 42.4574 199.438 42.3252 199.857 42.5754C200.281 42.8287 200.42 43.3781 200.167 43.8026L199.398 43.3439" fill="black"/>
<path fill-rule="evenodd" clip-rule="evenodd" d="M214.183 63.7731C214.183 60.8217 216.439 57.4844 220.376 57.4844C221.959 57.4844 223.069 58.015 223.792 58.5825C224.147 58.862 224.402 59.1443 224.57 59.3634C224.655 59.4731 224.719 59.5678 224.764 59.6396C224.787 59.6756 224.804 59.7059 224.818 59.7296C224.825 59.7415 224.83 59.7518 224.835 59.7603L224.841 59.7717L224.844 59.7764L224.845 59.7785L224.845 59.7795C224.846 59.78 224.846 59.7804 224.052 60.1932L224.846 59.7804C225.074 60.219 224.903 60.7594 224.464 60.9873C224.029 61.2135 223.494 61.047 223.263 60.6157C223.261 60.6127 223.256 60.6041 223.248 60.5909C223.231 60.5635 223.199 60.5165 223.153 60.4562C223.06 60.3352 222.907 60.164 222.686 59.9901C222.254 59.6506 221.527 59.2743 220.376 59.2743C217.631 59.2743 215.973 61.5933 215.973 63.7731C215.973 66.2421 217.569 68.5224 220.376 68.5224C221.605 68.5224 222.353 68.1999 222.774 67.9268C222.988 67.7876 223.128 67.6541 223.209 67.566C223.249 67.5219 223.274 67.4891 223.286 67.4728C223.289 67.4684 223.291 67.4652 223.293 67.4633C223.55 67.0512 224.091 66.919 224.51 67.1691C224.935 67.4224 225.073 67.9719 224.82 68.3963L224.052 67.9377C224.82 68.3963 224.82 68.3968 224.82 68.3974L224.819 68.3985L224.818 68.4008L224.814 68.4058L224.807 68.4175C224.802 68.426 224.796 68.4359 224.788 68.4471C224.773 68.4696 224.754 68.4974 224.731 68.5297C224.683 68.5943 224.618 68.6771 224.532 68.7717C224.359 68.9611 224.104 69.1975 223.748 69.4282C223.029 69.895 221.94 70.3123 220.376 70.3123C216.31 70.3123 214.183 66.9364 214.183 63.7731Z" fill="black"/>
<path fill-rule="evenodd" clip-rule="evenodd" d="M199.386 63.4629C199.88 63.4629 200.281 63.8636 200.281 64.3579V69.31C200.281 69.8043 199.88 70.205 199.386 70.205C198.892 70.205 198.491 69.8043 198.491 69.31V64.3579C198.491 63.8636 198.892 63.4629 199.386 63.4629Z" fill="black"/>
<path fill-rule="evenodd" clip-rule="evenodd" d="M195.654 57.4606C197.14 57.4614 198.181 57.9991 198.852 58.5678C199.182 58.8475 199.417 59.1291 199.571 59.3461C199.649 59.4549 199.708 59.5487 199.749 59.6196C199.769 59.6551 199.786 59.685 199.798 59.7084C199.804 59.7201 199.809 59.7302 199.813 59.7385L199.819 59.7497L199.821 59.7543L199.822 59.7564L199.823 59.7573C199.823 59.7578 199.823 59.7582 199.016 60.1455L199.823 59.7582C200.037 60.2038 199.849 60.7385 199.404 60.9524C198.961 61.1647 198.431 60.9811 198.214 60.5423C198.212 60.5393 198.208 60.5308 198.2 60.5176C198.185 60.4906 198.156 60.4446 198.114 60.3856C198.03 60.267 197.893 60.1011 197.695 59.9333C197.31 59.6075 196.67 59.2506 195.651 59.2506H195.645V59.2505C193.016 59.231 191.319 61.3882 191.319 63.6777C191.319 65.0934 191.687 66.3 192.373 67.1352C193.039 67.9444 194.079 68.4986 195.651 68.4986C196.49 68.4986 197.033 68.2686 197.4 67.9797C197.779 67.6819 198.039 67.2681 198.213 66.8049C198.388 66.3403 198.463 65.8612 198.493 65.4876C198.507 65.3035 198.51 65.1516 198.509 65.0487C198.509 65.0159 198.508 64.9883 198.508 64.9665H195.842C195.348 64.9665 194.947 64.5658 194.947 64.0715C194.947 63.5772 195.348 63.1765 195.842 63.1765H199.398C199.892 63.1765 200.293 63.5772 200.293 64.0715V64.8212C200.294 64.8324 200.294 64.8459 200.295 64.8615C200.297 64.9042 200.298 64.9632 200.299 65.0363C200.3 65.182 200.296 65.3853 200.277 65.6274C200.24 66.1063 200.141 66.7638 199.888 67.4358C199.634 68.1092 199.212 68.832 198.507 69.3867C197.79 69.9503 196.846 70.2885 195.651 70.2885C193.608 70.2885 192.035 69.5421 190.991 68.2719C189.968 67.0278 189.53 65.3765 189.53 63.6777C189.53 60.5743 191.865 57.4343 195.654 57.4606ZM198.505 64.9097L198.505 64.9081L198.505 64.909L198.505 64.9097Z" fill="black"/>
<path fill-rule="evenodd" clip-rule="evenodd" d="M248.908 86.9468C249.402 86.9468 249.803 87.3475 249.803 87.8417V92.794C249.803 93.2882 249.402 93.6889 248.908 93.6889C248.414 93.6889 248.013 93.2882 248.013 92.794V87.8417C248.013 87.3475 248.414 86.9468 248.908 86.9468Z" fill="black"/>
<path fill-rule="evenodd" clip-rule="evenodd" d="M245.176 80.9445C246.662 80.9453 247.703 81.483 248.374 82.0517C248.704 82.3314 248.938 82.613 249.093 82.83C249.171 82.9388 249.229 83.0326 249.27 83.1035C249.291 83.139 249.307 83.1689 249.32 83.1923C249.326 83.204 249.331 83.2141 249.335 83.2224L249.341 83.2336L249.343 83.2382L249.344 83.2403C249.344 83.2407 249.345 83.2421 248.538 83.6294L249.345 83.2421C249.559 83.6878 249.371 84.2224 248.925 84.4363C248.483 84.6486 247.953 84.465 247.736 84.0262C247.736 84.0261 247.736 84.0262 247.736 84.0262M248.029 88.4503C248.03 88.4722 248.031 88.4998 248.031 88.5326C248.031 88.6355 248.029 88.7874 248.014 88.9715C247.985 89.3451 247.91 89.8242 247.735 90.2888C247.56 90.752 247.3 91.1658 246.922 91.4636C246.554 91.7525 246.012 91.9825 245.173 91.9825C243.6 91.9825 242.56 91.4283 241.895 90.6191C241.208 89.7839 240.841 88.5773 240.841 87.1616C240.841 84.8722 242.538 82.7149 245.166 82.7344L245.173 82.7344C246.191 82.7344 246.832 83.0914 247.217 83.4172C247.414 83.5849 247.551 83.7509 247.636 83.8695C247.678 83.9284 247.706 83.9745 247.722 84.0015C247.73 84.0147 247.734 84.0232 247.736 84.0262M249.815 88.3051V87.5554C249.815 87.0611 249.414 86.6604 248.92 86.6604H245.364C244.87 86.6604 244.469 87.0611 244.469 87.5554C244.469 88.0497 244.87 88.4503 245.364 88.4503H248.029M249.815 88.3051C249.815 88.3163 249.816 88.3297 249.817 88.3454C249.818 88.3881 249.82 88.4471 249.821 88.5202C249.822 88.6659 249.818 88.8692 249.799 89.1113C249.761 89.5902 249.663 90.2477 249.41 90.9197C249.156 91.5931 248.734 92.3159 248.028 92.8706C247.312 93.4342 246.368 93.7724 245.173 93.7724C243.13 93.7724 241.557 93.026 240.512 91.7558C239.49 90.5117 239.051 88.8604 239.051 87.1616C239.051 84.0582 241.386 80.9182 245.176 80.9445" fill="black"/>
<path fill-rule="evenodd" clip-rule="evenodd" d="M174.387 38.9285C174.881 38.9285 175.282 39.3292 175.282 39.8234V44.7756C175.282 45.2699 174.881 45.6706 174.387 45.6706C173.892 45.6706 173.492 45.2699 173.492 44.7756V39.8234C173.492 39.3292 173.892 38.9285 174.387 38.9285Z" fill="black"/>
<path fill-rule="evenodd" clip-rule="evenodd" d="M170.655 32.9262C172.141 32.927 173.181 33.4647 173.852 34.0334C174.183 34.3131 174.417 34.5947 174.572 34.8117C174.649 34.9205 174.708 35.0143 174.749 35.0852C174.77 35.1207 174.786 35.1506 174.798 35.174C174.804 35.1857 174.81 35.1957 174.814 35.2041L174.819 35.2153L174.822 35.2199L174.823 35.2219C174.823 35.2224 174.823 35.2238 174.017 35.6111L174.823 35.2238C175.037 35.6694 174.849 36.2041 174.404 36.4179C173.961 36.6303 173.431 36.4466 173.214 36.0079M173.211 36.0001L173.211 36.0017L173.213 36.0043L173.214 36.0079C173.213 36.0048 173.208 35.9964 173.201 35.9832C173.185 35.9562 173.157 35.9101 173.115 35.8512C173.03 35.7326 172.893 35.5666 172.695 35.3989C172.311 35.073 171.67 34.7161 170.652 34.7161H170.645C168.017 34.6966 166.32 36.8538 166.32 39.1433C166.32 40.5589 166.687 41.7656 167.374 42.6008C168.039 43.41 169.079 43.9642 170.652 43.9642C171.491 43.9642 172.033 43.7341 172.4 43.4453C172.779 43.1475 173.039 42.7337 173.213 42.2705C173.388 41.8059 173.464 41.3268 173.493 40.9532C173.507 40.7691 173.51 40.6172 173.509 40.5143C173.509 40.4815 173.509 40.4539 173.508 40.432H174.398V40.3127H175.293V40.2867C175.294 40.298 175.295 40.3114 175.295 40.3271C175.297 40.3698 175.299 40.4288 175.299 40.5018C175.3 40.6476 175.296 40.8508 175.277 41.0929C175.24 41.5719 175.142 42.2294 174.888 42.9014C174.635 43.5748 174.212 44.2976 173.507 44.8523C172.79 45.4158 171.847 45.7541 170.652 45.7541C168.608 45.7541 167.035 45.0076 165.991 43.7375C164.968 42.4933 164.53 40.8421 164.53 39.1433C164.53 36.0399 166.865 32.8999 170.655 32.9262M173.506 40.376L173.507 40.4004C173.507 40.4091 173.508 40.4196 173.508 40.432H170.842C170.348 40.432 169.947 40.0313 169.947 39.5371C169.947 39.0428 170.348 38.6421 170.842 38.6421H174.398C174.893 38.6421 175.293 39.0428 175.293 39.5371V40.2867C175.293 40.2826 175.293 40.2788 175.293 40.2753L175.292 40.259L175.291 40.2534L175.291 40.2512C175.291 40.2508 175.291 40.2494 174.398 40.3127V39.5371H173.504V40.3127C173.504 40.3336 173.504 40.3551 173.506 40.376Z" fill="black"/>
<path fill-rule="evenodd" clip-rule="evenodd" d="M214.183 88.4266C214.183 85.4752 216.439 82.1379 220.376 82.1379C221.959 82.1379 223.069 82.6686 223.792 83.236C224.147 83.5155 224.402 83.7978 224.57 84.0169C224.655 84.1267 224.719 84.2214 224.764 84.2932C224.787 84.3291 224.804 84.3595 224.818 84.3832C224.825 84.3951 224.83 84.4053 224.835 84.4138L224.841 84.4253L224.844 84.43L224.845 84.4321L224.845 84.4331C224.846 84.4335 224.846 84.434 224.052 84.8467L224.846 84.434C225.074 84.8726 224.903 85.4129 224.464 85.6409C224.029 85.8671 223.494 85.7006 223.263 85.2693C223.261 85.2662 223.256 85.2577 223.248 85.2444C223.231 85.217 223.199 85.17 223.153 85.1097C223.06 84.9887 222.907 84.8176 222.686 84.6436C222.254 84.3042 221.527 83.9279 220.376 83.9279C217.631 83.9279 215.973 86.2468 215.973 88.4266C215.973 90.8957 217.569 93.1759 220.376 93.1759C221.605 93.1759 222.353 92.8534 222.774 92.5804C222.988 92.4412 223.128 92.3077 223.209 92.2196C223.249 92.1755 223.274 92.1427 223.286 92.1264C223.289 92.122 223.291 92.1188 223.293 92.1169C223.55 91.7048 224.091 91.5726 224.51 91.8227C224.935 92.076 225.073 92.6254 224.82 93.0499L224.052 92.5912C224.82 93.0499 224.82 93.0504 224.82 93.0509L224.819 93.052L224.818 93.0543L224.814 93.0593L224.807 93.071C224.802 93.0795 224.796 93.0894 224.788 93.1007C224.773 93.1231 224.754 93.1509 224.731 93.1832C224.683 93.2478 224.618 93.3307 224.532 93.4253C224.359 93.6146 224.104 93.851 223.748 94.0817C223.029 94.5485 221.94 94.9659 220.376 94.9659C216.31 94.9659 214.183 91.59 214.183 88.4266Z" fill="black"/>
<path fill-rule="evenodd" clip-rule="evenodd" d="M189.53 88.3907C189.53 85.4394 191.785 82.1021 195.723 82.1021C197.305 82.1021 198.416 82.6327 199.138 83.2001C199.494 83.4797 199.748 83.762 199.917 83.9811C200.002 84.0908 200.065 84.1855 200.11 84.2573C200.133 84.2932 200.151 84.3236 200.164 84.3473C200.171 84.3592 200.177 84.3695 200.181 84.378L200.188 84.3894L200.19 84.3941L200.191 84.3962L200.192 84.3972C200.192 84.3977 200.192 84.3981 199.419 84.7998L200.192 84.3981C200.42 84.8367 200.249 85.377 199.811 85.605C199.376 85.8312 198.84 85.6647 198.609 85.2334C198.607 85.2301 198.606 85.2269 198.604 85.2236L199.398 84.8109C198.604 85.2236 198.604 85.224 198.604 85.2245L198.605 85.2253L198.606 85.227L198.607 85.2297L198.609 85.2333C198.61 85.235 198.61 85.2351 198.609 85.2337C198.609 85.2336 198.609 85.2335 198.609 85.2334C198.607 85.2303 198.602 85.2218 198.594 85.2085C198.577 85.1811 198.546 85.1341 198.499 85.0738C198.406 84.9528 198.254 84.7817 198.032 84.6077C197.6 84.2683 196.873 83.892 195.723 83.892C192.978 83.892 191.319 86.211 191.319 88.3907C191.319 90.8598 192.916 93.14 195.723 93.14C196.951 93.14 197.7 92.8175 198.12 92.5445C198.335 92.4053 198.475 92.2718 198.555 92.1837C198.595 92.1396 198.62 92.1068 198.632 92.0905C198.636 92.0861 198.638 92.0829 198.639 92.081M199.398 92.5553C200.167 93.014 200.166 93.0145 200.166 93.015L200.165 93.0161L200.164 93.0184L200.161 93.0235L200.154 93.0351C200.148 93.0436 200.142 93.0535 200.135 93.0648C200.12 93.0873 200.101 93.115 200.077 93.1473C200.03 93.2119 199.964 93.2948 199.878 93.3894C199.705 93.5787 199.45 93.8151 199.095 94.0458C198.376 94.5127 197.287 94.93 195.723 94.93C191.656 94.93 189.53 91.5541 189.53 88.3907M198.639 92.081C198.897 91.6689 199.438 91.5367 199.857 91.7868C200.281 92.0401 200.42 92.5895 200.167 93.014L199.398 92.5553" fill="black"/>
<path d="M109.626 52.007C117.299 51.5416 144.602 51.9712 144.602 51.9712L143.671 50.8614C143.671 50.8614 116.034 50.2767 109.292 50.9569C108.898 50.9927 108.755 52.0547 109.626 52.007Z" fill="black"/>
<path fill-rule="evenodd" clip-rule="evenodd" d="M143.677 50.5632C143.677 50.5632 143.677 50.5632 143.671 50.8614L143.677 50.5632C143.763 50.565 143.844 50.6038 143.9 50.6697L144.83 51.7795C144.905 51.869 144.921 51.994 144.871 52.0994C144.821 52.2049 144.714 52.2713 144.597 52.2695L144.602 51.9712C144.597 52.2695 144.597 52.2695 144.597 52.2695L144.289 52.2648C144.087 52.2617 143.79 52.2574 143.409 52.2519C142.648 52.2411 141.552 52.2261 140.212 52.2096C137.533 52.1766 133.881 52.1375 129.99 52.1129C122.201 52.0636 113.469 52.0728 109.644 52.3048L109.643 52.3049C109.363 52.3202 109.125 52.2467 108.951 52.089C108.781 51.9346 108.705 51.7291 108.688 51.5401C108.671 51.3532 108.709 51.1602 108.792 51.0028C108.873 50.8517 109.027 50.6822 109.263 50.66C112.655 50.3179 121.269 50.2947 129.012 50.3558C132.889 50.3864 136.556 50.4382 139.252 50.4824C140.601 50.5045 141.707 50.5247 142.476 50.5394C142.861 50.5467 143.161 50.5527 143.365 50.5568L143.677 50.5632ZM143.954 51.6631L143.529 51.1569L143.353 51.1533C143.149 51.1492 142.849 51.1432 142.465 51.1359C141.696 51.1213 140.59 51.1011 139.243 51.079C136.547 51.0348 132.882 50.983 129.008 50.9524C121.261 50.8913 112.702 50.9156 109.339 51.252C109.335 51.2574 109.328 51.2669 109.319 51.2828C109.292 51.333 109.275 51.4093 109.282 51.4864C109.289 51.5615 109.316 51.6148 109.352 51.6472C109.384 51.6762 109.454 51.7175 109.609 51.7092C113.458 51.4758 122.213 51.4671 129.993 51.5163C133.886 51.5409 137.54 51.58 140.22 51.613C141.56 51.6295 142.656 51.6445 143.418 51.6554C143.621 51.6582 143.8 51.6608 143.954 51.6631Z" fill="black"/>
<path d="M142.132 47.8665L142.991 51.4105L142.323 54.7637L148.337 51.1242L142.132 47.8665Z" fill="black"/>
<path fill-rule="evenodd" clip-rule="evenodd" d="M141.765 47.396C141.949 47.2519 142.202 47.2292 142.409 47.3382L148.614 50.5959C148.805 50.6959 148.927 50.8909 148.933 51.106C148.94 51.3212 148.83 51.5232 148.646 51.6346L142.632 55.2741C142.429 55.3966 142.174 55.388 141.98 55.2522C141.786 55.1164 141.691 54.879 141.737 54.6471L142.38 51.4231L141.552 48.007C141.497 47.7792 141.58 47.5402 141.765 47.396ZM143.022 49.0079L143.571 51.2699C143.591 51.3543 143.593 51.442 143.576 51.5271L143.172 53.552L147.124 51.161L143.022 49.0079Z" fill="black"/>
<path fill-rule="evenodd" clip-rule="evenodd" d="M0.75 1.82905C0.75 1.33477 1.15069 0.934082 1.64497 0.934082H100.927C101.422 0.934082 101.822 1.33477 101.822 1.82905V100.789C101.822 101.283 101.422 101.684 100.927 101.684H1.64497C1.15069 101.684 0.75 101.283 0.75 100.789V1.82905ZM2.53994 2.72403V99.8941H100.032V2.72403H2.53994Z" fill="black"/>
<path opacity="0.902" fill-rule="evenodd" clip-rule="evenodd" d="M26.382 1.17261C26.8763 1.17261 27.277 1.5733 27.277 2.06758V100.061C27.277 100.555 26.8763 100.956 26.382 100.956C25.8878 100.956 25.4871 100.555 25.4871 100.061V2.06758C25.4871 1.5733 25.8878 1.17261 26.382 1.17261Z" fill="black"/>
<path opacity="0.902" fill-rule="evenodd" clip-rule="evenodd" d="M51.0833 1.42334C51.5776 1.42334 51.9783 1.82403 51.9783 2.31831V100.312C51.9783 100.806 51.5776 101.207 51.0833 101.207C50.589 101.207 50.1884 100.806 50.1884 100.312V2.31831C50.1884 1.82403 50.589 1.42334 51.0833 1.42334Z" fill="black"/>
<path opacity="0.902" fill-rule="evenodd" clip-rule="evenodd" d="M75.7845 1.9126C76.2788 1.9126 76.6795 2.31329 76.6795 2.80757V100.789C76.6795 101.283 76.2788 101.684 75.7845 101.684C75.2902 101.684 74.8895 101.283 74.8895 100.789V2.80757C74.8895 2.31329 75.2902 1.9126 75.7845 1.9126Z" fill="black"/>
<path opacity="0.902" fill-rule="evenodd" clip-rule="evenodd" d="M1.56152 26.7331C1.56152 26.2388 1.96222 25.8381 2.4565 25.8381H100.438C100.932 25.8381 101.333 26.2388 101.333 26.7331C101.333 27.2274 100.932 27.6281 100.438 27.6281H2.4565C1.96222 27.6281 1.56152 27.2274 1.56152 26.7331Z" fill="black"/>
<path opacity="0.902" fill-rule="evenodd" clip-rule="evenodd" d="M1.31079 51.4345C1.31079 50.9402 1.71148 50.5396 2.20576 50.5396H100.187C100.682 50.5396 101.082 50.9402 101.082 51.4345C101.082 51.9288 100.682 52.3295 100.187 52.3295H2.20576C1.71148 52.3295 1.31079 51.9288 1.31079 51.4345Z" fill="black"/>
<path opacity="0.902" fill-rule="evenodd" clip-rule="evenodd" d="M0.821655 76.1357C0.821655 75.6414 1.22235 75.2407 1.71663 75.2407H99.7101C100.204 75.2407 100.605 75.6414 100.605 76.1357C100.605 76.63 100.204 77.0307 99.7101 77.0307H1.71663C1.22235 77.0307 0.821655 76.63 0.821655 76.1357Z" fill="black"/>
<path fill-rule="evenodd" clip-rule="evenodd" d="M14.5447 7.87705C14.8771 8.0165 15.0935 8.34183 15.0935 8.70237V19.7404C15.0935 20.2346 14.6928 20.6353 14.1985 20.6353C13.7042 20.6353 13.3035 20.2346 13.3035 19.7404V10.8362L10.7565 13.3383C10.4039 13.6847 9.8373 13.6797 9.49091 13.3271C9.14452 12.9745 9.14955 12.4078 9.50215 12.0614L13.5713 8.06393C13.8285 7.81127 14.2122 7.7376 14.5447 7.87705Z" fill="black"/>
<path fill-rule="evenodd" clip-rule="evenodd" d="M14.5453 57.4352C14.8774 57.5748 15.0935 57.8999 15.0935 58.2602V69.2982C15.0935 69.7925 14.6928 70.1932 14.1985 70.1932C13.7042 70.1932 13.3035 69.7925 13.3035 69.2982V60.3896L10.7556 62.8852C10.4025 63.2311 9.83584 63.2252 9.48998 62.8721C9.14411 62.519 9.14999 61.9523 9.5031 61.6065L13.5722 57.6209C13.8296 57.3688 14.2131 57.2956 14.5453 57.4352Z" fill="black"/>
<path fill-rule="evenodd" clip-rule="evenodd" d="M14.5453 82.3868C14.8774 82.5264 15.0935 82.8516 15.0935 83.2119V94.2499C15.0935 94.7442 14.6928 95.1449 14.1985 95.1449C13.7042 95.1449 13.3035 94.7442 13.3035 94.2499V85.3412L10.7556 87.8369C10.4025 88.1827 9.83584 88.1769 9.48998 87.8237C9.14411 87.4706 9.14999 86.904 9.5031 86.5581L13.5722 82.5725C13.8296 82.3204 14.2131 82.2472 14.5453 82.3868Z" fill="black"/>
<path fill-rule="evenodd" clip-rule="evenodd" d="M39.4129 57.4349C39.7453 57.5744 39.9617 57.8997 39.9617 58.2602V69.2982C39.9617 69.7925 39.561 70.1932 39.0667 70.1932C38.5724 70.1932 38.1717 69.7925 38.1717 69.2982V60.394L35.6367 62.8843C35.2841 63.2307 34.7174 63.2256 34.371 62.873C34.0246 62.5204 34.0297 61.9538 34.3823 61.6074L38.4395 57.6218C38.6967 57.3691 39.0804 57.2955 39.4129 57.4349Z" fill="black"/>
<path fill-rule="evenodd" clip-rule="evenodd" d="M64.2812 7.87705C64.6137 8.0165 64.83 8.34183 64.83 8.70237V19.7404C64.83 20.2346 64.4293 20.6353 63.9351 20.6353C63.4408 20.6353 63.0401 20.2346 63.0401 19.7404V10.8362L60.4931 13.3383C60.1405 13.6847 59.5739 13.6797 59.2275 13.3271C58.8811 12.9745 58.8861 12.4078 59.2387 12.0614L63.3079 8.06393C63.5651 7.81127 63.9487 7.7376 64.2812 7.87705Z" fill="black"/>
<path fill-rule="evenodd" clip-rule="evenodd" d="M64.2812 32.6976C64.6137 32.8371 64.83 33.1624 64.83 33.5229V44.5729C64.83 45.0671 64.4293 45.4678 63.9351 45.4678C63.4408 45.4678 63.0401 45.0671 63.0401 44.5729V35.6567L60.4931 38.1589C60.1405 38.5053 59.5739 38.5003 59.2275 38.1477C58.8811 37.7951 58.8861 37.2284 59.2387 36.882L63.3079 32.8845C63.5651 32.6318 63.9487 32.5582 64.2812 32.6976Z" fill="black"/>
<path fill-rule="evenodd" clip-rule="evenodd" d="M89.1972 7.87705C89.5297 8.0165 89.7461 8.34183 89.7461 8.70237V19.7404C89.7461 20.2346 89.3454 20.6353 88.8511 20.6353C88.3568 20.6353 87.9561 20.2346 87.9561 19.7404V10.8362L85.4091 13.3383C85.0565 13.6847 84.4899 13.6797 84.1435 13.3271C83.7971 12.9745 83.8021 12.4078 84.1547 12.0614L88.2239 8.06393C88.4811 7.81127 88.8648 7.7376 89.1972 7.87705Z" fill="black"/>
<path fill-rule="evenodd" clip-rule="evenodd" d="M89.1972 57.4229C89.5297 57.5624 89.7461 57.8877 89.7461 58.2483V69.2863C89.7461 69.7805 89.3454 70.1812 88.8511 70.1812C88.3568 70.1812 87.9561 69.7805 87.9561 69.2863V60.3821L85.4091 62.8843C85.0565 63.2306 84.4899 63.2256 84.1435 62.873C83.7971 62.5204 83.8021 61.9538 84.1547 61.6074L88.2239 57.6098C88.4811 57.3572 88.8648 57.2835 89.1972 57.4229Z" fill="black"/>
<path fill-rule="evenodd" clip-rule="evenodd" d="M89.1979 82.3749C89.53 82.5145 89.7461 82.8396 89.7461 83.1999V94.2379C89.7461 94.7322 89.3454 95.1329 88.8511 95.1329C88.3568 95.1329 87.9561 94.7322 87.9561 94.2379V85.3293L85.4082 87.8249C85.0551 88.1708 84.4884 88.1649 84.1426 87.8118C83.7967 87.4587 83.8026 86.892 84.1557 86.5462L88.2248 82.5606C88.4822 82.3084 88.8657 82.2353 89.1979 82.3749Z" fill="black"/>
<path fill-rule="evenodd" clip-rule="evenodd" d="M89.1979 82.3868C89.53 82.5264 89.7461 82.8516 89.7461 83.2119V94.2499C89.7461 94.7442 89.3454 95.1449 88.8511 95.1449C88.3568 95.1449 87.9561 94.7442 87.9561 94.2499V85.3412L85.4082 87.8369C85.0551 88.1827 84.4884 88.1769 84.1426 87.8237C83.7967 87.4706 83.8026 86.904 84.1557 86.5581L88.2248 82.5725C88.4822 82.3204 88.8657 82.2472 89.1979 82.3868Z" fill="black"/>
<path fill-rule="evenodd" clip-rule="evenodd" d="M37.156 10.5916C36.6417 11.2937 36.2625 12.424 36.2625 14.0364C36.2625 15.6928 36.6336 16.9317 37.1616 17.7267C37.6791 18.5059 38.3274 18.8454 38.9951 18.8454C39.6065 18.8454 40.1965 18.5391 40.6735 17.781C41.1651 16.9997 41.513 15.7568 41.513 14.0364C41.513 12.461 41.1647 11.3183 40.6798 10.5986C40.2081 9.89856 39.616 9.59732 38.9951 9.59732C38.3033 9.59732 37.657 9.90772 37.156 10.5916ZM35.712 9.53381C36.5267 8.42177 37.6942 7.80737 38.9951 7.80737C40.2954 7.80737 41.4098 8.47867 42.1642 9.59842C42.9054 10.6985 43.3029 12.2228 43.3029 14.0364C43.3029 15.9674 42.917 17.5765 42.1884 18.7343C41.4453 19.9154 40.3289 20.6353 38.9951 20.6353C37.6223 20.6353 36.4568 19.9008 35.6706 18.717C34.8949 17.5491 34.4725 15.9359 34.4725 14.0364C34.4725 12.1643 34.9108 10.6276 35.712 9.53381Z" fill="black"/>
<path fill-rule="evenodd" clip-rule="evenodd" d="M36.2505 14.0379C36.2507 15.6936 36.6218 16.9319 37.1497 17.7267C37.6671 18.5059 38.3154 18.8454 38.9832 18.8454C39.5945 18.8454 40.1845 18.5391 40.6615 17.781C41.1531 16.9997 41.501 15.7568 41.501 14.0364C41.501 12.461 41.1527 11.3183 40.6678 10.5986C40.1962 9.89856 39.6041 9.59732 38.9832 9.59732C38.2921 9.59732 37.6489 9.907 37.1491 10.5908C36.6356 11.2934 36.2563 12.4244 36.2505 14.0379ZM35.704 9.5346C36.5168 8.4225 37.6814 7.80737 38.9832 7.80737C40.2835 7.80737 41.3978 8.47867 42.1523 9.59842C42.8934 10.6985 43.291 12.2228 43.291 14.0364C43.291 15.9674 42.905 17.5765 42.1765 18.7343C41.4333 19.9154 40.3169 20.6353 38.9832 20.6353C37.6104 20.6353 36.4448 19.9008 35.6586 18.717C34.883 17.5491 34.4606 15.9359 34.4606 14.0364V14.0333L34.4606 14.0333C34.467 12.1632 34.905 10.6277 35.704 9.5346Z" fill="black"/>
<path fill-rule="evenodd" clip-rule="evenodd" d="M37.156 35.5674C36.6417 36.2695 36.2625 37.3998 36.2625 39.0122C36.2625 40.6687 36.6336 41.9075 37.1616 42.7026C37.6791 43.4817 38.3274 43.8212 38.9951 43.8212C39.6065 43.8212 40.1965 43.5149 40.6735 42.7569C41.1651 41.9756 41.513 40.7327 41.513 39.0122C41.513 37.4368 41.1647 36.2942 40.6798 35.5744C40.2081 34.8744 39.616 34.5731 38.9951 34.5731C38.3033 34.5731 37.657 34.8836 37.156 35.5674ZM35.712 34.5096C36.5267 33.3976 37.6942 32.7832 38.9951 32.7832C40.2954 32.7832 41.4098 33.4545 42.1642 34.5742C42.9054 35.6743 43.3029 37.1986 43.3029 39.0122C43.3029 40.9432 42.917 42.5523 42.1884 43.7101C41.4453 44.8912 40.3289 45.6111 38.9951 45.6111C37.6223 45.6111 36.4568 44.8767 35.6706 43.6928C34.8949 42.5249 34.4725 40.9118 34.4725 39.0122C34.4725 37.1402 34.9108 35.6035 35.712 34.5096Z" fill="black"/>
<path fill-rule="evenodd" clip-rule="evenodd" d="M36.2505 38.8587C36.2507 40.5144 36.6218 41.7527 37.1497 42.5475C37.6671 43.3267 38.3154 43.6662 38.9832 43.6662C39.5945 43.6662 40.1845 43.3599 40.6615 42.6018C41.1531 41.8206 41.501 40.5776 41.501 38.8572C41.501 37.2818 41.1527 36.1391 40.6678 35.4194C40.1962 34.7194 39.6041 34.4181 38.9832 34.4181C38.2921 34.4181 37.6489 34.7278 37.1491 35.4116C36.6356 36.1142 36.2563 37.2452 36.2505 38.8587ZM35.704 34.3554C36.5168 33.2433 37.6814 32.6282 38.9832 32.6282C40.2835 32.6282 41.3978 33.2995 42.1523 34.4192C42.8934 35.5193 43.291 37.0436 43.291 38.8572C43.291 40.7882 42.905 42.3973 42.1765 43.5551C41.4333 44.7362 40.3169 45.4561 38.9832 45.4561C37.6104 45.4561 36.4448 44.7216 35.6586 43.5378C34.883 42.3699 34.4606 40.7567 34.4606 38.8572V38.8541L34.4606 38.8541C34.467 36.984 34.905 35.4485 35.704 34.3554Z" fill="black"/>
<path fill-rule="evenodd" clip-rule="evenodd" d="M12.3354 35.4124C11.8211 36.1145 11.4419 37.2448 11.4419 38.8572C11.4419 40.5136 11.8131 41.7525 12.3411 42.5475C12.8585 43.3267 13.5068 43.6662 14.1746 43.6662C14.7859 43.6662 15.3759 43.3599 15.8529 42.6018C16.3445 41.8206 16.6924 40.5776 16.6924 38.8572C16.6924 37.2818 16.3442 36.1391 15.8592 35.4194C15.3876 34.7194 14.7955 34.4181 14.1746 34.4181C13.4827 34.4181 12.8364 34.7285 12.3354 35.4124ZM10.8915 34.3546C11.7061 33.2426 12.8736 32.6282 14.1746 32.6282C15.4749 32.6282 16.5892 33.2995 17.3437 34.4192C18.0848 35.5193 18.4824 37.0436 18.4824 38.8572C18.4824 40.7882 18.0964 42.3973 17.3679 43.5551C16.6247 44.7362 15.5083 45.4561 14.1746 45.4561C12.8018 45.4561 11.6362 44.7216 10.85 43.5378C10.0744 42.3699 9.65198 40.7567 9.65198 38.8572C9.65198 36.9851 10.0902 35.4484 10.8915 34.3546Z" fill="black"/>
<path fill-rule="evenodd" clip-rule="evenodd" d="M61.9642 85.0972C61.4505 85.7972 61.0711 86.9269 61.0711 88.5459C61.0711 90.2023 61.4422 91.4412 61.9702 92.2362C62.4877 93.0154 63.136 93.3549 63.8037 93.3549C64.4151 93.3549 65.0051 93.0486 65.482 92.2905C65.9736 91.5092 66.3216 90.2663 66.3216 88.5459C66.3216 86.9705 65.9733 85.8278 65.4884 85.1081C65.0167 84.4081 64.4246 84.1068 63.8037 84.1068C63.1099 84.1068 62.4641 84.4159 61.9642 85.0972ZM60.5211 84.0383C61.3368 82.9266 62.5047 82.3169 63.8037 82.3169C65.104 82.3169 66.2183 82.9882 66.9728 84.1079C67.714 85.208 68.1115 86.7323 68.1115 88.5459C68.1115 90.4769 67.7256 92.086 66.997 93.2438C66.2539 94.4249 65.1375 95.1448 63.8037 95.1448C62.4309 95.1448 61.2654 94.4103 60.4792 93.2265C59.7035 92.0586 59.2811 90.4454 59.2811 88.5459C59.2811 86.6685 59.7191 85.1312 60.5211 84.0383Z" fill="black"/>
<path fill-rule="evenodd" clip-rule="evenodd" d="M61.9646 60.2806C61.4503 60.9827 61.0711 62.113 61.0711 63.7253C61.0711 65.3818 61.4422 66.6206 61.9702 67.4157C62.4877 68.1948 63.136 68.5343 63.8037 68.5343C64.4151 68.5343 65.0051 68.228 65.482 67.47C65.9736 66.6887 66.3216 65.4458 66.3216 63.7253C66.3216 62.15 65.9733 61.0073 65.4884 60.2876C65.0167 59.5875 64.4246 59.2863 63.8037 59.2863C63.1119 59.2863 62.4656 59.5967 61.9646 60.2806ZM60.5206 59.2228C61.3353 58.1107 62.5028 57.4963 63.8037 57.4963C65.104 57.4963 66.2184 58.1676 66.9728 59.2874C67.714 60.3874 68.1115 61.9118 68.1115 63.7253C68.1115 65.6564 67.7256 67.2654 66.997 68.4233C66.2539 69.6043 65.1375 70.3243 63.8037 70.3243C62.4309 70.3243 61.2654 69.5898 60.4792 68.406C59.7035 67.238 59.2811 65.6249 59.2811 63.7253C59.2811 61.8533 59.7193 60.3166 60.5206 59.2228Z" fill="black"/>
<path fill-rule="evenodd" clip-rule="evenodd" d="M85.9395 38.8587C85.9397 40.5144 86.3108 41.7527 86.8387 42.5475C87.3561 43.3267 88.0044 43.6662 88.6721 43.6662C89.2835 43.6662 89.8735 43.3599 90.3505 42.6018C90.8421 41.8206 91.19 40.5776 91.19 38.8572C91.19 37.2818 90.8417 36.1391 90.3568 35.4194C89.8851 34.7194 89.293 34.4181 88.6721 34.4181C87.9811 34.4181 87.3378 34.7278 86.838 35.4116C86.3246 36.1142 85.9452 37.2452 85.9395 38.8587ZM85.3929 34.3554C86.2058 33.2433 87.3704 32.6282 88.6721 32.6282C89.9724 32.6282 91.0868 33.2995 91.8412 34.4192C92.5824 35.5193 92.9799 37.0436 92.9799 38.8572C92.9799 40.7882 92.594 42.3973 91.8654 43.5551C91.1223 44.7362 90.0059 45.4561 88.6721 45.4561C87.2993 45.4561 86.1338 44.7216 85.3476 43.5378C84.5719 42.3699 84.1495 40.7567 84.1495 38.8572V38.8541L84.1495 38.8541C84.1559 36.984 84.594 35.4485 85.3929 34.3554Z" fill="black"/>
<path fill-rule="evenodd" clip-rule="evenodd" d="M36.2505 88.5474C36.2507 90.2031 36.6218 91.4414 37.1497 92.2362C37.6671 93.0154 38.3154 93.3549 38.9832 93.3549C39.5945 93.3549 40.1845 93.0486 40.6615 92.2905C41.1531 91.5092 41.501 90.2663 41.501 88.5459C41.501 86.9705 41.1527 85.8278 40.6678 85.1081C40.1962 84.4081 39.6041 84.1068 38.9832 84.1068C38.2902 84.1068 37.6474 84.4152 37.1487 85.0964C36.6359 85.7968 36.2563 86.9273 36.2505 88.5474ZM35.7044 84.039C36.5183 82.9273 37.6834 82.3169 38.9832 82.3169C40.2835 82.3169 41.3978 82.9882 42.1522 84.1079C42.8934 85.208 43.291 86.7323 43.291 88.5459C43.291 90.4769 42.905 92.086 42.1765 93.2438C41.4333 94.4249 40.3169 95.1448 38.9832 95.1448C37.6103 95.1448 36.4448 94.4103 35.6586 93.2265C34.883 92.0586 34.4606 90.4454 34.4606 88.5459V88.5428H34.4606C34.467 86.6673 34.9047 85.1313 35.7044 84.039Z" fill="black"/>
</svg>
