<svg width="255" height="160" viewBox="0 0 255 160" fill="none" xmlns="http://www.w3.org/2000/svg">
<path fill-rule="evenodd" clip-rule="evenodd" d="M39.4063 131.327C38.5834 132.118 38.3226 133.098 38.462 134.144C38.612 135.269 39.2325 136.474 40.1643 137.502C41.067 138.497 42.2148 139.275 43.3904 139.637C43.8674 138.555 43.9674 137.367 43.5485 136.112C43.5415 136.091 43.5353 136.069 43.5302 136.047C43.3087 135.113 42.6398 133.714 41.756 132.658C41.3165 132.133 40.8576 131.733 40.4175 131.507C40.0449 131.316 39.7131 131.261 39.4063 131.327ZM42.5935 140.951C41.2555 140.462 40.0202 139.576 39.053 138.509C37.9712 137.316 37.1748 135.84 36.9751 134.342C36.7714 132.814 37.1961 131.272 38.5337 130.092C38.6082 130.026 38.695 129.976 38.7891 129.944C39.6097 129.666 40.4093 129.817 41.1021 130.173C41.783 130.522 42.3922 131.081 42.9065 131.696C43.9206 132.908 44.6966 134.496 44.9818 135.668C45.4702 137.155 45.392 138.577 44.9171 139.861C45.6201 139.842 46.3003 139.642 46.9258 139.226C47.0063 139.168 47.1572 139.022 47.386 138.756C47.6068 138.499 47.8569 138.183 48.1319 137.834C48.1558 137.804 48.1798 137.773 48.2041 137.742C48.7218 137.085 49.3249 136.318 49.8798 135.784L49.8799 135.784C50.4477 135.237 51.1681 135.188 51.7612 135.246C52.177 135.286 52.6518 135.396 53.0826 135.496C53.2386 135.532 53.3889 135.567 53.5286 135.597C54.1086 135.72 54.613 135.787 55.0607 135.719C55.475 135.657 55.8653 135.476 56.2288 135.03C56.4907 134.709 56.9631 134.661 57.2841 134.923C57.605 135.185 57.6529 135.658 57.3911 135.978C56.7796 136.728 56.0474 137.087 55.2848 137.202C54.5556 137.312 53.8288 137.194 53.2164 137.064C53.0067 137.02 52.8158 136.975 52.6384 136.934C52.251 136.844 51.928 136.769 51.6156 136.739C51.1869 136.697 51.0173 136.771 50.9201 136.865M42.5935 140.951C41.7466 142.033 40.5151 142.959 39.0951 143.625C37.4558 144.395 35.6183 144.792 33.9361 144.705C33.5175 144.683 33.1118 144.632 32.7229 144.55C33.1857 143.416 33.3161 142.105 32.8745 141.021C32.8709 141.013 32.8672 141.004 32.8632 140.995C32.1932 139.514 31.4275 138.524 30.6235 138.021C30.2136 137.764 29.7703 137.62 29.3208 137.637C28.8636 137.655 28.4571 137.837 28.138 138.134C27.5204 138.708 27.2812 139.643 27.3494 140.613C27.4194 141.609 27.8132 142.75 28.6032 143.891C28.623 143.92 28.6448 143.947 28.6684 143.973C29.1916 144.54 29.7969 144.988 30.4566 145.33C29.9158 145.865 29.271 146.119 28.6198 146.006C26.8164 145.685 25.4598 145.866 24.3289 146.414C23.2252 146.95 22.4122 147.803 21.6538 148.641C21.3759 148.948 21.3996 149.423 21.7068 149.7C22.0139 149.978 22.4882 149.955 22.7661 149.647C23.5277 148.806 24.1697 148.159 24.9835 147.764C25.7697 147.383 26.7927 147.204 28.3585 147.483L28.3612 147.483C29.8711 147.746 31.1241 146.956 31.9442 145.904C32.5628 146.072 33.2066 146.169 33.8584 146.203C35.8159 146.304 37.8978 145.844 39.7323 144.983C41.5316 144.139 43.1441 142.885 44.1699 141.327C45.3844 141.459 46.632 141.227 47.7668 140.468L47.7788 140.46C48.0295 140.285 48.2897 140.005 48.5229 139.734C48.7687 139.449 49.0392 139.107 49.3104 138.762L49.3476 138.715C49.8945 138.02 50.4418 137.325 50.92 136.865M31.2972 144.073C31.6789 143.196 31.7513 142.254 31.4903 141.6C30.8775 140.25 30.2709 139.57 29.8273 139.292C29.6126 139.158 29.4629 139.133 29.3779 139.136C29.3005 139.139 29.2309 139.166 29.1593 139.232C28.9957 139.384 28.7955 139.793 28.8457 140.508C28.8934 141.187 29.168 142.057 29.8066 142.994C30.2304 143.444 30.7333 143.802 31.2972 144.073Z" fill="black"/>
<path fill-rule="evenodd" clip-rule="evenodd" d="M18.8412 137.966C19.1494 138.243 19.1747 138.717 18.8979 139.025C17.2147 140.899 15.8219 143.579 14.7778 146.266C13.7365 148.946 13.0669 151.568 12.8011 153.279C12.7611 153.537 12.5905 153.755 12.3505 153.856C12.1105 153.956 11.8354 153.926 11.6237 153.774L11.6187 153.771L11.5998 153.757C11.5828 153.745 11.5567 153.727 11.5222 153.703C11.4532 153.655 11.3506 153.585 11.2188 153.497C10.955 153.322 10.5754 153.076 10.1156 152.799C9.19166 152.243 7.96236 151.571 6.70785 151.083C6.32185 150.933 6.13076 150.498 6.28103 150.112C6.43131 149.726 6.86604 149.535 7.25203 149.685C8.61751 150.217 9.92822 150.935 10.8893 151.514C11.1228 151.655 11.3367 151.788 11.527 151.909C11.8843 150.177 12.5089 147.964 13.3796 145.723C14.453 142.96 15.9252 140.09 17.7821 138.023C18.0589 137.715 18.5331 137.689 18.8412 137.966Z" fill="black"/>
<path fill-rule="evenodd" clip-rule="evenodd" d="M56.1502 77.2657C56.5581 77.3375 56.8305 77.7265 56.7587 78.1344C56.3675 80.3544 56.274 81.5751 56.7768 83.5491C56.879 83.9505 56.6365 84.3588 56.2351 84.461C55.8337 84.5633 55.4254 84.3208 55.3232 83.9194C54.746 81.6534 54.8726 80.1941 55.2814 77.8741C55.3533 77.4662 55.7423 77.1938 56.1502 77.2657Z" fill="black"/>
<path fill-rule="evenodd" clip-rule="evenodd" d="M84.5141 73.9102C84.7152 73.5481 85.1718 73.4175 85.5339 73.6186C87.7374 74.8422 89.2625 77.1313 90.1734 79.5624C91.0869 82.0007 91.4254 84.6917 91.1644 86.8542C91.1148 87.2654 90.7412 87.5585 90.3299 87.5089C89.9187 87.4593 89.6256 87.0857 89.6752 86.6744C89.9042 84.7769 89.6077 82.3279 88.7687 80.0887C87.9271 77.8423 86.5822 75.9164 84.8057 74.93C84.4436 74.7289 84.313 74.2723 84.5141 73.9102Z" fill="black"/>
<path fill-rule="evenodd" clip-rule="evenodd" d="M94.5549 30.534C97.1527 31.2623 100.156 32.1045 103.812 32.9119C104.216 33.0012 104.472 33.4015 104.382 33.806C104.293 34.2105 103.893 34.4659 103.488 34.3766C99.7876 33.5592 96.7318 32.7023 94.1301 31.9728C93.3967 31.7672 92.6994 31.5716 92.0339 31.39C88.9851 30.5576 86.6404 30.0278 84.4664 30.0716C80.2158 30.1573 76.3988 32.4459 69.2877 40.0466C69.2738 40.0615 69.2592 40.0758 69.2442 40.0895C63.2383 45.5421 47.9297 56.8192 44.0647 59.6582C44.0644 59.6584 44.0642 59.6585 44.064 59.6587L43.62 59.0542L44.0648 59.6581C44.0647 59.6582 44.0647 59.6582 44.0647 59.6582C43.336 60.1948 42.42 60.7449 41.4765 61.2965C41.2825 61.41 41.0871 61.5236 40.8912 61.6376C40.1213 62.0852 39.3427 62.538 38.6044 63.0045C37.6774 63.5903 36.8508 64.1753 36.2254 64.7611C35.5964 65.3504 35.2444 65.8732 35.1346 66.3269C35.1358 66.3204 35.137 66.3139 35.1381 66.3074L34.4001 66.1742L35.1309 66.3427C35.1321 66.3374 35.1333 66.3322 35.1346 66.3269C34.4657 70.039 33.8837 74.7463 33.2738 79.6805C33.1736 80.4906 33.0727 81.3069 32.9705 82.1258C32.2473 87.923 31.4612 93.8501 30.4332 98.6125C30.4307 98.624 30.4279 98.6354 30.4249 98.6468C29.77 101.113 29.2039 103.726 28.933 106.1C28.6595 108.498 28.6992 110.557 29.18 111.969C29.4163 112.662 29.743 113.152 30.1454 113.463C30.5378 113.766 31.0656 113.95 31.8075 113.923C33.3284 113.868 35.636 112.931 38.9875 110.529C38.9602 110.582 38.9329 110.634 38.9056 110.686L39.57 111.034L39.1308 110.426C39.0828 110.461 39.0351 110.495 38.9875 110.529C43.6075 101.653 48.2255 88.456 49.8912 78.9152C49.927 78.71 50.0466 78.529 50.2212 78.4154C50.3355 78.3411 50.4666 78.3001 50.6003 78.2948C50.5906 78.2966 50.5836 78.2978 50.5791 78.2985C50.5725 78.2995 50.5813 78.2979 50.5995 78.2966C50.6036 78.2963 50.6101 78.2959 50.6183 78.2956C50.6283 78.2952 50.6409 78.295 50.6556 78.2954C50.6756 78.2958 50.7359 78.2976 50.8119 78.3166C50.7421 78.2992 50.6708 78.292 50.6003 78.2948C50.6158 78.2919 50.6385 78.2874 50.6693 78.2807C50.7671 78.2594 50.9131 78.2238 51.1042 78.1733C51.4847 78.0728 52.0219 77.919 52.6684 77.7182C53.9616 77.3164 55.6768 76.7307 57.4313 76.0137C59.1902 75.295 60.9654 74.4536 62.3909 73.5448C63.8522 72.6132 64.8041 71.6978 65.121 70.8826C65.1447 70.8214 65.1764 70.7636 65.2152 70.7107C65.4053 70.4516 65.674 70.4009 65.7928 70.3909C65.9177 70.3804 66.0232 70.3998 66.0795 70.4121C66.1984 70.438 66.3175 70.4837 66.4062 70.5201C66.5396 70.5747 66.7086 70.6529 66.8771 70.7308C66.9393 70.7595 67.0013 70.7883 67.0616 70.8158C67.5726 71.0491 68.0496 71.2397 68.373 71.2669C68.7857 71.3016 69.0921 71.6644 69.0574 72.0772C69.0226 72.4899 68.6598 72.7963 68.2471 72.7616C67.6205 72.7088 66.9074 72.3944 66.4385 72.1802C66.3557 72.1424 66.2805 72.1076 66.2117 72.0758C66.2067 72.0735 66.2017 72.0712 66.1967 72.0689C66.3255 71.8592 66.434 71.6449 66.5191 71.4259L65.82 71.1543L66.4248 71.5978C66.2486 71.8381 66.0039 71.8785 65.9186 71.8857C65.8295 71.8932 65.7679 71.8794 65.7603 71.8777L65.7598 71.8776C65.7564 71.8769 65.7545 71.8764 65.7545 71.8765C65.7544 71.8768 65.7784 71.8838 65.8376 71.9081C65.935 71.948 66.0512 72.0016 66.1967 72.0689C65.5639 73.0993 64.441 74.0167 63.1973 74.8096C61.6647 75.7867 59.7974 76.6673 57.9987 77.4023C56.1957 78.139 54.4384 78.739 53.1135 79.1506C52.451 79.3565 51.8927 79.5164 51.4875 79.6235C51.4134 79.6431 51.3437 79.6611 51.2788 79.6774C51.3097 79.5083 51.3397 79.3402 51.3689 79.1732L50.63 79.0442L50.4481 79.7718C50.5741 79.8033 50.6847 79.7945 50.7036 79.793L50.7057 79.7929C50.7451 79.7901 50.7813 79.7851 50.808 79.781C50.8632 79.7724 50.9254 79.7601 50.9882 79.7464C51.0693 79.7287 51.1669 79.7056 51.2788 79.6774C49.503 89.3947 44.8666 102.534 40.2345 111.382C40.1806 111.485 40.1035 111.574 40.0093 111.642C36.5384 114.15 33.8763 115.349 31.8619 115.422C30.8254 115.46 29.939 115.199 29.2277 114.649C28.5264 114.107 28.0601 113.333 27.7601 112.452C27.1683 110.715 27.1631 108.381 27.4427 105.93C27.7243 103.462 28.3074 100.778 28.9706 98.2789C28.9694 98.2846 28.9682 98.2903 28.9669 98.296L29.7 98.4542L28.9752 98.2617C28.9737 98.2674 28.9721 98.2731 28.9706 98.2789C29.9808 93.5941 30.7587 87.7384 31.4821 81.9401C31.5837 81.1255 31.6843 80.3119 31.7842 79.503C32.3946 74.5653 32.9835 69.801 33.662 66.041C33.6641 66.0292 33.6665 66.0175 33.6692 66.0058C33.8738 65.1182 34.4822 64.3388 35.2 63.6664C35.9286 62.9838 36.8489 62.3394 37.8032 61.7365C38.5672 61.2536 39.3767 60.783 40.1489 60.334C40.3418 60.2218 40.5325 60.111 40.7194 60.0016C41.6675 59.4473 42.5189 58.9337 43.1753 58.4503L43.176 58.4498C47.0671 55.5917 62.2636 44.3944 68.2134 38.9994C68.2064 39.0069 68.1993 39.0144 68.1923 39.0219L68.74 39.5343L68.2359 38.979C68.2284 38.9858 68.2209 38.9926 68.2134 38.9994C75.3195 31.4073 79.5141 28.6711 84.4362 28.5719C86.8509 28.5232 89.3856 29.1121 92.429 29.9429C93.1085 30.1284 93.8152 30.3266 94.5549 30.534Z" fill="black"/>
<path fill-rule="evenodd" clip-rule="evenodd" d="M254.906 35.9386C254.948 36.3507 254.648 36.7186 254.235 36.7604C244.246 37.7728 234.475 39.0099 224.912 40.2206C211.174 41.9598 197.866 43.6447 184.957 44.5312C163.015 46.0381 142.051 45.2595 121.665 38.5466C121.272 38.417 121.058 37.9931 121.187 37.5996C121.317 37.2062 121.741 36.9923 122.134 37.1219C142.259 43.7489 163.005 44.5353 184.855 43.0347C197.744 42.1496 210.956 40.4759 224.642 38.7423C234.208 37.5306 244.005 36.2896 254.084 35.268C254.496 35.2263 254.864 35.5265 254.906 35.9386Z" fill="black"/>
<path fill-rule="evenodd" clip-rule="evenodd" d="M93.1622 73.8135C93.5602 73.6988 93.9759 73.9284 94.0906 74.3265C95.2439 78.3291 94.7387 81.7933 93.1482 84.7343C91.5699 87.6527 88.9511 90.0062 85.9506 91.878C79.9573 95.6166 72.2459 97.5541 67.4818 98.2072C67.3884 98.22 67.2934 98.2151 67.2018 98.1927C64.9896 97.652 61.9286 97.6991 58.6479 98.2883C55.3787 98.8754 51.9578 99.9889 49.0429 101.523C46.115 103.064 43.7713 104.989 42.5542 107.16C41.3772 109.259 41.2188 111.642 42.73 114.31C43.1831 114.784 44.1281 115.188 45.5282 115.473C46.9314 115.758 48.6256 115.894 50.3343 115.95C52.0384 116.005 53.7292 115.98 55.1215 115.953C55.2869 115.95 55.4492 115.947 55.6078 115.944C56.7465 115.92 57.6909 115.901 58.1553 115.948C58.2054 115.953 58.2548 115.963 58.3028 115.978C64.0942 117.78 69.8062 118.363 75.4218 116.908C75.438 116.904 75.4543 116.9 75.4707 116.897C79.2041 116.192 84.6627 115.634 90.2088 115.067C90.7008 115.017 91.1935 114.966 91.6857 114.916C97.7515 114.292 103.746 113.642 107.689 112.766C125.136 107.987 140.629 101.471 156.372 92.08C167.984 83.4108 183.876 82.2877 200.418 83.7872C208.712 84.5391 217.214 85.9554 225.48 87.4406C227.301 87.7678 229.11 88.0982 230.902 88.4256C237.258 89.5866 243.409 90.7103 249.174 91.5214C249.585 91.5791 249.87 91.9584 249.813 92.3686C249.755 92.7788 249.376 93.0645 248.965 93.0068C243.167 92.191 236.974 91.0598 230.613 89.8978C228.826 89.5712 227.024 89.2421 225.215 88.917C216.955 87.4328 208.507 86.0267 200.282 85.281C183.799 83.7869 168.384 84.9653 157.239 93.3046C157.218 93.3203 157.197 93.3348 157.174 93.3482C141.295 102.824 125.662 109.4 108.068 114.217C108.056 114.221 108.045 114.224 108.033 114.226C103.986 115.128 97.8842 115.787 91.839 116.408C91.3531 116.458 90.8675 116.507 90.3833 116.557C84.8221 117.126 79.4397 117.676 75.7734 118.367C69.8429 119.897 63.8695 119.271 57.9346 117.434C57.5377 117.405 56.7275 117.422 55.6041 117.444C55.4582 117.447 55.307 117.45 55.1508 117.453C53.7556 117.48 52.0314 117.506 50.2854 117.449C48.5442 117.392 46.7534 117.253 45.2291 116.943C43.7505 116.642 42.342 116.147 41.5553 115.248C41.523 115.211 41.4945 115.171 41.47 115.129C39.6536 111.975 39.799 109.007 41.2458 106.426C42.6628 103.899 45.291 101.802 48.3444 100.195C51.4107 98.5818 54.9805 97.4229 58.3828 96.8119C61.7098 96.2144 64.9411 96.1293 67.4163 96.7019C72.0713 96.0467 79.4641 94.1563 85.1567 90.6053C88.0274 88.8145 90.4167 86.6318 91.8288 84.0208C93.2286 81.4324 93.6959 78.3742 92.6492 74.7418C92.5345 74.3438 92.7642 73.9281 93.1622 73.8135Z" fill="black"/>
<path fill-rule="evenodd" clip-rule="evenodd" d="M68.7473 97.2957C68.8679 97.692 68.6444 98.111 68.2482 98.2316C66.8037 98.6712 64.4648 100.096 62.7801 102.576C62.5473 102.918 62.0809 103.007 61.7383 102.774C61.3956 102.542 61.3066 102.075 61.5394 101.733C63.4147 98.9724 66.0359 97.337 67.8114 96.7966C68.2077 96.676 68.6267 96.8995 68.7473 97.2957Z" fill="black"/>
<path fill-rule="evenodd" clip-rule="evenodd" d="M46.0878 95.6855C46.2528 96.0654 46.0787 96.5071 45.6988 96.6722C42.6454 97.9988 39.5597 97.994 37.7603 97.4973C37.361 97.3871 37.1267 96.974 37.237 96.5747C37.3472 96.1755 37.7602 95.9411 38.1595 96.0514C39.6201 96.4546 42.3544 96.4898 45.101 95.2964C45.4809 95.1314 45.9227 95.3055 46.0878 95.6855Z" fill="black"/>
<path fill-rule="evenodd" clip-rule="evenodd" d="M41.6597 75.2824C41.8926 74.9399 42.3591 74.8511 42.7016 75.084C43.3907 75.5526 44.7674 76.2647 46.32 76.903C47.8753 77.5424 49.5208 78.0718 50.7494 78.2196C51.1606 78.269 51.4539 78.6425 51.4044 79.0538C51.355 79.465 50.9815 79.7583 50.5702 79.7088C49.1388 79.5366 47.3444 78.946 45.7497 78.2903C44.1523 77.6336 42.669 76.8758 41.8581 76.3244C41.5156 76.0915 41.4267 75.625 41.6597 75.2824Z" fill="black"/>
<path fill-rule="evenodd" clip-rule="evenodd" d="M62.573 67.1617C62.9279 66.9481 63.3888 67.0626 63.6024 67.4175C64.222 68.4469 65.0292 69.753 66.5194 70.6275C66.8767 70.8371 66.9963 71.2967 66.7867 71.6539C66.577 72.0111 66.1175 72.1308 65.7602 71.9212C63.9104 70.8356 62.9376 69.2217 62.3173 68.1911C62.1036 67.8362 62.2182 67.3754 62.573 67.1617Z" fill="black"/>
<path fill-rule="evenodd" clip-rule="evenodd" d="M62.3052 110.256C62.4393 109.925 62.3218 109.536 62.0097 109.34C61.6593 109.119 61.1962 109.224 60.9753 109.574C60.8475 109.777 60.8188 109.996 60.8097 110.128C60.7992 110.279 60.808 110.439 60.8251 110.593C60.8594 110.902 60.937 111.271 61.0404 111.664C61.2484 112.457 61.5825 113.432 61.9753 114.396C62.3678 115.359 62.8286 116.336 63.2962 117.125C63.5296 117.519 63.7737 117.881 64.0214 118.177C64.2569 118.458 64.5484 118.742 64.8902 118.897C65.2675 119.068 65.712 118.901 65.883 118.524C66.054 118.147 65.8868 117.702 65.5096 117.531C65.4764 117.516 65.36 117.439 65.1708 117.213C64.9937 117.002 64.7961 116.714 64.5867 116.36C64.1687 115.655 63.7394 114.75 63.3644 113.83C62.9897 112.91 62.6788 111.998 62.4912 111.284C62.3968 110.924 62.3389 110.634 62.3159 110.427C62.3069 110.346 62.3048 110.29 62.3052 110.256ZM62.3065 110.226C62.3071 110.22 62.3076 110.217 62.3077 110.217C62.3079 110.217 62.3076 110.22 62.3065 110.226Z" fill="black"/>
<path fill-rule="evenodd" clip-rule="evenodd" d="M66.0835 111.485C66.125 111.373 66.1403 111.249 66.1231 111.123C66.0671 110.712 65.6891 110.425 65.2786 110.481C64.977 110.522 64.7895 110.715 64.6984 110.872C64.6188 111.009 64.5947 111.14 64.5852 111.211C64.5651 111.358 64.5763 111.51 64.5892 111.623C64.617 111.867 64.6834 112.179 64.7688 112.516C64.9421 113.199 65.2216 114.091 65.5401 114.981C65.8583 115.869 66.2237 116.778 66.5726 117.49C66.7459 117.844 66.9254 118.17 67.1032 118.426C67.1917 118.553 67.2922 118.681 67.4042 118.79C67.5055 118.889 67.6746 119.031 67.9071 119.096C68.3059 119.208 68.72 118.976 68.832 118.577C68.9322 118.22 68.7568 117.851 68.4333 117.697C68.4115 117.673 68.3785 117.632 68.335 117.57C68.2194 117.403 68.0782 117.154 67.9195 116.83C67.6044 116.187 67.2603 115.335 66.9523 114.475C66.6446 113.616 66.381 112.771 66.2227 112.147C66.1479 111.852 66.1024 111.629 66.0835 111.485ZM68.46 117.724C68.46 117.724 68.458 117.723 68.454 117.719C68.458 117.722 68.46 117.724 68.46 117.724Z" fill="black"/>
<path fill-rule="evenodd" clip-rule="evenodd" d="M46.6624 105.634C44.078 105.114 41.8606 106.116 40.7204 107.951C39.5786 109.788 39.6016 112.316 41.1756 114.68C41.1965 114.711 41.2198 114.741 41.2452 114.769C42.0426 115.645 43.2485 116.206 44.542 116.577C45.8507 116.952 47.3385 117.157 48.7917 117.26C51.6992 117.466 54.5699 117.273 55.8133 117.151C56.057 117.127 56.2737 116.985 56.3937 116.772C56.5137 116.558 56.5218 116.299 56.4155 116.079C55.6969 114.587 55.4337 113.337 55.2812 112.257C55.2427 111.984 55.2112 111.722 55.1807 111.465L55.1737 111.406C55.1459 111.171 55.1182 110.937 55.087 110.712C55.0197 110.227 54.9306 109.74 54.7616 109.279C54.4002 108.292 53.7146 107.536 52.4259 106.954C51.1912 106.397 49.3679 105.982 46.6624 105.634ZM42.3916 113.799C41.1294 111.87 41.2127 110 41.9943 108.743C42.7799 107.479 44.3555 106.692 46.3891 107.109C46.4074 107.113 46.4258 107.116 46.4443 107.118C49.1389 107.464 50.7839 107.859 51.8088 108.321C52.7838 108.761 53.1494 109.239 53.3531 109.795C53.4666 110.104 53.5384 110.466 53.6013 110.919C53.6303 111.128 53.6563 111.347 53.6845 111.586L53.6911 111.641C53.7216 111.899 53.7548 112.176 53.796 112.467C53.9285 113.405 54.1431 114.493 54.6331 115.743C53.2153 115.84 51.0606 115.917 48.898 115.764C47.5012 115.664 46.1265 115.47 44.9552 115.135C43.7964 114.803 42.9188 114.355 42.3916 113.799Z" fill="black"/>
<path fill-rule="evenodd" clip-rule="evenodd" d="M101.124 103.62C101.397 103.931 101.366 104.405 101.054 104.678C100.292 105.346 99.6321 106.445 99.1835 107.678C98.736 108.908 98.533 110.179 98.6076 111.136C98.6398 111.549 98.3312 111.91 97.9182 111.942C97.5053 111.974 97.1444 111.666 97.1122 111.253C97.0168 110.029 97.2738 108.54 97.7738 107.165C98.2727 105.794 99.0476 104.442 100.066 103.55C100.377 103.277 100.851 103.308 101.124 103.62Z" fill="black"/>
<path fill-rule="evenodd" clip-rule="evenodd" d="M69.6491 42.5134C69.9312 42.8167 69.914 43.2912 69.6108 43.5733C67.0341 45.9699 60.7693 49.8955 55.2341 53.1816C52.449 54.835 49.8216 56.342 47.8906 57.4355C46.9251 57.9824 46.1333 58.426 45.5828 58.733C45.3076 58.8865 45.0926 59.0059 44.9463 59.087L44.7229 59.2105C44.7227 59.2106 44.7219 59.2111 44.36 58.5542C43.998 57.8973 43.9981 57.8972 43.9982 57.8972L44.2192 57.7749C44.3644 57.6945 44.5782 57.5758 44.8522 57.423C45.4002 57.1173 46.1891 56.6753 47.1515 56.1303C49.0765 55.0401 51.6946 53.5384 54.4683 51.8918C60.0506 48.5778 66.1558 44.7384 68.5891 42.475C68.8924 42.1929 69.367 42.2101 69.6491 42.5134ZM43.7031 58.9161C43.5032 58.5533 43.6354 58.0971 43.9982 57.8972L44.36 58.5542L44.7219 59.2111C44.3591 59.411 43.9029 59.2789 43.7031 58.9161Z" fill="black"/>
<path fill-rule="evenodd" clip-rule="evenodd" d="M78.3904 39.3208C77.1271 39.4418 76.1847 39.7814 75.6247 40.33C75.3288 40.6198 74.854 40.615 74.5641 40.3191C74.2742 40.0232 74.2791 39.5484 74.575 39.2585C75.495 38.3571 76.8476 37.9617 78.2474 37.8276C79.6653 37.6919 81.2495 37.8131 82.7603 38.0536C84.2759 38.2948 85.7475 38.6611 86.9508 39.0326C88.1331 39.3977 89.1182 39.7866 89.6257 40.0911C89.9809 40.3042 90.0961 40.7649 89.883 41.1201C89.6699 41.4753 89.2092 41.5905 88.854 41.3774C88.5115 41.1719 87.6741 40.8258 86.5083 40.4659C85.3635 40.1124 83.9613 39.7636 82.5245 39.5349C81.0827 39.3054 79.6357 39.2016 78.3904 39.3208Z" fill="black"/>
<path fill-rule="evenodd" clip-rule="evenodd" d="M47.8811 116.281C48.2918 116.226 48.6688 116.515 48.7233 116.926C49.2097 120.59 51.3264 122.409 53.107 122.525C53.991 122.582 54.8878 122.242 55.6241 121.392C56.3712 120.529 56.9757 119.11 57.1422 117.005C57.1749 116.592 57.5361 116.284 57.949 116.317C58.3619 116.349 58.6702 116.71 58.6375 117.123C58.454 119.444 57.7736 121.202 56.7578 122.374C55.7313 123.559 54.3874 124.111 53.0102 124.021C50.2683 123.844 47.7799 121.218 47.2363 117.123C47.1818 116.712 47.4705 116.335 47.8811 116.281Z" fill="black"/>
<path fill-rule="evenodd" clip-rule="evenodd" d="M51.804 116.812C52.1149 116.538 52.5888 116.568 52.8626 116.879C53.5943 117.709 53.8629 118.939 53.7434 120.107C53.6223 121.291 53.0928 122.533 52.0688 123.413C51.7547 123.683 51.2811 123.647 51.0111 123.333C50.7411 123.019 50.7768 122.546 51.0909 122.276C51.7769 121.686 52.1624 120.823 52.2512 119.954C52.3417 119.07 52.1154 118.299 51.737 117.87C51.4632 117.559 51.4932 117.085 51.804 116.812Z" fill="black"/>
<path fill-rule="evenodd" clip-rule="evenodd" d="M73.921 86.079C74.0564 85.6876 74.4836 85.48 74.875 85.6154C76.5004 86.1776 78.1021 87.4457 79.2056 88.8885C80.2861 90.3014 81.0407 92.0904 80.5803 93.6825C80.4652 94.0804 80.0494 94.3097 79.6515 94.1947C79.2536 94.0796 79.0243 93.6638 79.1393 93.2658C79.399 92.368 78.9985 91.087 78.0141 89.7998C77.0526 88.5426 75.6793 87.4808 74.3847 87.033C73.9932 86.8976 73.7856 86.4705 73.921 86.079Z" fill="black"/>
<path fill-rule="evenodd" clip-rule="evenodd" d="M31.1811 113.847C31.5441 114.047 31.6766 114.503 31.477 114.866L26.9458 123.108L28.4406 124.527L39.7763 117.292C40.1255 117.069 40.5892 117.172 40.812 117.521C41.0348 117.87 40.9324 118.334 40.5833 118.556L28.7532 126.107C28.4628 126.292 28.0835 126.256 27.8336 126.018L25.4936 123.798C25.2463 123.564 25.1883 123.192 25.3525 122.893L30.1625 114.143C30.3621 113.78 30.8181 113.648 31.1811 113.847Z" fill="black"/>
<path fill-rule="evenodd" clip-rule="evenodd" d="M34.4839 113.247C34.8356 113.029 35.2981 113.136 35.5169 113.488C35.707 113.794 36.1057 114.208 36.6593 114.677C37.198 115.133 37.831 115.598 38.4352 116.009C39.0392 116.419 39.6018 116.767 39.9949 116.989C40.0216 117.004 40.0471 117.018 40.0715 117.031L42.2649 114.959C42.566 114.675 43.0407 114.688 43.3252 114.989C43.6096 115.29 43.5962 115.765 43.2951 116.049L40.8667 118.344C40.8625 118.35 40.8582 118.356 40.8537 118.362C40.6992 118.578 40.4872 118.645 40.3804 118.666C40.2715 118.687 40.1819 118.68 40.1381 118.675C39.9931 118.659 39.8609 118.602 39.812 118.58L39.8092 118.579C39.6633 118.516 39.4695 118.415 39.2573 118.295C38.8225 118.049 38.2245 117.679 37.5922 117.249C36.9602 116.82 36.2814 116.323 35.6897 115.821C35.113 115.333 34.5629 114.794 34.2431 114.28C34.0244 113.929 34.1321 113.466 34.4839 113.247ZM40.4283 117.212C40.4285 117.212 40.425 117.211 40.4173 117.208C40.4243 117.21 40.4282 117.212 40.4283 117.212Z" fill="black"/>
<path fill-rule="evenodd" clip-rule="evenodd" d="M67.3177 71.0257C67.6237 70.9165 68.19 70.801 68.6258 71.2296C68.9212 71.52 68.9252 71.9948 68.6347 72.2902C68.4089 72.5199 68.0715 72.5733 67.7937 72.4492C67.6572 72.5036 67.4398 72.6274 67.1342 72.853C66.4909 73.3279 65.6314 74.1216 64.6113 75.1627C62.5799 77.2358 60.0122 80.1854 57.4409 83.2353C55.5983 85.4207 53.7628 87.647 52.129 89.6286C51.4842 90.4107 50.8708 91.1547 50.3008 91.843C49.2957 93.0566 48.4237 94.0996 47.7558 94.8682C47.4224 95.2519 47.1345 95.5735 46.9034 95.8162C46.6996 96.0302 46.4718 96.2581 46.2804 96.3747C45.9267 96.5903 45.4652 96.4784 45.2496 96.1247C45.034 95.771 45.1459 95.3095 45.4996 95.0939C45.4979 95.095 45.5 95.0931 45.5064 95.0875C45.5324 95.0646 45.6285 94.98 45.8171 94.7819C46.0249 94.5636 46.2956 94.2618 46.6235 93.8843C47.2785 93.1305 48.1405 92.0998 49.1455 90.8863C49.7117 90.2025 50.3228 89.4614 50.9662 88.681C52.6016 86.6974 54.4459 84.4605 56.2941 82.2684C58.8677 79.2158 61.4663 76.2291 63.5399 74.1129C64.5723 73.0592 65.5 72.195 66.2433 71.6462C66.6088 71.3764 66.9756 71.1479 67.3177 71.0257ZM67.8848 72.4202C67.8846 72.4205 67.8806 72.4215 67.8732 72.4224C67.8814 72.4204 67.885 72.4199 67.8848 72.4202Z" fill="black"/>
<path fill-rule="evenodd" clip-rule="evenodd" d="M77.4776 80.0844C77.8695 79.9505 78.2958 80.1598 78.4297 80.5518C78.6659 81.2435 78.449 82.0577 78.1478 82.6877C77.8383 83.335 77.3475 83.9854 76.7489 84.4235L62.4452 97.9491C62.1443 98.2337 61.6696 98.2204 61.385 97.9195C61.1004 97.6185 61.1137 97.1438 61.4146 96.8592L75.7547 83.2992C75.7805 83.2748 75.808 83.2523 75.837 83.2318C76.2075 82.9698 76.5644 82.5219 76.7946 82.0406C77.0408 81.5256 77.054 81.1648 77.0101 81.0365C76.8763 80.6445 77.0856 80.2182 77.4776 80.0844Z" fill="black"/>
<path d="M51.1398 99.1843C48.6998 96.8243 47.2898 94.4243 47.2898 94.4243L57.7298 82.3743C57.4598 83.6043 66.2998 92.0543 67.5398 91.6643L61.9998 96.8543" fill="black"/>
<path fill-rule="evenodd" clip-rule="evenodd" d="M58.4791 82.4091C58.4927 82.1171 58.3343 81.8385 58.0661 81.7039C57.7595 81.5501 57.3876 81.6239 57.163 81.8832L46.723 93.9332C46.5123 94.1764 46.4802 94.5268 46.6431 94.8042L47.2898 94.4243C46.6431 94.8042 46.6431 94.8041 46.6431 94.8042L46.6452 94.8076L46.6492 94.8145L46.6636 94.8385C46.6759 94.8589 46.6937 94.8882 46.7168 94.9258C46.7631 95.0008 46.8309 95.1088 46.9195 95.2451C47.0967 95.5174 47.3572 95.903 47.6954 96.3633C48.3707 97.2826 49.3605 98.5068 50.6184 99.7234C50.9162 100.011 51.391 100.003 51.6789 99.7057C51.9669 99.408 51.959 98.9332 51.6613 98.6452C50.4791 97.5019 49.544 96.346 48.9042 95.4753C48.6124 95.078 48.3832 94.7416 48.2211 94.4948L57.5269 83.7538C57.7594 84.0954 58.0597 84.4791 58.4014 84.8836C59.2346 85.87 60.3736 87.0496 61.5516 88.1702C62.7295 89.2906 63.9644 90.369 64.9931 91.1481C65.4045 91.4597 65.7954 91.733 66.1446 91.9436L61.4871 96.307C61.1848 96.5902 61.1693 97.0648 61.4525 97.3671C61.7357 97.6694 62.2103 97.6848 62.5126 97.4017L68.0526 92.2116C68.308 91.9723 68.3639 91.5882 68.1874 91.286C68.0331 91.0219 67.7371 90.8817 67.442 90.9207C67.3762 90.9004 67.2672 90.8546 67.1101 90.769C66.7979 90.5988 66.3859 90.3214 65.8987 89.9524C64.9296 89.2184 63.7388 88.1805 62.5855 87.0834C61.4323 85.9865 60.3344 84.8474 59.5473 83.9156C59.1517 83.4474 58.8494 83.0487 58.6583 82.7441C58.5619 82.5905 58.5072 82.4817 58.481 82.4142C58.4803 82.4124 58.4797 82.4107 58.4791 82.4091Z" fill="black"/>
<path fill-rule="evenodd" clip-rule="evenodd" d="M113.298 22.0477C113.711 22.0081 114.077 22.3103 114.117 22.7227C114.139 22.9529 114.246 23.2958 114.477 23.7495C114.702 24.1932 115.022 24.6987 115.421 25.2438C116.217 26.3337 117.293 27.537 118.459 28.6571C119.626 29.7777 120.863 30.7965 121.972 31.5263C122.527 31.8913 123.037 32.1751 123.479 32.3639C123.933 32.5573 124.264 32.628 124.477 32.6244C124.891 32.6173 125.233 32.9473 125.24 33.3614C125.247 33.7756 124.917 34.1171 124.503 34.1241C123.986 34.133 123.431 33.9738 122.891 33.7437C122.341 33.509 121.75 33.1758 121.148 32.7794C119.942 31.9864 118.634 30.9046 117.42 29.7389C116.206 28.5728 115.068 27.3042 114.209 26.1287C113.78 25.5412 113.412 24.9656 113.14 24.429C112.872 23.9024 112.671 23.3656 112.623 22.8658C112.584 22.4535 112.886 22.0872 113.298 22.0477Z" fill="black"/>
<path fill-rule="evenodd" clip-rule="evenodd" d="M137.37 1.76596C135.278 1.47765 133.154 2.21127 131.745 4.58687C131.717 4.63475 131.683 4.67932 131.645 4.71975L96.5053 41.8489L96.4675 42.2985L105.799 51.1668L106.204 51.0913L141.727 13.787C141.754 13.7586 141.783 13.7323 141.814 13.7085C144.969 11.2959 144.788 7.58971 142.902 5.40422C142.879 5.37764 142.858 5.34949 142.839 5.31996C141.628 3.4364 139.512 2.06109 137.37 1.76596ZM144.072 4.46456C142.629 2.25067 140.151 0.635034 137.575 0.28C134.954 -0.0811544 132.241 0.870988 130.499 3.74824L95.2352 41.0087C95.1183 41.1322 95.0469 41.2918 95.0326 41.4613L94.9426 42.5313C94.9235 42.7581 95.0084 42.9812 95.1733 43.1379L105.043 52.5179C105.218 52.6836 105.461 52.7556 105.697 52.7116L106.717 52.5215C106.872 52.4927 107.014 52.4156 107.123 52.3014L142.773 14.8632C146.611 11.8885 146.424 7.23281 144.072 4.46456Z" fill="black"/>
<path fill-rule="evenodd" clip-rule="evenodd" d="M126.99 6.77398C126.996 6.3598 127.336 6.02862 127.75 6.03425C128.266 6.04127 128.826 6.2159 129.373 6.4606C129.932 6.71051 130.536 7.06017 131.156 7.47437C132.396 8.30319 133.751 9.42537 135.014 10.6318C136.278 11.8386 137.467 13.1473 138.369 14.3571C138.82 14.9618 139.207 15.5528 139.497 16.1026C139.781 16.6422 139.996 17.1896 140.055 17.6973C140.103 18.1087 139.808 18.4811 139.397 18.5291C138.985 18.5771 138.613 18.2825 138.565 17.8711C138.537 17.6288 138.417 17.2711 138.169 16.8011C137.927 16.3412 137.587 15.8178 137.167 15.2537C136.326 14.1261 135.196 12.8798 133.978 11.7165C132.76 10.553 131.472 9.49017 130.322 8.72149C129.747 8.33694 129.219 8.03472 128.761 7.82995C128.291 7.61997 127.949 7.53709 127.73 7.53411C127.316 7.52848 126.984 7.18815 126.99 6.77398Z" fill="black"/>
<path fill-rule="evenodd" clip-rule="evenodd" d="M119.4 14.764C119.406 14.3498 119.746 14.0186 120.16 14.0242C120.676 14.0313 121.236 14.2059 121.783 14.4506C122.342 14.7005 122.946 15.0502 123.566 15.4644C124.806 16.2932 126.161 17.4154 127.424 18.6218C128.688 19.8286 129.877 21.1373 130.779 22.3471C131.23 22.9518 131.617 23.5428 131.907 24.0926C132.19 24.6322 132.406 25.1796 132.465 25.6873C132.513 26.0987 132.218 26.4711 131.807 26.5191C131.395 26.5671 131.023 26.2725 130.975 25.8611C130.947 25.6188 130.826 25.2611 130.579 24.7911C130.337 24.3312 129.997 23.8078 129.577 23.2437C128.736 22.116 127.606 20.8698 126.388 19.7065C125.17 18.543 123.882 17.4802 122.732 16.7115C122.157 16.3269 121.629 16.0247 121.171 15.8199C120.701 15.61 120.359 15.5271 120.14 15.5241C119.726 15.5185 119.394 15.1781 119.4 14.764Z" fill="black"/>
<path d="M129.66 27.9442C129.31 24.9442 121.03 16.9842 118.09 16.9442L118.74 16.2542C122.23 16.9042 129.62 23.9242 130.31 27.2542L129.66 27.9442Z" fill="black"/>
<path fill-rule="evenodd" clip-rule="evenodd" d="M118.194 15.7399C118.369 15.5542 118.626 15.4701 118.877 15.5168C119.904 15.7081 121.124 16.3397 122.341 17.1561C123.577 17.9856 124.882 19.0561 126.092 20.2055C127.301 21.3548 128.429 22.5967 129.304 23.7747C130.163 24.9309 130.837 26.1028 131.044 27.102C131.094 27.3416 131.024 27.5903 130.856 27.7684L130.206 28.4584C130.006 28.6707 129.701 28.7478 129.424 28.6562C129.147 28.5645 128.949 28.3207 128.915 28.0311C128.887 27.7888 128.766 27.4311 128.519 26.9611C128.277 26.5011 127.937 25.9778 127.517 25.4137C126.676 24.286 125.546 23.0398 124.328 21.8765C123.11 20.713 121.822 19.6502 120.672 18.8815C120.097 18.4969 119.569 18.1947 119.111 17.9899C118.641 17.78 118.299 17.6971 118.08 17.6941C117.782 17.6901 117.515 17.5107 117.399 17.2368C117.283 16.963 117.34 16.6464 117.544 16.4299L118.194 15.7399Z" fill="black"/>
<path d="M138.93 18.4542C138.58 15.4542 130.3 7.49416 127.36 7.45416L128.01 6.76416C131.5 7.41416 138.89 14.4342 139.58 17.7642L138.93 18.4542Z" fill="black"/>
<path fill-rule="evenodd" clip-rule="evenodd" d="M127.464 6.24989C127.639 6.06416 127.896 5.98013 128.147 6.02685C129.174 6.21814 130.394 6.84968 131.611 7.6661C132.847 8.49559 134.152 9.56614 135.362 10.7155C136.571 11.8648 137.699 13.1067 138.574 14.2847C139.433 15.4409 140.107 16.6128 140.314 17.612C140.364 17.8516 140.294 18.1004 140.126 18.2785L139.476 18.9685C139.276 19.1807 138.971 19.2578 138.694 19.1662C138.417 19.0745 138.219 18.8307 138.185 18.5411C138.157 18.2988 138.036 17.9411 137.789 17.4711C137.547 17.0112 137.207 16.4878 136.787 15.9237C135.946 14.796 134.816 13.5498 133.598 12.3865C132.38 11.223 131.092 10.1602 129.942 9.39149C129.367 9.00694 128.839 8.70472 128.381 8.49995C127.911 8.28996 127.569 8.20709 127.35 8.20411C127.052 8.20006 126.785 8.02065 126.669 7.7468C126.553 7.47294 126.61 7.15639 126.814 6.9399L127.464 6.24989Z" fill="black"/>
<path fill-rule="evenodd" clip-rule="evenodd" d="M106.78 28.034C106.786 27.6198 107.126 27.2886 107.54 27.2943C108.056 27.3013 108.616 27.4759 109.163 27.7206C109.722 27.9705 110.326 28.3202 110.946 28.7344C112.186 29.5632 113.541 30.6854 114.804 31.8918C116.068 33.0986 117.257 34.4073 118.159 35.6171C118.61 36.2219 118.997 36.8128 119.287 37.3626C119.571 37.9022 119.786 38.4496 119.845 38.9573C119.893 39.3687 119.598 39.7411 119.187 39.7891C118.775 39.8371 118.403 39.5425 118.355 39.1311C118.327 38.8888 118.207 38.5312 117.959 38.0611C117.717 37.6012 117.377 37.0778 116.957 36.5137C116.116 35.3861 114.986 34.1398 113.768 32.9765C112.55 31.813 111.262 30.7502 110.112 29.9815C109.537 29.597 109.009 29.2947 108.551 29.09C108.081 28.88 107.739 28.7971 107.52 28.7941C107.106 28.7885 106.774 28.4482 106.78 28.034Z" fill="black"/>
<path fill-rule="evenodd" clip-rule="evenodd" d="M115.993 18.3093C116.404 18.2613 116.777 18.5559 116.825 18.9674C116.853 19.2097 116.973 19.5673 117.221 20.0374C117.463 20.4973 117.803 21.0207 118.223 21.5847C119.064 22.7124 120.194 23.9587 121.412 25.1219C122.63 26.2855 123.918 27.3483 125.068 28.117C125.643 28.5015 126.171 28.8037 126.629 29.0085C127.099 29.2185 127.441 29.3014 127.66 29.3043C128.074 29.31 128.405 29.6503 128.4 30.0645C128.394 30.4786 128.054 30.8098 127.64 30.8042C127.124 30.7972 126.564 30.6226 126.017 30.3779C125.458 30.1279 124.854 29.7783 124.234 29.3641C122.994 28.5353 121.639 27.4131 120.376 26.2066C119.112 24.9999 117.923 23.6911 117.021 22.4813C116.57 21.8766 116.183 21.2856 115.893 20.7359C115.609 20.1962 115.394 19.6489 115.335 19.1412C115.287 18.7298 115.582 18.3573 115.993 18.3093Z" fill="black"/>
<path opacity="0.98" d="M139.53 13.2342C140.62 11.9742 143.36 13.7842 141.7 15.4642C138.87 19.3942 133.54 25.2942 130.26 28.9942C124.9 34.5142 118.75 43.3142 111.17 45.7142C106.81 47.3642 100.14 40.7642 101.84 36.4242C106.49 24.6442 118.72 16.3742 127.17 7.09421C128.35 5.95421 131.55 2.5842 132.83 4.9542C133.14 5.6242 133.17 6.70422 132.67 6.47422C132.09 5.82422 131.54 4.3942 130.54 5.3642C128.67 7.0442 123.37 12.4142 121.06 14.8442C115.24 21.5842 106.35 28.1842 103.71 36.4842C102.94 45.3542 112.38 45.2642 117.38 40.2042C124.73 33.2242 134.33 22.6142 140.93 15.0442C141.48 13.9742 140.26 13.7542 139.53 13.2342Z" fill="black"/>
<path opacity="0.98" fill-rule="evenodd" clip-rule="evenodd" d="M127.529 7.44265C126.938 8.09074 126.33 8.73366 125.707 9.37279C127.135 7.93903 128.524 6.56865 129.503 5.64322C128.841 6.15966 128.222 6.76478 127.763 7.21436C127.679 7.29609 127.601 7.37267 127.529 7.44265ZM131.639 4.6305C131.826 4.71025 131.981 4.8303 132.106 4.94881C132.228 5.06405 132.34 5.19665 132.441 5.32857C132.424 5.27639 132.404 5.22581 132.382 5.178C132.257 4.95086 132.125 4.81951 132.003 4.74317C131.897 4.67693 131.778 4.63942 131.639 4.6305ZM124.431 10.6605C123.201 11.8809 121.929 13.0907 120.644 14.2997C120.159 14.7556 119.672 15.2114 119.185 15.6676C117.248 17.4817 115.304 19.3031 113.434 21.1751C108.752 25.8614 104.592 30.8148 102.305 36.607C101.939 37.5435 102.01 38.6364 102.435 39.7621C102.86 40.887 103.626 42.0086 104.585 42.9607C105.543 43.9127 106.674 44.6752 107.809 45.1009C108.945 45.5271 110.049 45.6036 110.993 45.2466C111.001 45.2433 111.01 45.2403 111.019 45.2375C114.689 44.0755 118.051 41.3487 121.192 38.1726C122.758 36.5887 124.258 34.9058 125.707 33.2668C125.827 33.1307 125.947 32.9949 126.067 32.8595C127.382 31.3709 128.658 29.9268 129.893 28.6541C130.256 28.2443 130.644 27.8084 131.05 27.3517C133.874 24.1763 137.587 20.0003 140.159 16.6854C133.627 24.1327 124.68 33.9599 117.73 40.5613C115.136 43.1824 111.374 44.5443 108.303 44.0619C106.754 43.8185 105.362 43.1004 104.415 41.8157C103.47 40.5331 103.012 38.7448 103.212 36.441C103.215 36.4042 103.222 36.3678 103.233 36.3326C104.588 32.0729 107.535 28.2809 110.826 24.7389C112.226 23.2321 113.699 21.7604 115.146 20.3139C115.402 20.058 115.657 19.8029 115.911 19.5485C117.604 17.8523 119.239 16.1874 120.681 14.5174C120.687 14.5114 120.692 14.5055 120.697 14.4997C121.607 13.5428 122.982 12.1278 124.431 10.6605ZM141.519 14.9091C141.698 14.6621 141.735 14.4485 141.717 14.2819C141.693 14.0555 141.559 13.8226 141.328 13.6328C141.148 13.4847 140.932 13.382 140.718 13.3376C140.82 13.3986 140.922 13.4651 141.016 13.5377C141.222 13.6977 141.44 13.9254 141.528 14.2527C141.587 14.4689 141.579 14.6889 141.519 14.9091ZM132.532 3.89472C132.832 4.08173 133.077 4.35974 133.27 4.71659C133.275 4.72566 133.279 4.73488 133.284 4.74424C133.471 5.14842 133.573 5.66624 133.553 6.07669C133.543 6.26607 133.504 6.53222 133.342 6.73777C133.249 6.85486 133.111 6.95854 132.926 6.99362C132.749 7.02731 132.587 6.9867 132.461 6.92846C132.398 6.89973 132.342 6.85842 132.297 6.80711C132.152 6.64489 132.01 6.44281 131.886 6.26614C131.865 6.23622 131.845 6.20702 131.825 6.17887C131.674 5.96651 131.546 5.79525 131.418 5.67461C131.29 5.55341 131.22 5.53768 131.193 5.53664C131.177 5.536 131.081 5.53593 130.888 5.7231C130.883 5.72754 130.879 5.73189 130.874 5.73615C129.022 7.3996 123.745 12.746 121.43 15.1801C119.964 16.8771 118.309 18.5617 116.619 20.2549C116.363 20.511 116.107 20.7672 115.85 21.0238C114.402 22.4707 112.945 23.9275 111.559 25.4195C108.304 28.9221 105.496 32.5634 104.203 36.5827C104.03 38.6849 104.463 40.1943 105.22 41.2224C105.983 42.2574 107.119 42.8636 108.459 43.074C111.163 43.4988 114.618 42.288 117.024 39.8528L117.035 39.8416C124.351 32.894 133.913 22.33 140.51 14.7653C140.583 14.6058 140.569 14.5345 140.563 14.5135C140.555 14.4823 140.525 14.422 140.404 14.3282C140.28 14.2322 140.115 14.1418 139.9 14.0277C139.888 14.0213 139.875 14.0148 139.863 14.0083C139.671 13.9066 139.442 13.7853 139.24 13.6414C139.125 13.5598 139.05 13.4335 139.033 13.2937C139.017 13.1539 139.06 13.0136 139.152 12.9071C139.542 12.4561 140.077 12.2905 140.587 12.3154C141.087 12.3398 141.581 12.5457 141.964 12.8606C142.347 13.1758 142.654 13.6317 142.712 14.1777C142.769 14.7287 142.564 15.2879 142.084 15.7866C139.548 19.3016 135.054 24.3548 131.796 28.0176C131.387 28.4775 130.998 28.9156 130.634 29.3259C130.629 29.3315 130.624 29.3371 130.619 29.3425C129.398 30.5993 128.135 32.0287 126.814 33.5249C126.695 33.6591 126.576 33.7939 126.456 33.9291C125.008 35.5676 123.491 37.2697 121.903 38.8758C118.737 42.0762 115.238 44.9466 111.334 46.1868C110.1 46.6489 108.741 46.5183 107.458 46.0372C106.169 45.5538 104.921 44.7045 103.88 43.6702C102.839 42.6361 101.984 41.397 101.5 40.1154C101.016 38.8346 100.891 37.4753 101.374 36.2418L101.375 36.2406C103.738 30.2532 108.018 25.1818 112.726 20.4683C114.609 18.5833 116.569 16.7475 118.507 14.9322C118.993 14.4774 119.477 14.0239 119.958 13.5712C122.365 11.3078 124.702 9.0622 126.8 6.75758C126.807 6.74969 126.815 6.74203 126.822 6.73462C126.891 6.66788 126.969 6.59187 127.054 6.50851C127.669 5.90592 128.675 4.91967 129.698 4.28336C130.277 3.92358 130.931 3.62902 131.571 3.62842C131.902 3.62811 132.231 3.70656 132.532 3.89472Z" fill="black"/>
<path d="M95.6027 42.0974L94.7964 42.9453L105.181 52.8203L105.987 51.9724L95.6027 42.0974Z" fill="black"/>
<path fill-rule="evenodd" clip-rule="evenodd" d="M94.6243 43.1266C94.5242 43.0315 94.5202 42.8732 94.6154 42.7732L95.4217 41.9253C95.5168 41.8253 95.6751 41.8213 95.7751 41.9164L106.159 51.7914C106.259 51.8866 106.263 52.0448 106.168 52.1449L105.362 52.9928C105.267 53.0928 105.109 53.0968 105.009 53.0016L94.6243 43.1266ZM95.15 42.9366L105.172 52.467L105.634 51.9815L95.6117 42.451L95.15 42.9366Z" fill="black"/>
<path fill-rule="evenodd" clip-rule="evenodd" d="M95.3311 42.1746C95.53 42.1696 95.7227 42.2439 95.8669 42.381L105.607 51.6511C105.907 51.9365 105.919 52.4111 105.633 52.7112L78.3333 81.4211C78.1345 81.6302 77.8335 81.7067 77.559 81.6179L77.7898 80.9043C77.559 81.6179 77.5593 81.618 77.559 81.6179L77.5565 81.6171L77.553 81.616L77.5436 81.6128L77.5147 81.6029C77.491 81.5946 77.4584 81.5828 77.4173 81.5673C77.3352 81.5362 77.2192 81.49 77.0723 81.4257C76.7787 81.297 76.3617 81.0961 75.8459 80.7995C74.814 80.206 73.3883 79.2308 71.7635 77.6882L71.7627 77.6875C70.1526 76.1546 69.0598 74.7327 68.366 73.6862C68.0191 73.163 67.7719 72.7334 67.6095 72.4304C67.5283 72.2789 67.4684 72.159 67.4277 72.0748C67.4074 72.0327 67.3919 71.9996 67.3811 71.9758L67.3682 71.9473L67.3643 71.9385L67.3629 71.9355L67.3624 71.9343C67.3623 71.9341 67.362 71.9334 68.0498 71.6343L67.362 71.9334C67.2419 71.6571 67.2987 71.3358 67.5063 71.1175L94.8063 42.4075C94.9434 42.2633 95.1322 42.1795 95.3311 42.1746ZM68.9569 71.7688C69.0994 72.0315 69.3152 72.4033 69.6162 72.8574C70.2548 73.8207 71.2767 75.1536 72.7962 76.6004M68.9569 71.7688L95.3763 43.9849L104.03 52.2208L77.5979 80.0178C77.3549 79.9083 77.0144 79.7411 76.5937 79.4992C75.6607 78.9626 74.3314 78.0578 72.7962 76.6004" fill="black"/>
<path d="M26.2999 123.524L24.3499 127.474L28.0799 125.224L26.2999 123.524Z" fill="black"/>
<path fill-rule="evenodd" clip-rule="evenodd" d="M26.2564 123.278C26.3347 123.264 26.415 123.288 26.4725 123.343L28.2526 125.043C28.3089 125.097 28.3369 125.174 28.3284 125.252C28.3199 125.329 28.2757 125.398 28.209 125.438L24.479 127.688C24.3839 127.746 24.2624 127.733 24.1807 127.658C24.0989 127.583 24.0765 127.463 24.1257 127.364L26.0757 123.414C26.1109 123.342 26.178 123.292 26.2564 123.278ZM26.3734 123.94L24.9522 126.819L27.6707 125.179L26.3734 123.94Z" fill="black"/>
<path fill-rule="evenodd" clip-rule="evenodd" d="M66.2367 72.1175C66.5111 72.1489 66.708 72.3968 66.6766 72.6712C66.6767 72.67 66.6768 72.6695 66.6769 72.6695C66.6774 72.6695 66.6773 72.7165 66.7198 72.8299C66.7636 72.9467 66.8386 73.0976 66.9496 73.2821C67.1714 73.6507 67.5089 74.108 67.9381 74.6264C68.7944 75.6607 69.9779 76.8938 71.2237 78.0738C72.4694 79.2537 73.7652 80.3691 74.8427 81.171C75.3828 81.5729 75.8568 81.8876 76.2356 82.0923C76.4253 82.1948 76.5795 82.2633 76.6983 82.3025C76.8119 82.3399 76.8585 82.3388 76.8585 82.3393C76.8585 82.3394 76.8577 82.3395 76.8561 82.3398C77.1293 82.2991 77.3837 82.4875 77.4244 82.7606C77.4651 83.0337 77.2767 83.2881 77.0036 83.3288C76.7889 83.3608 76.57 83.3131 76.3851 83.2522C76.1904 83.188 75.9793 83.0905 75.7602 82.972C75.3213 82.7349 74.8038 82.3885 74.2457 81.9732C73.127 81.1407 71.8003 79.9974 70.536 78.7998C69.2718 77.6023 68.0578 76.3392 67.1678 75.2641C66.7239 74.7278 66.3511 74.2271 66.0927 73.7977C65.9637 73.5832 65.8562 73.375 65.7834 73.1807C65.7139 72.9954 65.658 72.7762 65.6831 72.5574C65.7145 72.2831 65.9624 72.0861 66.2367 72.1175Z" fill="black"/>
<path fill-rule="evenodd" clip-rule="evenodd" d="M64.6516 74.0469C64.9263 74.0756 65.1257 74.3214 65.0971 74.5961C65.0972 74.595 65.0972 74.5944 65.0973 74.5944C65.0978 74.5944 65.0981 74.6405 65.1398 74.7511C65.1827 74.8652 65.256 75.0124 65.3642 75.1925C65.5803 75.5521 65.9087 75.998 66.3261 76.5035C67.1588 77.512 68.3089 78.7135 69.5202 79.8628C70.7314 81.012 71.9917 82.0974 73.0415 82.877C73.5677 83.2678 74.0297 83.5732 74.3994 83.7714C74.5845 83.8706 74.735 83.9367 74.8508 83.9742C74.9621 84.0103 75.0077 84.0089 75.0077 84.0094C75.0077 84.0095 75.007 84.0096 75.0056 84.0098C75.2787 83.9688 75.5333 84.157 75.5743 84.4301C75.6152 84.7032 75.4271 84.9578 75.154 84.9987C74.9416 85.0306 74.7255 84.9849 74.5423 84.9255C74.3499 84.8631 74.1421 84.768 73.9269 84.6527C73.4961 84.4218 72.9899 84.0843 72.4453 83.6799C71.3536 82.8692 70.0619 81.7553 68.8319 80.5882C67.6019 79.4212 66.4214 78.1896 65.555 77.1402C65.1228 76.6168 64.7596 76.1277 64.5071 75.7076C64.381 75.4978 64.2757 75.294 64.2039 75.1036C64.1355 74.9219 64.0801 74.7072 64.1025 74.4924C64.1311 74.2177 64.377 74.0183 64.6516 74.0469Z" fill="black"/>
<path fill-rule="evenodd" clip-rule="evenodd" d="M62.9116 75.867C63.1863 75.8956 63.3857 76.1415 63.3571 76.4162C63.3572 76.4151 63.3572 76.4145 63.3573 76.4145C63.3578 76.4145 63.3581 76.4606 63.3998 76.5712C63.4428 76.6853 63.516 76.8325 63.6242 77.0125C63.8403 77.3721 64.1687 77.8181 64.5861 78.3236C65.4188 79.3321 66.5689 80.5336 67.7802 81.6828C68.9914 82.832 70.2517 83.9175 71.3015 84.6971C71.8277 85.0879 72.2897 85.3933 72.6594 85.5914C72.8445 85.6907 72.995 85.7567 73.1108 85.7943C73.2221 85.8304 73.2677 85.8289 73.2677 85.8295C73.2677 85.8295 73.267 85.8296 73.2656 85.8299C73.5387 85.7889 73.7933 85.9771 73.8343 86.2501C73.8752 86.5232 73.6871 86.7778 73.414 86.8188C73.2016 86.8506 72.9855 86.8049 72.8023 86.7455C72.6099 86.6831 72.4021 86.5881 72.1869 86.4728C71.7561 86.2418 71.2499 85.9044 70.7053 85.5C69.6136 84.6892 68.3219 83.5753 67.0919 82.4083C65.8619 81.2413 64.6814 80.0096 63.815 78.9603C63.3828 78.4369 63.0196 77.9478 62.7671 77.5277C62.641 77.3179 62.5357 77.114 62.464 76.9236C62.3956 76.742 62.3401 76.5273 62.3625 76.3124C62.3911 76.0378 62.637 75.8384 62.9116 75.867Z" fill="black"/>
<path fill-rule="evenodd" clip-rule="evenodd" d="M61.1817 77.6968C61.4563 77.7255 61.6557 77.9713 61.6271 78.246C61.6272 78.2449 61.6273 78.2443 61.6273 78.2443C61.6278 78.2443 61.6282 78.2904 61.6698 78.401C61.7128 78.5151 61.786 78.6623 61.8942 78.8424C62.1104 79.202 62.4388 79.6479 62.8561 80.1534C63.6888 81.1619 64.8389 82.3634 66.0502 83.5127C67.2614 84.6619 68.5216 85.7473 69.5715 86.5269C70.0977 86.9177 70.5597 87.2231 70.9293 87.4212C71.1144 87.5205 71.2649 87.5865 71.3808 87.6241C71.4921 87.6602 71.5376 87.6587 71.5377 87.6593C71.5377 87.6594 71.537 87.6595 71.5356 87.6597C71.8087 87.6187 72.0633 87.8069 72.1042 88.08C72.1452 88.353 71.957 88.6076 71.6839 88.6486C71.4716 88.6804 71.2554 88.6347 71.0723 88.5753C70.8799 88.5129 70.672 88.4179 70.4569 88.3026C70.026 88.0716 69.5198 87.7342 68.9753 87.3298C67.8835 86.519 66.5919 85.4051 65.3619 84.2381C64.1319 83.0711 62.9514 81.8394 62.085 80.7901C61.6529 80.2667 61.2896 79.7776 61.0371 79.3575C60.911 79.1477 60.8057 78.9439 60.734 78.7535C60.6656 78.5718 60.6101 78.3571 60.6325 78.1423C60.6611 77.8676 60.907 77.6682 61.1817 77.6968Z" fill="black"/>
<path fill-rule="evenodd" clip-rule="evenodd" d="M59.4417 79.5169C59.7163 79.5455 59.9157 79.7914 59.8871 80.0661C59.8872 80.065 59.8873 80.0644 59.8873 80.0644C59.8878 80.0644 59.8882 80.1105 59.9298 80.2211C59.9728 80.3352 60.046 80.4824 60.1542 80.6624C60.3704 81.0221 60.6988 81.468 61.1161 81.9735C61.9488 82.982 63.0989 84.1835 64.3102 85.3327C65.5214 86.482 66.7817 87.5674 67.8315 88.347C68.3577 88.7378 68.8197 89.0432 69.1893 89.2413C69.3745 89.3406 69.5249 89.4066 69.6408 89.4442C69.7521 89.4803 69.7977 89.4788 69.7977 89.4794C69.7977 89.4795 69.797 89.4795 69.7956 89.4798C70.0687 89.4388 70.3233 89.627 70.3642 89.9001C70.4052 90.1731 70.217 90.4277 69.944 90.4687C69.7316 90.5005 69.5154 90.4548 69.3323 90.3954C69.1399 90.333 68.932 90.238 68.7169 90.1227C68.286 89.8917 67.7799 89.5543 67.2353 89.1499C66.1435 88.3391 64.8519 87.2252 63.6219 86.0582C62.3919 84.8912 61.2114 83.6595 60.345 82.6102C59.9129 82.0868 59.5496 81.5977 59.2971 81.1776C59.171 80.9678 59.0657 80.7639 58.994 80.5735C58.9256 80.3919 58.8701 80.1772 58.8925 79.9623C58.9211 79.6877 59.167 79.4883 59.4417 79.5169Z" fill="black"/>
<path fill-rule="evenodd" clip-rule="evenodd" d="M137.037 13.0005C137.337 13.2858 137.349 13.7605 137.064 14.0608L129.814 21.6908C129.528 21.9911 129.054 22.0032 128.753 21.7179C128.453 21.4326 128.441 20.9579 128.726 20.6576L135.976 13.0276C136.262 12.7273 136.736 12.7152 137.037 13.0005Z" fill="black"/>
<path fill-rule="evenodd" clip-rule="evenodd" d="M133.215 9.36865C133.511 9.65858 133.515 10.1334 133.225 10.4293L125.855 17.9492C125.566 18.2451 125.091 18.2499 124.795 17.9599C124.499 17.67 124.494 17.1952 124.784 16.8993L132.154 9.37934C132.444 9.08351 132.919 9.07872 133.215 9.36865Z" fill="black"/>
<path fill-rule="evenodd" clip-rule="evenodd" d="M127.46 23.147C127.729 23.4619 127.692 23.9353 127.377 24.2044C126.653 24.8236 126.401 25.3907 126.377 26.0586C126.35 26.8034 126.603 27.7375 127.095 29.0876C127.236 29.4767 127.036 29.9072 126.647 30.049C126.257 30.1908 125.827 29.9902 125.685 29.601C125.197 28.2611 124.839 27.0752 124.878 26.0049C124.919 24.8579 125.407 23.915 126.403 23.0641C126.717 22.795 127.191 22.8321 127.46 23.147Z" fill="black"/>
<path fill-rule="evenodd" clip-rule="evenodd" d="M123.238 19.2131C123.57 19.4607 123.639 19.9306 123.391 20.2627C122.611 21.308 121.707 21.8638 120.568 21.9885C119.503 22.1052 118.298 21.8336 116.93 21.4342C116.532 21.3181 116.304 20.9017 116.42 20.504C116.536 20.1064 116.952 19.8782 117.35 19.9943C118.722 20.3949 119.667 20.5783 120.404 20.4975C121.068 20.4247 121.618 20.1305 122.189 19.3659C122.436 19.0338 122.906 18.9654 123.238 19.2131Z" fill="black"/>
<path fill-rule="evenodd" clip-rule="evenodd" d="M107.808 37.5204C107.287 37.6693 106.846 38.0368 106.635 38.2596C105.669 39.2805 103.898 41.1439 102.37 42.7512C101.605 43.555 100.901 44.2951 100.388 44.8342L99.5534 45.7112L99.01 45.1944L98.4668 44.6772L99.3015 43.8002C99.8144 43.2611 100.518 42.5212 101.283 41.7175C102.812 40.11 104.581 38.2483 105.545 37.2291M107.808 37.5204C108.267 37.3889 108.832 37.4075 109.472 38.0172ZM109.472 38.0172C110.124 38.6387 110.184 39.2304 110.08 39.7198C109.964 40.2661 109.626 40.7308 109.439 40.9245L109.437 40.9271C108.432 41.9815 106.708 43.786 105.234 45.3273C104.497 46.0979 103.823 46.8025 103.334 47.3145L102.538 48.1458C102.252 48.445 102.262 48.9199 102.561 49.2062C102.861 49.4926 103.335 49.4822 103.622 49.1829L104.417 48.3514C104.907 47.8394 105.581 47.1346 106.318 46.3639C107.791 44.8233 109.516 43.0186 110.522 41.9628C110.836 41.636 111.356 40.9314 111.547 40.0315C111.751 39.0734 111.565 37.94 110.507 36.9315C109.458 35.9314 108.333 35.8099 107.395 36.0783C106.518 36.3294 105.854 36.9019 105.545 37.2291M98.4929 45.7376C98.1929 45.452 98.1812 44.9772 98.4668 44.6772L99.01 45.1944L99.5534 45.7112C99.2678 46.0113 98.7929 46.0232 98.4929 45.7376Z" fill="black"/>
<path d="M95.2899 45.2642L70.1199 71.7342C69.5299 72.2342 77.0999 79.4642 77.5899 78.8342L102.76 52.3642L95.2899 45.2642Z" fill="black"/>
<path fill-rule="evenodd" clip-rule="evenodd" d="M95.1087 45.0919C95.2038 44.9918 95.362 44.9878 95.4621 45.083L102.932 52.183C102.98 52.2286 103.008 52.2916 103.01 52.3578C103.011 52.4241 102.987 52.4884 102.941 52.5364L77.7773 78.9999C77.65 79.15 77.4598 79.1292 77.364 79.1077C77.2475 79.0815 77.117 79.0226 76.984 78.9498C76.7135 78.8017 76.3674 78.5592 75.9798 78.2584C75.2013 77.6543 74.2208 76.7877 73.2775 75.8889C72.3341 74.99 71.4214 74.0528 70.7797 73.306C70.4601 72.9341 70.2008 72.6014 70.0389 72.3404C69.9593 72.212 69.8937 72.0859 69.861 71.9725C69.835 71.8825 69.7997 71.6905 69.9455 71.5548L95.1087 45.0919ZM95.2988 45.6176L70.3487 71.8563C70.3663 71.9048 70.4023 71.9776 70.4638 72.0769C70.605 72.3045 70.8441 72.6138 71.1589 72.9801C71.7859 73.7099 72.6858 74.6345 73.6224 75.5269C74.559 76.4193 75.526 77.2734 76.2863 77.8634C76.668 78.1596 76.9891 78.3825 77.2241 78.5112C77.3286 78.5684 77.4043 78.6003 77.4537 78.6147L102.406 52.3731L95.2988 45.6176ZM77.4981 78.6236C77.4983 78.6238 77.4965 78.6238 77.4922 78.6233C77.4958 78.6232 77.498 78.6235 77.4981 78.6236ZM70.336 71.8091C70.3362 71.8093 70.3367 71.8118 70.3369 71.816C70.3359 71.8111 70.3358 71.809 70.336 71.8091Z" fill="black"/>
<path fill-rule="evenodd" clip-rule="evenodd" d="M96.1565 45.0637C96.3004 45.2994 96.226 45.6071 95.9903 45.751C95.9022 45.8049 95.7574 45.937 95.565 46.1779C95.3796 46.41 95.174 46.7122 94.9582 47.0693C94.5269 47.7829 94.072 48.6877 93.6738 49.6259C93.2752 50.5649 92.9396 51.5228 92.7409 52.3425C92.6414 52.7526 92.5788 53.1179 92.5572 53.4228C92.5351 53.7358 92.5593 53.9468 92.6022 54.0704C92.6927 54.3313 92.5545 54.6162 92.2936 54.7067C92.0327 54.7971 91.7479 54.659 91.6574 54.3981C91.5503 54.0893 91.5335 53.7224 91.5597 53.3523C91.5865 52.974 91.6614 52.5507 91.769 52.1069C91.9843 51.2189 92.3406 50.2074 92.7533 49.2352C93.1663 48.2622 93.642 47.3138 94.1023 46.5521C94.3323 46.1715 94.5627 45.8305 94.7837 45.5538C94.9977 45.2859 95.2299 45.0437 95.4692 44.8976C95.7048 44.7536 96.0126 44.828 96.1565 45.0637Z" fill="white"/>
<path fill-rule="evenodd" clip-rule="evenodd" d="M80.446 69.4118C80.7069 69.3213 80.9917 69.4594 81.0822 69.7203C81.1893 70.0292 81.2061 70.396 81.1799 70.7662C81.1531 71.1444 81.0782 71.5677 80.9706 72.0115C80.7553 72.8996 80.399 73.911 79.9863 74.8833C79.5733 75.8563 79.0976 76.8047 78.6373 77.5663C78.4073 77.9469 78.1769 78.2879 77.9559 78.5646C77.7419 78.8325 77.5097 79.0747 77.2704 79.2209C77.0348 79.3648 76.727 79.2904 76.5831 79.0547C76.4392 78.8191 76.5136 78.5113 76.7492 78.3674C76.8374 78.3136 76.9822 78.1814 77.1746 77.9405C77.36 77.7084 77.5656 77.4062 77.7814 77.0491C78.2127 76.3355 78.6676 75.4308 79.0658 74.4925C79.4644 73.5536 79.8 72.5956 79.9987 71.7759C80.0982 71.3658 80.1608 71.0006 80.1824 70.6956C80.2045 70.3826 80.1803 70.1717 80.1374 70.048C80.0469 69.7871 80.1851 69.5023 80.446 69.4118Z" fill="white"/>
<path fill-rule="evenodd" clip-rule="evenodd" d="M102.999 51.4869C103.202 51.6742 103.215 51.9905 103.027 52.1934C101.066 54.3182 98.6482 55.2648 96.1769 55.7681C94.944 56.0192 93.6893 56.1616 92.4679 56.2828C92.2191 56.3075 91.972 56.3313 91.7268 56.3549C90.7606 56.4479 89.8234 56.5381 88.9197 56.6702C86.6515 57.0018 84.7184 57.5829 83.3218 59.0139C81.9311 60.4389 80.9887 62.7957 80.9199 66.8727C80.9152 67.1488 80.6876 67.3688 80.4115 67.3642C80.1354 67.3595 79.9153 67.1319 79.92 66.8558C79.9911 62.6478 80.9662 59.9958 82.6062 58.3155C84.2402 56.6412 86.4509 56.0205 88.7751 55.6807C89.7056 55.5447 90.6742 55.4515 91.643 55.3583C91.8852 55.335 92.1275 55.3117 92.3692 55.2877C93.5854 55.167 94.7974 55.0285 95.9773 54.7882C98.3316 54.3087 100.524 53.4303 102.293 51.5151C102.48 51.3122 102.796 51.2996 102.999 51.4869Z" fill="white"/>
<path fill-rule="evenodd" clip-rule="evenodd" d="M92.3907 56.8143C92.6668 56.8203 92.8857 57.0489 92.8798 57.325C92.7883 61.5568 91.7837 64.2144 90.1153 65.8901C88.4537 67.5589 86.2181 68.1656 83.8803 68.4919C82.9601 68.6203 82.0043 68.7074 81.0503 68.7943C80.7915 68.8179 80.5327 68.8415 80.2749 68.8659C79.0585 68.9809 77.8506 69.1148 76.6801 69.3523C74.345 69.8263 72.1946 70.7059 70.495 72.6348C70.3125 72.8419 69.9965 72.8619 69.7893 72.6793C69.5821 72.4968 69.5622 72.1808 69.7447 71.9737C71.6402 69.8225 74.0247 68.8709 76.4812 68.3723C77.7065 68.1236 78.9586 67.9859 80.1808 67.8703C80.4468 67.8452 80.711 67.8211 80.9732 67.7972C81.9236 67.7106 82.8479 67.6263 83.742 67.5015C86.0255 67.1828 87.9842 66.6132 89.4067 65.1846C90.8223 63.7628 91.7915 61.4016 91.88 57.3034C91.886 57.0273 92.1146 56.8084 92.3907 56.8143Z" fill="white"/>
<path fill-rule="evenodd" clip-rule="evenodd" d="M94.0291 51.9517C94.1243 51.8518 94.2826 51.8481 94.3825 51.9434L96.1125 53.5934C96.2124 53.6886 96.2161 53.8469 96.1209 53.9468C96.0256 54.0467 95.8673 54.0505 95.7674 53.9552L94.0374 52.3052C93.9375 52.2099 93.9338 52.0516 94.0291 51.9517Z" fill="white"/>
<path fill-rule="evenodd" clip-rule="evenodd" d="M94.6387 49.532C94.7339 49.432 94.8921 49.4281 94.9922 49.5232L98.5022 52.8632C98.6022 52.9584 98.6061 53.1167 98.5109 53.2167C98.4158 53.3167 98.2575 53.3206 98.1575 53.2255L94.6475 49.8855C94.5475 49.7903 94.5435 49.632 94.6387 49.532Z" fill="white"/>
<path fill-rule="evenodd" clip-rule="evenodd" d="M95.7692 47.6015C95.8645 47.5016 96.0228 47.498 96.1226 47.5934L100.363 51.6434C100.462 51.7388 100.466 51.897 100.371 51.9969C100.275 52.0967 100.117 52.1003 100.017 52.005L95.7773 47.955C95.6774 47.8596 95.6738 47.7013 95.7692 47.6015Z" fill="white"/>
<path fill-rule="evenodd" clip-rule="evenodd" d="M82.4285 63.9823C82.5235 63.8821 82.6817 63.8779 82.7819 63.9729L84.5219 65.6229C84.6221 65.7179 84.6263 65.8761 84.5313 65.9763C84.4363 66.0765 84.278 66.0807 84.1778 65.9857L82.4378 64.3357C82.3377 64.2407 82.3335 64.0825 82.4285 63.9823Z" fill="white"/>
<path fill-rule="evenodd" clip-rule="evenodd" d="M83.0389 61.562C83.134 61.462 83.2923 61.4581 83.3923 61.5533L86.9023 64.8933C87.0023 64.9885 87.0063 65.1467 86.9111 65.2467C86.8159 65.3468 86.6577 65.3507 86.5576 65.2555L83.0476 61.9155C82.9476 61.8203 82.9437 61.6621 83.0389 61.562Z" fill="white"/>
<path fill-rule="evenodd" clip-rule="evenodd" d="M84.1687 59.642C84.2638 59.5419 84.422 59.5379 84.5221 59.633L88.7721 63.673C88.8722 63.7681 88.8762 63.9264 88.7811 64.0265C88.6859 64.1265 88.5277 64.1305 88.4276 64.0354L84.1776 59.9954C84.0775 59.9003 84.0735 59.742 84.1687 59.642Z" fill="white"/>
<path fill-rule="evenodd" clip-rule="evenodd" d="M76.6884 70.2223C76.7834 70.1221 76.9417 70.1179 77.0419 70.2129L78.7719 71.8529C78.8721 71.9479 78.8763 72.1061 78.7813 72.2063C78.6863 72.3065 78.5281 72.3107 78.4279 72.2157L76.6979 70.5757C76.5977 70.4807 76.5935 70.3225 76.6884 70.2223Z" fill="white"/>
<path fill-rule="evenodd" clip-rule="evenodd" d="M74.2991 70.9417C74.3945 70.8418 74.5527 70.8381 74.6526 70.9334L78.1626 74.2834C78.2625 74.3787 78.2662 74.537 78.1708 74.6369C78.0755 74.7368 77.9173 74.7404 77.8174 74.6451L74.3074 71.2951C74.2075 71.1998 74.2038 71.0415 74.2991 70.9417Z" fill="white"/>
<path fill-rule="evenodd" clip-rule="evenodd" d="M88.4685 57.7824C88.5635 57.6821 88.7217 57.6779 88.8219 57.7729L90.5519 59.4129C90.6521 59.5079 90.6563 59.6662 90.5613 59.7664C90.4663 59.8666 90.3081 59.8708 90.2079 59.7758L88.4779 58.1358C88.3777 58.0408 88.3735 57.8826 88.4685 57.7824Z" fill="white"/>
<path fill-rule="evenodd" clip-rule="evenodd" d="M86.0792 58.5017C86.1745 58.4018 86.3327 58.3981 86.4326 58.4935L89.9426 61.8435C90.0425 61.9388 90.0462 62.097 89.9509 62.1969C89.8555 62.2968 89.6973 62.3005 89.5974 62.2052L86.0874 58.8552C85.9875 58.7598 85.9838 58.6016 86.0792 58.5017Z" fill="white"/>
<path fill-rule="evenodd" clip-rule="evenodd" d="M72.4389 72.1718C72.5341 72.0718 72.6924 72.068 72.7923 72.1632L77.0323 76.2033C77.1323 76.2985 77.1361 76.4567 77.0409 76.5567C76.9456 76.6567 76.7874 76.6605 76.6874 76.5652L72.4474 72.5252C72.3475 72.43 72.3436 72.2717 72.4389 72.1718Z" fill="white"/>
<path fill-rule="evenodd" clip-rule="evenodd" d="M68.0057 92.4034C68.0165 92.4058 68.0497 92.4139 68.1094 92.4398C68.2132 92.4848 68.3513 92.5636 68.5185 92.6828C68.8522 92.9204 69.2396 93.2738 69.6133 93.6894C69.9859 94.1039 70.3263 94.5597 70.5755 94.9919C70.8336 95.4394 70.9556 95.7958 70.9716 96.026C71.0001 96.4393 71.3583 96.7511 71.7715 96.7225C72.1848 96.6939 72.4966 96.3357 72.468 95.9225C72.4289 95.3577 72.1772 94.7666 71.8749 94.2425C71.5639 93.7032 71.1574 93.1634 70.7288 92.6866C70.3012 92.211 69.833 91.7775 69.3888 91.4611C69.1671 91.3032 68.9358 91.1632 68.7061 91.0636C68.488 90.969 68.2071 90.8824 67.9087 90.9067C67.4959 90.9404 67.1886 91.3024 67.2223 91.7153C67.2553 92.1197 67.6034 92.4229 68.0057 92.4034Z" fill="black"/>
<path fill-rule="evenodd" clip-rule="evenodd" d="M55.9603 79.2014C56.3374 79.3728 56.5041 79.8175 56.3327 80.1946C55.9473 81.0425 55.2983 82.2221 53.6438 83.14C53.2816 83.341 52.825 83.2102 52.6241 82.848C52.4231 82.4858 52.5539 82.0293 52.9161 81.8284C54.1816 81.1263 54.6526 80.2659 54.9671 79.5739C55.1385 79.1968 55.5832 79.03 55.9603 79.2014Z" fill="black"/>
<path fill-rule="evenodd" clip-rule="evenodd" d="M14.4989 139.995C14.8677 139.852 15.2841 140.02 15.4504 140.379C16.5381 142.725 17.4834 144.662 18.2746 146.271C18.3806 146.487 18.484 146.697 18.5847 146.902C19.233 148.219 19.77 149.31 20.1796 150.212C20.6481 151.244 20.9803 152.091 21.1148 152.792C21.2534 153.513 21.2033 154.194 20.7655 154.769C20.365 155.295 19.7285 155.604 19.044 155.85C18.4242 156.072 17.6387 156.283 16.7224 156.529C16.6042 156.56 16.4838 156.593 16.3613 156.626C14.1944 157.209 11.1707 158.056 7.16999 159.802C6.98644 159.882 6.77848 159.885 6.59244 159.811C6.4064 159.737 6.25772 159.591 6.17953 159.407L6.87 159.114C6.17953 159.407 6.17957 159.407 6.17953 159.407L5.93474 158.828C5.7793 158.46 5.55762 157.934 5.29255 157.303C4.76247 156.041 4.0586 154.356 3.36393 152.668C2.66973 150.982 1.98285 149.287 1.48765 148.007C1.24071 147.368 1.03789 146.824 0.905372 146.432C0.840263 146.239 0.785862 146.065 0.752624 145.929C0.737519 145.867 0.717536 145.777 0.710938 145.684C0.708109 145.644 0.702701 145.546 0.729408 145.43C0.74975 145.341 0.852232 144.987 1.25446 144.866L1.25767 144.865C2.66518 144.449 5.96021 143.239 8.93575 142.119C10.4164 141.561 11.8073 141.03 12.8282 140.639C13.3387 140.443 13.7565 140.282 14.0466 140.17L14.4989 139.995C14.499 139.995 14.4989 139.995 14.77 140.694L14.4989 139.995ZM14.386 141.647C14.1151 141.751 13.7692 141.884 13.3655 142.039C12.3427 142.431 10.9486 142.964 9.46424 143.522C6.90713 144.485 4.04999 145.539 2.37302 146.087C2.49505 146.437 2.67071 146.907 2.88667 147.466C3.37585 148.731 4.05773 150.413 4.75104 152.098C5.44387 153.781 6.14626 155.462 6.67556 156.722C6.91315 157.288 7.11581 157.769 7.267 158.127C11.0233 156.539 13.9006 155.734 15.9715 155.177C16.0934 155.144 16.2119 155.113 16.3271 155.082C17.2614 154.831 17.9802 154.638 18.5372 154.438C19.1782 154.208 19.4519 154.018 19.572 153.86C19.6548 153.751 19.7359 153.564 19.6418 153.075C19.5437 152.564 19.2796 151.858 18.8139 150.832C18.4147 149.953 17.8897 148.886 17.2396 147.565C17.1389 147.361 17.0351 147.15 16.9284 146.933C16.2079 145.467 15.3568 143.724 14.386 141.647Z" fill="black"/>
</svg>
