<svg width="40" height="80" viewBox="0 0 40 80" fill="none" xmlns="http://www.w3.org/2000/svg">
<path fill-rule="evenodd" clip-rule="evenodd" d="M9.25532 3.41143C5.962 4.29434 3.47134 5.58525 2.23307 7.18367C1.9794 7.51112 1.50831 7.57092 1.18086 7.31725C0.853409 7.06358 0.7936 6.59249 1.04727 6.26504C2.594 4.26845 5.48459 2.86936 8.8669 1.96259C12.2817 1.04711 16.3343 0.597438 20.3658 0.600603C24.3972 0.603767 28.4423 1.05979 31.8421 1.97696C35.2082 2.88505 38.0791 4.28162 39.5963 6.26929C39.8476 6.59855 39.7845 7.0692 39.4552 7.32052C39.126 7.57185 38.6553 7.50867 38.404 7.17941C37.1962 5.59708 34.7309 4.30991 31.4514 3.42518C28.2055 2.54954 24.2956 2.10369 20.3646 2.1006C16.4336 2.09752 12.5162 2.53722 9.25532 3.41143Z" fill="black"/>
<path fill-rule="evenodd" clip-rule="evenodd" d="M4.67264 71.5117C3.53546 72.1501 2.74918 72.8559 2.31975 73.5994C2.11259 73.9581 1.65387 74.0809 1.29519 73.8738C0.936501 73.6666 0.813668 73.2079 1.02083 72.8492C1.6339 71.7877 2.6695 70.916 3.93837 70.2037C5.21299 69.4882 6.77181 68.906 8.50067 68.4466C11.9586 67.5279 16.1836 67.078 20.3847 67.0818C24.5858 67.0856 28.805 67.5431 32.2515 68.4638C33.9746 68.9241 35.5264 69.5059 36.7926 70.219C38.0528 70.9287 39.08 71.7966 39.6819 72.853C39.887 73.2129 39.7615 73.6709 39.4016 73.8759C39.0417 74.081 38.5837 73.9555 38.3786 73.5956C37.9606 72.862 37.1856 72.1618 36.0566 71.526C34.9336 70.8935 33.5093 70.3524 31.8644 69.913C28.5749 69.0342 24.491 68.5855 20.3834 68.5818C16.2757 68.5781 12.1863 69.0195 8.88584 69.8964C7.23548 70.3348 5.80408 70.8765 4.67264 71.5117Z" fill="black"/>
<path fill-rule="evenodd" clip-rule="evenodd" d="M39.2638 6.0086C39.5616 6.11562 39.7601 6.39799 39.7601 6.71439V73.4844C39.7601 73.644 39.7092 73.7994 39.6148 73.9281C38.9131 74.8844 37.8395 75.6733 36.5536 76.3221C35.2616 76.974 33.7112 77.5065 32.0035 77.9279C28.5884 78.7705 24.4719 79.1857 20.3699 79.1844C16.2678 79.1831 12.1443 78.7654 8.71486 77.9224C5.33366 77.0913 2.45125 75.8055 1.04134 73.936C0.943214 73.8059 0.890137 73.6474 0.890137 73.4844V6.71439C0.890137 6.40374 1.08165 6.12524 1.37173 6.01407C1.6618 5.90289 1.9904 5.98205 2.19802 6.21313C3.72307 7.91044 6.32881 9.27311 9.57814 10.2156C12.81 11.1531 16.5964 11.6511 20.3907 11.6794C24.1856 11.7077 27.9581 11.2661 31.1639 10.3445C34.3861 9.41823 36.9498 8.03216 38.4317 6.23694C38.6332 5.99293 38.9661 5.90158 39.2638 6.0086ZM2.39014 8.43197V73.2213C3.53124 74.5631 5.88718 75.6827 9.07292 76.4658C12.3585 77.2734 16.3575 77.6832 20.3704 77.6844C24.3833 77.6856 28.3744 77.2783 31.6442 76.4715C33.2791 76.0682 34.7156 75.5694 35.8779 74.9829C36.9418 74.4461 37.7402 73.8539 38.2601 73.2267V8.51531C36.5245 9.95985 34.1899 11.0354 31.5783 11.7861C28.2071 12.7552 24.2872 13.2085 20.3795 13.1794C16.4714 13.1502 12.5453 12.6382 9.16026 11.6563C6.51743 10.8897 4.15301 9.82171 2.39014 8.43197Z" fill="black"/>
</svg>
