<svg width="166" height="90" viewBox="0 0 166 90" fill="none" xmlns="http://www.w3.org/2000/svg">
<path fill-rule="evenodd" clip-rule="evenodd" d="M144.773 0.22655C144.953 0.212792 145.132 0.264357 145.277 0.37179L164.007 14.2518C164.206 14.3998 164.32 14.637 164.309 14.8853C163.89 25.0304 164.231 77.1999 165.446 89.1586C165.471 89.4023 165.375 89.6427 165.19 89.8026C165.004 89.9625 164.752 90.0216 164.515 89.9611C162.258 89.3852 157.545 88.6857 151.603 87.9682C145.679 87.2529 138.583 86.5252 131.591 85.8875C124.599 85.2498 117.716 84.7026 112.22 84.348C106.689 83.9911 102.641 83.8354 101.258 83.9613C101.048 83.9804 100.84 83.9103 100.684 83.7682C100.529 83.6261 100.44 83.4251 100.44 83.2144C100.44 82.4335 100.465 80.1014 100.499 76.8463C100.612 66.215 100.829 45.7373 100.63 37.292C100.621 36.8779 100.948 36.5343 101.362 36.5246C101.777 36.5148 102.12 36.8426 102.13 37.2567C102.33 45.7356 102.111 66.3406 101.999 76.9446C101.973 79.3991 101.952 81.3177 101.944 82.4262C103.883 82.381 107.628 82.5485 112.316 82.8511C117.829 83.2068 124.725 83.7551 131.727 84.3937C138.729 85.0323 145.84 85.7615 151.783 86.479C156.948 87.1027 161.267 87.7218 163.859 88.2706C162.726 74.6903 162.409 25.9919 162.795 15.2212L144.608 1.74351L101.403 5.04748C101.404 5.08117 101.405 5.116 101.406 5.15197C101.423 5.68966 101.447 6.48082 101.476 7.49514C101.535 9.52376 101.615 12.4451 101.7 16.0165C101.71 16.4306 101.382 16.7743 100.968 16.7842C100.554 16.794 100.21 16.4663 100.2 16.0522C100.115 12.4837 100.035 9.56497 99.9767 7.53859C99.9473 6.5254 99.9233 5.73532 99.9066 5.19863C99.8982 4.93029 99.8917 4.7253 99.8873 4.58746L99.8805 4.37992C99.8673 3.97855 100.173 3.63717 100.573 3.60655L144.773 0.22655Z" fill="black"/>
<path fill-rule="evenodd" clip-rule="evenodd" d="M2.64588 0.327958C2.79927 0.178002 3.00953 0.100905 3.2235 0.116159L49.5135 3.41616C49.6787 3.42794 49.8353 3.49404 49.959 3.60417L65.399 17.3542C65.5763 17.512 65.6684 17.7445 65.6472 17.981C65.1308 23.7618 64.6011 54.4249 64.2996 71.8768C64.2116 76.9677 64.1431 80.9344 64.1 82.8313C64.0906 83.2419 63.7529 83.5686 63.3422 83.5642C55.7898 83.4843 28.9483 85.1312 12.9867 86.1105C7.03019 86.476 2.58885 86.7485 1.2306 86.8036C1.01318 86.8125 0.802652 86.7264 0.653645 86.5678C0.504637 86.4093 0.431842 86.1938 0.454151 85.9774C1.15517 79.176 1.74007 59.8209 2.10283 41.1722C2.46557 22.5244 2.6045 4.67865 2.42105 0.900634C2.41065 0.686374 2.49249 0.477914 2.64588 0.327958ZM3.94944 1.67172C4.08806 6.8286 3.94298 23.7001 3.60254 41.2013C3.25455 59.0911 2.70085 77.7273 2.02922 85.2632C3.91161 85.1638 7.75898 84.9278 12.6711 84.6264C28.1249 83.6783 54.1172 82.0836 62.6162 82.0617C62.6588 80.0009 62.7206 76.4231 62.7975 71.9692C63.0925 54.8853 63.6101 24.9122 64.122 18.2255L49.1521 4.8942L3.94944 1.67172Z" fill="black"/>
<path d="M12.1902 26.2243L56.3802 26.7443L55.8402 25.7643C50.5702 25.8043 17.2402 24.7843 11.7002 24.4043L12.1902 26.2243Z" fill="black"/>
<path fill-rule="evenodd" clip-rule="evenodd" d="M11.5071 24.2455C11.5584 24.1831 11.6367 24.1494 11.7173 24.1549C17.2511 24.5345 50.5747 25.5543 55.8383 25.5143C55.9301 25.5136 56.0149 25.5633 56.0592 25.6437L56.5992 26.6236C56.6421 26.7016 56.6404 26.7964 56.5947 26.8727C56.549 26.949 56.4662 26.9953 56.3773 26.9943L12.1872 26.4743C12.0753 26.473 11.9779 26.3974 11.9488 26.2893L11.4588 24.4693C11.4378 24.3913 11.4558 24.3079 11.5071 24.2455ZM12.0323 24.6763L12.3824 25.9765L55.9542 26.4893L55.693 26.0151C50.079 26.0356 18.4379 25.0692 12.0323 24.6763Z" fill="black"/>
<path d="M11.7102 69.5944L57.1402 67.9044L56.8302 66.4644L12.1902 68.6844L11.7102 69.5944Z" fill="black"/>
<path fill-rule="evenodd" clip-rule="evenodd" d="M56.8178 66.2147C56.9401 66.2086 57.0488 66.292 57.0746 66.4117L57.3846 67.8517C57.4002 67.924 57.3829 67.9994 57.3376 68.0578C57.2922 68.1162 57.2234 68.1514 57.1495 68.1542L11.7195 69.8442C11.6303 69.8475 11.5461 69.803 11.4986 69.7274C11.451 69.6519 11.4474 69.5567 11.4891 69.4777L11.9691 68.5677C12.0103 68.4896 12.0896 68.4391 12.1778 68.4347L56.8178 66.2147ZM12.3449 68.927L12.1331 69.3285L56.8331 67.6656L56.6305 66.7246L12.3449 68.927Z" fill="black"/>
<path d="M57.1702 41.2742C45.9702 40.8342 23.4102 40.3942 12.1902 40.3942L12.3302 39.2642L57.9602 39.8242L57.1702 41.2742Z" fill="black"/>
<path fill-rule="evenodd" clip-rule="evenodd" d="M12.0821 39.2334C12.0978 39.107 12.2059 39.0126 12.3333 39.0142L57.9633 39.5742C58.0509 39.5753 58.1316 39.6222 58.1759 39.6978C58.2202 39.7735 58.2217 39.8668 58.1797 39.9438L57.3897 41.3938C57.3442 41.4772 57.2553 41.5277 57.1604 41.524C45.9637 41.0841 23.4069 40.6442 12.1902 40.6442C12.1185 40.6442 12.0503 40.6134 12.0029 40.5597C11.9554 40.506 11.9333 40.4345 11.9421 40.3634L12.0821 39.2334ZM12.5508 39.5169L12.4731 40.1442C23.7362 40.1515 45.8638 40.5839 57.0249 41.0183L57.5421 40.069L12.5508 39.5169Z" fill="black"/>
<path d="M57.9802 53.9242L12.0502 54.9042L11.7102 53.7342L57.1402 52.8342L57.9802 53.9242Z" fill="black"/>
<path fill-rule="evenodd" clip-rule="evenodd" d="M57.1353 52.5843C57.2145 52.5827 57.2898 52.6188 57.3382 52.6816L58.1782 53.7716C58.2358 53.8463 58.2464 53.9471 58.2057 54.0322C58.1649 54.1173 58.0798 54.1722 57.9855 54.1742L12.0555 55.1542C11.9423 55.1566 11.8417 55.0827 11.8101 54.974L11.4701 53.804C11.4484 53.7293 11.4627 53.6488 11.5088 53.5861C11.5549 53.5235 11.6275 53.4858 11.7053 53.4843L57.1353 52.5843ZM12.0413 53.9777L12.2367 54.6502L57.4801 53.6848L57.0191 53.0867L12.0413 53.9777Z" fill="black"/>
<path fill-rule="evenodd" clip-rule="evenodd" d="M49.3641 3.43479C49.7781 3.42041 50.1253 3.74434 50.1397 4.15831L50.6135 17.8033L64.8587 17.205C65.2725 17.1876 65.6221 17.509 65.6395 17.9229C65.6569 18.3367 65.3355 18.6863 64.9216 18.7037L49.9216 19.3337C49.7219 19.3421 49.5272 19.2704 49.3805 19.1346C49.2339 18.9988 49.1475 18.8101 49.1406 18.6104L48.6406 4.21036C48.6262 3.7964 48.9502 3.44916 49.3641 3.43479Z" fill="black"/>
<path fill-rule="evenodd" clip-rule="evenodd" d="M144.651 0.909648C145.063 0.860598 145.436 1.15426 145.485 1.56556L147.188 15.8506L163.511 14.3475C163.924 14.3096 164.289 14.6131 164.327 15.0256C164.365 15.4381 164.061 15.8032 163.649 15.8412L146.599 17.4112C146.194 17.4485 145.834 17.1567 145.785 16.7532L143.995 1.74318C143.946 1.33188 144.24 0.958698 144.651 0.909648Z" fill="black"/>
<path fill-rule="evenodd" clip-rule="evenodd" d="M135.955 14.9886C136.101 15.1263 136.185 15.3166 136.19 15.5171L136.67 36.6371C136.675 36.8373 136.599 37.0309 136.46 37.1749C136.321 37.319 136.13 37.4015 135.93 37.4041L91.39 37.9841C90.9785 37.9895 90.6396 37.6623 90.6304 37.251L90.1804 17.131C90.1712 16.7207 90.4935 16.3792 90.9036 16.3647L135.414 14.7847C135.614 14.7775 135.809 14.851 135.955 14.9886ZM91.6965 17.8375L92.1134 36.4746L135.153 35.9141L134.708 16.3107L91.6965 17.8375Z" fill="black"/>
<path d="M107.19 29.0043C106.92 27.5843 104.75 26.7143 104.75 26.7143C106.41 26.1643 107.47 22.5543 104.63 21.6043C102.84 20.7543 98.5503 21.5043 98.5503 21.5043L98.7803 32.3843C99.9403 32.3143 108.37 33.8243 107.19 29.0043ZM100.75 22.9643C100.71 22.3943 103.81 22.5843 103.81 24.1643C103.81 25.6543 101.37 26.0543 100.92 25.6743C100.64 25.4543 100.8 23.8243 100.75 22.9643ZM100.97 31.0343C100.87 30.1443 100.85 28.6543 100.95 28.1143C101.06 27.5443 104.37 27.7443 104.37 29.5443C104.37 31.7743 101.02 31.4643 100.97 31.0343Z" fill="black"/>
<path fill-rule="evenodd" clip-rule="evenodd" d="M104.817 21.1396C105.618 21.4141 106.179 21.8886 106.515 22.4785C106.851 23.0679 106.943 23.7354 106.875 24.3629C106.807 24.9894 106.579 25.5988 106.247 26.0957C106.107 26.3035 105.945 26.4982 105.763 26.6675C105.887 26.7405 106.018 26.8229 106.152 26.9144C106.744 27.3206 107.5 27.9872 107.679 28.8976C107.839 29.5583 107.844 30.1485 107.696 30.6677C107.546 31.1943 107.248 31.6137 106.858 31.9396C106.099 32.5742 104.997 32.8527 103.918 32.9725C102.823 33.0941 101.663 33.0605 100.72 33.0035C100.359 32.9818 100.025 32.9563 99.7381 32.9344C99.6494 32.9276 99.5652 32.9212 99.4861 32.9153C99.1333 32.8891 98.914 32.8771 98.8105 32.8834C98.6747 32.8916 98.5415 32.8441 98.4415 32.7519C98.3415 32.6598 98.2833 32.5308 98.2804 32.3949L98.0504 21.5149C98.0452 21.268 98.221 21.0543 98.4642 21.0118L98.5503 21.5043C98.4642 21.0118 98.4641 21.0118 98.4642 21.0118L98.4683 21.0111L98.4786 21.0093L98.5171 21.0028C98.5504 20.9973 98.599 20.9894 98.661 20.9797C98.7852 20.9603 98.9636 20.9338 99.1829 20.9047C99.6209 20.8467 100.225 20.7781 100.888 20.7365C101.549 20.6951 102.278 20.6799 102.963 20.7315C103.627 20.7815 104.291 20.8967 104.817 21.1396ZM99.0594 21.9312L99.2702 31.8977C99.3626 31.9036 99.4601 31.9106 99.5602 31.918C99.6427 31.9242 99.7293 31.9308 99.8195 31.9377C100.105 31.9595 100.428 31.9841 100.78 32.0054C101.706 32.0612 102.798 32.0907 103.808 31.9786C104.834 31.8646 105.69 31.6126 106.216 31.1725C106.469 30.9609 106.645 30.7071 106.734 30.3934C106.825 30.0754 106.837 29.6625 106.705 29.1232C106.703 29.1147 106.701 29.1062 106.699 29.0977C106.604 28.5949 106.143 28.121 105.586 27.7392C105.322 27.5581 105.063 27.4163 104.87 27.3197C104.774 27.2716 104.695 27.2353 104.641 27.2115C104.614 27.1996 104.594 27.1908 104.581 27.1852L104.567 27.1794L104.564 27.1784C104.37 27.1002 104.244 26.9087 104.251 26.699C104.257 26.4891 104.394 26.3057 104.593 26.2397C104.872 26.1471 105.169 25.9079 105.416 25.5392C105.66 25.1748 105.831 24.7192 105.881 24.2557C105.931 23.7932 105.858 23.3456 105.646 22.9738C105.438 22.6094 105.076 22.2805 104.472 22.0785C104.453 22.0721 104.434 22.0646 104.416 22.056C104.051 21.8828 103.52 21.7762 102.888 21.7287C102.265 21.6818 101.585 21.6948 100.95 21.7346C100.317 21.7743 99.7365 21.8401 99.3143 21.8961C99.2211 21.9084 99.1358 21.9203 99.0594 21.9312ZM101.259 23.1874C101.263 23.4358 101.259 23.7215 101.255 23.9987C101.252 24.1949 101.249 24.3868 101.249 24.5581C101.25 24.8259 101.258 25.0511 101.279 25.2157C101.282 25.2458 101.286 25.2714 101.29 25.2929C101.353 25.3041 101.44 25.3111 101.549 25.3084C101.787 25.3024 102.081 25.2516 102.365 25.1499C102.97 24.9332 103.31 24.5825 103.31 24.1643C103.31 23.9568 103.217 23.7817 103.015 23.6211C102.803 23.4523 102.495 23.3224 102.155 23.2458C101.817 23.1694 101.493 23.1563 101.277 23.1848C101.271 23.1857 101.265 23.1865 101.259 23.1874ZM103.638 22.8391C104.017 23.1406 104.31 23.5818 104.31 24.1643C104.31 25.2361 103.431 25.8304 102.703 26.0912C102.32 26.2282 101.921 26.2993 101.574 26.308C101.401 26.3124 101.229 26.3015 101.073 26.2694C100.929 26.2398 100.751 26.1829 100.604 26.0613C100.458 25.9433 100.393 25.7844 100.36 25.6886C100.323 25.5776 100.301 25.4565 100.287 25.3423C100.257 25.1125 100.25 24.8352 100.249 24.5604C100.249 24.3429 100.252 24.1276 100.255 23.9216C100.261 23.5742 100.266 23.2533 100.251 22.9933L100.75 22.9643L100.252 22.9993C100.227 22.6539 100.461 22.4454 100.622 22.3533C100.784 22.261 100.974 22.2161 101.146 22.1935C101.5 22.1467 101.944 22.173 102.375 22.2703C102.806 22.3674 103.27 22.5457 103.638 22.8391ZM101.42 28.3674C101.461 28.3579 101.514 28.3484 101.582 28.3416C101.845 28.3147 102.212 28.3364 102.584 28.4265C102.958 28.5171 103.296 28.6668 103.529 28.8637C103.751 29.051 103.87 29.2694 103.87 29.5443C103.87 29.9595 103.722 30.2213 103.515 30.4034C103.293 30.5998 102.97 30.7301 102.603 30.7943C102.239 30.858 101.873 30.8489 101.607 30.8036C101.542 30.7926 101.489 30.7804 101.446 30.7685C101.411 30.3751 101.389 29.8936 101.385 29.4385C101.381 28.9987 101.394 28.6152 101.42 28.3674ZM101.332 30.7268C101.332 30.7268 101.332 30.727 101.333 30.7275ZM104.174 28.099C104.575 28.4376 104.87 28.9192 104.87 29.5443C104.87 30.2441 104.6 30.7798 104.177 31.1533C103.77 31.5126 103.252 31.696 102.775 31.7793C102.296 31.8631 101.815 31.8534 101.439 31.7894C101.253 31.7578 101.07 31.7091 100.918 31.6378C100.843 31.6025 100.755 31.5521 100.676 31.4792C100.6 31.4084 100.496 31.2803 100.474 31.092L100.473 31.0901C100.421 30.6232 100.39 30.0103 100.385 29.4476C100.38 28.8973 100.399 28.3459 100.459 28.0233L100.459 28.0196C100.52 27.7045 100.775 27.5493 100.923 27.4825C101.092 27.4064 101.289 27.3663 101.48 27.3467C101.869 27.307 102.35 27.341 102.819 27.4546C103.286 27.5677 103.783 27.77 104.174 28.099Z" fill="black"/>
<path d="M110.71 21.0543C110.64 22.8643 110.63 29.4943 110.79 32.2143C110.83 32.8343 114.71 32.7743 114.68 32.1343C114.58 30.5043 114.91 21.6543 114.4 20.8243C114.12 20.3743 110.73 20.5043 110.71 21.0543Z" fill="black"/>
<path d="M119.09 31.9941C124.14 33.8841 121.63 29.1141 122.03 27.0041C122.46 27.2641 124.58 31.1141 125.33 31.9141C130.59 34.3841 127.5 23.8441 128.09 20.8141C128.09 20.1441 126.31 19.9041 125.16 20.3541C124.6 20.5741 125.23 26.1341 124.93 25.9141C123.36 24.7741 122.25 18.4141 118.76 20.5441C118.45 23.0041 118.79 31.1241 119.09 31.9941Z" fill="black"/>
<path d="M69.1503 50.6243C74.5103 50.2943 93.6002 50.6043 93.6002 50.6043L92.9503 49.8343C92.9503 49.8343 73.6302 49.4243 68.9202 49.9043C68.6402 49.9043 68.5403 50.6643 69.1503 50.6243Z" fill="black"/>
<path fill-rule="evenodd" clip-rule="evenodd" d="M92.9553 49.5843C92.9555 49.5843 92.9556 49.5843 92.9503 49.8343L92.9553 49.5843C93.0271 49.5859 93.095 49.6182 93.1413 49.673L93.7913 50.443C93.8545 50.5179 93.8681 50.6229 93.8261 50.7114C93.7841 50.8 93.6942 50.8558 93.5962 50.8542L93.6002 50.6043C93.5962 50.8542 93.5963 50.8543 93.5962 50.8542L92.7658 50.8416C92.2335 50.8338 91.467 50.8229 90.5305 50.811C88.6574 50.7871 86.1042 50.7586 83.3836 50.7405C77.9382 50.7043 71.8359 50.7095 69.1661 50.8738C68.9604 50.8872 68.7812 50.8336 68.6493 50.7135C68.5208 50.5965 68.4648 50.4412 68.4525 50.3012C68.4403 50.163 68.4684 50.0187 68.5337 49.9011C68.5952 49.7903 68.7177 49.6613 68.9049 49.6546C71.2837 49.4138 77.2986 49.3969 82.7035 49.4393C85.4138 49.4606 87.9767 49.4968 89.862 49.5278C90.8047 49.5432 91.578 49.5574 92.1157 49.5677C92.3845 49.5728 92.5945 49.577 92.7372 49.5798L92.9553 49.5843ZM93.055 50.3459L92.8321 50.0819L92.7271 50.0797C92.5845 50.0769 92.3748 50.0727 92.1061 50.0676C91.5688 50.0573 90.796 50.0432 89.8538 50.0277C87.9694 49.9968 85.408 49.9605 82.6995 49.9393C77.2911 49.8969 71.3205 49.9146 68.9673 50.1508C68.9558 50.1754 68.9468 50.2149 68.9505 50.2574C68.9545 50.3024 68.9704 50.3296 68.986 50.3439C68.998 50.3548 69.0348 50.3813 69.1339 50.3748C71.8244 50.2092 77.9477 50.2043 83.3869 50.2405C86.1088 50.2587 88.6631 50.2871 90.5369 50.311C91.4738 50.323 92.2406 50.3338 92.7732 50.3416L93.055 50.3459ZM68.9773 50.1338C68.9773 50.1338 68.9769 50.1343 68.9763 50.135Z" fill="black"/>
<path d="M91.8601 47.7344L92.4701 50.2044L92.0001 52.5544L96.2001 50.0144L91.8601 47.7344Z" fill="black"/>
<path fill-rule="evenodd" clip-rule="evenodd" d="M91.5518 47.3408C91.7067 47.2194 91.9184 47.2002 92.0927 47.2917L96.4327 49.5717C96.5924 49.6556 96.6945 49.819 96.6999 49.9993C96.7054 50.1796 96.6133 50.3489 96.4589 50.4422L92.2589 52.9822C92.0893 53.0848 91.8751 53.0775 91.7128 52.9636C91.5506 52.8497 91.471 52.6507 91.5099 52.4563L91.9579 50.2158L91.3747 47.8543C91.3275 47.6632 91.3968 47.4622 91.5518 47.3408ZM92.6122 48.6943L92.9555 50.0845C92.9732 50.1559 92.9748 50.2303 92.9604 50.3024L92.7131 51.5389L95.1833 50.045L92.6122 48.6943Z" fill="black"/>
</svg>
