<svg width="85" height="71" viewBox="0 0 85 71" fill="none" xmlns="http://www.w3.org/2000/svg">
<path fill-rule="evenodd" clip-rule="evenodd" d="M36.975 39.2866C37.3271 39.5047 37.4357 39.967 37.2176 40.3191L19.0676 69.6191C18.8495 69.9713 18.3872 70.0799 18.0351 69.8618C17.683 69.6436 17.5743 69.1814 17.7925 68.8292L35.9424 39.5292C36.1606 39.1771 36.6229 39.0685 36.975 39.2866Z" fill="black"/>
<path fill-rule="evenodd" clip-rule="evenodd" d="M49.1983 34.8379C49.3288 34.4448 49.7532 34.2319 50.1464 34.3624L82.7464 45.1824C83.1395 45.3128 83.3524 45.7373 83.2219 46.1304C83.0915 46.5236 82.667 46.7365 82.2739 46.606L49.6739 35.786C49.2807 35.6555 49.0678 35.2311 49.1983 34.8379Z" fill="black"/>
<path fill-rule="evenodd" clip-rule="evenodd" d="M69.8853 3.85231C69.4086 2.55237 68.6723 1.62114 67.5494 1.18957ZM69.8853 3.85231L84.4676 43.515C84.8965 44.6785 84.8333 45.7584 84.3018 46.6819C83.7701 47.6055 82.8001 48.3201 81.5393 48.7924L81.529 48.7962L21.1199 70.5601C19.8852 71.0049 18.6763 71.1086 17.6349 70.5634C16.6759 70.0613 16.0574 69.0985 15.5981 67.847C13.7627 62.8527 10.1398 52.9972 6.97589 44.3903L1.10699 28.4252C1.10691 28.425 1.10687 28.4249 1.83001 28.2712L1.10699 28.4252C0.69142 27.2926 0.621627 26.2124 0.987921 25.2846C1.36095 24.3397 2.17424 23.5879 3.41336 23.1354L3.41696 23.1341L63.835 1.36689C65.1171 0.920499 66.4091 0.75137 67.5494 1.18957M64.4675 2.40879C65.5762 2.02346 66.3314 2.00724 66.8688 2.21375C67.424 2.42713 67.9958 2.97144 68.4319 4.16089L83.0145 43.8244C83.3665 44.779 83.2878 45.5817 82.9194 46.2218C82.5517 46.8606 81.8654 47.3901 80.8775 47.7611C80.8758 47.7617 80.8742 47.7623 80.8726 47.7629L20.4739 69.5231C19.4778 69.8819 18.9018 69.8335 18.4905 69.6182C17.9968 69.3597 17.4948 68.7462 17.0515 67.5383C15.216 62.544 11.5931 52.6883 8.42916 44.0813L2.56026 28.1163C2.56074 28.1162 2.56025 28.1163 2.56026 28.1163C2.19499 27.1207 2.17327 26.2729 2.43317 25.6145C2.68617 24.9737 3.21599 24.4809 4.06487 24.1705C4.06545 24.1703 4.06603 24.17 4.06662 24.1698L64.4675 2.40879Z" fill="black"/>
<path fill-rule="evenodd" clip-rule="evenodd" d="M68.7755 2.87485C69.134 3.08227 69.2566 3.54107 69.0491 3.89961C66.5081 8.29216 64.2911 12.257 62.3068 15.8057C59.5632 20.7123 57.2644 24.8234 55.1689 28.1696C51.5574 33.9365 48.4254 37.6505 44.4231 39.3588C40.4021 41.0752 35.6707 40.6995 29.0489 38.7588C22.8623 36.9457 14.876 33.7175 4.06739 29.3484C3.299 29.0379 2.51635 28.7215 1.71907 28.3995C1.335 28.2443 1.14941 27.8072 1.30454 27.4232C1.45967 27.0391 1.89677 26.8535 2.28084 27.0086C3.06308 27.3246 3.83079 27.6349 4.58434 27.9395C15.4413 32.3278 23.3591 35.5282 29.4707 37.3193C36.011 39.2361 40.3115 39.4829 43.8343 37.9793C47.3757 36.4676 50.2994 33.1191 53.8976 27.3735C55.9791 24.0498 58.2448 19.9971 60.9668 15.1283C62.9506 11.5798 65.1768 7.5978 67.7508 3.14849C67.9582 2.78995 68.417 2.66744 68.7755 2.87485Z" fill="black"/>
</svg>
