<svg width="288" height="207" viewBox="0 0 288 207" fill="none" xmlns="http://www.w3.org/2000/svg">
<path d="M219.86 119.109C217.202 118.34 215.516 116.357 214.755 117.141C214.006 117.926 213.189 120.611 213.038 121.865" stroke="black" stroke-width="1.5" stroke-miterlimit="10" stroke-linecap="round" stroke-linejoin="round"/>
<path d="M257.905 134.66C257.905 134.66 258.092 131.926 258.111 128.512C258.127 126.493 252.248 127.741 252.248 127.741" stroke="black" stroke-width="1.5" stroke-miterlimit="10" stroke-linecap="round" stroke-linejoin="round"/>
<path d="M215.532 116.918C215.532 116.918 216.034 114.426 216.608 111.809C217.608 107.283 219.275 95.5409 219.761 90.0768C220.64 80.019 220.585 63.4756 220.585 63.4756" stroke="black" stroke-width="1.5" stroke-miterlimit="10" stroke-linecap="round" stroke-linejoin="round"/>
<path d="M285.334 47.2053C280.769 74.1478 269.889 93.5611 264.958 106.097C261.826 114.065 258.156 128.507 258.156 128.507" stroke="black" stroke-width="1.5" stroke-miterlimit="10" stroke-linecap="round" stroke-linejoin="round"/>
<path d="M261.73 138.148C261.73 138.148 260.989 135.685 260.418 135.354C258.3 134.119 255.82 135.763 254.32 137.087C252.871 138.362 249.535 143.423 247.587 144.666C246.188 145.557 240.517 145.112 239.117 144.718C232.352 142.814 223.236 136.128 218.475 132.462C217.379 131.616 215.225 129.886 215.101 128.083C214.982 126.158 214.019 122.907 212.694 121.931C212.236 121.593 210.468 121.274 210.468 121.274" stroke="black" stroke-width="1.5" stroke-miterlimit="10" stroke-linecap="round" stroke-linejoin="round"/>
<path d="M209.204 131.707C209.204 131.707 211.517 135.658 214.673 139.562C218.636 144.475 223.714 148.628 227.054 151.283C230.414 153.963 235.872 158.199 243.836 155.078" stroke="black" stroke-width="1.5" stroke-miterlimit="10" stroke-linecap="round" stroke-linejoin="round"/>
<path d="M196.289 180.602C196.289 180.602 183.182 169.825 180.066 168.025C175.359 165.316 160.212 167.517 156.717 165.02C154.806 163.656 155.168 161.637 151.743 160.411C148.703 159.314 133.741 156.045 130.193 154.904C125.198 153.296 117.768 150.748 115.229 144.244" stroke="black" stroke-width="1.5" stroke-miterlimit="10" stroke-linecap="round" stroke-linejoin="round"/>
<path d="M266.097 178.186C265.076 170.907 263.884 161.842 263.762 155.808C263.641 149.853 263.352 138.817 260.876 135.783" stroke="black" stroke-width="1.5" stroke-miterlimit="10" stroke-linecap="round" stroke-linejoin="round"/>
<path opacity="0.9098" d="M147.01 144.289C147.01 144.289 146.174 145.744 146.245 146.49C146.633 150.817 155.223 151.997 156.024 152.101C162.772 152.931 176.79 152.46 181.465 151.458C186.253 150.438 203.937 141.587 205.214 141.552C207.488 141.5 218.113 154.021 222.576 158.005C227.55 162.447 238.08 169.238 242.829 175.325" stroke="black" stroke-width="1.5" stroke-miterlimit="10" stroke-linecap="round" stroke-linejoin="round"/>
<path opacity="0.9098" d="M153.836 151.761C160.627 154.071 172.075 156.024 176.971 155.721C182.622 155.371 202.051 152.608 202.679 152.589C204.952 152.538 219.181 169.389 219.181 169.389L226.284 178.673" stroke="black" stroke-width="1.5" stroke-miterlimit="10" stroke-linecap="round" stroke-linejoin="round"/>
<path d="M266.007 178.095C266.607 183.979 269.248 196.76 268.154 197.88C267.111 198.95 258.63 200.72 255.357 201.078C253.16 201.318 246.527 201.407 246.527 201.407L244.784 200.12L244.065 201.623C244.065 201.623 234.856 201.859 230.959 201.599C225.434 201.24 214.216 199.406 209.161 197.578C206.782 196.723 202.252 190.061 197.174 191.335C193.286 192.304 188.549 194.995 185.461 195.388C182.68 195.742 159.654 191.104 159.654 191.104L159.035 189.505L157.333 190.49C157.333 190.49 153.475 189.588 152.562 189.313C148.513 188.074 130.61 181.476 130.61 181.476L130.538 179.535L128.515 180.501C128.515 180.501 123.229 177.951 121.106 176.671C116.62 173.979 106.664 167.061 104.591 159.367C103.912 156.856 106.354 152.316 108.186 149.382" stroke="black" stroke-width="1.5" stroke-miterlimit="10" stroke-linecap="round" stroke-linejoin="round"/>
<path opacity="0.9098" d="M186.538 127.573C185.264 128.703 185.675 131.135 185.529 132.344C185.416 133.301 184.548 135.344 183.494 135.642C182.614 135.885 180.402 134.94 180.262 133.872C180.164 133.078 179.767 130.458 180.808 128.371C181.606 126.778 184.933 126.092 186.329 125.827C188.39 125.435 189.48 127.106 189.48 127.106" stroke="black" stroke-width="1.5" stroke-miterlimit="10" stroke-linecap="round" stroke-linejoin="round"/>
<path d="M265.399 178.665C265.399 178.665 258.49 175.882 252.787 174.919C249.596 174.383 241.581 175.231 237.927 175.94C231.958 177.109 226.738 180.084 222.801 180.478C220.008 180.752 213.717 178.373 210.913 178.211C207.445 178.007 201.17 179.984 197.889 180.408C192.155 181.138 176.655 180.558 170.709 178.961C167.807 178.182 162.434 173.723 157.738 173.08C150.53 172.09 136.663 170.37 128.95 168.801C124.696 167.937 115.007 165.33 112.317 161.966C111.145 160.497 111.117 156.239 110.674 154.574C110.287 153.161 108.556 149.118 108.556 149.118" stroke="black" stroke-width="1.5" stroke-miterlimit="10" stroke-linecap="round" stroke-linejoin="round"/>
<path d="M261.895 138.17C261.895 138.17 257.362 138.509 253.53 144.041C250.289 148.713 233.973 166.651 233.973 166.651" stroke="black" stroke-width="1.5" stroke-miterlimit="10" stroke-linecap="round" stroke-linejoin="round"/>
<path opacity="0.9098" d="M149.444 142.918C148.533 143.403 146.887 144.473 146.887 144.473C146.887 144.473 137.79 146.085 134.499 146.664C129.665 147.522 118.78 143.464 113.684 144.099C111.902 144.326 108.189 149.36 108.189 149.36" stroke="black" stroke-width="1.5" stroke-miterlimit="10" stroke-linecap="round" stroke-linejoin="round"/>
<path opacity="0.9098" d="M159.833 139.262C159.833 139.262 157.337 139.743 155.168 140.88" stroke="black" stroke-width="1.5" stroke-miterlimit="10" stroke-linecap="round" stroke-linejoin="round"/>
<path opacity="0.9098" d="M169.511 136.007C167.918 136.582 165.32 137.842 165.32 137.842" stroke="black" stroke-width="1.5" stroke-miterlimit="10" stroke-linecap="round" stroke-linejoin="round"/>
<path opacity="0.9098" d="M180.052 131.009C180.052 131.009 178.09 131.324 177.507 131.606C176.436 132.115 174.975 133.221 174.975 133.221" stroke="black" stroke-width="1.5" stroke-miterlimit="10" stroke-linecap="round" stroke-linejoin="round"/>
<path opacity="0.9098" d="M190.688 127.173C188.807 127.387 185.98 128.695 185.98 128.695" stroke="black" stroke-width="1.5" stroke-miterlimit="10" stroke-linecap="round" stroke-linejoin="round"/>
<path opacity="0.9098" d="M203.977 129.655C204.556 129.931 206.172 129.951 206.557 129.655C207.338 129.053 208.053 126.901 207.422 125.39C206.952 124.279 204.256 122.166 201.904 121.794C200.995 121.654 197.853 121.514 195.573 122.223C194.874 122.446 197.907 124.547 197.907 124.547C197.907 124.547 200.237 125.352 201.136 125.993C202.064 126.672 203.21 129.288 203.977 129.655Z" stroke="black" stroke-width="1.5" stroke-miterlimit="10" stroke-linecap="round" stroke-linejoin="round"/>
<path opacity="0.9098" d="M194.951 122.534C194.951 122.534 193.457 123.212 193.064 123.574C192.226 124.347 191.147 126.474 190.733 127.514C190.449 128.237 190.361 129.778 190.801 130.605C191.284 131.527 192.655 132.755 193.506 132.653C194.933 132.492 195.981 130.439 196.289 129.53C196.619 128.534 196.586 126.464 196.986 125.612C197.156 125.254 198.443 124.885 198.443 124.885" stroke="black" stroke-width="1.5" stroke-miterlimit="10" stroke-linecap="round" stroke-linejoin="round"/>
<path opacity="0.9098" d="M174.92 133.134C174.92 133.134 175.12 135.382 175.046 136.121C174.958 137.058 174.367 138.947 173.506 139.561C172.78 140.081 171.197 139.976 170.766 139.597C169.716 138.657 169.943 134.577 170.433 133.211C170.749 132.326 174.351 130.894 175.839 131.813" stroke="black" stroke-width="1.5" stroke-miterlimit="10" stroke-linecap="round" stroke-linejoin="round"/>
<path opacity="0.9098" d="M165.162 137.955C165.162 137.955 164.729 140.344 164.402 141.061C164.026 141.895 163.755 142.864 163.067 143.177C162.651 143.369 160.867 143.35 160.553 142.929C160.24 142.498 159.694 140.942 159.694 140.339C159.691 139.155 160.167 137.207 160.768 136.448C161.169 135.941 164.246 135.369 165.573 135.731C166.025 135.857 166.168 137.17 166.168 137.17" stroke="black" stroke-width="1.5" stroke-miterlimit="10" stroke-linecap="round" stroke-linejoin="round"/>
<path opacity="0.9098" d="M155.101 140.883C155.101 140.883 154.234 140.681 154.441 141.244C154.694 141.958 154.606 143.242 154.522 143.89C154.426 144.625 153.944 145.847 153.479 146.166C153.197 146.353 151.953 146.482 151.487 146.288C150.798 145.997 150.081 144.207 149.94 143.318C149.821 142.599 150.398 141.245 150.757 140.543C151.084 139.916 152.747 139.149 153.966 139.05C154.642 139.003 156.121 139.91 156.121 139.91" stroke="black" stroke-width="1.5" stroke-miterlimit="10" stroke-linecap="round" stroke-linejoin="round"/>
<path d="M147.005 148.385C147.936 148.261 156.823 147.671 161.011 146.628C165.889 145.43 173.794 141.039 179.664 139.601C183.806 138.574 192.373 137.43 195.507 135.737C199.264 133.712 208.514 134.107 210.625 129.624C212.318 126.036 211.098 122.528 210.444 121.461C210.02 120.77 207.924 121.603 204.344 122.345" stroke="black" stroke-width="1.5" stroke-miterlimit="10" stroke-linecap="round" stroke-linejoin="round"/>
<path d="M253.847 121.864L256.1 122.055L260.69 123.164C260.69 123.164 262.878 117.831 263.405 116.348C264.108 114.373 265.617 109.366 265.617 109.366L265.242 107.955L264.461 108.122L260.694 107.466L257.084 106.283L253.847 121.864Z" fill="black" stroke="black" stroke-width="1.5" stroke-miterlimit="10" stroke-linecap="round" stroke-linejoin="round"/>
<path d="M224.287 99.1716L220.381 98.5536L218.812 98.1714L217.941 97.7348L216.912 97.9251C216.912 97.9251 215.236 103.447 214.817 108.227C214.713 109.375 214.584 113.121 214.584 113.121L216.828 113.557L220.606 114.818L224.287 99.1716Z" fill="black" stroke="black" stroke-width="1.5" stroke-miterlimit="10" stroke-linecap="round" stroke-linejoin="round"/>
<path d="M256.514 94.7524L230.139 88.5638C230.031 88.5386 229.912 88.512 229.802 88.4977C227.847 88.2443 225.933 89.7491 225.417 92.0046L217.957 124.825C217.413 127.211 218.653 129.537 220.712 130.016L247.087 136.205C247.195 136.23 247.314 136.257 247.424 136.271C249.379 136.525 251.293 135.02 251.809 132.764L259.269 99.9443C259.813 97.5583 258.573 95.2315 256.514 94.7524ZM257.463 99.833L250.146 132.069C249.811 133.532 248.535 134.506 247.162 134.328C247.086 134.318 246.998 134.307 246.922 134.286L221.707 128.37C220.287 128.041 219.425 126.511 219.771 124.959L227.088 92.7237C227.423 91.2598 228.699 90.2864 230.072 90.4643C230.148 90.4743 230.236 90.4857 230.312 90.5066L255.527 96.4221C256.947 96.7514 257.81 98.2812 257.463 99.833Z" fill="black"/>
<path d="M255.277 97.4956L230.061 91.5802C230.017 91.5745 229.975 91.5578 229.931 91.5521C229.151 91.451 228.381 92.0545 228.175 92.9546L220.858 125.19C220.645 126.145 221.138 127.08 221.961 127.276L247.176 133.191C247.22 133.197 247.263 133.214 247.307 133.219C248.086 133.321 248.857 132.717 249.063 131.817L256.38 99.5814C256.604 98.6279 256.1 97.6917 255.277 97.4956ZM248.297 126.704C248.267 126.846 248.173 126.967 248.05 127.052C247.942 127.116 247.815 127.144 247.683 127.127C247.661 127.124 247.65 127.123 247.629 127.12L246.827 126.927C246.535 126.856 246.35 126.564 246.41 126.27L247.583 121.096C247.613 120.955 247.707 120.833 247.829 120.748C247.938 120.684 248.065 120.656 248.196 120.673C248.218 120.676 248.229 120.677 248.251 120.68L249.053 120.873C249.345 120.945 249.53 121.237 249.47 121.53L248.297 126.704ZM250.304 117.853C250.274 117.995 250.18 118.117 250.058 118.201C249.949 118.265 249.822 118.293 249.691 118.276C249.669 118.274 249.658 118.272 249.636 118.269L248.835 118.076C248.542 118.005 248.357 117.713 248.417 117.419L249.591 112.245C249.62 112.104 249.714 111.982 249.837 111.897C249.945 111.833 250.072 111.805 250.204 111.822C250.226 111.825 250.237 111.826 250.259 111.829L251.06 112.022C251.352 112.094 251.537 112.386 251.477 112.679L250.304 117.853ZM252.311 109.002C252.282 109.144 252.188 109.266 252.065 109.35C251.956 109.414 251.83 109.443 251.698 109.425C251.676 109.423 251.665 109.421 251.643 109.418L250.842 109.225C250.55 109.154 250.364 108.862 250.425 108.568L251.598 103.394C251.627 103.253 251.721 103.131 251.844 103.046C251.953 102.982 252.079 102.954 252.211 102.971C252.233 102.974 252.244 102.976 252.266 102.978L253.067 103.172C253.359 103.243 253.545 103.535 253.484 103.829L252.311 109.002Z" fill="black"/>
<path d="M57.6567 9.89719C25.8159 15.3629 4.43151 45.6103 9.89725 77.4511C15.363 109.292 45.6104 130.676 77.4512 125.211C109.292 119.745 130.676 89.4974 125.211 57.6566C119.745 25.8158 89.4975 4.43145 57.6567 9.89719ZM21.4315 75.4712C19.4478 63.9148 21.7421 52.6325 27.1431 43.2813L104.017 97.6299C97.1459 106.278 87.2662 112.508 75.6141 114.509C50.1431 118.873 25.882 101.398 21.4315 75.4712ZM107.965 91.8265L31.0907 37.4779C37.962 28.8296 47.8416 22.5994 59.4938 20.5992C84.9708 16.2258 109.225 33.7029 113.676 59.6366C115.667 71.1917 113.366 82.4752 107.965 91.8265Z" stroke="black" stroke-width="1.5" stroke-miterlimit="10" stroke-linecap="round" stroke-linejoin="round"/>
<path d="M45.5931 90.5981C45.511 90.6501 45.4881 90.7374 45.5033 90.8258L47.5384 101.577C47.5688 101.754 47.7805 101.839 47.92 101.724C49.3826 100.571 55.7305 95.72 60.1045 94.7417C67.0042 93.1934 77.1628 96.0976 84.0182 94.2915C86.0636 93.7508 91.3045 91.1527 92.2211 90.6617C92.3118 90.6158 92.3482 90.5186 92.3305 90.4155L92.0973 89.1893L83.5451 83.1431C83.0327 83.3827 82.5448 83.5878 82.0969 83.7177C77.6633 85.055 73.3846 83.8939 68.1087 84.0792C65.1912 84.1781 61.4877 84.8215 61.4877 84.8215C61.4877 84.8215 63.3288 81.4118 63.4483 78.4417C63.5506 75.9901 63.0343 71.8781 62.4684 69.9507C62.4484 69.8783 62.4198 69.7998 62.3998 69.7274L64.1454 69.4278L43.7446 55.0048C44.457 59.0225 46.0033 61.4489 47.0219 63.4957C47.208 63.8732 47.4682 64.329 47.7594 64.8325L41.3883 65.9261C41.3072 65.9401 41.2572 66.0017 41.2686 66.068L42.4646 73.0357C42.476 73.102 42.5511 73.1422 42.6248 73.1296L51.4265 71.6187C51.4539 71.6898 51.4751 71.7695 51.5025 71.8407C52.31 74.6896 53.0124 79.9298 51.7759 83.3722C50.3464 87.2799 46.334 90.0993 45.5931 90.5981Z" fill="black" stroke="black" stroke-width="1.5" stroke-miterlimit="10" stroke-linecap="round" stroke-linejoin="round"/>
<path d="M72.2065 60.6438L65.4893 61.7969L73.5236 67.477L72.3667 60.7376C72.3627 60.6701 72.2876 60.6299 72.2065 60.6438Z" fill="black" stroke="black" stroke-width="1.5" stroke-miterlimit="10" stroke-linecap="round" stroke-linejoin="round"/>
<path d="M84.9357 48.4872C84.809 47.7052 84.2245 44.9621 83.2818 42.8719C81.6523 39.2543 77.648 35.1419 74.8559 33.718C71.076 31.7964 66.5896 30.8832 61.2792 31.7948C56.2054 32.6278 51.6868 35.193 48.6865 38.2102C46.8953 40.0114 44.6295 44.2599 44.0313 46.5615C44.0265 46.5775 44.0216 46.5935 44.0168 46.6094L56.1244 55.1693C55.942 54.5485 55.7941 53.9521 55.6944 53.4157C55.3957 51.8519 55.4049 49.9623 56.5499 47.6654C57.69 45.3845 59.9306 43.2863 63.1544 42.7632C66.1742 42.2448 68.9029 43.255 70.8757 45.2063C72.8398 47.1514 73.0872 49.5202 73.2671 50.3916C73.2886 50.5169 73.4143 50.5863 73.5395 50.5648L84.7306 48.7499C84.8644 48.7345 84.9585 48.6198 84.9357 48.4872Z" fill="black" stroke="black" stroke-width="1.5" stroke-miterlimit="10" stroke-linecap="round" stroke-linejoin="round"/>
<path d="M89.9275 79.0674L90.2295 79.281L90.2245 79.2515C90.1918 79.1054 90.0576 79.0299 89.9275 79.0674Z" fill="black" stroke="black" stroke-width="1.5" stroke-miterlimit="10" stroke-linecap="round" stroke-linejoin="round"/>
</svg>
