<?xml version="1.0" encoding="UTF-8"?><svg id="Layer_1" xmlns="http://www.w3.org/2000/svg" viewBox="0 0 294.76 151.23"><defs><style>.cls-1{fill:#fff;}.cls-1,.cls-2,.cls-3{fill-rule:evenodd;}.cls-4,.cls-2,.cls-3,.cls-5{fill:#010101;}.cls-4,.cls-3{isolation:isolate;opacity:.98;}</style></defs><path class="cls-2" d="M17.95,132.67c-.82,.79-1.08,1.77-.94,2.82,.15,1.12,.77,2.33,1.7,3.36,.9,.99,2.05,1.77,3.23,2.13,.48-1.08,.58-2.27,.16-3.52,0-.02-.01-.04-.02-.07-.22-.93-.89-2.33-1.77-3.39-.44-.53-.9-.93-1.34-1.15-.37-.19-.7-.25-1.01-.18Zm3.19,9.62c-1.34-.49-2.57-1.38-3.54-2.44-1.08-1.19-1.88-2.67-2.08-4.17-.2-1.53,.22-3.07,1.56-4.25,.07-.07,.16-.12,.26-.15,.82-.28,1.62-.13,2.31,.23,.68,.35,1.29,.91,1.8,1.52,1.01,1.21,1.79,2.8,2.08,3.97,.49,1.49,.41,2.91-.06,4.19,.7-.02,1.38-.22,2.01-.63,.08-.06,.23-.2,.46-.47,.22-.26,.47-.57,.75-.92,.02-.03,.05-.06,.07-.09,.52-.66,1.12-1.42,1.68-1.96h0c.57-.55,1.29-.6,1.88-.54,.42,.04,.89,.15,1.32,.25,.16,.04,.31,.07,.45,.1,.58,.12,1.08,.19,1.53,.12,.41-.06,.8-.24,1.17-.69,.26-.32,.73-.37,1.06-.11,.32,.26,.37,.74,.11,1.05-.61,.75-1.34,1.11-2.11,1.22-.73,.11-1.46,0-2.07-.14-.21-.04-.4-.09-.58-.13-.39-.09-.71-.17-1.02-.2-.43-.04-.6,.03-.7,.13m-8.33,4.09c-.85,1.08-2.08,2.01-3.5,2.67-1.64,.77-3.48,1.17-5.16,1.08-.42-.02-.82-.07-1.21-.15,.46-1.13,.59-2.45,.15-3.53v-.03c-.68-1.48-1.45-2.47-2.25-2.97-.41-.26-.85-.4-1.3-.38-.46,.02-.86,.2-1.18,.5-.62,.57-.86,1.51-.79,2.48,.07,1,.46,2.14,1.25,3.28,.02,.03,.04,.06,.07,.08,.52,.57,1.13,1.01,1.79,1.36-.54,.54-1.19,.79-1.84,.68-1.8-.32-3.16-.14-4.29,.41-1.1,.54-1.92,1.39-2.68,2.23-.28,.31-.25,.78,.05,1.06,.31,.28,.78,.26,1.06-.05,.76-.84,1.4-1.49,2.22-1.88,.79-.38,1.81-.56,3.38-.28h0c1.51,.26,2.76-.53,3.58-1.58,.62,.17,1.26,.26,1.91,.3,1.96,.1,4.04-.36,5.87-1.22,1.8-.84,3.41-2.1,4.44-3.66,1.21,.13,2.46-.1,3.6-.86h.01c.25-.18,.51-.46,.74-.73,.25-.28,.52-.63,.79-.97l.04-.05c.55-.69,1.09-1.39,1.57-1.85m-19.62,7.21c.38-.88,.45-1.82,.19-2.47-.61-1.35-1.22-2.03-1.66-2.31-.21-.13-.36-.16-.45-.16-.08,0-.15,.03-.22,.1-.16,.15-.36,.56-.31,1.28,.05,.68,.32,1.55,.96,2.49,.42,.45,.93,.81,1.49,1.08Z"/><path class="cls-2" d="M96,77.06c.41,.07,.68,.46,.61,.87-.39,2.22-.48,3.44,.02,5.41,.1,.4-.14,.81-.54,.91-.4,.1-.81-.14-.91-.54-.58-2.27-.45-3.73-.04-6.05,.07-.41,.46-.68,.87-.61Z"/><path class="cls-2" d="M124.37,73.7c.2-.36,.66-.49,1.02-.29,2.2,1.22,3.73,3.51,4.64,5.94,.91,2.44,1.25,5.13,.99,7.29-.05,.41-.42,.7-.83,.65-.41-.05-.7-.42-.65-.83,.23-1.9-.07-4.35-.91-6.59-.84-2.25-2.19-4.17-3.96-5.16-.36-.2-.49-.66-.29-1.02Z"/><path class="cls-2" d="M134.41,30.33c2.6,.73,5.6,1.57,9.26,2.38,.4,.09,.66,.49,.57,.89-.09,.4-.49,.66-.89,.57-3.7-.82-6.76-1.67-9.36-2.4-.73-.21-1.43-.4-2.1-.58-3.05-.83-5.39-1.36-7.57-1.32-4.25,.09-8.07,2.37-15.18,9.98-.01,.01-.03,.03-.04,.04-6.01,5.45-21.31,16.73-25.18,19.57h0l-.44-.6,.44,.6h0c-.73,.54-1.64,1.09-2.59,1.64-.19,.11-.39,.23-.59,.34-.77,.45-1.55,.9-2.29,1.37-.93,.59-1.75,1.17-2.38,1.76-.63,.59-.98,1.11-1.09,1.57v-.02l-.73-.13,.73,.17v-.02c-.67,3.71-1.25,8.42-1.86,13.35-.1,.81-.2,1.63-.3,2.45-.72,5.8-1.51,11.72-2.54,16.49v.03c-.66,2.47-1.23,5.08-1.5,7.45-.27,2.4-.23,4.46,.25,5.87,.24,.69,.56,1.18,.97,1.49,.39,.3,.92,.49,1.66,.46,1.52-.06,3.83-.99,7.18-3.39-.03,.05-.05,.11-.08,.16l.66,.35-.44-.61s-.1,.07-.14,.1c4.62-8.88,9.24-22.07,10.9-31.61,.04-.21,.16-.39,.33-.5,.11-.07,.25-.12,.38-.12h-.02s0,0,.02,0h.02s.02,0,.04,0c.02,0,.08,0,.16,.02-.07-.02-.14-.02-.21-.02,.02,0,.04,0,.07-.01,.1-.02,.24-.06,.43-.11,.38-.1,.92-.25,1.56-.46,1.29-.4,3.01-.99,4.76-1.7,1.76-.72,3.53-1.56,4.96-2.47,1.46-.93,2.41-1.85,2.73-2.66,.02-.06,.06-.12,.09-.17,.19-.26,.46-.31,.58-.32,.12-.01,.23,0,.29,.02,.12,.03,.24,.07,.33,.11,.13,.05,.3,.13,.47,.21,.06,.03,.12,.06,.18,.09,.51,.23,.99,.42,1.31,.45,.41,.03,.72,.4,.68,.81-.03,.41-.4,.72-.81,.68-.63-.05-1.34-.37-1.81-.58-.08-.04-.16-.07-.23-.1h-.01c.13-.22,.24-.43,.32-.65l-.7-.27,.6,.44c-.18,.24-.42,.28-.51,.29-.09,0-.15,0-.16,0h0s.02,0,.08,.03c.1,.04,.21,.09,.36,.16-.63,1.03-1.76,1.95-3,2.74-1.53,.98-3.4,1.86-5.2,2.59-1.8,.74-3.56,1.34-4.89,1.75-.66,.21-1.22,.37-1.63,.47-.07,.02-.14,.04-.21,.05,.03-.17,.06-.34,.09-.5l-.74-.13-.18,.73c.13,.03,.24,.02,.26,.02h0s.08,0,.1-.01c.06,0,.12-.02,.18-.03,.08-.02,.18-.04,.29-.07-1.78,9.72-6.41,22.86-11.04,31.7-.05,.1-.13,.19-.23,.26-3.47,2.51-6.13,3.71-8.15,3.78-1.04,.04-1.92-.22-2.63-.77-.7-.54-1.17-1.32-1.47-2.2-.59-1.74-.6-4.07-.32-6.52,.28-2.47,.86-5.15,1.53-7.65v.02l.73,.16-.72-.19v.02c1.01-4.68,1.78-10.54,2.51-16.34,.1-.81,.2-1.63,.3-2.44,.61-4.94,1.2-9.7,1.88-13.46v-.04c.21-.89,.82-1.67,1.54-2.34,.73-.68,1.65-1.33,2.6-1.93,.76-.48,1.57-.95,2.35-1.4,.19-.11,.38-.22,.57-.33,.95-.55,1.8-1.07,2.46-1.55h0c3.89-2.86,19.09-14.06,25.04-19.45l-.02,.02,.55,.51-.5-.56-.02,.02c7.11-7.59,11.3-10.33,16.22-10.43,2.41-.05,4.95,.54,7.99,1.37,.68,.19,1.39,.38,2.13,.59Z"/><path class="cls-2" d="M294.76,35.73c.04,.41-.26,.78-.67,.82-9.99,1.01-19.76,2.25-29.32,3.46-13.74,1.74-27.05,3.42-39.96,4.31-21.94,1.51-42.91,.73-63.29-5.98-.39-.13-.61-.55-.48-.95,.13-.39,.55-.61,.95-.48,20.12,6.63,40.87,7.41,62.72,5.91,12.89-.89,26.1-2.56,39.79-4.29,9.57-1.21,19.36-2.45,29.44-3.47,.41-.04,.78,.26,.82,.67Z"/><path class="cls-2" d="M133.01,73.61c.4-.11,.81,.11,.93,.51,1.15,4,.65,7.47-.94,10.41-1.58,2.92-4.2,5.27-7.2,7.14-5.99,3.74-13.7,5.68-18.47,6.33-.09,.01-.19,0-.28-.01-2.21-.54-5.27-.49-8.55,.1-3.27,.59-6.69,1.7-9.6,3.23-2.93,1.54-5.27,3.47-6.49,5.64-1.18,2.1-1.34,4.48,.18,7.15,.45,.47,1.4,.88,2.8,1.16,1.4,.29,3.1,.42,4.81,.48,1.7,.06,3.39,.03,4.79,0,.17,0,.33,0,.49,0,1.14-.02,2.08-.04,2.55,0,.05,0,.1,.01,.15,.03,5.79,1.8,11.5,2.39,17.12,.93,.02,0,.03,0,.05-.01,3.73-.71,9.19-1.26,14.74-1.83,.49-.05,.98-.1,1.48-.15,6.07-.62,12.06-1.27,16-2.15,17.45-4.78,32.94-11.29,48.68-20.69,11.61-8.67,27.5-9.79,44.05-8.29,8.29,.75,16.8,2.17,25.06,3.65,1.82,.33,3.63,.66,5.42,.99,6.36,1.16,12.51,2.28,18.27,3.1,.41,.06,.7,.44,.64,.85-.06,.41-.44,.7-.85,.64-5.8-.82-11.99-1.95-18.35-3.11-1.79-.33-3.59-.66-5.4-.98-8.26-1.48-16.71-2.89-24.93-3.64-16.48-1.49-31.9-.32-43.04,8.02-.02,.02-.04,.03-.07,.04-15.88,9.48-31.51,16.05-49.11,20.87-.01,0-.02,0-.04,0-4.05,.9-10.15,1.56-16.19,2.18-.49,.05-.97,.1-1.46,.15-5.56,.57-10.94,1.12-14.61,1.81-5.93,1.53-11.9,.9-17.84-.93-.4-.03-1.21-.01-2.33,.01-.15,0-.3,0-.45,0-1.4,.03-3.12,.05-4.87,0-1.74-.06-3.53-.2-5.06-.51-1.48-.3-2.89-.8-3.67-1.69-.03-.04-.06-.08-.09-.12-1.82-3.15-1.67-6.12-.22-8.7,1.42-2.53,4.05-4.62,7.1-6.23,3.07-1.61,6.64-2.77,10.04-3.38,3.33-.6,6.56-.68,9.03-.11,4.65-.66,12.05-2.55,17.74-6.1,2.87-1.79,5.26-3.97,6.67-6.58,1.4-2.59,1.87-5.65,.82-9.28-.11-.4,.11-.81,.51-.93Z"/><path class="cls-2" d="M108.6,97.09c.12,.4-.1,.82-.5,.94-1.44,.44-3.78,1.86-5.47,4.34-.23,.34-.7,.43-1.04,.2-.34-.23-.43-.7-.2-1.04,1.88-2.76,4.5-4.4,6.27-4.94,.4-.12,.82,.1,.94,.5Z"/><path class="cls-2" d="M85.94,95.48c.17,.38,0,.82-.39,.99-3.05,1.33-6.14,1.32-7.94,.83-.4-.11-.63-.52-.52-.92,.11-.4,.52-.63,.92-.52,1.46,.4,4.19,.44,6.94-.75,.38-.17,.82,0,.99,.39Z"/><path class="cls-2" d="M81.51,75.08c.23-.34,.7-.43,1.04-.2,.69,.47,2.07,1.18,3.62,1.82,1.56,.64,3.2,1.17,4.43,1.32,.41,.05,.7,.42,.65,.83-.05,.41-.42,.7-.83,.65-1.43-.17-3.23-.76-4.82-1.42-1.6-.66-3.08-1.41-3.89-1.97-.34-.23-.43-.7-.2-1.04Z"/><path class="cls-2" d="M102.42,66.95c.35-.21,.82-.1,1.03,.26,.62,1.03,1.43,2.34,2.92,3.21,.36,.21,.48,.67,.27,1.03-.21,.36-.67,.48-1.03,.27-1.85-1.09-2.82-2.7-3.44-3.73-.21-.35-.1-.82,.26-1.03Z"/><path class="cls-2" d="M102.16,110.05c.13-.33,.02-.72-.3-.92-.35-.22-.81-.12-1.03,.23-.13,.2-.16,.42-.17,.55-.01,.15,0,.31,.02,.47,.03,.31,.11,.68,.22,1.07,.21,.79,.54,1.77,.93,2.73,.39,.96,.85,1.94,1.32,2.73,.23,.39,.48,.76,.73,1.05,.24,.28,.53,.56,.87,.72,.38,.17,.82,0,.99-.37,.17-.38,0-.82-.37-.99-.03-.01-.15-.09-.34-.32-.18-.21-.37-.5-.58-.85-.42-.71-.85-1.61-1.22-2.53-.37-.92-.69-1.83-.87-2.55-.09-.36-.15-.65-.18-.86,0-.08-.01-.14-.01-.17Zm0-.03h0Z"/><path class="cls-2" d="M105.93,111.28c.04-.11,.06-.24,.04-.36-.06-.41-.43-.7-.84-.64-.3,.04-.49,.23-.58,.39-.08,.14-.1,.27-.11,.34-.02,.15,0,.3,0,.41,.03,.24,.09,.56,.18,.89,.17,.68,.45,1.58,.77,2.47,.32,.89,.68,1.8,1.03,2.51,.17,.35,.35,.68,.53,.94,.09,.13,.19,.25,.3,.36,.1,.1,.27,.24,.5,.31,.4,.11,.81-.12,.92-.52,.1-.36-.08-.73-.4-.88-.02-.02-.05-.06-.1-.13-.12-.17-.26-.42-.42-.74-.32-.64-.66-1.5-.97-2.36-.31-.86-.57-1.7-.73-2.33-.07-.3-.12-.52-.14-.66Zm2.38,6.24h0Z"/><path class="cls-2" d="M86.51,105.43c-2.58-.52-4.8,.48-5.94,2.32-1.14,1.84-1.12,4.37,.46,6.73,.02,.03,.04,.06,.07,.09,.8,.88,2,1.44,3.3,1.81,1.31,.38,2.8,.58,4.25,.68,2.91,.21,5.78,.01,7.02-.11,.24-.02,.46-.17,.58-.38,.12-.21,.13-.47,.02-.69-.72-1.49-.98-2.74-1.13-3.82-.04-.27-.07-.54-.1-.79v-.06c-.03-.24-.06-.47-.09-.69-.07-.49-.16-.97-.33-1.43-.36-.99-1.05-1.74-2.34-2.32-1.23-.56-3.06-.97-5.76-1.32Zm-4.27,8.17c-1.26-1.93-1.18-3.8-.4-5.06,.79-1.26,2.36-2.05,4.39-1.63,.02,0,.04,0,.06,0,2.69,.35,4.34,.74,5.36,1.2,.97,.44,1.34,.92,1.54,1.47,.11,.31,.19,.67,.25,1.12,.03,.21,.06,.43,.08,.67v.06c.04,.26,.07,.54,.11,.83,.13,.94,.35,2.03,.84,3.28-1.42,.1-3.57,.17-5.74,.02-1.4-.1-2.77-.29-3.94-.63-1.16-.33-2.04-.78-2.56-1.34Z"/><path class="cls-2" d="M140.98,103.41c.27,.31,.24,.78-.07,1.06-.76,.67-1.42,1.77-1.87,3-.45,1.23-.65,2.5-.58,3.46,.03,.41-.28,.77-.69,.81-.41,.03-.77-.28-.81-.69-.1-1.22,.16-2.71,.66-4.09,.5-1.37,1.27-2.72,2.29-3.61,.31-.27,.78-.24,1.06,.07Z"/><path class="cls-2" d="M109.5,42.31c.28,.3,.26,.78-.04,1.06-2.58,2.4-8.84,6.32-14.38,9.61-2.79,1.65-5.41,3.16-7.34,4.25-.97,.55-1.76,.99-2.31,1.3-.28,.15-.49,.27-.64,.35l-.22,.12s0,0-.36-.66q-.36-.66-.36-.66l.22-.12c.15-.08,.36-.2,.63-.35,.55-.31,1.34-.75,2.3-1.29,1.92-1.09,4.54-2.59,7.32-4.24,5.58-3.31,11.69-7.15,14.12-9.42,.3-.28,.78-.26,1.06,.04Zm-25.95,16.4c-.2-.36-.07-.82,.3-1.02l.36,.66,.36,.66c-.36,.2-.82,.07-1.02-.3Z"/><path class="cls-2" d="M118.24,39.11c-1.26,.12-2.21,.46-2.77,1.01-.3,.29-.77,.28-1.06-.01-.29-.3-.29-.77,.01-1.06,.92-.9,2.27-1.3,3.67-1.43,1.42-.14,3-.01,4.51,.23,1.52,.24,2.99,.61,4.19,.98,1.18,.37,2.17,.75,2.67,1.06,.36,.21,.47,.67,.26,1.03-.21,.36-.67,.47-1.03,.26-.34-.21-1.18-.55-2.35-.91-1.14-.35-2.55-.7-3.98-.93-1.44-.23-2.89-.33-4.13-.21Z"/><path class="cls-2" d="M87.73,116.07c.41-.06,.79,.23,.84,.65,.49,3.66,2.6,5.48,4.38,5.6,.88,.06,1.78-.28,2.52-1.13,.75-.86,1.35-2.28,1.52-4.39,.03-.41,.39-.72,.81-.69,.41,.03,.72,.39,.69,.81-.18,2.32-.86,4.08-1.88,5.25-1.03,1.18-2.37,1.74-3.75,1.65-2.74-.18-5.23-2.8-5.77-6.9-.05-.41,.23-.79,.64-.84Z"/><path class="cls-2" d="M91.66,116.6c.31-.27,.78-.24,1.06,.07,.73,.83,1,2.06,.88,3.23-.12,1.18-.65,2.43-1.67,3.31-.31,.27-.79,.23-1.06-.08s-.23-.79,.08-1.06c.69-.59,1.07-1.45,1.16-2.32,.09-.88-.14-1.65-.51-2.08-.27-.31-.24-.79,.07-1.06Z"/><path class="cls-2" d="M113.77,85.87c.14-.39,.56-.6,.95-.46,1.63,.56,3.23,1.83,4.33,3.27,1.08,1.41,1.84,3.2,1.37,4.79-.12,.4-.53,.63-.93,.51-.4-.12-.63-.53-.51-.93,.26-.9-.14-2.18-1.13-3.47-.96-1.26-2.33-2.32-3.63-2.77-.39-.14-.6-.56-.46-.95Z"/><path class="cls-2" d="M71.03,113.64c.36,.2,.5,.66,.3,1.02l-4.53,8.24,1.49,1.42,11.34-7.24c.35-.22,.81-.12,1.04,.23,.22,.35,.12,.81-.23,1.03l-11.83,7.55c-.29,.18-.67,.15-.92-.09l-2.34-2.22c-.25-.23-.31-.61-.14-.9l4.81-8.75c.2-.36,.66-.49,1.02-.3Z"/><path class="cls-2" d="M74.34,113.04c.35-.22,.81-.11,1.03,.24,.19,.31,.59,.72,1.14,1.19,.54,.46,1.17,.92,1.78,1.33,.6,.41,1.17,.76,1.56,.98,.03,.01,.05,.03,.08,.04l2.19-2.07c.3-.28,.78-.27,1.06,.03,.28,.3,.27,.78-.03,1.06l-2.43,2.29v.02c-.17,.22-.38,.28-.49,.3-.11,.02-.2,.01-.24,0-.15-.02-.28-.07-.33-.1h0c-.15-.06-.34-.17-.55-.29-.43-.25-1.03-.62-1.67-1.05-.63-.43-1.31-.93-1.9-1.43-.58-.49-1.13-1.03-1.45-1.54-.22-.35-.11-.81,.24-1.03Zm5.94,3.96h0Z"/><path class="cls-2" d="M107.17,70.82c.31-.11,.87-.22,1.31,.2,.3,.29,.3,.77,0,1.06-.23,.23-.56,.28-.84,.16-.14,.05-.35,.18-.66,.4-.64,.47-1.5,1.27-2.52,2.31-2.03,2.07-4.6,5.02-7.17,8.07-1.84,2.19-3.68,4.41-5.31,6.39-.64,.78-1.26,1.53-1.83,2.21-1.01,1.21-1.88,2.26-2.55,3.03-.33,.38-.62,.71-.85,.95-.2,.21-.43,.44-.62,.56-.35,.22-.82,.1-1.03-.25s-.1-.82,.25-1.03h0s.12-.11,.31-.31c.21-.22,.48-.52,.81-.9,.65-.75,1.52-1.78,2.52-3,.57-.68,1.18-1.42,1.82-2.21,1.64-1.98,3.48-4.22,5.33-6.41,2.57-3.05,5.17-6.04,7.25-8.16,1.03-1.05,1.96-1.92,2.7-2.47,.37-.27,.73-.5,1.07-.62Zm.57,1.39h0Z"/><path class="cls-2" d="M117.33,79.88c.39-.13,.82,.08,.95,.47,.24,.69,.02,1.51-.28,2.14-.31,.65-.8,1.3-1.4,1.74l-14.3,13.53c-.3,.28-.78,.27-1.06-.03-.28-.3-.27-.78,.03-1.06l14.34-13.56s.05-.05,.08-.07c.37-.26,.73-.71,.96-1.19,.25-.52,.26-.88,.22-1-.13-.39,.08-.82,.47-.95Z"/><path class="cls-5" d="M90.99,98.98c-2.44-2.36-3.85-4.76-3.85-4.76l10.44-12.05c-.27,1.23,8.57,9.68,9.81,9.29l-5.54,5.19"/><path class="cls-2" d="M98.33,82.2c.01-.29-.14-.57-.41-.71-.31-.15-.68-.08-.9,.18l-10.44,12.05c-.21,.24-.24,.59-.08,.87l.65-.38-.65,.38h0v.03l.07,.09c.05,.08,.11,.18,.2,.32,.18,.27,.44,.66,.78,1.12,.68,.92,1.67,2.14,2.92,3.36,.3,.29,.77,.28,1.06-.02,.29-.3,.28-.77-.02-1.06-1.18-1.14-2.12-2.3-2.76-3.17-.29-.4-.52-.73-.68-.98l9.31-10.74c.23,.34,.53,.73,.87,1.13,.83,.99,1.97,2.17,3.15,3.29,1.18,1.12,2.41,2.2,3.44,2.98,.41,.31,.8,.58,1.15,.8l-4.66,4.36c-.3,.28-.32,.76-.03,1.06,.28,.3,.76,.32,1.06,.03l5.54-5.19c.26-.24,.31-.62,.13-.93-.15-.26-.45-.4-.75-.37-.07-.02-.17-.07-.33-.15-.31-.17-.72-.45-1.21-.82-.97-.73-2.16-1.77-3.31-2.87-1.15-1.1-2.25-2.24-3.04-3.17-.4-.47-.7-.87-.89-1.17-.1-.15-.15-.26-.18-.33h0Z"/><path class="cls-2" d="M153.15,21.84c.41-.04,.78,.26,.82,.67,.02,.23,.13,.57,.36,1.03,.23,.44,.55,.95,.94,1.49,.8,1.09,1.87,2.29,3.04,3.41,1.17,1.12,2.4,2.14,3.51,2.87,.56,.36,1.07,.65,1.51,.84,.45,.19,.79,.26,1,.26,.41,0,.76,.32,.76,.74,0,.41-.32,.76-.74,.76-.52,0-1.07-.15-1.61-.38-.55-.23-1.14-.57-1.74-.96-1.21-.79-2.51-1.87-3.73-3.04-1.21-1.17-2.35-2.43-3.21-3.61-.43-.59-.8-1.16-1.07-1.7-.27-.53-.47-1.06-.52-1.56-.04-.41,.26-.78,.67-.82Z"/><path class="cls-2" d="M177.22,1.56c-2.09-.29-4.22,.45-5.62,2.82-.03,.05-.06,.09-.1,.13l-35.14,37.13-.04,.45,9.33,8.87,.4-.08L181.58,13.58s.06-.05,.09-.08c3.15-2.41,2.97-6.12,1.09-8.3-.02-.03-.04-.05-.06-.08-1.21-1.88-3.33-3.26-5.47-3.55Zm6.7,2.7c-1.44-2.21-3.92-3.83-6.5-4.18-2.62-.36-5.33,.59-7.08,3.47l-35.26,37.26c-.12,.12-.19,.28-.2,.45l-.09,1.07c-.02,.23,.07,.45,.23,.61l9.87,9.38c.18,.17,.42,.24,.65,.19l1.02-.19c.15-.03,.3-.11,.41-.22L182.62,14.66c3.84-2.97,3.65-7.63,1.3-10.4Z"/><path class="cls-2" d="M166.84,6.57c0-.41,.35-.75,.76-.74,.52,0,1.08,.18,1.62,.43,.56,.25,1.16,.6,1.78,1.01,1.24,.83,2.6,1.95,3.86,3.16,1.26,1.21,2.45,2.52,3.35,3.73,.45,.6,.84,1.2,1.13,1.75,.28,.54,.5,1.09,.56,1.59,.05,.41-.25,.78-.66,.83-.41,.05-.78-.25-.83-.66-.03-.24-.15-.6-.4-1.07-.24-.46-.58-.98-1-1.55-.84-1.13-1.97-2.37-3.19-3.54-1.22-1.16-2.51-2.23-3.66-3-.58-.38-1.1-.69-1.56-.89-.47-.21-.81-.29-1.03-.3-.41,0-.75-.35-.74-.76Z"/><path class="cls-2" d="M159.25,14.56c0-.41,.35-.75,.76-.74,.52,0,1.08,.18,1.62,.43,.56,.25,1.16,.6,1.78,1.01,1.24,.83,2.6,1.95,3.86,3.16,1.26,1.21,2.45,2.52,3.36,3.73,.45,.6,.84,1.2,1.13,1.75,.28,.54,.5,1.09,.56,1.59,.05,.41-.25,.78-.66,.83-.41,.05-.78-.25-.83-.66-.03-.24-.15-.6-.4-1.07-.24-.46-.58-.98-1-1.55-.84-1.13-1.97-2.37-3.19-3.54-1.22-1.16-2.51-2.23-3.66-2.99-.58-.38-1.1-.69-1.56-.89-.47-.21-.81-.29-1.03-.3-.41,0-.75-.35-.74-.76Z"/><path class="cls-5" d="M169.51,27.74c-.35-3-8.63-10.96-11.57-11l.65-.69c3.49,.65,10.88,7.67,11.57,11l-.65,.69Z"/><path class="cls-2" d="M158.05,15.53c.18-.19,.43-.27,.68-.22,1.03,.19,2.25,.82,3.46,1.64,1.24,.83,2.54,1.9,3.75,3.05,1.21,1.15,2.34,2.39,3.21,3.57,.86,1.16,1.53,2.33,1.74,3.33,.05,.24-.02,.49-.19,.67l-.65,.69c-.2,.21-.5,.29-.78,.2-.28-.09-.47-.34-.51-.63-.03-.24-.15-.6-.4-1.07-.24-.46-.58-.98-1-1.55-.84-1.13-1.97-2.37-3.19-3.54-1.22-1.16-2.51-2.23-3.66-2.99-.57-.38-1.1-.69-1.56-.89-.47-.21-.81-.29-1.03-.3-.3,0-.57-.18-.68-.46-.12-.27-.06-.59,.14-.81l.65-.69Z"/><path class="cls-5" d="M178.78,18.25c-.35-3-8.63-10.96-11.57-11l.65-.69c3.49,.65,10.88,7.67,11.57,11l-.65,.69Z"/><path class="cls-2" d="M167.32,6.04c.18-.19,.43-.27,.68-.22,1.03,.19,2.25,.82,3.46,1.64,1.24,.83,2.54,1.9,3.75,3.05,1.21,1.15,2.34,2.39,3.21,3.57,.86,1.16,1.53,2.33,1.74,3.33,.05,.24-.02,.49-.19,.67l-.65,.69c-.2,.21-.51,.29-.78,.2-.28-.09-.48-.34-.51-.63-.03-.24-.15-.6-.4-1.07-.24-.46-.58-.98-1-1.55-.84-1.13-1.97-2.37-3.19-3.54-1.22-1.16-2.51-2.23-3.66-3-.57-.38-1.1-.69-1.56-.89-.47-.21-.81-.29-1.03-.3-.3,0-.56-.18-.68-.46-.12-.27-.06-.59,.15-.81l.65-.69Z"/><path class="cls-2" d="M146.63,27.83c0-.41,.35-.75,.76-.74,.52,0,1.08,.18,1.62,.43,.56,.25,1.16,.6,1.78,1.01,1.24,.83,2.6,1.95,3.86,3.16,1.26,1.21,2.45,2.52,3.35,3.73,.45,.6,.84,1.2,1.13,1.75,.28,.54,.5,1.09,.56,1.59,.05,.41-.25,.78-.66,.83-.41,.05-.78-.25-.83-.66-.03-.24-.15-.6-.4-1.07-.24-.46-.58-.98-1-1.55-.84-1.13-1.97-2.37-3.19-3.54-1.22-1.16-2.51-2.23-3.66-3-.57-.38-1.1-.69-1.56-.89-.47-.21-.81-.29-1.03-.3-.41,0-.75-.35-.74-.76Z"/><path class="cls-2" d="M155.84,18.1c.41-.05,.78,.25,.83,.66,.03,.24,.15,.6,.4,1.07,.24,.46,.58,.98,1,1.55,.84,1.13,1.97,2.37,3.19,3.54,1.22,1.16,2.51,2.23,3.66,3,.57,.38,1.1,.69,1.56,.89,.47,.21,.81,.29,1.03,.3,.41,0,.74,.35,.74,.76,0,.41-.35,.75-.76,.74-.52,0-1.08-.18-1.62-.43-.56-.25-1.16-.6-1.78-1.01-1.24-.83-2.6-1.95-3.86-3.16-1.26-1.21-2.45-2.52-3.35-3.73-.45-.6-.84-1.2-1.13-1.75-.28-.54-.5-1.09-.56-1.59-.05-.41,.25-.78,.66-.83Z"/><path class="cls-4" d="M179.38,13.03c1.09-1.26,3.83,.55,2.17,2.23-2.83,3.93-8.16,9.83-11.44,13.53-5.36,5.52-11.51,14.32-19.09,16.72-4.36,1.65-11.03-4.95-9.33-9.29,4.65-11.78,16.88-20.05,25.33-29.33,1.18-1.14,4.38-4.51,5.66-2.14,.31,.67,.34,1.75-.16,1.52-.58-.65-1.13-2.08-2.13-1.11-1.87,1.68-7.17,7.05-9.48,9.48-5.82,6.74-14.71,13.34-17.35,21.64-.77,8.87,8.67,8.78,13.67,3.72,7.35-6.98,16.95-17.59,23.55-25.16,.55-1.07-.67-1.29-1.4-1.81Z"/><path class="cls-3" d="M167.38,7.24c-.59,.65-1.2,1.29-1.82,1.93,1.43-1.43,2.82-2.8,3.8-3.73-.66,.52-1.28,1.12-1.74,1.57-.08,.08-.16,.16-.23,.23Zm4.11-2.81c.19,.08,.34,.2,.47,.32,.12,.12,.23,.25,.33,.38-.02-.05-.04-.1-.06-.15-.12-.23-.26-.36-.38-.43-.11-.07-.23-.1-.36-.11Zm-7.21,6.03c-1.23,1.22-2.5,2.43-3.79,3.64-.49,.46-.97,.91-1.46,1.37-1.94,1.81-3.88,3.64-5.75,5.51-4.68,4.69-8.84,9.64-11.13,15.43-.37,.94-.29,2.03,.13,3.16,.43,1.12,1.19,2.25,2.15,3.2,.96,.95,2.09,1.71,3.22,2.14,1.14,.43,2.24,.5,3.18,.15h.03c3.67-1.17,7.03-3.9,10.17-7.07,1.57-1.58,3.07-3.27,4.51-4.91,.12-.14,.24-.27,.36-.41,1.32-1.49,2.59-2.93,3.83-4.21,.36-.41,.75-.85,1.16-1.3,2.82-3.18,6.54-7.35,9.11-10.67-6.53,7.45-15.48,17.27-22.43,23.88-2.59,2.62-6.36,3.98-9.43,3.5-1.55-.24-2.94-.96-3.89-2.25-.94-1.28-1.4-3.07-1.2-5.37,0-.04,.01-.07,.02-.11,1.35-4.26,4.3-8.05,7.59-11.59,1.4-1.51,2.87-2.98,4.32-4.42,.26-.26,.51-.51,.76-.77,1.69-1.7,3.33-3.36,4.77-5.03l.02-.02c.91-.96,2.29-2.37,3.73-3.84Zm17.09,4.25c.18-.25,.22-.46,.2-.63-.02-.23-.16-.46-.39-.65-.18-.15-.4-.25-.61-.3,.1,.06,.2,.13,.3,.2,.21,.16,.42,.39,.51,.72,.06,.22,.05,.44,0,.66Zm-8.99-11.01c.3,.19,.54,.47,.74,.82v.03c.2,.4,.3,.92,.28,1.33,0,.19-.05,.46-.21,.66-.09,.12-.23,.22-.42,.26-.18,.03-.34,0-.46-.07-.06-.03-.12-.07-.16-.12-.15-.16-.29-.36-.41-.54-.02-.03-.04-.06-.06-.09-.15-.21-.28-.38-.41-.5-.13-.12-.2-.14-.23-.14-.02,0-.11,0-.3,.19h-.01c-1.85,1.68-7.13,7.02-9.44,9.46-1.47,1.7-3.12,3.38-4.81,5.07-.26,.26-.51,.51-.77,.77-1.45,1.45-2.9,2.9-4.29,4.4-3.25,3.5-6.06,7.14-7.36,11.16-.17,2.1,.26,3.61,1.02,4.64,.76,1.03,1.9,1.64,3.24,1.85,2.7,.42,6.16-.79,8.57-3.22h.01c7.32-6.96,16.88-17.52,23.47-25.09,.07-.16,.06-.23,.05-.25,0-.03-.04-.09-.16-.19-.12-.1-.29-.19-.5-.3l-.04-.02c-.19-.1-.42-.22-.62-.37-.12-.08-.19-.21-.21-.35-.02-.14,.03-.28,.12-.39,.39-.45,.93-.62,1.44-.59,.5,.02,.99,.23,1.38,.55,.38,.32,.69,.77,.75,1.32,.06,.55-.15,1.11-.63,1.61-2.54,3.51-7.03,8.57-10.29,12.23-.41,.46-.8,.9-1.16,1.31v.02c-1.24,1.26-2.5,2.69-3.82,4.18-.12,.13-.24,.27-.36,.4-1.45,1.64-2.97,3.34-4.55,4.95-3.17,3.2-6.67,6.07-10.57,7.31-1.23,.46-2.59,.33-3.88-.15-1.29-.48-2.54-1.33-3.58-2.37-1.04-1.03-1.9-2.27-2.38-3.55-.48-1.28-.61-2.64-.13-3.87h0c2.36-5.99,6.64-11.06,11.35-15.77,1.88-1.89,3.84-3.72,5.78-5.54,.49-.45,.97-.91,1.45-1.36,2.41-2.26,4.74-4.51,6.84-6.81l.02-.02c.07-.07,.15-.14,.23-.23,.61-.6,1.62-1.59,2.64-2.23,.58-.36,1.23-.65,1.87-.65,.33,0,.66,.08,.96,.27Z"/><path class="cls-5" d="M135.45,41.89l-.81,.85,10.38,9.88,.81-.85-10.38-9.88Z"/><path class="cls-2" d="M134.48,42.92c-.1-.1-.1-.25,0-.35l.81-.85c.1-.1,.25-.1,.35,0l10.38,9.88c.1,.1,.1,.25,0,.35l-.81,.85c-.1,.1-.25,.1-.35,0l-10.38-9.88Zm.53-.19l10.02,9.53,.46-.49-10.02-9.53-.46,.49Z"/><path class="cls-2" d="M135.18,41.97c.2,0,.39,.07,.54,.21l9.74,9.27c.3,.29,.31,.76,.03,1.06l-27.3,28.71c-.2,.21-.5,.29-.77,.2l.23-.71-.23,.71h-.04s-.06-.04-.1-.05c-.08-.03-.2-.08-.34-.14-.29-.13-.71-.33-1.23-.63-1.03-.59-2.46-1.57-4.08-3.11h0c-1.61-1.53-2.7-2.96-3.4-4-.35-.52-.59-.95-.76-1.26-.08-.15-.14-.27-.18-.36-.02-.04-.04-.08-.05-.1v-.03h-.02s0-.01,.69-.31l-.69,.3c-.12-.28-.06-.6,.14-.82l27.3-28.71c.14-.14,.33-.23,.52-.23Zm-26.37,29.59c.14,.26,.36,.63,.66,1.09,.64,.96,1.66,2.3,3.18,3.74m-3.84-4.83l26.42-27.78,8.65,8.24-26.43,27.8c-.24-.11-.58-.28-1-.52-.93-.54-2.26-1.44-3.8-2.9"/><path class="cls-5" d="M66.15,123.32l-1.95,3.95,3.73-2.25-1.78-1.7Z"/><path class="cls-2" d="M66.11,123.07c.08-.01,.16,.01,.22,.07l1.78,1.7c.06,.05,.08,.13,.08,.21,0,.08-.05,.15-.12,.19l-3.73,2.25c-.1,.06-.22,.04-.3-.03-.08-.07-.1-.19-.06-.29l1.95-3.95c.04-.07,.1-.12,.18-.14Zm.12,.66l-1.42,2.88,2.72-1.64-1.3-1.24Z"/><path class="cls-2" d="M106.09,71.91c.27,.03,.47,.28,.44,.55h0s0,.05,.04,.16c.04,.12,.12,.27,.23,.45,.22,.37,.56,.83,.99,1.34,.86,1.03,2.04,2.27,3.29,3.45,1.25,1.18,2.54,2.3,3.62,3.1,.54,.4,1.01,.72,1.39,.92,.19,.1,.34,.17,.46,.21,.11,.04,.16,.04,.16,.04h0c.27-.04,.53,.15,.57,.42,.04,.27-.15,.53-.42,.57-.21,.03-.43-.02-.62-.08-.19-.06-.41-.16-.62-.28-.44-.24-.96-.58-1.51-1-1.12-.83-2.45-1.98-3.71-3.17-1.26-1.2-2.48-2.46-3.37-3.54-.44-.54-.82-1.04-1.08-1.47-.13-.21-.24-.42-.31-.62-.07-.19-.13-.4-.1-.62,.03-.27,.28-.47,.55-.44Z"/><path class="cls-2" d="M104.5,73.84c.27,.03,.47,.27,.45,.55h0s0,.04,.04,.15c.04,.11,.12,.26,.22,.44,.22,.36,.54,.81,.96,1.31,.83,1.01,1.98,2.21,3.19,3.36,1.21,1.15,2.47,2.23,3.52,3.01,.53,.39,.99,.7,1.36,.89,.19,.1,.34,.17,.45,.2,.11,.04,.16,.03,.16,.04h0c.27-.04,.53,.15,.57,.42,.04,.27-.15,.53-.42,.57-.21,.03-.43-.01-.61-.07-.19-.06-.4-.16-.62-.27-.43-.23-.94-.57-1.48-.97-1.09-.81-2.38-1.92-3.61-3.09-1.23-1.17-2.41-2.4-3.28-3.45-.43-.52-.8-1.01-1.05-1.43-.13-.21-.23-.41-.3-.6-.07-.18-.12-.4-.1-.61,.03-.27,.27-.47,.55-.45Z"/><path class="cls-2" d="M102.76,75.66c.27,.03,.47,.27,.45,.55h0s0,.04,.04,.15c.04,.11,.12,.26,.22,.44,.22,.36,.54,.81,.96,1.31,.83,1.01,1.98,2.21,3.19,3.36,1.21,1.15,2.47,2.23,3.52,3.01,.53,.39,.99,.7,1.36,.89,.19,.1,.34,.17,.45,.2,.11,.04,.16,.03,.16,.04h0c.27-.04,.53,.15,.57,.42,.04,.27-.15,.53-.42,.57-.21,.03-.43-.01-.61-.07-.19-.06-.4-.16-.62-.27-.43-.23-.94-.57-1.48-.97-1.09-.81-2.38-1.92-3.61-3.09-1.23-1.17-2.41-2.4-3.28-3.45-.43-.52-.8-1.01-1.05-1.43-.13-.21-.23-.41-.3-.6-.07-.18-.12-.4-.1-.61,.03-.27,.27-.47,.55-.45Z"/><path class="cls-2" d="M101.03,77.49c.27,.03,.47,.27,.45,.55h0s0,.04,.04,.15c.04,.11,.12,.26,.22,.44,.22,.36,.54,.81,.96,1.31,.83,1.01,1.98,2.21,3.19,3.36,1.21,1.15,2.47,2.23,3.52,3.01,.53,.39,.99,.7,1.36,.89,.19,.1,.34,.17,.45,.2,.11,.04,.16,.03,.16,.04h0c.27-.04,.53,.15,.57,.42,.04,.27-.15,.53-.42,.57-.21,.03-.43-.01-.61-.07-.19-.06-.4-.16-.62-.27-.43-.23-.94-.57-1.48-.97-1.09-.81-2.38-1.92-3.61-3.09s-2.41-2.4-3.28-3.45c-.43-.52-.8-1.01-1.05-1.43-.13-.21-.23-.41-.3-.6-.07-.18-.12-.4-.1-.61,.03-.27,.27-.47,.55-.45Z"/><path class="cls-2" d="M99.29,79.31c.27,.03,.47,.27,.45,.55h0s0,.04,.04,.15c.04,.11,.12,.26,.22,.44,.22,.36,.54,.81,.96,1.31,.83,1.01,1.98,2.21,3.19,3.36,1.21,1.15,2.47,2.23,3.52,3.01,.53,.39,.99,.7,1.36,.89,.19,.1,.34,.17,.45,.2,.11,.04,.16,.03,.16,.04h0c.27-.04,.53,.15,.57,.42,.04,.27-.15,.53-.42,.57-.21,.03-.43-.01-.61-.07-.19-.06-.4-.16-.62-.27-.43-.23-.94-.57-1.48-.97-1.09-.81-2.38-1.92-3.61-3.09s-2.41-2.4-3.28-3.45c-.43-.52-.8-1.01-1.05-1.43-.13-.21-.23-.41-.3-.6-.07-.18-.12-.4-.1-.61,.03-.27,.27-.47,.55-.45Z"/><path class="cls-2" d="M176.89,12.79c.3,.29,.31,.76,.03,1.06l-7.25,7.63c-.29,.3-.76,.31-1.06,.03-.3-.29-.31-.76-.03-1.06l7.25-7.63c.29-.3,.76-.31,1.06-.03Z"/><path class="cls-2" d="M173.07,9.16c.3,.29,.3,.76,.01,1.06l-7.37,7.52c-.29,.3-.76,.3-1.06,.01-.3-.29-.3-.76-.01-1.06l7.37-7.52c.29-.3,.76-.3,1.06-.01Z"/><path class="cls-2" d="M167.31,22.94c.27,.31,.23,.79-.08,1.06-.72,.62-.98,1.19-1,1.85-.03,.74,.23,1.68,.72,3.03,.14,.39-.06,.82-.45,.96-.39,.14-.82-.06-.96-.45-.49-1.34-.85-2.53-.81-3.6,.04-1.15,.53-2.09,1.53-2.94,.31-.27,.79-.23,1.06,.08Z"/><path class="cls-2" d="M163.09,19.01c.33,.25,.4,.72,.15,1.05-.78,1.05-1.68,1.6-2.82,1.73-1.07,.12-2.27-.15-3.64-.55-.4-.12-.63-.53-.51-.93,.12-.4,.53-.63,.93-.51,1.37,.4,2.32,.58,3.05,.5,.66-.07,1.21-.37,1.79-1.13,.25-.33,.72-.4,1.05-.15Z"/><path class="cls-2" d="M147.66,37.31c-.52,.15-.96,.52-1.17,.74-.97,1.02-2.74,2.88-4.26,4.49-.76,.8-1.47,1.54-1.98,2.08l-.83,.88-.54-.52-.54-.52,.83-.88c.51-.54,1.22-1.28,1.98-2.08,1.53-1.61,3.3-3.47,4.26-4.49m2.26,.29c.46-.13,1.02-.11,1.66,.5l-1.66-.5Zm1.66,.5c.65,.62,.71,1.21,.61,1.7-.12,.55-.45,1.01-.64,1.2h0c-1,1.06-2.73,2.86-4.2,4.4-.74,.77-1.41,1.48-1.9,1.99l-.8,.83c-.29,.3-.28,.77,.02,1.06,.3,.29,.77,.28,1.06-.02l.79-.83c.49-.51,1.16-1.22,1.9-1.99,1.47-1.54,3.2-3.35,4.2-4.4,.31-.33,.83-1.03,1.02-1.93,.2-.96,.02-2.09-1.04-3.1-1.05-1-2.17-1.12-3.11-.85-.88,.25-1.54,.82-1.85,1.15m-7.05,8.51c-.3-.29-.31-.76-.03-1.06l.54,.52,.54,.52c-.29,.3-.76,.31-1.06,.03Z"/><path class="cls-5" d="M135.14,45.06l-25.17,26.47c-.59,.5,6.98,7.73,7.47,7.1l25.17-26.47-7.47-7.1Z"/><path class="cls-2" d="M134.96,44.88c.1-.1,.25-.1,.35,0l7.47,7.1s.08,.11,.08,.17c0,.07-.02,.13-.07,.18l-25.16,26.46c-.13,.15-.32,.13-.41,.11-.12-.03-.25-.09-.38-.16-.27-.15-.62-.39-1-.69-.78-.6-1.76-1.47-2.7-2.37-.94-.9-1.86-1.84-2.5-2.58-.32-.37-.58-.7-.74-.97-.08-.13-.15-.25-.18-.37-.03-.09-.06-.28,.08-.42l25.16-26.46Zm.19,.53l-24.95,26.24s.05,.12,.12,.22c.14,.23,.38,.54,.7,.9,.63,.73,1.53,1.65,2.46,2.55,.94,.89,1.9,1.75,2.66,2.34,.38,.3,.7,.52,.94,.65,.1,.06,.18,.09,.23,.1l24.95-26.24-7.11-6.76Zm-17.8,33.01s0,0,0,0h0Zm-7.16-6.81h0s0,0,0,0Z"/><path class="cls-1" d="M136.01,44.86c.14,.24,.07,.54-.17,.69-.09,.05-.23,.19-.43,.43-.19,.23-.39,.53-.61,.89-.43,.71-.89,1.62-1.28,2.56-.4,.94-.73,1.9-.93,2.72-.1,.41-.16,.78-.18,1.08-.02,.31,0,.52,.05,.65,.09,.26-.05,.55-.31,.64-.26,.09-.55-.05-.64-.31-.11-.31-.12-.68-.1-1.05,.03-.38,.1-.8,.21-1.25,.22-.89,.57-1.9,.98-2.87,.41-.97,.89-1.92,1.35-2.68,.23-.38,.46-.72,.68-1,.21-.27,.45-.51,.69-.66,.24-.14,.54-.07,.69,.17Z"/><path class="cls-1" d="M120.3,69.2c.26-.09,.55,.05,.64,.31,.11,.31,.12,.68,.1,1.05-.03,.38-.1,.8-.21,1.25-.22,.89-.57,1.9-.98,2.87-.41,.97-.89,1.92-1.35,2.68-.23,.38-.46,.72-.68,1-.21,.27-.45,.51-.69,.66-.24,.14-.54,.07-.69-.17-.14-.24-.07-.54,.17-.69,.09-.05,.23-.19,.43-.43,.19-.23,.39-.53,.61-.89,.43-.71,.89-1.62,1.28-2.56,.4-.94,.73-1.9,.93-2.72,.1-.41,.16-.78,.18-1.08,.02-.31,0-.52-.05-.65-.09-.26,.05-.55,.31-.64Z"/><path class="cls-1" d="M142.85,51.28c.2,.19,.22,.5,.03,.71-1.96,2.12-4.38,3.07-6.85,3.57-1.23,.25-2.49,.39-3.71,.51-.25,.02-.5,.05-.74,.07-.97,.09-1.9,.18-2.81,.32-2.27,.33-4.2,.91-5.6,2.34-1.39,1.42-2.33,3.78-2.4,7.86,0,.28-.23,.5-.51,.49-.28,0-.5-.23-.49-.51,.07-4.21,1.05-6.86,2.69-8.54,1.63-1.67,3.84-2.29,6.17-2.63,.93-.14,1.9-.23,2.87-.32,.24-.02,.48-.05,.73-.07,1.22-.12,2.43-.26,3.61-.5,2.35-.48,4.55-1.36,6.32-3.27,.19-.2,.5-.22,.71-.03Z"/><path class="cls-1" d="M132.24,56.61c.28,0,.49,.23,.49,.51-.09,4.23-1.1,6.89-2.76,8.57-1.66,1.67-3.9,2.28-6.24,2.6-.92,.13-1.88,.22-2.83,.3-.26,.02-.52,.05-.78,.07-1.22,.12-2.42,.25-3.59,.49-2.34,.47-4.49,1.35-6.19,3.28-.18,.21-.5,.23-.71,.04-.21-.18-.23-.5-.04-.71,1.9-2.15,4.28-3.1,6.74-3.6,1.23-.25,2.48-.39,3.7-.5,.27-.03,.53-.05,.79-.07,.95-.09,1.87-.17,2.77-.3,2.28-.32,4.24-.89,5.66-2.32,1.42-1.42,2.38-3.78,2.47-7.88,0-.28,.23-.49,.51-.49Z"/><path class="cls-1" d="M133.88,51.74c.1-.1,.25-.1,.35,0l1.73,1.65c.1,.1,.1,.25,0,.35-.1,.1-.25,.1-.35,0l-1.73-1.65c-.1-.1-.1-.25,0-.35Z"/><path class="cls-1" d="M134.49,49.32c.1-.1,.25-.1,.35,0l3.51,3.34c.1,.1,.1,.25,0,.35-.1,.1-.25,.1-.35,0l-3.51-3.34c-.1-.1-.1-.25,0-.35Z"/><path class="cls-1" d="M135.62,47.39c.1-.1,.25-.1,.35,0l4.24,4.05c.1,.1,.1,.25,0,.35-.1,.1-.25,.1-.35,0l-4.24-4.05c-.1-.1-.1-.25,0-.35Z"/><path class="cls-1" d="M122.28,63.78c.1-.1,.25-.1,.35,0l1.74,1.65c.1,.1,.1,.25,0,.35-.1,.1-.25,.1-.35,0l-1.74-1.65c-.1-.1-.1-.25,0-.35Z"/><path class="cls-1" d="M122.89,61.35c.1-.1,.25-.1,.35,0l3.51,3.34c.1,.1,.1,.25,0,.35-.1,.1-.25,.1-.35,0l-3.51-3.34c-.1-.1-.1-.25,0-.35Z"/><path class="cls-1" d="M124.02,59.43c.1-.1,.25-.1,.35,0l4.25,4.04c.1,.1,.1,.25,0,.35-.1,.1-.25,.1-.35,0l-4.25-4.04c-.1-.1-.1-.25,0-.35Z"/><path class="cls-1" d="M116.54,70.02c.1-.1,.25-.1,.35,0l1.73,1.64c.1,.1,.1,.25,0,.35-.1,.1-.25,.1-.35,0l-1.73-1.64c-.1-.1-.1-.25,0-.35Z"/><path class="cls-1" d="M114.15,70.73c.1-.1,.25-.1,.35,0l3.51,3.35c.1,.1,.1,.25,0,.35-.1,.1-.25,.1-.35,0l-3.51-3.35c-.1-.1-.1-.25,0-.35Z"/><path class="cls-1" d="M128.32,57.58c.1-.1,.25-.1,.35,0l1.73,1.64c.1,.1,.1,.25,0,.35s-.25,.1-.35,0l-1.73-1.64c-.1-.1-.1-.25,0-.35Z"/><path class="cls-1" d="M125.93,58.29c.1-.1,.25-.1,.35,0l3.51,3.35c.1,.1,.1,.25,0,.35-.1,.1-.25,.1-.35,0l-3.51-3.35c-.1-.1-.1-.25,0-.35Z"/><path class="cls-1" d="M112.29,71.96c.1-.1,.25-.1,.35,0l4.24,4.04c.1,.1,.1,.25,0,.35-.1,.1-.25,.1-.35,0l-4.24-4.04c-.1-.1-.1-.25,0-.35Z"/><path class="cls-2" d="M107.86,92.2s.04,.01,.1,.04c.1,.05,.24,.12,.41,.24,.33,.24,.72,.59,1.09,1.01,.37,.41,.71,.87,.96,1.3,.26,.45,.38,.8,.4,1.03,.03,.41,.39,.73,.8,.7,.41-.03,.73-.39,.7-.8-.04-.56-.29-1.16-.59-1.68-.31-.54-.72-1.08-1.15-1.56-.43-.48-.9-.91-1.34-1.23-.22-.16-.45-.3-.68-.4-.22-.09-.5-.18-.8-.16-.41,.03-.72,.4-.69,.81,.03,.4,.38,.71,.78,.69Z"/><path class="cls-2" d="M95.81,78.99c.38,.17,.54,.62,.37,.99-.39,.85-1.03,2.03-2.69,2.95-.36,.2-.82,.07-1.02-.29-.2-.36-.07-.82,.29-1.02,1.27-.7,1.74-1.56,2.05-2.25,.17-.38,.62-.54,.99-.37Z"/><path class="cls-2" d="M43.73,122.62c-.82,.79-1.08,1.77-.94,2.82,.15,1.12,.77,2.33,1.7,3.36,.9,.99,2.05,1.77,3.23,2.13,.48-1.08,.58-2.27,.16-3.52,0-.02-.01-.04-.02-.07-.22-.93-.89-2.33-1.77-3.39-.44-.53-.9-.93-1.34-1.15-.37-.19-.7-.25-1.01-.18Zm3.19,9.62c-1.34-.49-2.57-1.38-3.54-2.44-1.08-1.19-1.88-2.67-2.08-4.17-.2-1.53,.22-3.07,1.56-4.25,.07-.07,.16-.12,.26-.15,.82-.28,1.62-.13,2.31,.23,.68,.35,1.29,.91,1.8,1.52,1.01,1.21,1.79,2.8,2.08,3.97,.49,1.49,.41,2.91-.06,4.19,.7-.02,1.38-.22,2.01-.63,.08-.06,.23-.2,.46-.47,.22-.26,.47-.57,.75-.92,.02-.03,.05-.06,.07-.09,.52-.66,1.12-1.42,1.68-1.96h0c.57-.55,1.29-.6,1.88-.54,.42,.04,.89,.15,1.32,.25,.16,.04,.31,.07,.45,.1,.58,.12,1.08,.19,1.53,.12,.41-.06,.8-.24,1.17-.69,.26-.32,.73-.37,1.06-.11,.32,.26,.37,.74,.11,1.05-.61,.75-1.34,1.11-2.11,1.22-.73,.11-1.46,0-2.07-.14-.21-.04-.4-.09-.58-.13-.39-.09-.71-.17-1.02-.2-.43-.04-.6,.03-.7,.13m-8.33,4.09c-.85,1.08-2.08,2.01-3.5,2.67-1.64,.77-3.48,1.17-5.16,1.08-.42-.02-.82-.07-1.21-.15,.46-1.13,.59-2.45,.15-3.53v-.03c-.68-1.48-1.45-2.47-2.25-2.97-.41-.26-.85-.4-1.3-.38-.46,.02-.86,.2-1.18,.5-.62,.57-.86,1.51-.79,2.48,.07,1,.46,2.14,1.25,3.28,.02,.03,.04,.06,.07,.08,.52,.57,1.13,1.01,1.79,1.36-.54,.54-1.19,.79-1.84,.68-1.8-.32-3.16-.14-4.29,.41-1.1,.54-1.92,1.39-2.68,2.23-.28,.31-.25,.78,.05,1.06,.31,.28,.78,.26,1.06-.05,.76-.84,1.4-1.49,2.22-1.88,.79-.38,1.81-.56,3.38-.28h0c1.51,.26,2.76-.53,3.58-1.58,.62,.17,1.26,.26,1.91,.3,1.96,.1,4.04-.36,5.87-1.22,1.8-.84,3.41-2.1,4.44-3.66,1.21,.13,2.46-.1,3.6-.86h.01c.25-.18,.51-.46,.74-.73,.25-.28,.52-.63,.79-.97l.04-.05c.55-.69,1.09-1.39,1.57-1.85m-19.62,7.21c.38-.88,.45-1.82,.19-2.47-.61-1.35-1.22-2.03-1.66-2.31-.21-.13-.36-.16-.45-.16-.08,0-.15,.03-.22,.1-.16,.15-.36,.56-.31,1.28,.05,.68,.32,1.55,.96,2.49,.42,.45,.93,.81,1.49,1.08Z"/></svg>