<svg width="166" height="173" viewBox="0 0 166 173" fill="none" xmlns="http://www.w3.org/2000/svg">
<path d="M1 111.339C1 111.339 4.93987 104.653 10.2353 101.335C20.2687 95.0424 29.3267 97.178 34.2421 100.14C44.0348 106.051 55.6011 127.165 66.3693 132.733C69.2071 134.208 74.1478 135.11 78.0117 133.064C82.0402 130.928 83.5731 125.208 81.8122 120.428C79.9753 115.419 71.6141 110.271 65.9512 106.153C62.6194 103.725 57.7928 97.7373 57.4634 91.9788C57.2481 88.3559 57.8561 81.9873 59.313 77.589C59.5537 76.8644 80.5074 1 80.5074 1C80.5074 1 93.2772 7.83899 95.2915 19.2415C97.8379 33.6059 82.9397 62.8178 81.3688 74.3474C80.2794 82.2542 83.3958 86.6526 83.3958 86.6526L134.994 22.6991C134.994 22.6991 142.532 32.5508 142.532 42.3644C142.532 55.3686 112.774 78.7458 103.729 93.7966C99.4974 100.826 102.006 104.246 102.006 104.246L164.145 69.7203C164.145 69.7203 167.869 83.2966 159.774 92.1695C153.756 98.767 132.423 108.593 123.238 113.246C115.447 117.186 115.105 123.174 115.105 123.174L158.279 123.199C158.279 123.199 154.922 134.856 146.016 137.297C140.252 138.873 127.355 136.903 121.351 138.339C119.235 138.847 115.118 142.013 113.711 143.614C108.986 148.966 100.359 160.203 94.6834 164.347C89.9201 167.83 83.4718 172 71.9562 172C59.1357 172 50.6478 164.97 45.5044 159.809C40.703 154.979 34.0394 143.017 30.3275 137.169C25.4375 129.466 19.876 120.72 12.4776 116.106C7.77763 113.17 1 111.339 1 111.339Z" stroke="black" stroke-width="2" stroke-miterlimit="10" stroke-linecap="round" stroke-linejoin="round"/>
</svg>
