<svg width="87" height="155" viewBox="0 0 87 155" fill="none" xmlns="http://www.w3.org/2000/svg">
<path d="M23.6401 116.21C23.6401 115.29 27.0901 115.06 27.1301 115.97C27.3801 121.52 27.1301 128.22 27.1301 134.69C27.1301 135.57 23.8101 135.49 23.8101 134.61C23.8101 127.83 23.6401 121.37 23.6401 116.21Z" fill="black"/>
<path fill-rule="evenodd" clip-rule="evenodd" d="M24.1401 116.254C24.1406 118.643 24.1772 121.311 24.2164 124.164C24.2193 124.374 24.2222 124.584 24.2251 124.796C24.2673 127.885 24.3096 131.177 24.3101 134.55C24.3426 134.575 24.4038 134.611 24.5055 134.65C24.7475 134.741 25.1025 134.801 25.4822 134.81C25.8623 134.819 26.2158 134.776 26.455 134.698C26.543 134.669 26.5985 134.64 26.6301 134.62C26.6307 132.444 26.659 130.251 26.6869 128.089C26.7417 123.837 26.795 119.704 26.6335 116.056C26.5989 116.034 26.5357 116.004 26.4333 115.976C26.1769 115.904 25.8031 115.876 25.4039 115.903C25.0055 115.93 24.6316 116.009 24.3742 116.117C24.2466 116.171 24.1741 116.221 24.1401 116.254ZM27.6296 115.948C27.6166 115.656 27.4618 115.436 27.2822 115.292C27.1112 115.154 26.902 115.068 26.7026 115.013C26.3008 114.9 25.8046 114.873 25.3363 114.905C24.8673 114.937 24.3762 115.031 23.9855 115.196C23.7911 115.278 23.5941 115.389 23.4384 115.541C23.2782 115.698 23.1401 115.924 23.1401 116.21C23.1401 118.618 23.1771 121.308 23.2165 124.176C23.2194 124.386 23.2223 124.597 23.2252 124.809C23.2677 127.917 23.3101 131.224 23.3101 134.61C23.3101 134.895 23.4494 135.116 23.6117 135.268C23.7678 135.413 23.9632 135.514 24.1523 135.585C24.5327 135.729 25.0077 135.799 25.4581 135.81C25.908 135.821 26.3845 135.774 26.7678 135.647C26.958 135.585 27.1579 135.492 27.3188 135.35C27.4882 135.2 27.6301 134.977 27.6301 134.69C27.6301 132.523 27.6584 130.322 27.6865 128.143C27.7417 123.848 27.7959 119.639 27.6296 115.948" fill="black"/>
<path d="M31.99 116.19C31.99 121.68 32.09 129.61 32.09 134.61C32.09 135.71 35.75 135.62 35.71 134.63C35.47 129.21 35.46 122.78 35.46 122.78C35.46 122.78 40.19 130.66 42.57 135.02C42.92 135.66 45.66 135.76 45.66 135.02C45.66 129.39 45.96 124.91 45.96 116.46C45.96 114.95 42.38 114.76 42.38 115.78C42.38 120.72 42.44 128.02 42.44 128.02C42.44 128.02 37.84 120.19 35.06 115.91C34.65 115.32 31.99 115.45 31.99 116.19Z" fill="black"/>
<path fill-rule="evenodd" clip-rule="evenodd" d="M45.6696 115.152C46.0913 115.421 46.46 115.853 46.46 116.46C46.46 120.691 46.3849 123.929 46.3098 126.81C46.3022 127.102 46.2947 127.389 46.2872 127.674C46.2204 130.205 46.16 132.497 46.16 135.02C46.16 135.287 46.0294 135.495 45.8727 135.633C45.7258 135.763 45.5458 135.844 45.38 135.898C45.0457 136.006 44.6318 136.044 44.2377 136.037C43.839 136.031 43.419 135.977 43.0626 135.875C42.8846 135.824 42.7079 135.756 42.5534 135.667C42.4047 135.581 42.2367 135.452 42.1313 135.26C40.9456 133.088 39.1715 130.033 37.6916 127.519C37.0332 126.4 36.4337 125.389 35.9712 124.611C35.9764 125.194 35.9839 125.891 35.9949 126.665C36.0274 128.948 36.0898 131.905 36.2095 134.608L36.2096 134.61C36.2216 134.906 36.0882 135.145 35.9173 135.314C35.7543 135.475 35.5457 135.587 35.3415 135.666C34.931 135.824 34.4134 135.899 33.9198 135.904C33.4269 135.908 32.9031 135.844 32.4829 135.683C32.0979 135.536 31.59 135.217 31.59 134.61C31.59 132.17 31.5662 129.032 31.5417 125.817L31.54 125.587C31.515 122.294 31.49 118.937 31.49 116.19C31.49 115.932 31.6102 115.728 31.7523 115.587C31.8883 115.451 32.0578 115.357 32.219 115.29C32.5428 115.154 32.9469 115.08 33.3356 115.052C33.7281 115.024 34.1439 115.041 34.502 115.11C34.6809 115.144 34.8598 115.195 35.0192 115.268C35.1727 115.338 35.3482 115.449 35.4706 115.625L35.4751 115.631L35.4793 115.638C36.8745 117.786 38.7234 120.82 40.2211 123.312C40.8791 124.408 41.4701 125.4 41.926 126.168C41.9212 125.491 41.9156 124.666 41.91 123.755C41.895 121.313 41.88 118.252 41.88 115.78C41.88 115.167 42.4194 114.879 42.7939 114.765C43.214 114.637 43.735 114.615 44.2303 114.675C44.726 114.735 45.252 114.885 45.6696 115.152ZM42.44 128.02L42.0088 128.273L41.8062 127.929C41.6752 127.707 41.4848 127.385 41.2477 126.985C40.7734 126.184 40.112 125.073 39.3639 123.827C37.8723 121.345 36.0396 118.337 34.6566 116.207C34.649 116.201 34.6322 116.191 34.6016 116.177C34.537 116.147 34.4408 116.116 34.3126 116.092C34.0567 116.042 33.7306 116.027 33.4069 116.05C33.0793 116.073 32.7928 116.134 32.605 116.212C32.5505 116.235 32.5136 116.256 32.49 116.271C32.4905 118.999 32.5152 122.318 32.54 125.58L32.5417 125.812C32.5661 129.02 32.5899 132.157 32.59 134.599C32.6018 134.619 32.6528 134.678 32.8396 134.749C33.1044 134.85 33.4931 134.908 33.9102 134.904C34.3266 134.9 34.7165 134.835 34.981 134.733C35.106 134.684 35.176 134.638 35.2086 134.608C35.0895 131.903 35.0274 128.954 34.995 126.68C34.9788 125.536 34.97 124.561 34.9653 123.873C34.963 123.528 34.9616 123.256 34.9609 123.069L34.96 122.781L35.46 122.78C35.8887 122.523 35.8887 122.523 35.8887 122.523L36.097 122.87C36.2311 123.095 36.4253 123.42 36.6658 123.823C37.1468 124.631 37.8129 125.753 38.5534 127.011C40.0301 129.521 41.8064 132.578 43.0006 134.765C43.0071 134.771 43.0228 134.783 43.0531 134.801C43.1154 134.837 43.2102 134.877 43.3384 134.913C43.5942 134.987 43.9247 135.032 44.2548 135.038C44.5894 135.043 44.8824 135.008 45.0728 134.946C45.1087 134.935 45.1375 134.923 45.16 134.913C45.1617 132.418 45.2217 130.143 45.2875 127.649C45.295 127.364 45.3026 127.076 45.3102 126.784C45.3851 123.906 45.46 120.679 45.46 116.46C45.46 116.312 45.3811 116.154 45.1316 115.995C44.878 115.833 44.509 115.716 44.1097 115.668C43.71 115.619 43.336 115.646 43.0848 115.722C42.9583 115.76 42.9025 115.795 42.88 115.815C42.8801 118.277 42.8951 121.319 42.91 123.749C42.9175 124.97 42.925 126.037 42.9306 126.798L42.94 128.014L42.94 128.016L42.44 128.02ZM42.8667 115.831C42.866 115.831 42.8675 115.827 42.8733 115.821C42.8704 115.828 42.8675 115.831 42.8667 115.831ZM35.46 122.78L35.8887 122.523L34.9572 120.971L34.96 122.781L35.46 122.78ZM32.5869 134.591C32.5872 134.591 32.5881 134.593 32.5889 134.597C32.587 134.593 32.5866 134.591 32.5869 134.591ZM42.44 128.02L42.94 128.016L42.9553 129.884L42.0088 128.273L42.44 128.02Z" fill="black"/>
<path d="M50.7101 115.94C50.7101 115.94 51.0801 132.98 50.7901 134.99C50.5 137 54.1301 135.55 54.1301 135.13C54.1301 135.13 54.0201 128.2 54.2601 127.85C54.5 127.5 60.2101 135.2 60.2101 135.2C60.5601 135.66 63.3901 134.35 62.8701 133.67C62.8701 133.67 56.5 126 56.4301 125.5C56.3601 125 62.7401 117.08 62.7401 117.08C63.1501 116.52 60.2201 115.04 59.5501 115.95C57.5037 118.688 54.5 123.5 54.3101 122.96C54.1201 122.42 54.2001 115.95 54.2001 115.95C54.1901 114.85 50.6701 114.85 50.7101 115.94Z" fill="black"/>
<path fill-rule="evenodd" clip-rule="evenodd" d="M53.8368 114.87C54.2184 115.028 54.6945 115.357 54.6999 115.945L54.7 115.956L54.6968 116.234C54.695 116.412 54.6926 116.666 54.6903 116.973C54.6858 117.587 54.6818 118.411 54.6837 119.251C54.6855 120.093 54.6933 120.947 54.7124 121.623C54.7153 121.728 54.7185 121.828 54.722 121.923C55.0242 121.531 55.401 121.004 55.8236 120.398C56.1253 119.965 56.4492 119.494 56.7823 119.01C57.5764 117.854 58.4233 116.622 59.1485 115.652C59.4685 115.219 59.9988 115.142 60.4155 115.165C60.8549 115.188 61.3301 115.326 61.746 115.504C62.1614 115.681 62.5617 115.916 62.8418 116.166C62.9781 116.288 63.1192 116.443 63.2027 116.625C63.2928 116.823 63.3355 117.113 63.1433 117.375L63.1365 117.385L63.1292 117.394L63.058 117.482L62.8561 117.734C62.682 117.951 62.4335 118.262 62.1353 118.637C61.539 119.386 60.745 120.39 59.9535 121.409C59.1613 122.429 58.3746 123.461 57.7913 124.267C57.499 124.671 57.2626 125.011 57.1031 125.263C57.05 125.346 57.0081 125.416 56.9766 125.472C57.0166 125.534 57.0696 125.613 57.1359 125.707C57.3105 125.956 57.5599 126.29 57.862 126.683C58.4652 127.467 59.2649 128.469 60.0649 129.458C60.8643 130.447 61.6617 131.42 62.2595 132.146C62.5583 132.509 62.8072 132.81 62.9813 133.021L63.2542 133.35C63.2543 133.35 63.2545 133.351 62.8699 133.67L63.2542 133.35L63.2609 133.358L63.2671 133.366C63.4386 133.591 63.4665 133.852 63.4003 134.086C63.3413 134.295 63.2129 134.469 63.0879 134.602C62.8348 134.873 62.4623 135.117 62.0959 135.307C61.7243 135.499 61.3133 135.658 60.9557 135.739C60.7794 135.778 60.5906 135.804 60.4148 135.793C60.2592 135.784 59.9898 135.737 59.812 135.503L59.8082 135.498L59.7445 135.412L59.5633 135.169C59.4071 134.959 59.1835 134.661 58.9144 134.303C58.3761 133.588 57.6564 132.638 56.9296 131.7C56.2017 130.761 55.4709 129.838 54.9091 129.174C54.8166 129.064 54.7296 128.963 54.6488 128.871C54.645 128.96 54.6414 129.053 54.6381 129.152C54.6149 129.843 54.6062 130.735 54.6049 131.622C54.6037 132.508 54.6099 133.383 54.6164 134.037C54.6197 134.364 54.623 134.635 54.6256 134.825L54.6298 135.122L54.6299 135.13C54.6299 135.326 54.5314 135.467 54.4799 135.532C54.4188 135.608 54.3458 135.672 54.2793 135.723C54.1442 135.827 53.971 135.927 53.7862 136.017C53.4141 136.199 52.927 136.372 52.4435 136.463C51.9813 136.55 51.424 136.581 50.9775 136.372C50.7377 136.26 50.5258 136.075 50.3977 135.803C50.273 135.538 50.2492 135.236 50.295 134.919C50.3612 134.46 50.3936 133.062 50.3998 131.164C50.4058 129.288 50.3868 126.972 50.3587 124.718C50.3306 122.463 50.2934 120.272 50.2632 118.643C50.2482 117.829 50.2349 117.156 50.2253 116.686L50.2101 115.954C50.1905 115.358 50.6672 115.024 51.0435 114.866C51.4488 114.696 51.9568 114.623 52.4368 114.624C52.9174 114.624 53.4271 114.699 53.8368 114.87ZM53.6274 134.961L53.6257 134.838C53.6231 134.648 53.6198 134.375 53.6165 134.047C53.6099 133.391 53.6037 132.511 53.6049 131.621C53.6062 130.731 53.6149 129.826 53.6386 129.118C53.6505 128.766 53.6662 128.456 53.6874 128.219C53.6979 128.101 53.7105 127.993 53.7265 127.902C53.7345 127.858 53.7447 127.809 53.7585 127.762C53.7693 127.724 53.7941 127.645 53.8475 127.567C53.9208 127.46 54.0297 127.386 54.1535 127.354C54.2641 127.327 54.3587 127.341 54.4153 127.354C54.5218 127.38 54.6045 127.432 54.6462 127.461C54.7414 127.525 54.842 127.617 54.9359 127.71C55.1316 127.903 55.3861 128.189 55.6725 128.528C56.2488 129.209 56.9904 130.146 57.7201 131.088C58.4508 132.031 59.1736 132.984 59.7135 133.702C59.9834 134.061 60.2078 134.361 60.3648 134.571L60.5316 134.795C60.5799 134.792 60.648 134.783 60.7368 134.763C60.992 134.706 61.3217 134.581 61.6364 134.418C61.9562 134.253 62.2156 134.071 62.3577 133.919C62.3718 133.904 62.3835 133.891 62.3933 133.879L62.2108 133.658C62.0362 133.447 61.7869 133.145 61.4874 132.782C60.8886 132.054 60.0892 131.078 59.2873 130.087C58.486 129.096 57.6801 128.087 57.0693 127.292C56.7644 126.896 56.5046 126.548 56.3175 126.282C56.2244 126.149 56.1449 126.031 56.0857 125.933C56.0563 125.884 56.0278 125.834 56.0043 125.785C55.9871 125.749 55.9484 125.667 55.9347 125.569C55.9153 125.431 55.954 125.314 55.9681 125.272C55.9886 125.211 56.0157 125.152 56.0423 125.099C56.0962 124.991 56.1715 124.864 56.2587 124.727C56.4347 124.449 56.6853 124.089 56.9813 123.68C57.5746 122.861 58.3697 121.818 59.1637 120.796C59.9585 119.773 60.7551 118.765 61.3528 118.014C61.6518 117.638 61.9011 117.327 62.0757 117.109L62.2087 116.943C62.1985 116.933 62.1875 116.923 62.1755 116.912C62.0005 116.756 61.7034 116.573 61.3537 116.424C61.0047 116.275 60.6474 116.179 60.3617 116.163C60.054 116.147 59.9677 116.226 59.9525 116.246L59.9504 116.249C59.2375 117.203 58.41 118.407 57.6206 119.555C57.2842 120.045 56.9546 120.524 56.6439 120.97C56.1293 121.708 55.6623 122.359 55.3087 122.793C55.1372 123.004 54.9689 123.193 54.8221 123.313C54.7622 123.362 54.6359 123.46 54.4708 123.492C54.3727 123.51 54.2269 123.511 54.0826 123.426C53.9397 123.342 53.8702 123.217 53.8382 123.126C53.8072 123.038 53.7914 122.934 53.7814 122.856C53.7698 122.765 53.7602 122.658 53.7518 122.539C53.7351 122.3 53.7224 121.995 53.7128 121.651C53.6934 120.962 53.6855 120.098 53.6837 119.254C53.6818 118.409 53.6858 117.582 53.6904 116.966C53.6926 116.658 53.695 116.402 53.6968 116.224L53.6998 115.956C53.6981 115.952 53.6931 115.944 53.6814 115.932C53.6483 115.897 53.5781 115.845 53.4526 115.793C53.2008 115.688 52.8311 115.624 52.4354 115.624C52.0392 115.623 51.674 115.686 51.4303 115.788C51.3087 115.839 51.2455 115.888 51.2187 115.918C51.2145 115.923 51.2116 115.926 51.2098 115.929L51.2251 116.666C51.2347 117.136 51.248 117.81 51.2631 118.625C51.2933 120.254 51.3305 122.448 51.3586 124.705C51.3868 126.962 51.4059 129.283 51.3998 131.167C51.3937 133.029 51.3636 134.515 51.2848 135.061C51.258 135.247 51.2842 135.339 51.3025 135.377C51.3174 135.409 51.3416 135.438 51.4013 135.466C51.5539 135.537 51.8496 135.557 52.2588 135.48C52.6465 135.407 53.0487 135.264 53.3482 135.119C53.4694 135.059 53.563 135.005 53.6274 134.961ZM51.2083 115.929C51.2083 115.929 51.2083 115.929 51.2083 115.929L50.7104 115.94C51.1383 115.931 51.1996 115.929 51.2083 115.929ZM60.4574 134.793C60.4576 134.793 60.4606 134.793 60.4659 134.794C60.4598 134.794 60.4572 134.793 60.4574 134.793ZM54.0863 128.289C54.0868 128.29 54.0873 128.29 54.0879 128.29C54.0829 128.287 54.0822 128.286 54.0863 128.289Z" fill="black"/>
<path d="M43.5 108.23C29.55 108.23 4.69998 107.46 4.69998 107.46C2.45998 99.89 19.64 96.41 28.36 93.27C29.07 93.04 37.42 93.71 43.5 93.71C50.12 93.71 57.34 93.07 57.98 93.27C67.49 96.66 84.64 100.51 81.92 107.46C81.92 107.46 59.47 108.23 43.5 108.23Z" fill="#0E0E0E"/>
<path fill-rule="evenodd" clip-rule="evenodd" d="M28.5704 93.9913C26.9534 94.572 25.0483 95.1654 23.05 95.7879C22.3407 96.0088 21.6196 96.2334 20.8955 96.4624C18.0966 97.3476 15.2328 98.304 12.7178 99.3921C10.1892 100.486 8.08634 101.683 6.75745 103.02C5.60379 104.18 5.08164 105.385 5.29981 106.728C5.44627 106.732 5.61931 106.738 5.81737 106.743C6.52379 106.764 7.54862 106.795 8.82204 106.831C11.3689 106.903 14.9101 106.999 18.8869 107.095C26.8428 107.288 36.5349 107.48 43.5 107.48C51.4754 107.48 61.0728 107.288 68.6798 107.095C72.4826 106.999 75.7865 106.903 78.1397 106.831C79.3163 106.795 80.2551 106.765 80.8997 106.743C81.0791 106.738 81.2357 106.732 81.3683 106.728C81.5023 106.185 81.4823 105.682 81.3425 105.204C81.1602 104.581 80.7595 103.951 80.1306 103.314C78.8602 102.028 76.7827 100.835 74.2348 99.7167C70.9118 98.2578 66.9847 97.0009 63.311 95.8251C61.351 95.1978 59.4632 94.5936 57.7777 93.9941C57.7675 93.993 57.7526 93.9916 57.7321 93.9901C57.665 93.9854 57.5692 93.9822 57.4411 93.9815C57.1858 93.9799 56.8382 93.988 56.4059 94.0039C55.6968 94.0298 54.7869 94.0755 53.7311 94.1285C53.5008 94.14 53.2635 94.1519 53.0198 94.1641C50.3073 94.2991 46.8306 94.46 43.5 94.46C40.4391 94.46 36.8134 94.2915 33.8809 94.1529L33.6949 94.1441C32.3009 94.0782 31.0759 94.0203 30.1468 93.9914C29.6611 93.9762 29.2658 93.9693 28.974 93.9728C28.8276 93.9746 28.7163 93.9789 28.6371 93.9849C28.6041 93.9874 28.5826 93.9898 28.5704 93.9913ZM81.92 107.46L81.9457 108.21C82.2449 108.199 82.5093 108.012 82.6184 107.733C83.0158 106.718 83.0583 105.728 82.7822 104.783C82.51 103.853 81.9429 103.015 81.1979 102.261C79.7205 100.764 77.4261 99.4796 74.8378 98.3433C71.4527 96.8571 67.3671 95.5481 63.6412 94.3544C61.6884 93.7288 59.8344 93.1348 58.2318 92.5635C58.2225 92.5602 58.2132 92.5571 58.2037 92.5541C58.0733 92.5134 57.9313 92.5004 57.8372 92.4938C57.725 92.4859 57.5936 92.4824 57.4501 92.4815C57.1622 92.4798 56.789 92.4888 56.351 92.5049C55.6307 92.5313 54.7077 92.5776 53.6516 92.6306C53.4222 92.6421 53.1865 92.6539 52.9452 92.6659C50.2328 92.8009 46.7894 92.96 43.5 92.96C40.4809 92.96 36.8916 92.7935 33.9517 92.6546L33.7578 92.6454C32.3711 92.5799 31.1351 92.5214 30.1935 92.4921C29.7016 92.4767 29.2806 92.469 28.9561 92.4729C28.7943 92.4749 28.6475 92.4798 28.5234 92.4892C28.4188 92.4971 28.2658 92.5121 28.1289 92.5565C28.1212 92.559 28.1135 92.5616 28.1059 92.5644C26.513 93.1379 24.6387 93.7218 22.6335 94.3464C21.9178 94.5694 21.1854 94.7975 20.4433 95.0322C17.6384 95.9193 14.7123 96.8948 12.1222 98.0154C9.54581 99.1301 7.2287 100.419 5.69385 101.962C4.13047 103.534 3.321 105.443 3.98085 107.673C4.07269 107.983 4.35328 108.2 4.67679 108.21L4.70002 107.46C4.67679 108.21 4.6766 108.21 4.67679 108.21L4.9597 108.218C5.14526 108.224 5.41918 108.232 5.77271 108.243C6.47977 108.264 7.50533 108.294 8.77956 108.33C11.328 108.402 14.8712 108.498 18.8506 108.595C26.8073 108.787 36.5152 108.98 43.5 108.98C51.4947 108.98 61.1072 108.787 68.7177 108.595C72.5237 108.498 75.8304 108.402 78.1857 108.33C79.3633 108.294 80.3031 108.264 80.9487 108.243C81.2714 108.232 81.5206 108.224 81.6891 108.218L81.9457 108.21C81.9459 108.21 81.9457 108.21 81.92 107.46Z" fill="black"/>
<path d="M12.6699 151.6C16.9399 152.34 70.2299 152.39 74.3199 151.77L73.9599 153.68H13.0799L12.6699 151.6Z" fill="black"/>
<path fill-rule="evenodd" clip-rule="evenodd" d="M12.1335 151.076C12.3061 150.899 12.5547 150.819 12.798 150.861C13.2713 150.943 14.5139 151.024 16.4055 151.096C18.272 151.167 20.7141 151.227 23.5421 151.276C29.1972 151.375 36.3825 151.431 43.5639 151.445C50.7452 151.459 57.9195 151.43 63.5527 151.359C66.3696 151.324 68.7984 151.278 70.6489 151.222C72.5228 151.164 73.7509 151.098 74.2075 151.029C74.4478 150.992 74.6909 151.074 74.8597 151.249C75.0284 151.424 75.102 151.67 75.0569 151.909L74.6969 153.819C74.6301 154.173 74.3206 154.43 73.9599 154.43H13.0799C12.7216 154.43 12.4134 154.177 12.3441 153.825L11.9341 151.745C11.8863 151.503 11.9609 151.253 12.1335 151.076ZM13.6025 152.453L13.6965 152.93H38.8904C33.3203 152.905 27.9501 152.854 23.5159 152.776C20.6835 152.726 18.2299 152.666 16.3488 152.595C15.2344 152.553 14.3 152.506 13.6025 152.453ZM54.9851 152.93H73.3381L73.3991 152.606C72.7169 152.65 71.7969 152.687 70.6946 152.721C68.8313 152.778 66.3924 152.824 63.5716 152.859C60.9838 152.892 58.0723 152.915 54.9851 152.93Z" fill="black"/>
<path fill-rule="evenodd" clip-rule="evenodd" d="M1.75558 107.345C1.60624 107.262 1.42771 107.229 1.24665 107.264C1.20947 107.271 1.14567 107.285 1.07747 107.31C1.04531 107.321 0.980226 107.347 0.90843 107.394C0.857465 107.428 0.672917 107.554 0.595605 107.813C0.495275 108.148 0.647452 108.417 0.767809 108.546C0.868513 108.654 0.975852 108.705 1.01333 108.723C1.10122 108.763 1.18309 108.781 1.21581 108.788C1.36047 108.819 1.58443 108.838 1.82401 108.854C2.3396 108.888 3.17466 108.919 4.27303 108.947C6.47548 109.004 9.78133 109.051 13.8161 109.089C21.8875 109.165 32.8913 109.203 43.855 109.204C54.8187 109.205 65.7451 109.167 73.6616 109.092C77.6188 109.054 80.8283 109.007 82.9152 108.95C83.9542 108.921 84.7302 108.89 85.1825 108.855C85.2962 108.846 85.3983 108.837 85.4831 108.826L85.4841 108.825C85.5414 108.818 85.6724 108.801 85.791 108.755C85.8248 108.742 85.9007 108.711 85.982 108.65C86.047 108.601 86.2507 108.434 86.2842 108.122C86.3212 107.778 86.1247 107.557 86.0357 107.477C85.9446 107.395 85.8548 107.354 85.8191 107.339C85.6945 107.286 85.5554 107.266 85.499 107.258L85.4949 107.258C85.3123 107.232 85.1358 107.274 84.991 107.365C84.5681 107.395 83.8536 107.423 82.8741 107.45C80.8015 107.507 77.6032 107.554 73.6473 107.592C65.7375 107.667 54.8164 107.705 43.8551 107.704C32.8938 107.703 21.8951 107.665 13.8302 107.589C9.79691 107.551 6.5012 107.504 4.31161 107.448C3.21397 107.419 2.40539 107.389 1.92261 107.357C1.86028 107.353 1.80468 107.349 1.75558 107.345ZM85.3252 108.749C85.3251 108.749 85.3226 108.749 85.3181 108.748C85.3231 108.749 85.3254 108.749 85.3252 108.749ZM85.3251 107.333C85.3278 107.332 85.3292 107.332 85.3293 107.332C85.3293 107.332 85.328 107.332 85.3251 107.333Z" fill="black"/>
<path fill-rule="evenodd" clip-rule="evenodd" d="M10.7037 141.593C10.4878 141.382 10.1563 141.315 9.86604 141.449C9.81558 141.472 9.73377 141.514 9.65148 141.584C9.57594 141.648 9.42437 141.8 9.3801 142.052C9.32994 142.339 9.44745 142.565 9.55486 142.692C9.6499 142.804 9.75546 142.866 9.80974 142.894C9.92325 142.955 10.0425 142.988 10.1223 143.008C10.214 143.031 10.3164 143.05 10.4235 143.067C10.8445 143.135 11.5072 143.193 12.3526 143.246C14.0571 143.351 16.6132 143.439 19.7312 143.508C25.9713 143.648 34.499 143.717 43.0513 143.716C51.6036 143.716 60.1868 143.645 66.5379 143.506C69.7117 143.436 72.3363 143.349 74.123 143.243C75.0116 143.191 75.7135 143.133 76.1761 143.068C76.3914 143.038 76.6171 142.998 76.7884 142.934C76.8358 142.917 76.9011 142.89 76.9695 142.848C77.0279 142.813 77.1511 142.731 77.2461 142.579C77.3636 142.391 77.4097 142.135 77.312 141.884C77.2332 141.682 77.0932 141.568 77.0285 141.522C76.7411 141.314 76.3567 141.34 76.0999 141.562C76.061 141.569 76.0166 141.576 75.9664 141.583C75.5685 141.639 74.9185 141.694 74.0348 141.746C72.2768 141.849 69.6747 141.936 66.5049 142.006C60.1688 142.145 51.5976 142.216 43.0512 142.216C34.5047 142.217 25.9893 142.148 19.7647 142.009C16.6503 141.939 14.1188 141.852 12.4454 141.749C11.636 141.698 11.0521 141.646 10.7037 141.593ZM10.4613 141.546C10.4595 141.545 10.4586 141.545 10.4586 141.545C10.4587 141.545 10.4596 141.545 10.4613 141.546Z" fill="black"/>
<path d="M13.54 142.93L15.01 148.34C17.79 148.95 68.4 148.93 71.7 148.28L73.38 142.68C73.38 142.68 61.82 144.48 43.5 144.48C25.86 144.12 13.54 142.93 13.54 142.93Z" fill="black"/>
<path fill-rule="evenodd" clip-rule="evenodd" d="M73.2647 141.939C73.5192 141.899 73.7762 141.993 73.9454 142.187C74.1147 142.381 74.1724 142.649 74.0984 142.895L72.4184 148.495C72.3385 148.762 72.1178 148.962 71.845 149.016C71.3597 149.111 70.1353 149.183 68.4578 149.244C66.7453 149.305 64.4811 149.357 61.8529 149.399C56.5957 149.483 49.8692 149.527 43.1606 149.532C36.452 149.537 29.7581 149.503 24.566 149.429C21.9704 149.392 19.7468 149.346 18.0832 149.289C17.2518 149.26 16.5558 149.229 16.0212 149.195C15.5085 149.163 15.089 149.125 14.8493 149.073C14.5765 149.013 14.3595 148.806 14.2863 148.537L12.8163 143.127C12.7517 142.889 12.808 142.635 12.9668 142.446C13.1257 142.258 13.3669 142.16 13.6122 142.183L13.6468 142.187L13.7523 142.197C13.8459 142.205 13.986 142.218 14.1708 142.235C14.5403 142.268 15.0885 142.316 15.8019 142.374C17.2286 142.491 19.3156 142.651 21.9535 142.822C27.2281 143.163 34.704 143.55 43.5077 143.73C52.6399 143.73 60.0853 143.281 65.2451 142.833C67.8257 142.609 69.8342 142.385 71.1959 142.217C71.8767 142.133 72.3957 142.063 72.7437 142.015C72.9176 141.99 73.0488 141.971 73.136 141.958L73.2337 141.944L73.2576 141.94L73.2647 141.939C73.2647 141.939 73.2647 141.939 73.2647 141.939ZM72.3255 143.585C72.0552 143.621 71.7393 143.661 71.3792 143.706C70.0009 143.875 67.9744 144.101 65.375 144.327C60.1762 144.779 52.6844 145.23 43.5 145.23L43.4847 145.23C34.6517 145.05 27.1505 144.661 21.8565 144.318C19.2095 144.147 17.114 143.987 15.6794 143.869C15.2382 143.833 14.8595 143.801 14.5465 143.774L15.6026 147.66C15.7411 147.673 15.9115 147.685 16.116 147.698C16.6297 147.731 17.3093 147.761 18.1344 147.79C19.7834 147.846 21.9956 147.893 24.5873 147.929C29.7695 148.003 36.4556 148.037 43.1595 148.032C49.8634 148.027 56.5819 147.983 61.829 147.899C64.4531 147.858 66.7059 147.806 68.4037 147.745C69.6696 147.699 70.5867 147.649 71.1214 147.599L72.3255 143.585Z" fill="black"/>
<path fill-rule="evenodd" clip-rule="evenodd" d="M58.9769 71.15C59.2302 71.2773 59.39 71.5366 59.39 71.8201V81.5804C61.0686 81.6959 62.1816 82.9453 62.4082 84.2795C62.5397 85.0542 62.3796 85.8978 61.8188 86.5542C61.3863 87.0603 60.7665 87.3964 59.9963 87.5278L60.0488 89.7723C61.3539 90.3332 63.3302 90.9185 65.6967 91.6143L65.7898 91.6417C68.3659 92.399 71.3374 93.2726 74.1999 94.3589C77.0924 95.4566 79.9192 96.7879 82.1431 98.4708C84.368 100.154 86.0547 102.241 86.528 104.857C86.5411 104.929 86.5435 105.003 86.5351 105.076C85.0236 118.215 80.9269 131.95 77.7438 142.622C76.5936 146.478 75.5627 149.934 74.8161 152.818C74.7529 153.062 74.5712 153.258 74.3326 153.34C74.2016 153.385 74.0631 153.392 73.9319 153.363C73.9132 153.362 73.8857 153.36 73.8476 153.358C73.7341 153.352 73.5629 153.346 73.3334 153.34C72.8764 153.329 72.2113 153.319 71.3653 153.311C69.6745 153.295 67.2741 153.284 64.3999 153.279C58.6522 153.268 51.0169 153.275 43.3902 153.29C35.7638 153.305 28.147 153.328 22.4367 153.346C19.5816 153.356 17.2031 153.364 15.5384 153.37L12.9237 153.38C12.9232 153.38 12.923 153.38 12.92 152.63L12.9237 153.38C12.5828 153.381 12.2832 153.153 12.1954 152.823C11.4015 149.848 10.3223 146.405 9.12891 142.598C5.84517 132.122 1.69739 118.89 0.254056 105.068C0.246702 104.998 0.249358 104.926 0.261946 104.857C0.727647 102.279 2.40121 100.202 4.60688 98.5153C6.81279 96.8282 9.61847 95.4779 12.4907 94.3611C15.3677 93.2423 18.3545 92.342 20.9345 91.5729C21.0303 91.5443 21.1255 91.516 21.22 91.4878C23.4307 90.829 25.2809 90.2777 26.5257 89.7657L26.5521 87.514C25.7545 87.3678 25.1199 87.0202 24.6877 86.4997C24.132 85.8304 24.002 84.9832 24.1729 84.2158C24.466 82.8997 25.6539 81.7273 27.3382 81.6538L27.44 71.8123C27.4428 71.5473 27.5852 71.3033 27.8147 71.1707C28.0347 71.0436 28.3034 71.0368 28.5288 71.151C28.537 71.1536 28.5541 71.1588 28.5826 71.166C28.6479 71.1823 28.7432 71.2012 28.8729 71.2214C29.1316 71.2618 29.4859 71.3012 29.93 71.3385C30.8157 71.4129 32.0149 71.4757 33.4288 71.5262C36.254 71.627 39.9036 71.6776 43.5463 71.6776C47.189 71.6776 50.8165 71.627 53.5977 71.5262C54.9897 71.4757 56.1607 71.413 57.0126 71.3387C57.4401 71.3014 57.7741 71.2623 58.0105 71.2227C58.1295 71.2028 58.2099 71.185 58.2588 71.1714C58.2623 71.1704 58.2654 71.1695 58.2683 71.1686C58.4847 71.0451 58.7508 71.0363 58.9769 71.15ZM13.4938 151.878L15.533 151.87C17.1978 151.864 19.5764 151.856 22.4318 151.846C28.1424 151.828 35.76 151.805 43.3873 151.79C51.0144 151.775 58.6521 151.768 64.4029 151.779C67.2779 151.784 69.6831 151.795 71.3799 151.811C72.2277 151.819 72.9019 151.829 73.3705 151.841C73.4227 151.842 73.4727 151.843 73.5204 151.845C74.2719 149.006 75.2584 145.699 76.3444 142.057C79.5119 131.438 83.5266 117.978 85.0319 105.017C84.6237 102.954 83.2599 101.197 81.2379 99.6669C79.1802 98.1098 76.5063 96.8386 73.6676 95.7613C70.8595 94.6956 67.9345 93.8356 65.3455 93.0745L65.2736 93.0534C62.7011 92.297 60.4032 91.6215 58.9836 90.9353C58.7303 90.8129 58.5668 90.5589 58.5602 90.2776L58.4802 86.8576C58.4755 86.6557 58.5524 86.4604 58.6935 86.316C58.8346 86.1715 59.0281 86.0901 59.23 86.0901C60.0298 86.0901 60.4591 85.8364 60.6784 85.5797C60.9048 85.3148 60.999 84.9409 60.9294 84.5306C60.7903 83.7118 60.0268 82.9084 58.7524 83.1016C58.5364 83.1344 58.3167 83.0712 58.151 82.9288C57.9853 82.7863 57.89 82.5786 57.89 82.3601V72.7553C57.6693 72.7832 57.4185 72.809 57.1429 72.833C56.2536 72.9106 55.0533 72.9744 53.652 73.0252C50.8466 73.1269 47.1998 73.1776 43.5463 73.1776C39.8927 73.1776 36.2241 73.1269 33.3753 73.0252C31.9521 72.9744 30.7253 72.9106 29.8043 72.8332C29.4777 72.8058 29.184 72.7762 28.9305 72.744L28.83 82.4578C28.8277 82.6774 28.7293 82.885 28.5608 83.0257C28.3922 83.1665 28.1704 83.2263 27.9539 83.1894C26.632 82.964 25.8109 83.7615 25.6371 84.5419C25.5505 84.9307 25.628 85.2841 25.8417 85.5414C26.0533 85.7963 26.4898 86.065 27.3326 86.0904C27.7412 86.1027 28.0647 86.44 28.0599 86.8488L28.0199 90.2688C28.0166 90.5584 27.8468 90.8201 27.5838 90.9413C26.2565 91.5527 24.1382 92.1837 21.7406 92.8979C21.6155 92.9351 21.4896 92.9726 21.363 93.0104C18.7793 93.7806 15.8472 94.6653 13.0343 95.7591C10.2165 96.8548 7.56096 98.1444 5.51812 99.7068C3.50873 101.244 2.15748 102.993 1.75738 105.021C3.19381 118.64 7.25078 131.582 10.5176 142.004C11.6528 145.625 12.6925 148.943 13.4938 151.878Z" fill="black"/>
<path fill-rule="evenodd" clip-rule="evenodd" d="M59.39 82.3476C59.3914 82.7619 59.0567 83.0987 58.6425 83.1001L28.0525 83.2001C27.6383 83.2015 27.3014 82.8668 27.3001 82.4526C27.2987 82.0383 27.6334 81.7015 28.0476 81.7001L58.6376 81.6001C59.0518 81.5987 59.3887 81.9334 59.39 82.3476Z" fill="black"/>
<path fill-rule="evenodd" clip-rule="evenodd" d="M26.5601 86.8298C26.5602 86.4156 26.8961 86.0799 27.3103 86.0801L59.4903 86.0901C59.9045 86.0902 60.2402 86.4261 60.2401 86.8403C60.2399 87.2545 59.904 87.5902 59.4898 87.5901L27.3098 87.5801C26.8956 87.5799 26.5599 87.2441 26.5601 86.8298Z" fill="black"/>
<path fill-rule="evenodd" clip-rule="evenodd" d="M59.1476 74.1541C59.2227 74.5615 58.9532 74.9525 58.5459 75.0275L28.2959 80.5975C27.8885 80.6725 27.4975 80.4031 27.4224 79.9957C27.3474 79.5884 27.6169 79.1973 28.0242 79.1223L58.2742 73.5523C58.6816 73.4773 59.0726 73.7467 59.1476 74.1541Z" fill="black"/>
<path fill-rule="evenodd" clip-rule="evenodd" d="M31.1784 0.502079C32.0057 0.545297 32.6413 1.25099 32.5981 2.07829C32.4809 4.32155 33.5459 7.43867 35.3236 10.3882C37.0975 13.3316 39.3663 15.7519 41.2954 16.7609C42.0294 17.1449 42.3132 18.0512 41.9293 18.7853C41.5453 19.5194 40.6389 19.8032 39.9049 19.4192C37.2839 18.0482 34.6627 15.1035 32.7542 11.9368C30.8494 8.7764 29.4393 5.03853 29.6021 1.92179C29.6454 1.09449 30.3511 0.458862 31.1784 0.502079Z" fill="black"/>
<path fill-rule="evenodd" clip-rule="evenodd" d="M44.9409 52.0949C45.3249 51.3608 46.2313 51.077 46.9653 51.461C49.5863 52.8319 52.2075 55.7767 54.116 58.9433C56.0208 62.1037 57.4309 65.8416 57.268 68.9584C57.2248 69.7857 56.5191 70.4213 55.6918 70.3781C54.8645 70.3348 54.2289 69.6292 54.2721 68.8019C54.3893 66.5586 53.3243 63.4415 51.5466 60.4919C49.7727 57.5485 47.5039 55.1283 45.5748 54.1192C44.8408 53.7353 44.557 52.8289 44.9409 52.0949Z" fill="black"/>
<path fill-rule="evenodd" clip-rule="evenodd" d="M56.449 0.500328C57.2772 0.483177 57.9625 1.1407 57.9797 1.96895C58.0955 7.56276 54.8827 11.993 50.9567 15.7131C48.9813 17.5849 46.7632 19.3347 44.5858 21.0037C44.1286 21.3541 43.674 21.7004 43.2236 22.0435C41.5078 23.3505 39.8517 24.6119 38.3353 25.8869C34.4223 29.1768 31.9862 32.1325 31.902 35.2963C31.8195 38.3955 34.0058 42.4374 41.4917 47.8765C42.1619 48.3635 42.3105 49.3015 41.8235 49.9717C41.3366 50.6419 40.3985 50.7905 39.7283 50.3035C32.1092 44.7676 28.7781 39.9108 28.903 35.2165C29.0263 30.5869 32.5227 26.8545 36.4047 23.5906C37.9821 22.2644 39.7133 20.9458 41.4363 19.6336C41.8792 19.2962 42.3217 18.9592 42.7608 18.6226C44.9293 16.9605 47.04 15.2915 48.8933 13.5354C52.6249 9.99951 55.0695 6.33725 54.9803 2.03106C54.9632 1.20281 55.6207 0.517479 56.449 0.500328Z" fill="black"/>
<path fill-rule="evenodd" clip-rule="evenodd" d="M45.0501 20.9035C45.5398 20.2353 46.4784 20.0906 47.1466 20.5802C54.7768 26.1716 58.079 31.0744 57.9131 35.7987C57.7498 40.4512 54.2157 44.1949 50.3126 47.4606C48.7454 48.7718 47.0303 50.074 45.3268 51.3674C44.8641 51.7187 44.4022 52.0694 43.9443 52.4195C41.779 54.075 39.6811 55.7329 37.8526 57.4733C34.1698 60.9783 31.8347 64.5773 32.0677 68.7975C32.1134 69.6246 31.4799 70.3322 30.6527 70.3779C29.8255 70.4235 29.118 69.79 29.0723 68.9628C28.7653 63.403 31.9014 58.9957 35.7843 55.3002C37.7386 53.4402 39.9471 51.6992 42.1222 50.0362C42.5999 49.671 43.075 49.3102 43.5458 48.9527C45.2406 47.6658 46.8803 46.4207 48.3875 45.1597C52.3218 41.8679 54.8027 38.8916 54.915 35.6934C55.0248 32.5672 52.8632 28.4886 45.3734 23.0001C44.7052 22.5104 44.5604 21.5717 45.0501 20.9035Z" fill="black"/>
<path fill-rule="evenodd" clip-rule="evenodd" d="M39.46 12.76C39.46 12.3458 39.7957 12.01 40.21 12.01H46.66C47.0742 12.01 47.41 12.3458 47.41 12.76C47.41 13.1742 47.0742 13.51 46.66 13.51H40.21C39.7957 13.51 39.46 13.1742 39.46 12.76Z" fill="black"/>
<path fill-rule="evenodd" clip-rule="evenodd" d="M36.1499 8.8501C36.1499 8.43588 36.4857 8.1001 36.8999 8.1001H49.9699C50.3841 8.1001 50.7199 8.43588 50.7199 8.8501C50.7199 9.26431 50.3841 9.6001 49.9699 9.6001H36.8999C36.4857 9.6001 36.1499 9.26431 36.1499 8.8501Z" fill="black"/>
<path fill-rule="evenodd" clip-rule="evenodd" d="M34.78 4.93994C34.78 4.52573 35.1158 4.18994 35.53 4.18994H51.34C51.7542 4.18994 52.09 4.52573 52.09 4.93994C52.09 5.35415 51.7542 5.68994 51.34 5.68994H35.53C35.1158 5.68994 34.78 5.35415 34.78 4.93994Z" fill="black"/>
<path fill-rule="evenodd" clip-rule="evenodd" d="M39.1299 42.8301C39.1299 42.4159 39.4657 42.0801 39.8799 42.0801H46.3299C46.7441 42.0801 47.0799 42.4159 47.0799 42.8301C47.0799 43.2443 46.7441 43.5801 46.3299 43.5801H39.8799C39.4657 43.5801 39.1299 43.2443 39.1299 42.8301Z" fill="black"/>
<path fill-rule="evenodd" clip-rule="evenodd" d="M35.8201 38.9199C35.8201 38.5057 36.1559 38.1699 36.5701 38.1699H49.6401C50.0543 38.1699 50.3901 38.5057 50.3901 38.9199C50.3901 39.3341 50.0543 39.6699 49.6401 39.6699H36.5701C36.1559 39.6699 35.8201 39.3341 35.8201 38.9199Z" fill="black"/>
<path fill-rule="evenodd" clip-rule="evenodd" d="M34.45 35.01C34.45 34.5958 34.7857 34.26 35.2 34.26H51.0099C51.4242 34.26 51.7599 34.5958 51.7599 35.01C51.7599 35.4242 51.4242 35.76 51.0099 35.76H35.2C34.7857 35.76 34.45 35.4242 34.45 35.01Z" fill="black"/>
<path fill-rule="evenodd" clip-rule="evenodd" d="M39.46 58.0901C39.46 57.6759 39.7957 57.3401 40.21 57.3401H46.66C47.0742 57.3401 47.41 57.6759 47.41 58.0901C47.41 58.5043 47.0742 58.8401 46.66 58.8401H40.21C39.7957 58.8401 39.46 58.5043 39.46 58.0901Z" fill="black"/>
<path fill-rule="evenodd" clip-rule="evenodd" d="M36.1499 62C36.1499 61.5858 36.4857 61.25 36.8999 61.25H49.9699C50.3841 61.25 50.7199 61.5858 50.7199 62C50.7199 62.4142 50.3841 62.75 49.9699 62.75H36.8999C36.4857 62.75 36.1499 62.4142 36.1499 62Z" fill="black"/>
<path fill-rule="evenodd" clip-rule="evenodd" d="M39.3999 27.26C39.3999 26.8458 39.7357 26.51 40.1499 26.51H46.5999C47.0141 26.51 47.3499 26.8458 47.3499 27.26C47.3499 27.6742 47.0141 28.01 46.5999 28.01H40.1499C39.7357 28.01 39.3999 27.6742 39.3999 27.26Z" fill="black"/>
<path fill-rule="evenodd" clip-rule="evenodd" d="M36.0901 31.1699C36.0901 30.7557 36.4259 30.4199 36.8401 30.4199H49.9001C50.3143 30.4199 50.6501 30.7557 50.6501 31.1699C50.6501 31.5841 50.3143 31.9199 49.9001 31.9199H36.8401C36.4259 31.9199 36.0901 31.5841 36.0901 31.1699Z" fill="black"/>
<path fill-rule="evenodd" clip-rule="evenodd" d="M34.78 65.9102C34.78 65.4959 35.1158 65.1602 35.53 65.1602H51.34C51.7542 65.1602 52.09 65.4959 52.09 65.9102C52.09 66.3244 51.7542 66.6602 51.34 66.6602H35.53C35.1158 66.6602 34.78 66.3244 34.78 65.9102Z" fill="black"/>
<path d="M27.9199 70.6301C30.0699 71.3001 56.6799 71.3601 58.7399 70.7901L58.5599 72.5301H28.1199L27.9199 70.6301Z" fill="black"/>
<path fill-rule="evenodd" clip-rule="evenodd" d="M27.4444 70.0502C27.6396 69.8901 27.9021 69.839 28.1431 69.9141C28.2047 69.9333 28.373 69.9668 28.6859 70.0038C28.9824 70.0389 29.3661 70.0726 29.8286 70.1045C30.7528 70.1683 31.9663 70.223 33.377 70.2683C36.1968 70.359 39.7814 70.4114 43.3665 70.4251C46.9515 70.4389 50.5311 70.4139 53.3405 70.35C54.7459 70.3181 55.9535 70.2765 56.8708 70.2255C57.3298 70.2 57.7103 70.1725 58.0037 70.1433C58.3133 70.1125 58.4798 70.0839 58.5399 70.0673C58.7788 70.0012 59.0349 70.0574 59.2242 70.2175C59.4135 70.3775 59.5114 70.6207 59.4859 70.8673L59.3059 72.6073C59.2664 72.9896 58.9442 73.2801 58.5599 73.2801H28.1199C27.7361 73.2801 27.4142 72.9904 27.374 72.6086L27.174 70.7086C27.1476 70.4576 27.2492 70.2102 27.4444 70.0502ZM28.7679 71.5217L28.7951 71.7801H33.7327C33.5965 71.776 33.4618 71.7718 33.3288 71.7676C31.9102 71.722 30.676 71.6665 29.7254 71.601C29.3674 71.5763 29.046 71.5499 28.7679 71.5217ZM55.7184 71.7801H57.8835L57.896 71.6594C57.6232 71.6824 57.307 71.7036 56.9539 71.7232C56.5842 71.7438 56.1704 71.7627 55.7184 71.7801Z" fill="black"/>
</svg>
