<svg width="256" height="232" viewBox="0 0 256 232" fill="none" xmlns="http://www.w3.org/2000/svg">
<path fill-rule="evenodd" clip-rule="evenodd" d="M100.878 87.7276C101.088 87.3778 101.54 87.2607 101.894 87.4641L117.694 96.5441C118.053 96.7505 118.177 97.2089 117.971 97.5681C117.764 97.9272 117.306 98.051 116.947 97.8446L101.784 89.1309L91.5028 106.211C91.2892 106.566 90.8283 106.681 90.4734 106.467C90.1186 106.253 90.004 105.792 90.2176 105.438L100.878 87.7276Z" fill="black"/>
<path fill-rule="evenodd" clip-rule="evenodd" d="M81.344 121.568C81.7062 121.769 81.8371 122.226 81.6362 122.588C77.6156 129.84 62.0046 155.393 53.2147 169.782C51.4218 172.717 49.9126 175.187 48.8436 176.943L77.3494 193.061C77.71 193.265 77.837 193.723 77.6331 194.083C77.4293 194.444 76.9717 194.571 76.6111 194.367L47.4311 177.867C47.2544 177.767 47.1257 177.6 47.0745 177.403C47.0233 177.207 47.054 176.998 47.1595 176.825C48.2413 175.045 49.9154 172.305 51.9535 168.969C60.7485 154.572 76.3216 129.08 80.3244 121.861C80.5252 121.498 80.9817 121.367 81.344 121.568Z" fill="black"/>
<path fill-rule="evenodd" clip-rule="evenodd" d="M1.01031 0.596958C1.38995 0.431305 1.83201 0.604781 1.99766 0.984428C4.81277 7.43614 20.5475 45.978 24.8455 56.6031C24.8728 56.6704 24.8901 56.7413 24.8969 56.8136C25.7663 65.9866 26.9594 81.2514 26.8404 90.3487C26.8706 91.43 26.7988 92.8642 26.7201 94.4376C26.7016 94.8055 26.6829 95.181 26.6649 95.5613C26.5686 97.6007 26.4932 99.821 26.6054 101.919C26.7182 104.028 27.018 105.951 27.6376 107.419C28.2503 108.871 29.1347 109.794 30.3999 110.106C30.7517 110.193 30.9911 110.519 30.9688 110.881C30.7161 114.975 32.9283 117.929 36.2161 120.339C38.8431 122.265 42.0472 123.766 45.0528 125.173C45.8428 125.543 46.6191 125.906 47.3676 126.27L47.3797 126.275L47.3797 126.276L47.5771 126.376C51.184 128.207 55.5323 130.414 60.0552 131.836C64.6658 133.286 69.3573 133.886 73.5569 132.512C73.9506 132.383 74.3742 132.597 74.503 132.991C74.6319 133.385 74.4172 133.808 74.0235 133.937C69.3931 135.453 64.3447 134.758 59.6053 133.267C54.9623 131.807 50.5194 129.552 46.9342 127.732L46.7068 127.616C46.0019 127.274 45.2569 126.926 44.4883 126.566C41.4703 125.154 38.0874 123.571 35.3293 121.549C31.9817 119.095 29.3961 115.883 29.4498 111.379C27.9123 110.795 26.9031 109.536 26.2557 108.002C25.5356 106.296 25.2236 104.168 25.1076 101.999C24.991 99.8202 25.07 97.5355 25.1666 95.4906C25.1853 95.0931 25.2047 94.7061 25.2234 94.3314C25.3021 92.7549 25.37 91.3939 25.3406 90.376C25.3404 90.3702 25.3403 90.3645 25.3403 90.3587C25.3403 90.3539 25.3403 90.3492 25.3403 90.3444C25.4593 81.3753 24.2831 66.2568 23.4139 57.0641C19.0539 46.2879 3.41888 7.99232 0.622837 1.58431C0.457183 1.20466 0.63066 0.762611 1.01031 0.596958Z" fill="black"/>
<path fill-rule="evenodd" clip-rule="evenodd" d="M77.6493 119.277C78.0123 119.078 78.4683 119.21 78.6676 119.574C79.3879 120.885 79.2321 122.916 78.4039 124.753C78.2336 125.13 77.7895 125.298 77.4119 125.128C77.0343 124.958 76.8662 124.514 77.0364 124.136C77.7682 122.513 77.7525 121.024 77.3528 120.295C77.1534 119.932 77.2862 119.476 77.6493 119.277Z" fill="black"/>
<path fill-rule="evenodd" clip-rule="evenodd" d="M70.8265 106.15C74.9531 110.118 78.2886 115.567 80.5168 119.354C80.5361 119.387 80.5529 119.421 80.567 119.456C82.9101 125.328 88.2057 127.741 92.4301 127.322C94.5419 127.112 96.3316 126.204 97.3934 124.736C98.4435 123.283 98.8675 121.164 98.0219 118.339C97.9031 117.943 98.1284 117.525 98.5252 117.406C98.922 117.287 99.34 117.512 99.4589 117.909C100.408 121.08 99.9885 123.707 98.6089 125.615C97.241 127.506 95.015 128.573 92.5782 128.814C87.7185 129.296 81.8034 126.535 79.1953 120.066C76.9644 116.276 73.7307 111.024 69.7867 107.231C65.8293 103.425 61.3555 101.265 56.5418 103.183C55.2462 103.9 54.1041 104.905 52.9072 105.959C52.6837 106.156 52.4583 106.354 52.2296 106.553C50.8058 107.79 49.2555 109.027 47.3808 109.547C46.9816 109.658 46.5683 109.424 46.4576 109.025C46.347 108.626 46.5808 108.212 46.98 108.102C48.4952 107.681 49.8199 106.659 51.2461 105.421C51.4571 105.237 51.6707 105.049 51.8873 104.858C53.0916 103.796 54.389 102.651 55.8604 101.846C55.8861 101.832 55.9126 101.82 55.9399 101.809C61.6005 99.5261 66.7076 102.189 70.8265 106.15Z" fill="black"/>
<path fill-rule="evenodd" clip-rule="evenodd" d="M47.3893 12.8506C47.778 12.9937 47.9771 13.4249 47.834 13.8136C47.81 13.8788 47.7737 14.0398 47.7483 14.3339C47.724 14.6146 47.7129 14.9721 47.7165 15.4021C47.7235 16.2615 47.7883 17.371 47.9063 18.6588C48.142 21.2324 48.5859 24.4781 49.182 27.7812C49.7783 31.0857 50.524 34.4308 51.3597 37.208C51.7777 38.5968 52.2147 39.8316 52.6618 40.8429C53.1141 41.8658 53.5555 42.6106 53.9644 43.0591C53.9768 43.0727 53.9887 43.0868 54 43.1012C55.6242 45.1698 56.8419 48.2503 57.8003 51.2244C58.2833 52.7233 58.7076 54.2192 59.0868 55.5774C59.138 55.7611 59.1884 55.9419 59.238 56.1198C59.526 57.1538 59.7857 58.0863 60.0277 58.8702C64.4157 61.8539 67.4893 64.8221 70.0978 68.6089C70.1035 68.6172 70.1089 68.6255 70.1143 68.6339C73.1279 73.4055 74.9438 77.923 76.6895 82.2658C76.7404 82.3926 76.7913 82.5193 76.8422 82.6458C78.6394 87.1144 80.3957 91.3962 83.349 95.7108C83.361 95.7282 83.3722 95.7461 83.3826 95.7645C85.0853 98.7678 87.8375 101.896 90.653 105.096C91.1891 105.705 91.7274 106.317 92.2612 106.931C93.9142 108.833 95.5148 110.748 96.8193 112.638C98.1209 114.524 99.1568 116.426 99.646 118.305C99.7503 118.706 99.5099 119.116 99.1091 119.22C98.7082 119.325 98.2987 119.084 98.1943 118.683C97.7685 117.047 96.8419 115.312 95.5847 113.49C94.3305 111.673 92.7761 109.81 91.1291 107.915C90.6122 107.321 90.0852 106.722 89.5557 106.12C86.752 102.936 83.8813 99.675 82.0934 96.532C79.0476 92.0754 77.2424 87.6607 75.4506 83.2055C75.4038 83.0892 75.3571 82.973 75.3103 82.8566C73.5593 78.5011 71.7891 74.0977 68.854 69.4475C66.3274 65.7828 63.3415 62.9095 58.9713 59.9665C58.8308 59.8719 58.7265 59.7326 58.6753 59.5711C58.4026 58.7114 58.1101 57.661 57.7923 56.5198C57.7428 56.3422 57.6927 56.1624 57.642 55.9808C57.2634 54.6246 56.8458 53.153 56.3726 51.6844C55.4219 48.7344 54.2745 45.89 52.8362 44.0479C52.2728 43.422 51.7598 42.5122 51.2899 41.4494C50.8094 40.3626 50.3521 39.0648 49.9234 37.6402C49.0657 34.7905 48.3082 31.3856 47.7058 28.0476C47.1032 24.7082 46.6528 21.4189 46.4125 18.7956C46.2925 17.485 46.224 16.3306 46.2165 15.4144C46.2128 14.9567 46.2242 14.5485 46.2539 14.2048C46.2824 13.8746 46.3316 13.5525 46.4264 13.2953C46.5695 12.9066 47.0006 12.7075 47.3893 12.8506Z" fill="black"/>
<path fill-rule="evenodd" clip-rule="evenodd" d="M61.1042 103.515C63.0348 103.01 65.295 103.26 68.1817 104.528C68.561 104.694 68.7335 105.137 68.5669 105.516C68.4004 105.895 67.958 106.068 67.5787 105.901C64.8854 104.719 62.9831 104.574 61.484 104.966C59.9711 105.362 58.7406 106.337 57.4439 107.669C56.967 108.159 56.4838 108.697 55.9778 109.261C53.7814 111.708 51.1559 114.633 46.7551 116.153C46.3636 116.289 45.9366 116.081 45.8013 115.689C45.6661 115.298 45.8738 114.871 46.2653 114.735C50.2639 113.354 52.5848 110.778 54.7697 108.353C55.3034 107.761 55.829 107.177 56.369 106.622C57.7211 105.233 59.1875 104.017 61.1042 103.515Z" fill="black"/>
<path fill-rule="evenodd" clip-rule="evenodd" d="M60.2554 103.861C60.5004 103.527 60.9698 103.455 61.3038 103.7C63.0463 104.978 64.2794 106.342 65.3022 107.639C65.7053 108.15 66.0797 108.656 66.435 109.136C66.527 109.261 66.6177 109.383 66.7073 109.504C67.1476 110.096 67.5642 110.642 68.0017 111.141C68.8685 112.13 69.8018 112.916 71.0889 113.43C72.385 113.948 74.1002 114.214 76.5622 114.056C76.9755 114.029 77.3321 114.343 77.3586 114.756C77.3851 115.17 77.0715 115.526 76.6581 115.553C74.0501 115.72 72.0966 115.448 70.5326 114.823C68.9597 114.195 67.8418 113.235 66.8736 112.13C66.3937 111.582 65.9468 110.995 65.5036 110.399C65.4098 110.273 65.3162 110.146 65.2225 110.019C64.8687 109.541 64.5117 109.059 64.1244 108.568C63.1522 107.335 62.014 106.081 60.4166 104.909C60.0826 104.664 60.0104 104.195 60.2554 103.861Z" fill="black"/>
<path fill-rule="evenodd" clip-rule="evenodd" d="M56.7925 106.514C57.1794 106.366 57.6129 106.56 57.7608 106.947C59.0356 110.283 59.7071 112.519 59.1235 114.969C58.5549 117.356 56.8118 119.852 53.712 123.835C53.4576 124.162 52.9864 124.221 52.6595 123.966C52.3326 123.712 52.2739 123.241 52.5283 122.914C55.6785 118.866 57.1854 116.632 57.6643 114.622C58.1282 112.674 57.6447 110.846 56.3596 107.482C56.2117 107.095 56.4055 106.662 56.7925 106.514Z" fill="black"/>
<path fill-rule="evenodd" clip-rule="evenodd" d="M58.2019 111.125C58.4722 110.811 58.9457 110.776 59.2596 111.046C60.2995 111.941 61.2775 112.724 62.2019 113.463C62.7651 113.914 63.3085 114.349 63.8338 114.783C65.191 115.906 66.3902 117 67.2647 118.226C68.1528 119.472 68.7045 120.853 68.7796 122.533C68.854 124.194 68.4601 126.099 67.5474 128.401C67.3948 128.786 66.9589 128.974 66.5738 128.821C66.1888 128.669 66.0004 128.233 66.153 127.848C67.0204 125.66 67.3427 123.976 67.2811 122.6C67.2204 121.242 66.784 120.136 66.0433 119.097C65.289 118.039 64.2189 117.049 62.8776 115.939C62.3915 115.537 61.8635 115.114 61.3063 114.668C60.3614 113.912 59.3325 113.088 58.2809 112.183C57.967 111.912 57.9317 111.439 58.2019 111.125Z" fill="black"/>
<path fill-rule="evenodd" clip-rule="evenodd" d="M66.8345 118.65C67.0024 118.272 67.4454 118.101 67.8241 118.269C69.5493 119.033 71.6532 119.355 73.7042 119.366C75.7531 119.376 77.6897 119.077 79.0557 118.649C79.4509 118.525 79.8718 118.745 79.9958 119.14C80.1198 119.535 79.9 119.956 79.5048 120.08C77.9707 120.561 75.8773 120.877 73.6962 120.866C71.5172 120.854 69.1911 120.515 67.2163 119.64C66.8376 119.472 66.6667 119.029 66.8345 118.65Z" fill="black"/>
<path fill-rule="evenodd" clip-rule="evenodd" d="M28.3664 98.593C28.7758 98.5301 29.1587 98.811 29.2216 99.2204L28.4803 99.3343L27.739 99.4483C27.6761 99.0389 27.957 98.656 28.3664 98.593ZM28.4803 99.3343L27.739 99.4483L27.9391 100.752C28.0624 101.557 28.232 102.666 28.4176 103.884C28.7889 106.32 29.2236 109.19 29.4782 110.933C29.5381 111.343 29.9189 111.626 30.3288 111.566C30.7386 111.507 31.0223 111.126 30.9624 110.716C30.7071 108.968 30.2717 106.094 29.9005 103.658C29.7149 102.439 29.5451 101.33 29.4218 100.525L29.2216 99.2204L28.4803 99.3343Z" fill="black"/>
<path fill-rule="evenodd" clip-rule="evenodd" d="M52.9223 52.1224C53.2768 51.9081 53.7379 52.0219 53.9521 52.3764C56.7302 56.974 58.7319 58.4475 60.919 59.5552C61.2886 59.7423 61.4364 60.1936 61.2493 60.5631C61.0621 60.9326 60.6109 61.0805 60.2413 60.8934C57.7685 59.641 55.5701 57.9545 52.6683 53.1521C52.454 52.7976 52.5678 52.3366 52.9223 52.1224Z" fill="black"/>
<path fill-rule="evenodd" clip-rule="evenodd" d="M48.9654 96.1221C49.0716 95.7218 49.4823 95.4833 49.8826 95.5895C51.2005 95.939 52.363 96.2016 53.4404 96.4451C53.6597 96.4946 53.8755 96.5434 54.0883 96.5919C55.3399 96.8773 56.4944 97.1557 57.6219 97.5394C59.9078 98.3171 62.0354 99.5106 64.7657 102C65.0718 102.279 65.0937 102.754 64.8146 103.06C64.5355 103.366 64.0611 103.388 63.755 103.109C61.1554 100.738 59.203 99.6617 57.1388 98.9594C56.0914 98.6031 55.0033 98.339 53.7549 98.0544C53.5465 98.0069 53.3338 97.9588 53.1163 97.9097C52.0383 97.6661 50.8452 97.3966 49.4981 97.0393C49.0977 96.9331 48.8592 96.5225 48.9654 96.1221Z" fill="black"/>
<path fill-rule="evenodd" clip-rule="evenodd" d="M67.2026 110.921C67.5467 110.691 68.0126 110.783 68.2432 111.127C68.2867 111.192 68.3335 111.26 68.3828 111.331C68.6615 111.737 69.0183 112.256 69.2862 112.941C69.6086 113.766 69.799 114.806 69.719 116.246C69.696 116.659 69.3421 116.976 68.9286 116.953C68.515 116.93 68.1983 116.576 68.2213 116.163C68.2913 114.903 68.1218 114.083 67.8891 113.487C67.6889 112.975 67.4383 112.609 67.1627 112.205C67.1084 112.126 67.0532 112.045 66.9972 111.962C66.7666 111.618 66.8586 111.152 67.2026 110.921Z" fill="black"/>
<path fill-rule="evenodd" clip-rule="evenodd" d="M93.6024 113.554C93.3846 113.265 93.0681 113.185 92.8739 113.164C92.6614 113.141 92.4431 113.168 92.2521 113.206C91.863 113.284 91.3935 113.451 90.8989 113.659C89.8984 114.081 88.6525 114.738 87.452 115.448C86.2508 116.158 85.0675 116.939 84.1952 117.617C83.7627 117.954 83.3824 118.283 83.1132 118.581C82.9805 118.727 82.8495 118.893 82.7564 119.07C82.6755 119.224 82.5471 119.529 82.6514 119.879C82.6603 119.909 82.6711 119.938 82.6837 119.967C84.1156 123.219 86.8997 125.485 89.8014 126.057C91.2604 126.344 92.7592 126.203 94.1098 125.522C95.4632 124.839 96.6139 123.642 97.42 121.911C97.4513 121.844 97.4725 121.772 97.4828 121.699C97.7479 119.815 97.2415 118.336 96.4245 117.041C95.8684 116.159 95.1321 115.317 94.4197 114.503C94.1394 114.182 93.8629 113.866 93.6024 113.554ZM84.0841 119.768C84.0844 119.768 84.0848 119.767 84.0851 119.766C84.0804 119.777 84.0786 119.779 84.0841 119.768ZM84.1821 119.636C84.1949 119.621 84.2091 119.605 84.225 119.588C84.4081 119.385 84.7092 119.118 85.116 118.801C85.9222 118.174 87.0482 117.429 88.2157 116.739C89.3841 116.048 90.5663 115.427 91.4817 115.041C91.9451 114.846 92.3055 114.726 92.5468 114.677C92.5591 114.675 92.5706 114.673 92.5814 114.671C92.8534 114.993 93.1195 115.297 93.3764 115.591C94.0524 116.363 94.6652 117.063 95.1558 117.841C95.8118 118.881 96.1832 119.977 96.0119 121.38C95.3329 122.79 94.4234 123.684 93.4345 124.182C92.4191 124.694 91.2661 124.816 90.0913 124.585C87.8021 124.134 85.4704 122.341 84.1821 119.636Z" fill="black"/>
<path fill-rule="evenodd" clip-rule="evenodd" d="M84.2651 106.632C84.3716 107.032 84.1334 107.443 83.7331 107.549C83.3425 107.653 82.7617 107.898 82.187 108.218C81.6048 108.541 81.1139 108.894 80.8559 109.178C80.5777 109.485 80.1034 109.508 79.7965 109.23C79.4897 108.952 79.4665 108.477 79.7447 108.171C80.1667 107.705 80.8258 107.258 81.4586 106.906C82.0989 106.551 82.7981 106.246 83.3475 106.1C83.7478 105.993 84.1586 106.231 84.2651 106.632Z" fill="black"/>
<path fill-rule="evenodd" clip-rule="evenodd" d="M88.1586 107.862C88.2315 108.27 87.96 108.66 87.5523 108.733C86.5067 108.919 85.0347 109.563 83.6565 110.379C82.2665 111.203 81.1229 112.115 80.6569 112.755C80.4133 113.09 79.9442 113.164 79.6092 112.921C79.2742 112.677 79.2002 112.208 79.4438 111.873C80.0978 110.974 81.4642 109.935 82.8917 109.089C84.331 108.236 85.9839 107.489 87.2884 107.256C87.6961 107.183 88.0858 107.455 88.1586 107.862Z" fill="black"/>
<path fill-rule="evenodd" clip-rule="evenodd" d="M42.1631 123.824C42.5717 123.892 42.848 124.279 42.7801 124.687C41.3971 133.02 42.269 140.238 44.1523 147.675C45.0957 151.4 46.2912 155.174 47.5858 159.178C47.7341 159.636 47.8838 160.098 48.0344 160.563C49.1968 164.15 50.421 167.927 51.5911 171.997C51.7055 172.395 51.4756 172.811 51.0775 172.925C50.6794 173.04 50.2639 172.81 50.1495 172.412C48.9868 168.368 47.7706 164.615 46.6077 161.026C46.457 160.561 46.3072 160.099 46.1585 159.639C44.8643 155.637 43.6549 151.821 42.6982 148.043C40.7816 140.475 39.8734 133.039 41.3004 124.442C41.3682 124.033 41.7544 123.757 42.1631 123.824Z" fill="black"/>
<path fill-rule="evenodd" clip-rule="evenodd" d="M107.993 81.1198C108.365 80.9388 108.814 81.094 108.995 81.4666C109.176 81.8392 109.021 82.288 108.648 82.469L108.32 81.7944L107.993 81.1198ZM100.829 86.257C96.0115 88.5873 89.3759 91.7901 82.105 95.2805C81.7316 95.4597 81.2836 95.3024 81.1043 94.9289C80.9251 94.5555 81.0825 94.1075 81.4559 93.9282C88.725 90.4386 95.3593 87.2365 100.176 84.9067C102.585 83.7418 104.539 82.795 105.891 82.1395C106.567 81.8117 107.092 81.5568 107.449 81.3838L107.993 81.1198C107.993 81.1197 107.993 81.1198 108.32 81.7944C108.648 82.469 108.648 82.4689 108.648 82.469L108.104 82.7332C107.747 82.9063 107.222 83.1614 106.545 83.4892C105.193 84.1449 103.238 85.0919 100.829 86.257Z" fill="black"/>
<path fill-rule="evenodd" clip-rule="evenodd" d="M169.545 166.115C169.926 166.277 170.103 166.718 169.94 167.099C163.719 181.673 157.099 197.261 151.914 209.47C148.736 216.952 146.098 223.166 144.42 227.099L144.42 227.099C143.401 229.481 142.227 230.94 140.538 231.408C138.915 231.859 137.046 231.312 134.872 230.407L134.872 230.407C125.181 226.367 107.929 219.205 91.8649 212.537C78.4949 206.986 65.9485 201.778 59.2718 198.997C58.8895 198.837 58.7086 198.398 58.8679 198.016C59.0272 197.634 59.4663 197.453 59.8487 197.612C66.5165 200.39 79.0613 205.597 92.4318 211.148C108.501 217.818 125.763 224.984 135.449 229.022C137.644 229.936 139.066 230.26 140.137 229.963C141.144 229.684 142.07 228.778 143.041 226.509C144.714 222.586 147.35 216.378 150.527 208.9C155.714 196.685 162.341 181.081 168.56 166.51C168.723 166.129 169.164 165.952 169.545 166.115Z" fill="black"/>
<path fill-rule="evenodd" clip-rule="evenodd" d="M53.2198 180.121C53.614 179.993 54.0367 180.21 54.1641 180.604C55.846 185.809 57.3707 190.169 58.4746 193.226C59.0265 194.754 59.4731 195.957 59.7816 196.777C59.9358 197.187 60.0555 197.502 60.1365 197.713C60.177 197.819 60.2078 197.899 60.2285 197.953L60.2517 198.013L60.2589 198.031L60.2593 198.032L59.5604 198.304C58.8615 198.576 58.8614 198.576 58.8614 198.576L58.8531 198.555L58.8291 198.493C58.808 198.438 58.7767 198.357 58.7357 198.25C58.6536 198.036 58.5329 197.718 58.3776 197.305C58.067 196.48 57.618 195.271 57.0637 193.735C55.9551 190.665 54.4248 186.289 52.7367 181.065C52.6094 180.671 52.8257 180.248 53.2198 180.121ZM59.8324 199.003C59.4464 199.154 59.0116 198.962 58.8614 198.576L59.5604 198.304L60.2593 198.032C60.4095 198.418 60.2184 198.853 59.8324 199.003Z" fill="black"/>
<path fill-rule="evenodd" clip-rule="evenodd" d="M107.622 81.5113C107.773 81.1255 108.208 80.935 108.593 81.0859C117 84.3722 136.794 92.6706 155.095 100.343C167.042 105.352 178.353 110.094 185.445 113C185.473 113.012 185.5 113.025 185.527 113.04C187.626 114.217 188.88 115.576 189.434 117.153C189.983 118.718 189.796 120.365 189.294 122.019C188.807 123.629 187.991 125.34 187.155 127.094L187.096 127.219C186.229 129.037 185.335 130.927 184.672 132.921C184.541 133.314 184.117 133.527 183.724 133.396C183.331 133.265 183.118 132.841 183.249 132.448C183.945 130.352 184.88 128.383 185.742 126.574L185.771 126.513C186.631 124.708 187.404 123.085 187.859 121.584C188.316 120.074 188.418 118.787 188.018 117.65C187.626 116.532 186.702 115.427 184.833 114.371C177.711 111.451 166.401 106.71 154.468 101.707C136.187 94.0426 116.442 85.7647 108.047 82.4829C107.661 82.3321 107.471 81.8971 107.622 81.5113Z" fill="black"/>
<path fill-rule="evenodd" clip-rule="evenodd" d="M122.617 169.012C123.016 168.9 123.43 169.132 123.542 169.531L140.272 228.951C140.384 229.35 140.152 229.764 139.754 229.876C139.355 229.989 138.941 229.756 138.828 229.358L122.098 169.938C121.986 169.539 122.218 169.125 122.617 169.012Z" fill="black"/>
<path fill-rule="evenodd" clip-rule="evenodd" d="M188.061 116.669C188.257 117.034 188.12 117.489 187.756 117.685L133.126 147.065C132.761 147.261 132.306 147.124 132.11 146.76C131.914 146.395 132.05 145.94 132.415 145.744L187.045 116.364C187.41 116.168 187.865 116.304 188.061 116.669Z" fill="black"/>
<path fill-rule="evenodd" clip-rule="evenodd" d="M113.258 83.0882C113.653 82.9653 114.074 83.1863 114.196 83.5818C117.099 92.9214 119.801 101.146 122.194 108.43C125.237 117.692 127.781 125.435 129.603 132.017C132.858 143.777 133.899 152.1 131.286 159.051C128.667 166.017 122.449 171.426 111.711 177.566C102.899 182.604 90.9207 188.199 75.1525 195.563C71.6897 197.18 68.0441 198.882 64.2091 200.683C63.8342 200.859 63.3875 200.698 63.2114 200.323C63.0354 199.948 63.1966 199.502 63.5715 199.326C67.4203 197.518 71.0748 195.811 74.5426 194.192C90.3083 186.829 102.213 181.268 110.966 176.264C121.653 170.154 127.46 164.967 129.882 158.523C132.31 152.064 131.409 144.163 128.157 132.418C126.34 125.855 123.817 118.174 120.788 108.955C118.395 101.674 115.688 93.4343 112.764 84.027C112.641 83.6314 112.862 83.2111 113.258 83.0882Z" fill="black"/>
<path fill-rule="evenodd" clip-rule="evenodd" d="M65.3982 186.41C65.7707 186.591 65.9259 187.04 65.7447 187.412L60.2447 198.722C60.0636 199.095 59.6147 199.25 59.2422 199.069C58.8697 198.888 58.7146 198.439 58.8958 198.066L64.3958 186.756C64.5769 186.384 65.0257 186.229 65.3982 186.41Z" fill="black"/>
<path fill-rule="evenodd" clip-rule="evenodd" d="M108.628 81.1003C109.006 81.2701 109.174 81.714 109.004 82.0918L105.364 90.1918C105.195 90.5696 104.751 90.7382 104.373 90.5685C103.995 90.3987 103.826 89.9548 103.996 89.5769L107.636 81.4769C107.806 81.0991 108.25 80.9305 108.628 81.1003Z" fill="black"/>
<path fill-rule="evenodd" clip-rule="evenodd" d="M255.656 114.561C255.884 114.907 255.789 115.372 255.443 115.6C253.163 117.106 250.356 118.894 247.237 120.882C237.193 127.282 223.916 135.742 214.58 143.432C212.841 149.615 208.591 157.498 203.608 165.293C198.552 173.203 192.697 181.089 187.824 187.126C187.809 187.144 187.793 187.162 187.776 187.179C187.089 187.881 186.156 188.364 185.186 188.706C184.21 189.05 183.144 189.268 182.143 189.41C180.519 189.639 178.982 189.675 178.229 189.692C178.067 189.696 177.942 189.699 177.859 189.703C177.852 189.704 177.84 189.705 177.82 189.708C177.774 189.715 177.708 189.725 177.621 189.739C177.448 189.766 177.207 189.807 176.913 189.857C176.327 189.957 175.542 190.096 174.7 190.249C173.038 190.551 171.185 190.903 170.226 191.124C170.024 191.199 169.8 191.284 169.555 191.375C168.16 191.898 166.135 192.657 164.159 193.283C162.985 193.655 161.81 193.985 160.781 194.193C159.786 194.393 158.811 194.504 158.099 194.347C157.694 194.258 157.439 193.858 157.528 193.453C157.617 193.049 158.017 192.793 158.421 192.882C158.799 192.965 159.498 192.921 160.485 192.722C161.439 192.53 162.555 192.218 163.706 191.853C165.641 191.241 167.622 190.498 169.02 189.974C169.285 189.874 169.53 189.783 169.749 189.701C169.779 189.69 169.809 189.681 169.84 189.674C170.826 189.444 172.749 189.078 174.432 188.773C175.278 188.619 176.069 188.48 176.66 188.378C176.956 188.328 177.204 188.287 177.384 188.258C177.474 188.243 177.55 188.232 177.608 188.223C177.629 188.22 177.703 188.209 177.773 188.205L177.773 188.205C177.885 188.2 178.044 188.196 178.242 188.191C179.025 188.172 180.417 188.139 181.933 187.924C182.877 187.791 183.837 187.591 184.688 187.291C185.531 186.994 186.217 186.616 186.68 186.154C191.522 180.155 197.332 172.328 202.344 164.486C207.377 156.613 211.563 148.791 213.197 142.807C213.237 142.658 213.323 142.525 213.442 142.427C222.868 134.629 236.386 126.016 246.5 119.572C249.596 117.599 252.374 115.829 254.617 114.349C254.963 114.12 255.428 114.216 255.656 114.561Z" fill="black"/>
<path fill-rule="evenodd" clip-rule="evenodd" d="M192.558 129.739C192.71 130.125 192.521 130.56 192.135 130.712C188.371 132.196 184.984 133.312 181.909 134.326C181.383 134.499 180.867 134.669 180.36 134.837C176.871 135.996 173.807 137.071 170.987 138.501C165.398 141.334 160.698 145.593 155.782 154.807C155.771 154.828 155.759 154.849 155.746 154.868C152.712 159.454 149.478 161.075 146.282 162.677C146.15 162.743 146.019 162.809 145.887 162.876C142.622 164.518 139.335 166.294 135.981 171.451C135.039 172.926 134.391 174.473 134.319 176.029C134.249 177.551 134.727 179.153 136.172 180.785C137.363 181.932 138.841 182.247 140.584 181.98C142.366 181.706 144.363 180.827 146.439 179.655C148.305 178.601 150.181 177.343 151.97 176.143C152.164 176.013 152.357 175.884 152.549 175.755C154.423 174.5 156.215 173.324 157.725 172.627C159.671 170.458 163.21 168.01 166.844 166.595C168.702 165.872 170.629 165.401 172.416 165.396C174.209 165.39 175.911 165.856 177.227 167.061C177.532 167.341 177.553 167.816 177.273 168.121C176.993 168.426 176.519 168.447 176.213 168.167C175.254 167.288 173.958 166.891 172.421 166.896C170.877 166.9 169.14 167.311 167.389 167.993C163.875 169.361 160.484 171.747 158.745 173.738C158.673 173.82 158.585 173.885 158.485 173.929C157.086 174.553 155.348 175.686 153.384 177.002C153.192 177.13 152.998 177.26 152.802 177.391C151.021 178.586 149.096 179.877 147.176 180.961C145.052 182.16 142.866 183.147 140.811 183.462C138.727 183.782 136.724 183.415 135.107 181.842C135.094 181.829 135.082 181.816 135.07 181.803C133.369 179.892 132.731 177.906 132.821 175.96C132.909 174.041 133.7 172.235 134.718 170.641L134.721 170.635C138.286 165.155 141.844 163.23 145.213 161.536C145.338 161.473 145.463 161.41 145.587 161.348C148.747 159.763 151.67 158.296 154.475 154.07C159.503 144.656 164.404 140.156 170.309 137.163C173.239 135.678 176.398 134.572 179.887 133.414C180.399 133.244 180.918 133.073 181.445 132.899C184.521 131.885 187.864 130.783 191.585 129.317C191.97 129.165 192.406 129.354 192.558 129.739Z" fill="black"/>
<path fill-rule="evenodd" clip-rule="evenodd" d="M172.85 166.275C173.264 166.258 173.613 166.581 173.63 166.994C173.637 167.182 173.734 167.482 173.976 167.866C174.209 168.237 174.539 168.628 174.919 168.985C175.299 169.343 175.71 169.649 176.095 169.861C176.494 170.082 176.798 170.164 176.98 170.164C177.394 170.164 177.73 170.5 177.73 170.914C177.73 171.329 177.394 171.664 176.98 171.664C176.432 171.664 175.866 171.449 175.369 171.174C174.858 170.891 174.347 170.506 173.891 170.078C173.436 169.651 173.019 169.163 172.706 168.664C172.401 168.178 172.153 167.617 172.131 167.054C172.114 166.641 172.436 166.292 172.85 166.275Z" fill="black"/>
<path fill-rule="evenodd" clip-rule="evenodd" d="M168.973 167.175C169.365 167.309 169.574 167.735 169.44 168.127C168.078 172.115 170.436 176.482 174.726 180.005C175.046 180.268 175.093 180.74 174.83 181.06C174.567 181.381 174.094 181.427 173.774 181.164C169.344 177.527 166.343 172.554 168.02 167.642C168.154 167.25 168.581 167.041 168.973 167.175Z" fill="black"/>
<path fill-rule="evenodd" clip-rule="evenodd" d="M152.914 166.754C153.328 166.751 153.667 167.084 153.67 167.498C153.674 167.961 153.843 168.761 154.113 169.579C154.388 170.409 154.713 171.092 154.949 171.377C155.212 171.697 155.167 172.169 154.847 172.433C154.528 172.697 154.055 172.651 153.792 172.332C153.367 171.817 152.972 170.905 152.689 170.05C152.403 169.183 152.176 168.208 152.17 167.511C152.167 167.097 152.5 166.758 152.914 166.754Z" fill="black"/>
<path fill-rule="evenodd" clip-rule="evenodd" d="M149.058 165.821C149.468 165.765 149.847 166.051 149.903 166.462C149.943 166.75 150.088 167.242 150.337 167.869C150.58 168.482 150.904 169.179 151.272 169.861C151.64 170.544 152.045 171.2 152.447 171.736C152.861 172.288 153.228 172.653 153.508 172.823C153.863 173.037 153.976 173.498 153.762 173.852C153.548 174.207 153.086 174.32 152.732 174.106C152.202 173.785 151.696 173.234 151.248 172.637C150.789 172.025 150.344 171.302 149.951 170.573C149.558 169.842 149.209 169.093 148.943 168.422C148.682 167.766 148.482 167.139 148.417 166.667C148.361 166.257 148.647 165.878 149.058 165.821Z" fill="black"/>
<path fill-rule="evenodd" clip-rule="evenodd" d="M147.374 176.368C147.369 176.364 147.346 176.348 147.307 176.311C147.244 176.252 147.163 176.165 147.065 176.044C146.867 175.803 146.633 175.47 146.374 175.066C145.857 174.261 145.276 173.228 144.747 172.211C144.217 171.193 143.748 170.209 143.451 169.505C143.333 169.225 143.25 169.007 143.2 168.856C143.213 168.804 143.219 168.749 143.22 168.693C143.224 168.397 143.052 168.126 142.783 168.003C142.68 167.956 142.339 167.83 141.999 168.066C141.989 168.072 141.98 168.079 141.97 168.087C140.023 168.992 137.668 171.024 136.434 173.362C135.79 174.583 135.419 175.951 135.641 177.321C135.867 178.713 136.688 179.996 138.213 181.051C138.264 181.086 138.32 181.115 138.378 181.137C140.336 181.869 142.137 181.231 143.627 180.353C144.374 179.913 145.078 179.393 145.713 178.916C145.769 178.874 145.825 178.832 145.881 178.79C146.46 178.354 146.969 177.971 147.44 177.685C147.678 177.541 147.816 177.276 147.799 176.998C147.782 176.726 147.619 176.485 147.374 176.368ZM143.153 168.689C143.153 168.689 143.154 168.691 143.154 168.694C143.154 168.69 143.153 168.689 143.153 168.689ZM141.947 169.792C140.419 170.685 138.697 172.289 137.761 174.062C137.213 175.101 136.968 176.134 137.121 177.081C137.268 177.985 137.795 178.913 138.989 179.763C140.29 180.213 141.558 179.831 142.866 179.061C143.532 178.668 144.176 178.195 144.812 177.717C144.871 177.673 144.93 177.628 144.989 177.584C145.279 177.365 145.571 177.146 145.859 176.939C145.623 176.644 145.369 176.278 145.111 175.876C144.561 175.019 143.958 173.943 143.416 172.903C142.875 171.863 142.386 170.841 142.069 170.088C142.026 169.986 141.985 169.887 141.947 169.792Z" fill="black"/>
<path fill-rule="evenodd" clip-rule="evenodd" d="M164.042 178.39C164.453 178.341 164.826 178.635 164.875 179.046C164.893 179.195 164.903 179.356 164.915 179.53C164.971 180.366 165.047 181.491 165.99 182.871C166.223 183.214 166.135 183.68 165.793 183.914C165.451 184.147 164.984 184.059 164.751 183.717C163.556 181.968 163.463 180.412 163.413 179.584C163.404 179.441 163.397 179.319 163.385 179.223C163.337 178.811 163.631 178.438 164.042 178.39Z" fill="black"/>
<path fill-rule="evenodd" clip-rule="evenodd" d="M222.909 92.5953C223.284 92.7712 223.445 93.2178 223.269 93.5928C218.528 103.702 210.171 111.727 203.995 117.658C202.989 118.624 202.041 119.535 201.176 120.39C199.56 122.354 196.756 123.84 194.055 124.995C192.681 125.583 191.299 126.098 190.062 126.552C189.905 126.61 189.752 126.666 189.601 126.721C188.548 127.107 187.633 127.442 186.925 127.744C186.543 127.907 186.103 127.73 185.94 127.349C185.778 126.968 185.955 126.527 186.336 126.364C187.083 126.046 188.04 125.695 189.086 125.312C189.237 125.257 189.39 125.201 189.545 125.144C190.779 124.691 192.13 124.187 193.465 123.616C196.17 122.46 198.68 121.081 200.039 119.411C200.056 119.39 200.074 119.37 200.093 119.351C200.989 118.465 201.963 117.529 202.99 116.542C209.176 110.596 217.3 102.789 221.911 92.9559C222.087 92.5809 222.534 92.4194 222.909 92.5953Z" fill="black"/>
</svg>
