<?xml version="1.0" encoding="UTF-8"?><svg id="Layer_1" xmlns="http://www.w3.org/2000/svg" viewBox="0 0 125.72 167.75"><defs><style>.cls-1,.cls-2{isolation:isolate;opacity:.98;}.cls-3{fill:#fff;}.cls-3,.cls-2,.cls-4{fill-rule:evenodd;}</style></defs><path class="cls-4" d="M53.26,70.53c-.29,0-.53-.23-.53-.53l-.03-14.41c0-.29,.23-.53,.53-.53h1.95c.29,0,.53,.23,.53,.52l.03,14.41c0,.29-.23,.53-.53,.53h-1.95Zm.52-1.05h.9l-.03-13.36h-.9l.03,13.36Z"/><path d="M56.77,57.13l.03,11.33,11.41-.03-.03-11.33-11.41,.03Z"/><path class="cls-4" d="M56.79,68.81c-.19,0-.35-.16-.35-.35l-.03-11.33c0-.19,.16-.35,.35-.35l11.41-.03c.19,0,.35,.16,.35,.35l.03,11.33c0,.19-.16,.35-.35,.35l-11.41,.03Zm.35-.7l10.7-.02-.02-10.63-10.7,.02,.02,10.63Z"/><path class="cls-4" d="M13.62,50.29c.33-.52,.89-.96,1.72-.96,.87,0,1.43,.43,1.74,.98,.29,.51,.35,1.09,.35,1.46,0,2.92,.02,7.36,.03,11.74,0,3.82,.02,7.59,.02,10.26,0,.4-.07,1-.36,1.53-.3,.56-.85,1.04-1.72,1.05h0c-.86,0-1.42-.48-1.74-1.02-.31-.52-.42-1.13-.42-1.55-.01-4.66-.03-12.93-.04-18.78,0-1.2,0-2.29,0-3.23,0-.41,.12-1,.43-1.49Zm.89,.56c-.19,.3-.27,.68-.27,.92h0c0,.94,0,2.04,0,3.23,.01,5.85,.03,14.12,.04,18.77h0c0,.28,.08,.69,.27,1.02,.18,.3,.43,.5,.83,.5,.41,0,.64-.2,.8-.49,.17-.32,.24-.74,.23-1.03h0c0-2.67-.02-6.45-.02-10.27,0-4.38-.02-8.82-.03-11.74h0c0-.28-.05-.65-.22-.94-.14-.25-.37-.45-.82-.45h0c-.4,0-.66,.19-.83,.47Z"/><path class="cls-4" d="M73.54,66.23c-.29,0-.53-.23-.53-.53v-5.9c-.01-.29,.22-.53,.51-.53h1.37c.29,0,.53,.23,.53,.52v5.9c.01,.29-.22,.53-.51,.53h-1.37Zm.52-1.05h.32v-4.85h-.33v4.85Z"/><path class="cls-4" d="M2.49,66.38c0-.29,.23-.53,.53-.53l10.62-.03c.29,0,.53,.23,.53,.53,0,.29-.23,.53-.53,.53l-10.62,.03c-.29,0-.53-.23-.53-.53Z"/><path class="cls-4" d="M2.47,59.47c0-.29,.23-.53,.53-.53l10.62-.03c.29,0,.53,.23,.53,.53,0,.29-.23,.53-.53,.53l-10.62,.03c-.29,0-.53-.23-.53-.53Z"/><path class="cls-4" d="M16.83,66.99c0-.29,.23-.53,.53-.53l35.44-.08c.29,0,.53,.23,.53,.53,0,.29-.23,.53-.53,.53l-35.44,.08c-.29,0-.53-.23-.53-.53Z"/><path class="cls-4" d="M16.81,58.8c0-.29,.23-.53,.53-.53l35.45-.09c.29,0,.53,.23,.53,.53,0,.29-.23,.53-.53,.53l-35.45,.09c-.29,0-.53-.23-.53-.53Z"/><path class="cls-4" d="M16.59,55.68c0-.29,.23-.53,.53-.53l52.59-.13c.14,0,.27,.05,.37,.15,.1,.1,.15,.23,.16,.37l.03,14.43c0,.29-.23,.53-.53,.53l-52.54,.12c-.29,0-.53-.23-.53-.53,0-.29,.23-.53,.53-.53l52.01-.12-.03-13.38-52.06,.12c-.29,0-.53-.23-.53-.53Z"/><path class="cls-4" d="M69.62,55.12c.24-.17,.56-.12,.73,.12l3.58,4.99c.06,.09,.1,.2,.1,.31v4.51c.01,.11-.02,.22-.09,.31l-3.56,4.94c-.17,.24-.5,.29-.73,.12s-.29-.5-.12-.73l3.46-4.8v-4.17l-3.5-4.85c-.17-.24-.12-.56,.12-.73Z"/><path class="cls-4" d="M74.9,65.28c-.29,0-.53-.23-.53-.53v-4.02c0-.29,.23-.53,.52-.53h3.68c.29,0,.53,.23,.53,.52v4.02c0,.29-.23,.53-.52,.53h-3.68Zm.52-1.05h2.63v-2.98h-2.63v2.98Z"/><path class="cls-4" d="M78.58,64.09c-.29,0-.53-.23-.53-.53v-1.66c0-.29,.23-.53,.52-.53h2.48c.29,0,.53,.23,.53,.52v1.66c0,.29-.23,.53-.52,.53h-2.48Zm.52-1.05h1.42v-.61h-1.43v.61Z"/><path d="M81.06,62.36l28.13,.3-28.13,.46v-.76Z"/><path class="cls-4" d="M80.93,62.24s.08-.05,.13-.05l28.13,.3c.1,0,.17,.08,.17,.17,0,.1-.08,.17-.17,.18l-28.13,.46s-.09-.02-.13-.05c-.03-.03-.05-.08-.05-.13v-.76s.02-.09,.05-.12Zm.3,.71l14.98-.25-14.98-.16v.41Z"/><path class="cls-4" d="M108.38,33.2c.29-.3,.76-.31,1.06-.03,.14,.14,.43,.31,.88,.48,.45,.17,1.01,.32,1.65,.44,1.29,.25,2.87,.4,4.46,.43,1.59,.03,3.17-.06,4.44-.27,.64-.11,1.19-.24,1.62-.4,.45-.16,.71-.32,.84-.45,.29-.29,.77-.3,1.06,0,.29,.29,.3,.77,0,1.06-.36,.36-.86,.62-1.4,.81-.55,.2-1.19,.35-1.89,.46-1.39,.23-3.06,.32-4.72,.29-1.66-.03-3.33-.18-4.72-.46-.7-.14-1.34-.3-1.89-.51-.53-.2-1.03-.46-1.39-.8-.3-.29-.31-.76-.03-1.06Z"/><path class="cls-4" d="M112.2,2.81c-1.68,1.17-2.71,3.09-2.15,5.72,.01,.05,.02,.11,.02,.17l-.6,49.78,.26,.34,12.52,.19,.22-.3,.78-50.18s0-.08,.01-.12c.66-3.79-1.9-6.31-4.69-6.64-.03,0-.07,0-.1-.02-2.12-.54-4.54-.13-6.26,1.07Zm6.59-2.54c-2.51-.63-5.36-.14-7.44,1.31-2.12,1.48-3.44,3.96-2.78,7.18l-.61,49.96c0,.17,.05,.34,.16,.47l.64,.83c.14,.18,.35,.29,.58,.29l13.27,.2c.24,0,.47-.11,.61-.3l.6-.8c.09-.13,.15-.28,.15-.43l.78-50.36c.78-4.67-2.43-7.88-5.96-8.32Z"/><path class="cls-4" d="M123.21,11.63c.56,.2,1.08,.45,1.46,.78,.31,.27,.35,.74,.08,1.06-.27,.31-.74,.35-1.06,.08-.18-.15-.5-.33-.99-.5-.48-.17-1.06-.32-1.74-.45-1.35-.25-2.98-.4-4.62-.42-1.64-.03-3.26,.06-4.59,.28-.67,.11-1.24,.24-1.7,.4-.47,.16-.77,.33-.93,.47-.31,.28-.78,.25-1.06-.05-.28-.31-.25-.78,.05-1.06,.38-.34,.9-.59,1.45-.78,.57-.19,1.23-.34,1.95-.46,1.44-.23,3.15-.32,4.85-.3,1.7,.03,3.42,.18,4.87,.45,.72,.14,1.39,.3,1.96,.51Z"/><path class="cls-4" d="M123.05,22.37c.56,.2,1.08,.45,1.46,.78,.31,.27,.35,.74,.08,1.06-.27,.31-.74,.35-1.06,.08-.18-.15-.5-.33-.99-.5-.48-.17-1.06-.32-1.74-.45-1.35-.25-2.98-.4-4.62-.42-1.64-.03-3.26,.07-4.59,.28-.67,.11-1.24,.24-1.7,.4-.47,.16-.77,.33-.93,.47-.31,.28-.78,.25-1.06-.05-.28-.31-.25-.78,.05-1.06,.38-.34,.9-.59,1.45-.78,.57-.19,1.23-.34,1.95-.46,1.44-.23,3.15-.32,4.85-.3,1.7,.03,3.42,.18,4.87,.45,.72,.14,1.39,.3,1.96,.51Z"/><path d="M123.98,26.63c-2.24-1.93-13.42-2.15-15.55-.22l.02-.92c2.93-1.83,12.85-1.7,15.55,.23v.91Z"/><path class="cls-4" d="M120.97,23.88c1.38,.26,2.64,.65,3.46,1.24,.2,.14,.32,.38,.31,.62v.91c-.02,.29-.19,.55-.46,.67-.27,.12-.58,.07-.8-.12-.18-.15-.5-.33-.99-.5-.48-.17-1.06-.32-1.74-.45-1.35-.25-2.98-.4-4.62-.42-1.64-.03-3.26,.07-4.59,.28-.67,.11-1.24,.24-1.7,.4-.47,.16-.77,.33-.93,.47-.22,.2-.54,.25-.81,.13-.27-.12-.44-.4-.44-.7l.02-.92c0-.25,.14-.49,.35-.62,.86-.54,2.16-.89,3.57-1.11,1.43-.22,3.07-.32,4.7-.3,1.62,.02,3.25,.17,4.66,.43Z"/><path d="M124.35,13.71c-2.24-1.93-13.42-2.15-15.55-.22l.02-.92c2.93-1.83,12.85-1.7,15.55,.23v.91Z"/><path class="cls-4" d="M121.34,10.96c1.38,.26,2.64,.65,3.46,1.24,.2,.14,.32,.38,.31,.62v.91c-.02,.29-.19,.55-.46,.67-.27,.12-.58,.07-.8-.12-.18-.15-.5-.33-.99-.5-.48-.17-1.06-.32-1.74-.45-1.35-.25-2.98-.4-4.62-.42-1.64-.03-3.26,.07-4.59,.28-.67,.11-1.24,.24-1.7,.4-.47,.16-.77,.33-.93,.47-.22,.2-.54,.25-.81,.13-.27-.12-.44-.4-.44-.7l.02-.92c0-.25,.14-.49,.35-.62,.86-.54,2.16-.89,3.57-1.11,1.43-.22,3.07-.32,4.7-.3,1.62,.02,3.25,.17,4.66,.43Z"/><path class="cls-4" d="M122.79,40.21c.56,.2,1.08,.45,1.46,.78,.31,.27,.35,.74,.08,1.06-.27,.31-.74,.35-1.06,.08-.18-.15-.5-.33-.99-.5-.48-.17-1.06-.32-1.74-.45-1.35-.25-2.98-.4-4.62-.42-1.64-.03-3.26,.06-4.59,.28-.67,.11-1.24,.24-1.7,.4-.47,.16-.77,.33-.93,.47-.31,.28-.78,.25-1.06-.05-.28-.31-.25-.78,.05-1.06,.38-.34,.9-.59,1.45-.78,.57-.19,1.23-.34,1.95-.46,1.44-.23,3.15-.32,4.85-.3,1.7,.03,3.42,.18,4.87,.45,.72,.14,1.39,.3,1.96,.51Z"/><path class="cls-4" d="M107.82,28.76c.27-.31,.74-.35,1.06-.08,.18,.15,.5,.33,.99,.5,.48,.17,1.06,.32,1.74,.45,1.35,.25,2.98,.4,4.62,.42,1.64,.03,3.26-.07,4.59-.28,.66-.11,1.24-.24,1.7-.4,.47-.16,.77-.33,.93-.47,.31-.28,.78-.25,1.06,.05,.28,.31,.25,.78-.05,1.06-.38,.34-.9,.59-1.45,.78-.57,.19-1.23,.34-1.95,.46-1.44,.23-3.15,.32-4.85,.3-1.7-.03-3.42-.18-4.87-.45-.72-.14-1.39-.3-1.96-.51-.56-.2-1.08-.45-1.46-.78-.31-.27-.35-.74-.08-1.06Z"/><path class="cls-1" d="M121.33,9.57c4.7-7.79,3.43,15.48,3.78,17.4-.18,7.49,1.21,17.86-2.62,24.58-2.03,4.07-11.17,3.73-12.81-.49-4.45-11.5-1.17-25.51-1.24-37.74,.09-1.6,.17-6.11,2.64-5.28,.67,.27,1.4,1.03,.9,1.19-.85-.08-2.17-.75-2.26,.62,.1,12.16-2.91,28.47,1.36,40.01,5.24,6.87,12.05,.5,12.24-6.38,.64-9.86,.52-23.8,.23-33.58-.33-1.16-1.39-.45-2.22-.33Z"/><path class="cls-2" d="M108.94,13.34c.02,3.07-.17,6.25-.4,9.46-.05,.64-.09,1.27-.14,1.91-.19,2.59-.38,5.19-.48,7.78-.25,6.45,.04,12.74,2.23,18.4,.35,.9,1.12,1.64,2.17,2.16,1.05,.52,2.33,.82,3.65,.87,1.31,.05,2.63-.15,3.72-.59,1.09-.44,1.93-1.12,2.37-1.99v-.03c1.87-3.25,2.47-7.42,2.62-11.77,.08-2.17,.04-4.36,0-6.5,0-.19,0-.38-.01-.57-.04-1.91-.08-3.76-.04-5.46-.05-.31-.06-.91-.07-1.65,0-.58,0-1.29,0-2.07,0-.3,0-.62,0-.94,0-2.33-.02-5.16-.18-7.69-.06-.97-.14-1.89-.24-2.71,.24,9.61,.3,22.36-.29,31.56-.1,3.57-1.91,7.04-4.45,8.74-1.28,.85-2.76,1.27-4.29,.98-1.53-.29-3.04-1.27-4.4-3.06-.03-.04-.05-.08-.07-.13-2.17-5.87-2.48-12.91-2.27-19.96,.09-2.96,.26-5.93,.44-8.82,.03-.56,.07-1.12,.1-1.68,.19-3.2,.35-6.28,.35-9.13-.18,.89-.23,1.87-.26,2.58,0,.11-.01,.21-.02,.31Zm1.16-4.77c.16-.05,.32-.06,.47-.06,.13,0,.26,.02,.39,.03-.02,0-.04-.02-.05-.02-.24-.08-.41-.08-.55-.06-.09,.02-.17,.05-.25,.1Zm13.27,.32c-.1-.2-.2-.31-.27-.36-.06-.04-.09-.05-.15-.03-.08,.02-.21,.09-.41,.28h.03c.24-.03,.52-.02,.8,.11Zm-13.2-1.4c.34-.07,.7-.03,1.08,.1h.03c.41,.18,.83,.48,1.09,.79,.12,.14,.27,.36,.29,.62,.01,.15-.02,.32-.13,.47-.11,.15-.25,.22-.39,.27-.06,.02-.13,.03-.2,.02-.22-.02-.46-.07-.67-.12-.03,0-.06-.01-.09-.02-.25-.05-.45-.09-.62-.09-.17,0-.22,.03-.24,.05-.01,0-.08,.07-.1,.32,.02,3.05-.14,6.36-.34,9.77-.03,.56-.07,1.12-.1,1.68-.17,2.89-.35,5.84-.44,8.78-.21,7,.11,13.85,2.18,19.52,1.24,1.61,2.53,2.39,3.75,2.62,1.23,.23,2.44-.09,3.55-.83,2.23-1.49,3.91-4.64,4-7.94v-.02c.63-9.81,.52-23.69,.24-33.47-.05-.16-.11-.2-.13-.21-.03-.02-.09-.04-.24-.02-.16,.02-.34,.07-.56,.13h-.03c-.2,.07-.45,.14-.69,.17-.19,.03-.38-.06-.49-.22-.11-.16-.11-.37-.01-.53,.3-.5,.6-.9,.88-1.2,.28-.29,.59-.51,.92-.59,.36-.09,.7-.01,.99,.2,.26,.19,.46,.48,.61,.8,.31,.63,.53,1.53,.69,2.56,.16,1.04,.28,2.25,.36,3.53,.16,2.56,.18,5.42,.18,7.75,0,.33,0,.64,0,.95,0,.78,0,1.48,0,2.05,0,.82,.03,1.35,.06,1.53,0,.03,0,.07,0,.1-.04,1.69,0,3.54,.04,5.47,0,.19,0,.38,.01,.57,.05,2.13,.08,4.35,0,6.55-.15,4.38-.76,8.75-2.73,12.22-.58,1.15-1.64,1.96-2.88,2.46-1.24,.51-2.7,.72-4.13,.67s-2.86-.38-4.06-.98c-1.19-.6-2.18-1.49-2.65-2.69h0c-2.26-5.85-2.55-12.31-2.3-18.8,.1-2.61,.29-5.23,.48-7.82,.05-.64,.09-1.27,.14-1.9,.23-3.21,.42-6.36,.4-9.4v-.03c0-.09,.01-.2,.02-.31,.04-.84,.11-2.21,.43-3.35,.18-.64,.45-1.28,.91-1.71,.24-.22,.53-.38,.87-.45Z"/><path d="M108.92,59.3l-.02,1.14,13.96,.21,.02-1.14-13.96-.21Z"/><path class="cls-4" d="M108.9,60.69c-.14,0-.25-.12-.25-.25l.02-1.14c0-.14,.12-.25,.25-.25l13.96,.21c.14,0,.25,.12,.25,.25l-.02,1.14c0,.14-.12,.25-.25,.25l-13.96-.21Zm.26-.5l13.46,.2v-.64l-13.45-.2v.64Z"/><path class="cls-4" d="M108.56,60.02c0-.41,.35-.74,.76-.74l13.11,.19c.2,0,.39,.08,.53,.23,.14,.14,.21,.34,.21,.53l-.57,38.61c0,.29-.17,.55-.43,.67l-.32-.68,.32,.68h-.01l-.03,.02s-.05,.02-.09,.04c-.08,.03-.19,.08-.34,.13-.3,.1-.73,.24-1.3,.37-1.13,.26-2.8,.51-4.99,.47-2.17-.03-3.89-.33-5.08-.62-.6-.15-1.06-.29-1.38-.4-.16-.05-.28-.1-.37-.14-.04-.02-.08-.03-.1-.04h-.03v-.02h-.01s0,0,.3-.69l-.3,.69c-.28-.12-.45-.4-.45-.7l.57-38.61Zm.94,38.11c.28,.09,.67,.22,1.18,.34,1.09,.27,2.71,.55,4.75,.57,2.06,.03,3.61-.2,4.63-.43,.45-.1,.8-.21,1.05-.29l.55-37.35-11.61-.17-.55,37.33Z"/><path class="cls-4" d="M109.52,98.31c.21,.36,.09,.82-.27,1.03-.19,.11-.43,.4-.59,.87-.16,.45-.21,.97-.13,1.44,0,.03,0,.07,.01,.1l1.67,47.86h.02c.24,.08,.59,.14,1.03,.2,.87,.12,2.02,.19,3.17,.21,1.16,.02,2.3-.02,3.17-.12,.43-.05,.78-.11,1.01-.18,0-.1,0-.21,0-.34,.01-.44,.05-1.05,.1-1.8,.1-1.5,.26-3.6,.46-6.08,.1-1.28,.21-2.67,.33-4.13,.34-4.2,.73-9.03,1.08-13.82,.48-6.46,.89-12.84,1.02-17.5,.06-2.34,.06-4.22-.04-5.46-.04-.52-.1-.89-.15-1.12-.15-.06-.29-.17-.37-.33-.2-.36-.08-.82,.28-1.02,.14-.08,.32-.14,.54-.12,.22,.02,.4,.11,.53,.22,.23,.19,.34,.46,.4,.64,.14,.4,.22,.96,.27,1.61,.11,1.33,.11,3.28,.04,5.62-.13,4.7-.54,11.11-1.02,17.57-.35,4.79-.75,9.63-1.09,13.83-.12,1.46-.23,2.85-.33,4.13-.2,2.48-.36,4.57-.46,6.06-.05,.74-.08,1.33-.09,1.74,0,.21,0,.36,0,.46v.05c.05,.18,.03,.38-.07,.55-.13,.24-.35,.38-.49,.46-.16,.09-.34,.15-.51,.2-.35,.1-.79,.18-1.27,.23-.96,.11-2.17,.15-3.37,.13-1.2-.02-2.4-.09-3.35-.22-.47-.06-.9-.14-1.25-.24-.17-.05-.34-.11-.49-.19-.13-.07-.35-.2-.49-.44-.06-.11-.1-.23-.1-.35l-1.69-48.23c-.11-.72-.03-1.48,.2-2.13,.23-.65,.63-1.31,1.24-1.67,.36-.21,.82-.09,1.03,.27Zm11.85,.97h0Zm-2.5,50.35h0Zm-8.87-.11h0Z"/><path class="cls-4" d="M109.35,149.32c.4-.1,.81,.15,.91,.55l3.11,12.77,1.96,.03,3.34-12.66c.11-.4,.52-.64,.92-.53s.64,.52,.53,.92l-3.49,13.23c-.09,.33-.39,.56-.74,.56l-3.13-.04c-.34,0-.64-.24-.72-.57l-3.25-13.33c-.1-.4,.15-.81,.55-.91Z"/><path d="M113.15,163.38l1.21,4.12,1.2-4.08-2.41-.04Z"/><path class="cls-4" d="M112.95,163.23c.05-.06,.12-.1,.2-.1l2.41,.04c.08,0,.15,.04,.2,.1,.05,.06,.06,.14,.04,.22l-1.2,4.08c-.03,.11-.13,.18-.24,.18-.11,0-.21-.07-.24-.18l-1.21-4.12c-.02-.08,0-.16,.04-.22Zm.53,.41l.87,2.97,.87-2.95-1.74-.03Z"/><path d="M108.45,113.14c.61,1.06,12.54,1.26,13.17,.17l-1.1,15.33c-.6,1.13-11.04,.86-11.57,.05l-.51-15.54Z"/><path class="cls-4" d="M109.02,112.66c-.19-.22-.49-.32-.78-.23-.33,.09-.55,.4-.54,.75l.51,15.54c0,.14,.05,.27,.12,.38,.16,.25,.41,.37,.54,.43,.16,.07,.35,.13,.54,.17,.38,.09,.87,.17,1.41,.23,1.09,.13,2.5,.2,3.89,.22,1.39,.01,2.8-.03,3.92-.16,.55-.06,1.06-.15,1.46-.26,.2-.06,.4-.13,.58-.23,.16-.09,.39-.24,.52-.5,.05-.09,.08-.19,.09-.3l1.1-15.33c.02-.35-.19-.67-.53-.77-.29-.09-.6,0-.79,.23-.06,.03-.17,.07-.33,.11-.34,.08-.81,.16-1.41,.21-1.18,.11-2.72,.16-4.27,.13-1.55-.02-3.09-.11-4.27-.26-.59-.07-1.07-.16-1.41-.25-.17-.05-.28-.09-.34-.12h0Zm12.07,.15h0Zm-12.09-.16h0Zm.7,15.57l.07,.02c.29,.07,.71,.14,1.23,.2,1.03,.12,2.38,.19,3.73,.21,1.36,.01,2.7-.03,3.73-.15,.52-.06,.93-.13,1.21-.21,.05-.02,.09-.03,.13-.04l.99-13.78c-.39,.08-.84,.14-1.33,.19-1.25,.12-2.85,.17-4.44,.14-1.59-.02-3.18-.11-4.43-.27-.5-.06-.96-.14-1.35-.22l.45,13.93Zm10.27-.05h0Zm-10.51-.03h0Z"/><path class="cls-4" d="M107.76,100.17c.22-.16,.54-.11,.7,.11h0s.03,.03,.13,.08c.11,.05,.26,.11,.46,.17,.4,.12,.94,.22,1.59,.31,1.3,.18,2.96,.28,4.63,.3,1.67,.02,3.33-.03,4.63-.17,.65-.07,1.2-.16,1.6-.26,.2-.05,.36-.11,.47-.16,.1-.05,.13-.08,.14-.08h0c.17-.21,.49-.25,.7-.08,.22,.17,.25,.49,.08,.7-.13,.17-.33,.28-.5,.36-.18,.08-.4,.15-.64,.21-.47,.12-1.07,.22-1.75,.29-1.35,.14-3.06,.2-4.76,.18-1.7-.02-3.4-.13-4.75-.31-.67-.09-1.27-.2-1.74-.34-.23-.07-.45-.15-.63-.24-.17-.09-.36-.21-.49-.38-.16-.22-.11-.54,.11-.7Z"/><path class="cls-4" d="M108.62,102.72c-.15-.22-.46-.29-.68-.14-.23,.15-.3,.46-.15,.69,.12,.19,.31,.31,.47,.4,.18,.09,.38,.17,.61,.24,.45,.13,1.04,.24,1.7,.33,1.32,.18,2.99,.28,4.66,.3,1.67,.02,3.35-.03,4.67-.17,.66-.07,1.25-.16,1.7-.28,.23-.06,.44-.13,.62-.21,.17-.08,.36-.19,.49-.37,.16-.22,.11-.54-.12-.7-.22-.16-.53-.11-.69,.1,0,0-.03,.03-.11,.06-.1,.05-.25,.1-.44,.15-.39,.1-.92,.19-1.56,.26-1.27,.13-2.91,.19-4.55,.17-1.64-.02-3.28-.12-4.54-.29-.63-.09-1.16-.19-1.55-.3-.19-.06-.34-.11-.43-.16-.07-.04-.1-.06-.1-.06Z"/><path class="cls-4" d="M108.57,105.17c-.15-.22-.45-.29-.68-.14-.23,.15-.3,.46-.15,.69,.12,.19,.31,.31,.47,.4,.17,.09,.38,.17,.61,.24,.45,.13,1.04,.24,1.7,.33,1.32,.18,2.99,.28,4.66,.3,1.67,.02,3.35-.03,4.67-.17,.66-.07,1.25-.16,1.7-.28,.23-.06,.44-.13,.62-.21,.17-.08,.36-.19,.49-.37,.16-.22,.11-.54-.12-.7-.22-.16-.53-.11-.69,.11,0,0-.03,.03-.11,.06-.1,.05-.25,.1-.44,.15-.39,.1-.92,.19-1.56,.26-1.27,.13-2.91,.19-4.55,.17-1.64-.02-3.28-.12-4.54-.29-.63-.09-1.16-.19-1.55-.3-.19-.06-.34-.11-.43-.16-.07-.04-.1-.06-.1-.06Z"/><path class="cls-4" d="M108.54,107.63c-.15-.22-.45-.29-.68-.14-.23,.15-.3,.46-.15,.69,.12,.19,.31,.31,.47,.4,.17,.09,.38,.17,.61,.24,.45,.13,1.04,.24,1.7,.33,1.32,.18,2.99,.28,4.66,.3,1.67,.02,3.35-.03,4.67-.17,.66-.07,1.25-.16,1.7-.28,.23-.06,.44-.13,.62-.21,.17-.08,.36-.19,.49-.37,.16-.22,.11-.54-.12-.7-.22-.16-.53-.11-.69,.11,0,0-.03,.03-.11,.06-.1,.05-.25,.1-.44,.15-.39,.1-.92,.19-1.56,.25-1.27,.13-2.91,.19-4.55,.17-1.64-.02-3.28-.12-4.54-.29-.63-.09-1.16-.19-1.55-.3-.19-.06-.34-.11-.43-.16-.07-.04-.1-.06-.1-.06Z"/><path class="cls-4" d="M108.5,110.08c-.15-.22-.45-.29-.68-.14-.23,.15-.3,.46-.15,.69,.12,.19,.31,.31,.47,.4,.18,.09,.38,.17,.61,.24,.45,.13,1.04,.24,1.7,.33,1.32,.18,2.99,.28,4.66,.3,1.67,.02,3.35-.03,4.67-.17,.66-.07,1.25-.16,1.7-.28,.23-.06,.44-.13,.62-.21,.17-.08,.36-.19,.49-.37,.16-.22,.11-.54-.12-.7-.22-.16-.53-.11-.69,.11,0,0-.03,.03-.11,.06-.1,.05-.25,.1-.44,.15-.39,.1-.92,.19-1.56,.26-1.27,.13-2.91,.19-4.55,.17-1.64-.02-3.28-.12-4.54-.29-.63-.09-1.16-.19-1.55-.3-.19-.06-.34-.11-.43-.16-.07-.04-.1-.06-.1-.06Z"/><path class="cls-4" d="M119.39,11.03c.41,0,.74,.35,.74,.76l-.15,10.26c0,.41-.35,.74-.76,.74-.41,0-.74-.35-.74-.76l.15-10.26c0-.41,.35-.74,.76-.74Z"/><path class="cls-4" d="M114.25,10.96c.41,.01,.74,.36,.73,.77l-.31,10.25c-.01,.41-.36,.74-.77,.73-.41-.01-.74-.36-.73-.77l.31-10.25c.01-.41,.36-.74,.77-.73Z"/><path class="cls-4" d="M119.24,24.64c.41,.05,.71,.42,.66,.83-.11,.91,.09,1.49,.51,1.98,.47,.55,1.26,1.05,2.5,1.68,.37,.19,.52,.64,.33,1.01-.19,.37-.64,.52-1.01,.33-1.24-.63-2.28-1.24-2.96-2.04-.73-.85-1-1.86-.86-3.13,.05-.41,.42-.71,.83-.66Z"/><path class="cls-4" d="M113.61,24.61c.41-.04,.78,.25,.83,.67,.13,1.27-.14,2.27-.88,3.12-.69,.79-1.73,1.4-2.98,2.02-.37,.19-.82,.04-1.01-.33-.19-.37-.03-.82,.34-1.01,1.25-.62,2.04-1.12,2.52-1.66,.42-.49,.62-1.06,.52-1.98-.04-.41,.25-.78,.67-.82Z"/><path class="cls-4" d="M114.7,47.94c-.27,.45-.35,1-.35,1.3-.02,1.37-.06,3.87-.09,6.03-.02,1.08-.03,2.08-.04,2.8l-.02,1.18h-.75l-.75-.02,.02-1.18c.01-.72,.03-1.72,.04-2.8,.03-2.16,.07-4.66,.09-6.03,0-.44,.11-1.29,.57-2.05,.5-.82,1.39-1.48,2.8-1.46h0c1.43,.02,2.32,.71,2.81,1.54,.46,.78,.55,1.63,.54,2.06h0c-.02,1.42-.06,3.86-.1,5.93-.02,1.04-.04,1.99-.05,2.68l-.02,1.12h-.75l-.75-.03,.02-1.12c.01-.69,.03-1.64,.05-2.68,.04-2.08,.08-4.51,.1-5.92,0-.27-.06-.82-.33-1.28-.24-.41-.67-.79-1.54-.8-.85-.01-1.26,.35-1.5,.74Zm3.95,11.09h-.75c0,.4,.32,.74,.74,.75,.41,0,.76-.32,.76-.74h-.75Zm-5.22,.94c-.41,0-.75-.35-.74-.76h.75l.75,.02c0,.41-.35,.74-.76,.74Z"/><path d="M110.82,61.74l-.53,35.58c-.16,.75,10.22,.91,10.04,.15l.53-35.58-10.04-.15Z"/><path class="cls-4" d="M110.57,61.74c0-.14,.12-.25,.25-.25l10.04,.15c.07,0,.13,.03,.18,.08,.05,.05,.07,.11,.07,.18l-.53,35.56c.02,.19-.12,.32-.2,.37-.1,.06-.23,.1-.37,.14-.29,.07-.69,.13-1.17,.17-.96,.08-2.24,.11-3.52,.09-1.28-.02-2.57-.09-3.53-.2-.48-.06-.89-.12-1.17-.2-.14-.04-.27-.09-.37-.15-.08-.05-.23-.17-.2-.37l.53-35.56Zm.5,.26l-.52,35.27s.11,.05,.21,.07c.25,.07,.62,.13,1.09,.19,.94,.11,2.21,.17,3.48,.19s2.54,0,3.47-.09c.47-.04,.84-.09,1.09-.15,.09-.02,.16-.05,.2-.06l.52-35.27-9.54-.14Zm9.07,35.39h0Zm-9.63-.15h0Z"/><path class="cls-3" d="M111.33,61.02c.26,.08,.41,.37,.32,.63-.02,.07-.04,.25-.02,.54,.02,.28,.07,.63,.15,1.03,.16,.8,.44,1.76,.78,2.7,.34,.95,.74,1.86,1.14,2.59,.2,.36,.4,.66,.58,.89,.19,.24,.34,.36,.43,.4,.25,.12,.35,.42,.23,.67s-.42,.35-.67,.23c-.29-.14-.54-.4-.77-.67-.23-.29-.46-.64-.67-1.03-.43-.78-.85-1.75-1.2-2.73-.35-.98-.64-1.98-.82-2.84-.09-.43-.15-.82-.17-1.17-.02-.33-.02-.66,.07-.92,.08-.26,.37-.41,.63-.32Z"/><path class="cls-3" d="M116.13,88.86c.12-.25,.42-.35,.67-.23,.29,.14,.54,.4,.77,.67,.23,.29,.46,.64,.67,1.03,.43,.78,.85,1.75,1.2,2.73,.35,.98,.64,1.99,.82,2.84,.09,.43,.15,.82,.17,1.16,.02,.33,.02,.66-.07,.92-.08,.26-.37,.41-.63,.32s-.41-.37-.32-.63c.02-.07,.04-.25,.02-.54-.02-.28-.07-.63-.15-1.03-.17-.8-.44-1.76-.78-2.7-.34-.95-.73-1.86-1.14-2.58-.2-.36-.39-.66-.58-.89-.19-.24-.34-.36-.43-.4-.25-.12-.35-.42-.23-.67Z"/><path class="cls-3" d="M120.46,61.09c.28,0,.5,.22,.5,.5,0,2.82-1.11,5.1-2.54,7.09-.72,.99-1.52,1.93-2.32,2.82-.16,.18-.32,.36-.48,.54-.63,.71-1.24,1.39-1.8,2.08-1.4,1.74-2.4,3.43-2.46,5.37-.05,1.94,.83,4.24,3.47,7.2,.18,.21,.17,.52-.04,.71-.21,.18-.52,.17-.71-.04-2.73-3.06-3.79-5.61-3.72-7.9,.06-2.28,1.24-4.19,2.68-5.97,.58-.71,1.21-1.42,1.84-2.13,.16-.18,.32-.35,.47-.53,.79-.89,1.57-1.79,2.25-2.74,1.37-1.9,2.36-3.97,2.36-6.51,0-.28,.22-.5,.5-.5Z"/><path class="cls-3" d="M116.37,71.92c.21-.18,.52-.16,.71,.04,2.73,3.09,3.77,5.66,3.69,7.97-.09,2.3-1.29,4.21-2.75,5.99-.57,.7-1.2,1.4-1.83,2.09-.17,.19-.34,.38-.51,.56-.8,.89-1.57,1.78-2.25,2.72-1.36,1.88-2.32,3.93-2.26,6.43,0,.28-.21,.51-.49,.51-.28,0-.51-.21-.51-.49-.06-2.8,1.02-5.06,2.45-7.04,.71-.99,1.52-1.92,2.32-2.81,.17-.19,.35-.39,.52-.58,.62-.69,1.23-1.36,1.79-2.04,1.42-1.74,2.45-3.44,2.52-5.4,.07-1.95-.79-4.28-3.44-7.27-.18-.21-.16-.52,.04-.71Z"/><path class="cls-3" d="M114.34,67.37c0-.14,.12-.25,.25-.25l2.33,.03c.14,0,.25,.12,.25,.25,0,.14-.12,.25-.25,.25l-2.33-.03c-.14,0-.25-.12-.25-.25Z"/><path class="cls-3" d="M113.17,65.24c0-.14,.12-.25,.25-.25l4.72,.07c.14,0,.25,.12,.25,.25,0,.14-.12,.25-.25,.25l-4.72-.07c-.14,0-.25-.12-.25-.25Z"/><path class="cls-3" d="M112.71,63.11c0-.14,.12-.25,.25-.25l5.71,.09c.14,0,.25,.12,.25,.25,0,.14-.12,.25-.25,.25l-5.71-.09c-.14,0-.25-.12-.25-.25Z"/><path class="cls-3" d="M113.98,83.66c0-.14,.12-.25,.25-.25l2.34,.03c.14,0,.25,.11,.25,.25,0,.14-.11,.25-.25,.25l-2.34-.03c-.14,0-.25-.12-.25-.25Z"/><path class="cls-3" d="M112.82,81.52c0-.14,.12-.25,.25-.25l4.72,.07c.14,0,.25,.12,.25,.25,0,.14-.12,.25-.25,.25l-4.72-.07c-.14,0-.25-.12-.25-.25Z"/><path class="cls-3" d="M112.35,79.4c0-.14,.12-.25,.25-.25l5.72,.08c.14,0,.25,.12,.25,.25,0,.14-.12,.25-.25,.25l-5.72-.08c-.14,0-.25-.12-.25-.25Z"/><path class="cls-3" d="M113.99,91.92c0-.14,.12-.25,.25-.25l2.33,.03c.14,0,.25,.12,.25,.25,0,.14-.12,.25-.25,.25l-2.33-.03c-.14,0-.25-.12-.25-.25Z"/><path class="cls-3" d="M112.76,94.01c0-.14,.12-.25,.25-.25l4.72,.07c.14,0,.25,.12,.25,.25,0,.14-.12,.25-.25,.25l-4.72-.07c-.14,0-.25-.12-.25-.25Z"/><path class="cls-3" d="M114.2,75.22c0-.14,.12-.25,.25-.25l2.34,.04c.14,0,.25,.12,.25,.25,0,.14-.12,.25-.25,.25l-2.34-.04c-.14,0-.25-.12-.25-.25Z"/><path class="cls-3" d="M112.97,77.32c0-.14,.12-.25,.25-.25l4.72,.07c.14,0,.25,.12,.25,.25,0,.14-.12,.25-.25,.25l-4.72-.07c-.14,0-.25-.12-.25-.25Z"/><path class="cls-3" d="M112.24,96.11c0-.14,.12-.25,.25-.25l5.71,.09c.14,0,.25,.12,.25,.25,0,.14-.12,.25-.25,.25l-5.71-.09c-.14,0-.25-.12-.25-.25Z"/><path class="cls-4" d="M108.38,33.2c.29-.3,.76-.31,1.06-.03,.14,.14,.43,.31,.88,.48,.45,.17,1.01,.32,1.65,.44,1.29,.25,2.87,.4,4.46,.43,1.59,.03,3.17-.06,4.44-.27,.64-.11,1.19-.24,1.62-.4,.45-.16,.71-.32,.84-.45,.29-.29,.77-.3,1.06,0,.29,.29,.3,.77,0,1.06-.36,.36-.86,.62-1.4,.81-.55,.2-1.19,.35-1.89,.46-1.39,.23-3.06,.32-4.72,.29-1.66-.03-3.33-.18-4.72-.46-.7-.14-1.34-.3-1.89-.51-.53-.2-1.03-.46-1.39-.8-.3-.29-.31-.76-.03-1.06Z"/><path class="cls-4" d="M112.2,2.81c-1.68,1.17-2.71,3.09-2.15,5.72,.01,.05,.02,.11,.02,.17l-.6,49.78,.26,.34,12.52,.19,.22-.3,.78-50.18s0-.08,.01-.12c.66-3.79-1.9-6.31-4.69-6.64-.03,0-.07,0-.1-.02-2.12-.54-4.54-.13-6.26,1.07Zm6.59-2.54c-2.51-.63-5.36-.14-7.44,1.31-2.12,1.48-3.44,3.96-2.78,7.18l-.61,49.96c0,.17,.05,.34,.16,.47l.64,.83c.14,.18,.35,.29,.58,.29l13.27,.2c.24,0,.47-.11,.61-.3l.6-.8c.09-.13,.15-.28,.15-.43l.78-50.36c.78-4.67-2.43-7.88-5.96-8.32Z"/><path class="cls-4" d="M123.21,11.63c.56,.2,1.08,.45,1.46,.78,.31,.27,.35,.74,.08,1.06-.27,.31-.74,.35-1.06,.08-.18-.15-.5-.33-.99-.5-.48-.17-1.06-.32-1.74-.45-1.35-.25-2.98-.4-4.62-.42-1.64-.03-3.26,.06-4.59,.28-.67,.11-1.24,.24-1.7,.4-.47,.16-.77,.33-.93,.47-.31,.28-.78,.25-1.06-.05-.28-.31-.25-.78,.05-1.06,.38-.34,.9-.59,1.45-.78,.57-.19,1.23-.34,1.95-.46,1.44-.23,3.15-.32,4.85-.3,1.7,.03,3.42,.18,4.87,.45,.72,.14,1.39,.3,1.96,.51Z"/><path class="cls-4" d="M123.05,22.37c.56,.2,1.08,.45,1.46,.78,.31,.27,.35,.74,.08,1.06-.27,.31-.74,.35-1.06,.08-.18-.15-.5-.33-.99-.5-.48-.17-1.06-.32-1.74-.45-1.35-.25-2.98-.4-4.62-.42-1.64-.03-3.26,.07-4.59,.28-.67,.11-1.24,.24-1.7,.4-.47,.16-.77,.33-.93,.47-.31,.28-.78,.25-1.06-.05-.28-.31-.25-.78,.05-1.06,.38-.34,.9-.59,1.45-.78,.57-.19,1.23-.34,1.95-.46,1.44-.23,3.15-.32,4.85-.3,1.7,.03,3.42,.18,4.87,.45,.72,.14,1.39,.3,1.96,.51Z"/><path d="M123.98,26.63c-2.24-1.93-13.42-2.15-15.55-.22l.02-.92c2.93-1.83,12.85-1.7,15.55,.23v.91Z"/><path class="cls-4" d="M120.97,23.88c1.38,.26,2.64,.65,3.46,1.24,.2,.14,.32,.38,.31,.62v.91c-.02,.29-.19,.55-.46,.67-.27,.12-.58,.07-.8-.12-.18-.15-.5-.33-.99-.5-.48-.17-1.06-.32-1.74-.45-1.35-.25-2.98-.4-4.62-.42-1.64-.03-3.26,.07-4.59,.28-.67,.11-1.24,.24-1.7,.4-.47,.16-.77,.33-.93,.47-.22,.2-.54,.25-.81,.13-.27-.12-.44-.4-.44-.7l.02-.92c0-.25,.14-.49,.35-.62,.86-.54,2.16-.89,3.57-1.11,1.43-.22,3.07-.32,4.7-.3,1.62,.02,3.25,.17,4.66,.43Z"/><path d="M124.35,13.71c-2.24-1.93-13.42-2.15-15.55-.22l.02-.92c2.93-1.83,12.85-1.7,15.55,.23v.91Z"/><path class="cls-4" d="M121.34,10.96c1.38,.26,2.64,.65,3.46,1.24,.2,.14,.32,.38,.31,.62v.91c-.02,.29-.19,.55-.46,.67-.27,.12-.58,.07-.8-.12-.18-.15-.5-.33-.99-.5-.48-.17-1.06-.32-1.74-.45-1.35-.25-2.98-.4-4.62-.42-1.64-.03-3.26,.07-4.59,.28-.67,.11-1.24,.24-1.7,.4-.47,.16-.77,.33-.93,.47-.22,.2-.54,.25-.81,.13-.27-.12-.44-.4-.44-.7l.02-.92c0-.25,.14-.49,.35-.62,.86-.54,2.16-.89,3.57-1.11,1.43-.22,3.07-.32,4.7-.3,1.62,.02,3.25,.17,4.66,.43Z"/><path class="cls-4" d="M122.79,40.21c.56,.2,1.08,.45,1.46,.78,.31,.27,.35,.74,.08,1.06-.27,.31-.74,.35-1.06,.08-.18-.15-.5-.33-.99-.5-.48-.17-1.06-.32-1.74-.45-1.35-.25-2.98-.4-4.62-.42-1.64-.03-3.26,.06-4.59,.28-.67,.11-1.24,.24-1.7,.4-.47,.16-.77,.33-.93,.47-.31,.28-.78,.25-1.06-.05-.28-.31-.25-.78,.05-1.06,.38-.34,.9-.59,1.45-.78,.57-.19,1.23-.34,1.95-.46,1.44-.23,3.15-.32,4.85-.3,1.7,.03,3.42,.18,4.87,.45,.72,.14,1.39,.3,1.96,.51Z"/><path class="cls-4" d="M107.82,28.76c.27-.31,.74-.35,1.06-.08,.18,.15,.5,.33,.99,.5,.48,.17,1.06,.32,1.74,.45,1.35,.25,2.98,.4,4.62,.42,1.64,.03,3.26-.07,4.59-.28,.66-.11,1.24-.24,1.7-.4,.47-.16,.77-.33,.93-.47,.31-.28,.78-.25,1.06,.05,.28,.31,.25,.78-.05,1.06-.38,.34-.9,.59-1.45,.78-.57,.19-1.23,.34-1.95,.46-1.44,.23-3.15,.32-4.85,.3-1.7-.03-3.42-.18-4.87-.45-.72-.14-1.39-.3-1.96-.51-.56-.2-1.08-.45-1.46-.78-.31-.27-.35-.74-.08-1.06Z"/><path class="cls-1" d="M121.33,9.57c4.7-7.79,3.43,15.48,3.78,17.4-.18,7.49,1.21,17.86-2.62,24.58-2.03,4.07-11.17,3.73-12.81-.49-4.45-11.5-1.17-25.51-1.24-37.74,.09-1.6,.17-6.11,2.64-5.28,.67,.27,1.4,1.03,.9,1.19-.85-.08-2.17-.75-2.26,.62,.1,12.16-2.91,28.47,1.36,40.01,5.24,6.87,12.05,.5,12.24-6.38,.64-9.86,.52-23.8,.23-33.58-.33-1.16-1.39-.45-2.22-.33Z"/><path class="cls-2" d="M108.94,13.34c.02,3.07-.17,6.25-.4,9.46-.05,.64-.09,1.27-.14,1.91-.19,2.59-.38,5.19-.48,7.78-.25,6.45,.04,12.74,2.23,18.4,.35,.9,1.12,1.64,2.17,2.16,1.05,.52,2.33,.82,3.65,.87,1.31,.05,2.63-.15,3.72-.59,1.09-.44,1.93-1.12,2.37-1.99v-.03c1.87-3.25,2.47-7.42,2.62-11.77,.08-2.17,.04-4.36,0-6.5,0-.19,0-.38-.01-.57-.04-1.91-.08-3.76-.04-5.46-.05-.31-.06-.91-.07-1.65,0-.58,0-1.29,0-2.07,0-.3,0-.62,0-.94,0-2.33-.02-5.16-.18-7.69-.06-.97-.14-1.89-.24-2.71,.24,9.61,.3,22.36-.29,31.56-.1,3.57-1.91,7.04-4.45,8.74-1.28,.85-2.76,1.27-4.29,.98-1.53-.29-3.04-1.27-4.4-3.06-.03-.04-.05-.08-.07-.13-2.17-5.87-2.48-12.91-2.27-19.96,.09-2.96,.26-5.93,.44-8.82,.03-.56,.07-1.12,.1-1.68,.19-3.2,.35-6.28,.35-9.13-.18,.89-.23,1.87-.26,2.58,0,.11-.01,.21-.02,.31Zm1.16-4.77c.16-.05,.32-.06,.47-.06,.13,0,.26,.02,.39,.03-.02,0-.04-.02-.05-.02-.24-.08-.41-.08-.55-.06-.09,.02-.17,.05-.25,.1Zm13.27,.32c-.1-.2-.2-.31-.27-.36-.06-.04-.09-.05-.15-.03-.08,.02-.21,.09-.41,.28h.03c.24-.03,.52-.02,.8,.11Zm-13.2-1.4c.34-.07,.7-.03,1.08,.1h.03c.41,.18,.83,.48,1.09,.79,.12,.14,.27,.36,.29,.62,.01,.15-.02,.32-.13,.47-.11,.15-.25,.22-.39,.27-.06,.02-.13,.03-.2,.02-.22-.02-.46-.07-.67-.12-.03,0-.06-.01-.09-.02-.25-.05-.45-.09-.62-.09-.17,0-.22,.03-.24,.05-.01,0-.08,.07-.1,.32,.02,3.05-.14,6.36-.34,9.77-.03,.56-.07,1.12-.1,1.68-.17,2.89-.35,5.84-.44,8.78-.21,7,.11,13.85,2.18,19.52,1.24,1.61,2.53,2.39,3.75,2.62,1.23,.23,2.44-.09,3.55-.83,2.23-1.49,3.91-4.64,4-7.94v-.02c.63-9.81,.52-23.69,.24-33.47-.05-.16-.11-.2-.13-.21-.03-.02-.09-.04-.24-.02-.16,.02-.34,.07-.56,.13h-.03c-.2,.07-.45,.14-.69,.17-.19,.03-.38-.06-.49-.22-.11-.16-.11-.37-.01-.53,.3-.5,.6-.9,.88-1.2,.28-.29,.59-.51,.92-.59,.36-.09,.7-.01,.99,.2,.26,.19,.46,.48,.61,.8,.31,.63,.53,1.53,.69,2.56,.16,1.04,.28,2.25,.36,3.53,.16,2.56,.18,5.42,.18,7.75,0,.33,0,.64,0,.95,0,.78,0,1.48,0,2.05,0,.82,.03,1.35,.06,1.53,0,.03,0,.07,0,.1-.04,1.69,0,3.54,.04,5.47,0,.19,0,.38,.01,.57,.05,2.13,.08,4.35,0,6.55-.15,4.38-.76,8.75-2.73,12.22-.58,1.15-1.64,1.96-2.88,2.46-1.24,.51-2.7,.72-4.13,.67s-2.86-.38-4.06-.98c-1.19-.6-2.18-1.49-2.65-2.69h0c-2.26-5.85-2.55-12.31-2.3-18.8,.1-2.61,.29-5.23,.48-7.82,.05-.64,.09-1.27,.14-1.9,.23-3.21,.42-6.36,.4-9.4v-.03c0-.09,.01-.2,.02-.31,.04-.84,.11-2.21,.43-3.35,.18-.64,.45-1.28,.91-1.71,.24-.22,.53-.38,.87-.45Z"/><path d="M108.92,59.3l-.02,1.14,13.96,.21,.02-1.14-13.96-.21Z"/><path class="cls-4" d="M108.9,60.69c-.14,0-.25-.12-.25-.25l.02-1.14c0-.14,.12-.25,.25-.25l13.96,.21c.14,0,.25,.12,.25,.25l-.02,1.14c0,.14-.12,.25-.25,.25l-13.96-.21Zm.26-.5l13.46,.2v-.64l-13.45-.2v.64Z"/><path class="cls-4" d="M108.56,60.02c0-.41,.35-.74,.76-.74l13.11,.19c.2,0,.39,.08,.53,.23,.14,.14,.21,.34,.21,.53l-.57,38.61c0,.29-.17,.55-.43,.67l-.32-.68,.32,.68h-.01l-.03,.02s-.05,.02-.09,.04c-.08,.03-.19,.08-.34,.13-.3,.1-.73,.24-1.3,.37-1.13,.26-2.8,.51-4.99,.47-2.17-.03-3.89-.33-5.08-.62-.6-.15-1.06-.29-1.38-.4-.16-.05-.28-.1-.37-.14-.04-.02-.08-.03-.1-.04h-.03v-.02h-.01s0,0,.3-.69l-.3,.69c-.28-.12-.45-.4-.45-.7l.57-38.61Zm.94,38.11c.28,.09,.67,.22,1.18,.34,1.09,.27,2.71,.55,4.75,.57,2.06,.03,3.61-.2,4.63-.43,.45-.1,.8-.21,1.05-.29l.55-37.35-11.61-.17-.55,37.33Z"/><path class="cls-4" d="M109.52,98.31c.21,.36,.09,.82-.27,1.03-.19,.11-.43,.4-.59,.87-.16,.45-.21,.97-.13,1.44,0,.03,0,.07,.01,.1l1.67,47.86h.02c.24,.08,.59,.14,1.03,.2,.87,.12,2.02,.19,3.17,.21,1.16,.02,2.3-.02,3.17-.12,.43-.05,.78-.11,1.01-.18,0-.1,0-.21,0-.34,.01-.44,.05-1.05,.1-1.8,.1-1.5,.26-3.6,.46-6.08,.1-1.28,.21-2.67,.33-4.13,.34-4.2,.73-9.03,1.08-13.82,.48-6.46,.89-12.84,1.02-17.5,.06-2.34,.06-4.22-.04-5.46-.04-.52-.1-.89-.15-1.12-.15-.06-.29-.17-.37-.33-.2-.36-.08-.82,.28-1.02,.14-.08,.32-.14,.54-.12,.22,.02,.4,.11,.53,.22,.23,.19,.34,.46,.4,.64,.14,.4,.22,.96,.27,1.61,.11,1.33,.11,3.28,.04,5.62-.13,4.7-.54,11.11-1.02,17.57-.35,4.79-.75,9.63-1.09,13.83-.12,1.46-.23,2.85-.33,4.13-.2,2.48-.36,4.57-.46,6.06-.05,.74-.08,1.33-.09,1.74,0,.21,0,.36,0,.46v.05c.05,.18,.03,.38-.07,.55-.13,.24-.35,.38-.49,.46-.16,.09-.34,.15-.51,.2-.35,.1-.79,.18-1.27,.23-.96,.11-2.17,.15-3.37,.13-1.2-.02-2.4-.09-3.35-.22-.47-.06-.9-.14-1.25-.24-.17-.05-.34-.11-.49-.19-.13-.07-.35-.2-.49-.44-.06-.11-.1-.23-.1-.35l-1.69-48.23c-.11-.72-.03-1.48,.2-2.13,.23-.65,.63-1.31,1.24-1.67,.36-.21,.82-.09,1.03,.27Zm11.85,.97h0Zm-2.5,50.35h0Zm-8.87-.11h0Z"/><path class="cls-4" d="M109.35,149.32c.4-.1,.81,.15,.91,.55l3.11,12.77,1.96,.03,3.34-12.66c.11-.4,.52-.64,.92-.53s.64,.52,.53,.92l-3.49,13.23c-.09,.33-.39,.56-.74,.56l-3.13-.04c-.34,0-.64-.24-.72-.57l-3.25-13.33c-.1-.4,.15-.81,.55-.91Z"/><path d="M113.15,163.38l1.21,4.12,1.2-4.08-2.41-.04Z"/><path class="cls-4" d="M112.95,163.23c.05-.06,.12-.1,.2-.1l2.41,.04c.08,0,.15,.04,.2,.1,.05,.06,.06,.14,.04,.22l-1.2,4.08c-.03,.11-.13,.18-.24,.18-.11,0-.21-.07-.24-.18l-1.21-4.12c-.02-.08,0-.16,.04-.22Zm.53,.41l.87,2.97,.87-2.95-1.74-.03Z"/><path d="M108.45,113.14c.61,1.06,12.54,1.26,13.17,.17l-1.1,15.33c-.6,1.13-11.04,.86-11.57,.05l-.51-15.54Z"/><path class="cls-4" d="M109.02,112.66c-.19-.22-.49-.32-.78-.23-.33,.09-.55,.4-.54,.75l.51,15.54c0,.14,.05,.27,.12,.38,.16,.25,.41,.37,.54,.43,.16,.07,.35,.13,.54,.17,.38,.09,.87,.17,1.41,.23,1.09,.13,2.5,.2,3.89,.22,1.39,.01,2.8-.03,3.92-.16,.55-.06,1.06-.15,1.46-.26,.2-.06,.4-.13,.58-.23,.16-.09,.39-.24,.52-.5,.05-.09,.08-.19,.09-.3l1.1-15.33c.02-.35-.19-.67-.53-.77-.29-.09-.6,0-.79,.23-.06,.03-.17,.07-.33,.11-.34,.08-.81,.16-1.41,.21-1.18,.11-2.72,.16-4.27,.13-1.55-.02-3.09-.11-4.27-.26-.59-.07-1.07-.16-1.41-.25-.17-.05-.28-.09-.34-.12h0Zm12.07,.15h0Zm-12.09-.16h0Zm.7,15.57l.07,.02c.29,.07,.71,.14,1.23,.2,1.03,.12,2.38,.19,3.73,.21,1.36,.01,2.7-.03,3.73-.15,.52-.06,.93-.13,1.21-.21,.05-.02,.09-.03,.13-.04l.99-13.78c-.39,.08-.84,.14-1.33,.19-1.25,.12-2.85,.17-4.44,.14-1.59-.02-3.18-.11-4.43-.27-.5-.06-.96-.14-1.35-.22l.45,13.93Zm10.27-.05h0Zm-10.51-.03h0Z"/><path class="cls-4" d="M107.76,100.17c.22-.16,.54-.11,.7,.11h0s.03,.03,.13,.08c.11,.05,.26,.11,.46,.17,.4,.12,.94,.22,1.59,.31,1.3,.18,2.96,.28,4.63,.3,1.67,.02,3.33-.03,4.63-.17,.65-.07,1.2-.16,1.6-.26,.2-.05,.36-.11,.47-.16,.1-.05,.13-.08,.14-.08h0c.17-.21,.49-.25,.7-.08,.22,.17,.25,.49,.08,.7-.13,.17-.33,.28-.5,.36-.18,.08-.4,.15-.64,.21-.47,.12-1.07,.22-1.75,.29-1.35,.14-3.06,.2-4.76,.18-1.7-.02-3.4-.13-4.75-.31-.67-.09-1.27-.2-1.74-.34-.23-.07-.45-.15-.63-.24-.17-.09-.36-.21-.49-.38-.16-.22-.11-.54,.11-.7Z"/><path class="cls-4" d="M108.62,102.72c-.15-.22-.46-.29-.68-.14-.23,.15-.3,.46-.15,.69,.12,.19,.31,.31,.47,.4,.18,.09,.38,.17,.61,.24,.45,.13,1.04,.24,1.7,.33,1.32,.18,2.99,.28,4.66,.3,1.67,.02,3.35-.03,4.67-.17,.66-.07,1.25-.16,1.7-.28,.23-.06,.44-.13,.62-.21,.17-.08,.36-.19,.49-.37,.16-.22,.11-.54-.12-.7-.22-.16-.53-.11-.69,.1,0,0-.03,.03-.11,.06-.1,.05-.25,.1-.44,.15-.39,.1-.92,.19-1.56,.26-1.27,.13-2.91,.19-4.55,.17-1.64-.02-3.28-.12-4.54-.29-.63-.09-1.16-.19-1.55-.3-.19-.06-.34-.11-.43-.16-.07-.04-.1-.06-.1-.06Z"/><path class="cls-4" d="M108.57,105.17c-.15-.22-.45-.29-.68-.14-.23,.15-.3,.46-.15,.69,.12,.19,.31,.31,.47,.4,.17,.09,.38,.17,.61,.24,.45,.13,1.04,.24,1.7,.33,1.32,.18,2.99,.28,4.66,.3,1.67,.02,3.35-.03,4.67-.17,.66-.07,1.25-.16,1.7-.28,.23-.06,.44-.13,.62-.21,.17-.08,.36-.19,.49-.37,.16-.22,.11-.54-.12-.7-.22-.16-.53-.11-.69,.11,0,0-.03,.03-.11,.06-.1,.05-.25,.1-.44,.15-.39,.1-.92,.19-1.56,.26-1.27,.13-2.91,.19-4.55,.17-1.64-.02-3.28-.12-4.54-.29-.63-.09-1.16-.19-1.55-.3-.19-.06-.34-.11-.43-.16-.07-.04-.1-.06-.1-.06Z"/><path class="cls-4" d="M108.54,107.63c-.15-.22-.45-.29-.68-.14-.23,.15-.3,.46-.15,.69,.12,.19,.31,.31,.47,.4,.17,.09,.38,.17,.61,.24,.45,.13,1.04,.24,1.7,.33,1.32,.18,2.99,.28,4.66,.3,1.67,.02,3.35-.03,4.67-.17,.66-.07,1.25-.16,1.7-.28,.23-.06,.44-.13,.62-.21,.17-.08,.36-.19,.49-.37,.16-.22,.11-.54-.12-.7-.22-.16-.53-.11-.69,.11,0,0-.03,.03-.11,.06-.1,.05-.25,.1-.44,.15-.39,.1-.92,.19-1.56,.25-1.27,.13-2.91,.19-4.55,.17-1.64-.02-3.28-.12-4.54-.29-.63-.09-1.16-.19-1.55-.3-.19-.06-.34-.11-.43-.16-.07-.04-.1-.06-.1-.06Z"/><path class="cls-4" d="M108.5,110.08c-.15-.22-.45-.29-.68-.14-.23,.15-.3,.46-.15,.69,.12,.19,.31,.31,.47,.4,.18,.09,.38,.17,.61,.24,.45,.13,1.04,.24,1.7,.33,1.32,.18,2.99,.28,4.66,.3,1.67,.02,3.35-.03,4.67-.17,.66-.07,1.25-.16,1.7-.28,.23-.06,.44-.13,.62-.21,.17-.08,.36-.19,.49-.37,.16-.22,.11-.54-.12-.7-.22-.16-.53-.11-.69,.11,0,0-.03,.03-.11,.06-.1,.05-.25,.1-.44,.15-.39,.1-.92,.19-1.56,.26-1.27,.13-2.91,.19-4.55,.17-1.64-.02-3.28-.12-4.54-.29-.63-.09-1.16-.19-1.55-.3-.19-.06-.34-.11-.43-.16-.07-.04-.1-.06-.1-.06Z"/><path class="cls-4" d="M119.39,11.03c.41,0,.74,.35,.74,.76l-.15,10.26c0,.41-.35,.74-.76,.74-.41,0-.74-.35-.74-.76l.15-10.26c0-.41,.35-.74,.76-.74Z"/><path class="cls-4" d="M114.25,10.96c.41,.01,.74,.36,.73,.77l-.31,10.25c-.01,.41-.36,.74-.77,.73-.41-.01-.74-.36-.73-.77l.31-10.25c.01-.41,.36-.74,.77-.73Z"/><path class="cls-4" d="M119.24,24.64c.41,.05,.71,.42,.66,.83-.11,.91,.09,1.49,.51,1.98,.47,.55,1.26,1.05,2.5,1.68,.37,.19,.52,.64,.33,1.01-.19,.37-.64,.52-1.01,.33-1.24-.63-2.28-1.24-2.96-2.04-.73-.85-1-1.86-.86-3.13,.05-.41,.42-.71,.83-.66Z"/><path class="cls-4" d="M113.61,24.61c.41-.04,.78,.25,.83,.67,.13,1.27-.14,2.27-.88,3.12-.69,.79-1.73,1.4-2.98,2.02-.37,.19-.82,.04-1.01-.33-.19-.37-.03-.82,.34-1.01,1.25-.62,2.04-1.12,2.52-1.66,.42-.49,.62-1.06,.52-1.98-.04-.41,.25-.78,.67-.82Z"/><path class="cls-4" d="M114.7,47.94c-.27,.45-.35,1-.35,1.3-.02,1.37-.06,3.87-.09,6.03-.02,1.08-.03,2.08-.04,2.8l-.02,1.18h-.75l-.75-.02,.02-1.18c.01-.72,.03-1.72,.04-2.8,.03-2.16,.07-4.66,.09-6.03,0-.44,.11-1.29,.57-2.05,.5-.82,1.39-1.48,2.8-1.46h0c1.43,.02,2.32,.71,2.81,1.54,.46,.78,.55,1.63,.54,2.06h0c-.02,1.42-.06,3.86-.1,5.93-.02,1.04-.04,1.99-.05,2.68l-.02,1.12h-.75l-.75-.03,.02-1.12c.01-.69,.03-1.64,.05-2.68,.04-2.08,.08-4.51,.1-5.92,0-.27-.06-.82-.33-1.28-.24-.41-.67-.79-1.54-.8-.85-.01-1.26,.35-1.5,.74Zm3.95,11.09h-.75c0,.4,.32,.74,.74,.75,.41,0,.76-.32,.76-.74h-.75Zm-5.22,.94c-.41,0-.75-.35-.74-.76h.75l.75,.02c0,.41-.35,.74-.76,.74Z"/><path class="cls-4" d="M.3,54.79c.25-.38,.67-.68,1.28-.65,.63,.03,1.04,.37,1.26,.76,.21,.37,.26,.77,.26,1.03,.02,1.86,.06,4.7,.09,7.5,.03,2.44,.06,4.85,.08,6.55,0,.27-.04,.7-.25,1.07-.11,.19-.26,.39-.49,.53-.23,.14-.5,.21-.81,.2h0c-.62-.03-1.03-.4-1.26-.79-.22-.37-.3-.79-.3-1.09-.04-2.98-.1-8.28-.15-12.02,0-.75-.02-1.44-.02-2.04h0c0-.29,.07-.7,.3-1.05Zm.88,.57c-.09,.14-.13,.34-.13,.46h0l.02,2.04c.05,3.73,.11,9.03,.15,12.02h0c0,.15,.05,.38,.16,.57,.1,.17,.22,.26,.4,.27,.11,0,.17-.02,.2-.04,.04-.02,.08-.07,.12-.14,.09-.16,.12-.38,.12-.54h0c-.02-1.71-.05-4.12-.08-6.56-.03-2.8-.07-5.63-.09-7.5h0c0-.16-.03-.37-.12-.52-.07-.12-.17-.22-.4-.23h0c-.11,0-.17,.02-.21,.04-.05,.03-.09,.07-.13,.13Z"/></svg>