<svg width="159" height="195" viewBox="0 0 159 195" fill="none" xmlns="http://www.w3.org/2000/svg">
<path fill-rule="evenodd" clip-rule="evenodd" d="M37.7416 58.6178C37.4698 58.3052 37.5029 57.8315 37.8155 57.5597L53.3097 44.0908C53.6223 43.8191 54.0961 43.8522 54.3678 44.1648L56.1917 46.2629C56.4634 46.5755 56.4303 47.0492 56.1177 47.321L40.6235 60.7899C40.3109 61.0616 39.8371 61.0285 39.5654 60.7159L37.7416 58.6178ZM39.3657 58.1997L40.2054 59.1658L54.5675 46.681L53.7278 45.7149L39.3657 58.1997Z" fill="black"/>
<path d="M55.316 49.7637L43.135 60.3525L66.1233 86.7976L78.3043 76.2088L55.316 49.7637Z" fill="black"/>
<path fill-rule="evenodd" clip-rule="evenodd" d="M42.7577 60.6806C42.5766 60.4722 42.5986 60.1564 42.807 59.9752L54.9881 49.3864C55.1965 49.2052 55.5123 49.2273 55.6935 49.4357L78.6818 75.8807C78.8629 76.0892 78.8408 76.405 78.6324 76.5861L66.4514 87.1749C66.243 87.3561 65.9272 87.334 65.746 87.1256L42.7577 60.6806ZM43.8405 60.4019L66.1727 86.0922L77.599 76.1595L55.2668 50.4691L43.8405 60.4019Z" fill="black"/>
<path fill-rule="evenodd" clip-rule="evenodd" d="M34.8042 11.0813C35.6681 10.9525 36.662 11.1473 37.4371 12.0438C38.2529 12.9851 38.2992 13.993 38 14.8324C37.7208 15.6158 37.1563 16.2272 36.7622 16.57C33.6271 19.2992 28.8471 23.4535 24.1355 27.5482C20.0274 31.1184 15.9714 34.6435 13.1031 37.1393C12.6791 37.5107 11.9542 37.993 11.119 38.1789C10.2388 38.3749 9.20263 38.2381 8.38384 37.2965L8.38302 37.2955C7.58366 36.3732 7.57366 35.3253 7.85854 34.4739C8.13209 33.6563 8.6842 32.9716 9.13793 32.5781C14.147 28.217 23.0467 20.4826 29.3331 15.0194C30.6148 13.9055 31.7879 12.886 32.7972 12.0088C33.2419 11.6207 33.9779 11.2045 34.8042 11.0813ZM35.0254 12.5649C34.5272 12.6392 34.0485 12.9075 33.7831 13.1393L33.7818 13.1404C32.7726 14.0175 31.5998 15.0368 30.3184 16.1504C24.0315 21.614 15.131 29.3491 10.1223 33.71L10.121 33.7111C9.82483 33.9678 9.45235 34.4378 9.28103 34.9498C9.12098 35.4282 9.1459 35.8851 9.51611 36.3126C9.89722 36.7506 10.3259 36.8188 10.793 36.7148C11.3046 36.6009 11.8092 36.2788 12.1153 36.0104L12.1174 36.0086C14.9882 33.5106 19.0449 29.985 23.1531 26.4146C27.8634 22.3211 32.6414 18.1686 35.7773 15.4387L35.7776 15.4384C36.0735 15.1811 36.4289 14.7727 36.5871 14.3288C36.7253 13.941 36.7267 13.5142 36.3031 13.0257L36.3024 13.0249C35.9276 12.5914 35.4865 12.4962 35.0254 12.5649Z" fill="black"/>
<path fill-rule="evenodd" clip-rule="evenodd" d="M73.4801 90.5057C73.2083 90.1931 73.2415 89.7194 73.5541 89.4477L79.9012 83.9302C80.2138 83.6584 80.6875 83.6916 80.9593 84.0042L82.2386 85.4759C82.5103 85.7885 82.4772 86.2622 82.1646 86.534L75.8175 92.0514C75.5049 92.3232 75.0312 92.29 74.7594 91.9774L73.4801 90.5057ZM75.1042 90.0877L75.3994 90.4273L80.6145 85.8939L80.3192 85.5543L75.1042 90.0877Z" fill="black"/>
<path fill-rule="evenodd" clip-rule="evenodd" d="M7.08772 14.0883C7.4003 13.8166 7.87402 13.8496 8.14581 14.1622L18.0758 25.5822C18.3476 25.8948 18.3146 26.3685 18.002 26.6403C17.6894 26.9121 17.2157 26.879 16.9439 26.5664L7.01388 15.1464C6.74209 14.8339 6.77515 14.3601 7.08772 14.0883Z" fill="black"/>
<path fill-rule="evenodd" clip-rule="evenodd" d="M14.5177 7.62838C14.8302 7.35659 15.304 7.38965 15.5757 7.70223L25.5057 19.1222C25.7775 19.4348 25.7445 19.9085 25.4319 20.1803C25.1193 20.4521 24.6456 20.419 24.3738 20.1065L14.4438 8.68647C14.172 8.37389 14.2051 7.90017 14.5177 7.62838Z" fill="black"/>
<path fill-rule="evenodd" clip-rule="evenodd" d="M19.7978 30.1083C20.1104 29.8365 20.5841 29.8697 20.8558 30.1823L42.1958 54.7323C42.4676 55.0449 42.4345 55.5186 42.1218 55.7904C41.8092 56.0621 41.3355 56.029 41.0638 55.7164L19.7238 31.1664C19.452 30.8537 19.4852 30.38 19.7978 30.1083Z" fill="black"/>
<path fill-rule="evenodd" clip-rule="evenodd" d="M28.6077 22.4485C28.9203 22.1767 29.394 22.2097 29.6658 22.5223L51.0158 47.0723C51.2876 47.3848 51.2546 47.8585 50.942 48.1304C50.6295 48.4022 50.1558 48.3692 49.8839 48.0566L28.5339 23.5066C28.2621 23.194 28.2951 22.7203 28.6077 22.4485Z" fill="black"/>
<path fill-rule="evenodd" clip-rule="evenodd" d="M31.7678 19.3082C32.0804 19.0365 32.5542 19.0696 32.8259 19.3823L81.9759 75.9323C82.2476 76.2449 82.2144 76.7186 81.9018 76.9903L66.3818 90.4803C66.0692 90.7521 65.5955 90.7189 65.3238 90.4063L16.2137 33.9063C15.942 33.5937 15.9752 33.12 16.2878 32.8482C16.6004 32.5765 17.0741 32.6096 17.3459 32.9223L65.9639 88.8562L80.3517 76.3502L31.6937 20.3663C31.422 20.0536 31.4552 19.5799 31.7678 19.3082Z" fill="black"/>
<path fill-rule="evenodd" clip-rule="evenodd" d="M81.7929 75.9247C82.1959 76.0203 82.4452 76.4244 82.3497 76.8275L80.3297 85.3475C80.2934 85.5003 80.2101 85.6379 80.0915 85.7408L75.2415 89.9509C75.1224 90.0543 74.9736 90.1175 74.8164 90.1315L66.1664 90.9015C65.7538 90.9382 65.3896 90.6335 65.3529 90.221C65.3161 89.8084 65.6208 89.4441 66.0334 89.4074L74.4416 88.659L78.9259 84.7664L80.8901 76.4814C80.9857 76.0784 81.3899 75.8291 81.7929 75.9247Z" fill="black"/>
<path fill-rule="evenodd" clip-rule="evenodd" d="M75.7645 91.1058C75.4928 90.7932 75.5259 90.3195 75.8385 90.0478L80.163 86.2885C80.4756 86.0168 80.9493 86.0499 81.221 86.3625L84.6588 90.3172C84.9305 90.6298 84.8974 91.1035 84.5848 91.3753L80.2603 95.1345C79.9477 95.4062 79.474 95.3731 79.2022 95.0605L75.7645 91.1058ZM77.3886 90.6878L79.8423 93.5104L83.0347 90.7353L80.581 87.9127L77.3886 90.6878Z" fill="black"/>
<path fill-rule="evenodd" clip-rule="evenodd" d="M80.4752 93.9437C80.2035 93.6311 80.2366 93.1574 80.5492 92.8856L82.3303 91.3374C82.6429 91.0656 83.1166 91.0987 83.3884 91.4113L85.7043 94.0755C85.976 94.3881 85.9429 94.8618 85.6303 95.1335L83.8492 96.6818C83.5366 96.9536 83.0628 96.9205 82.7911 96.6078L80.4752 93.9437ZM82.0993 93.5257L83.4311 95.0577L84.0801 94.4935L82.7483 92.9615L82.0993 93.5257Z" fill="black"/>
<path d="M84.6498 94.9944L110.55 125.574L83.8398 95.7044L84.6498 94.9944Z" fill="black"/>
<path fill-rule="evenodd" clip-rule="evenodd" d="M84.6684 94.7451C84.7352 94.75 84.7973 94.7817 84.8406 94.8328L110.741 125.413C110.829 125.517 110.817 125.673 110.714 125.763C110.611 125.853 110.455 125.843 110.363 125.741L83.6535 95.871C83.609 95.8213 83.5863 95.7558 83.5903 95.6892C83.5944 95.6226 83.6249 95.5604 83.6751 95.5164L84.4851 94.8064C84.5355 94.7622 84.6015 94.7401 84.6684 94.7451ZM84.1945 95.7259L98.3378 111.543L84.6234 95.35L84.1945 95.7259Z" fill="black"/>
<path fill-rule="evenodd" clip-rule="evenodd" d="M131.04 72.6738C131.433 72.5415 131.858 72.7524 131.991 73.1449C132.053 73.3308 132.223 73.6111 132.549 73.9762C132.866 74.3312 133.291 74.7238 133.804 75.1366C134.83 75.9617 136.16 76.8295 137.554 77.5976C138.949 78.3659 140.383 79.0211 141.614 79.4314C142.23 79.6367 142.778 79.7751 143.234 79.8395C143.705 79.9059 144.012 79.8838 144.183 79.8295C144.578 79.7044 145 79.9231 145.125 80.318C145.25 80.7128 145.031 81.1343 144.636 81.2594C144.153 81.4126 143.586 81.404 143.025 81.3248C142.45 81.2436 141.809 81.0775 141.14 80.8544C139.8 80.4078 138.281 79.7105 136.831 78.9114C135.38 78.112 133.973 77.1973 132.864 76.3055C132.31 75.8599 131.818 75.4104 131.43 74.9748C131.05 74.5494 130.727 74.0906 130.569 73.6241C130.437 73.2316 130.648 72.8061 131.04 72.6738Z" fill="black"/>
<path fill-rule="evenodd" clip-rule="evenodd" d="M148.587 47.5698C146.548 47.8242 144.739 49.0455 144.012 51.6276C143.997 51.6811 143.976 51.7327 143.949 51.7815L120.234 95.5722L120.306 95.989L131.3 101.981L131.647 101.814L155.712 57.7648C155.73 57.7309 155.751 57.6984 155.775 57.6677C158.127 54.6025 157.027 51.1855 154.707 49.604C154.679 49.5843 154.651 49.5627 154.625 49.5392C153.01 48.0703 150.674 47.3093 148.587 47.5698ZM155.596 48.3946C153.672 46.6662 150.924 45.7665 148.401 46.0814C145.834 46.4017 143.511 47.9857 142.592 51.1391L118.79 95.0872C118.71 95.2357 118.682 95.4071 118.711 95.5735L118.891 96.6035C118.93 96.8286 119.07 97.0235 119.271 97.1329L130.921 103.483C131.133 103.599 131.389 103.605 131.606 103.5L132.516 103.06C132.657 102.992 132.773 102.881 132.848 102.744L157.001 58.5338C159.867 54.7489 158.514 50.4178 155.596 48.3946Z" fill="black"/>
<path fill-rule="evenodd" clip-rule="evenodd" d="M154.209 60.4987C154.613 60.9372 154.954 61.4019 155.138 61.8703C155.289 62.2558 155.1 62.6911 154.714 62.8425C154.329 62.994 153.893 62.8042 153.742 62.4186C153.656 62.1995 153.455 61.8942 153.105 61.5143C152.764 61.1427 152.313 60.7361 151.777 60.3114C150.704 59.4624 149.33 58.5753 147.892 57.7886C146.455 57.0017 144.977 56.3276 143.703 55.8951C143.065 55.6788 142.493 55.528 142.012 55.4509C141.518 55.3719 141.177 55.3803 140.973 55.4317C140.571 55.5329 140.164 55.2893 140.063 54.8876C139.962 54.4859 140.205 54.0783 140.607 53.9771C141.098 53.8536 141.671 53.8773 142.249 53.9698C142.839 54.0643 143.497 54.2412 144.185 54.4747C145.562 54.9419 147.12 55.6559 148.613 56.4728C150.105 57.2899 151.554 58.2221 152.708 59.1353C153.285 59.5917 153.798 60.0519 154.209 60.4987Z" fill="black"/>
<path fill-rule="evenodd" clip-rule="evenodd" d="M149.069 69.9286C149.473 70.3671 149.814 70.8319 149.998 71.3002C150.15 71.6858 149.96 72.1211 149.574 72.2725C149.189 72.4239 148.753 72.2341 148.602 71.8485C148.516 71.6294 148.315 71.3241 147.966 70.9442C147.624 70.5727 147.174 70.166 146.637 69.7414C145.564 68.8923 144.19 68.0052 142.752 67.2185C141.315 66.4316 139.837 65.7575 138.563 65.3251C137.925 65.1087 137.353 64.9579 136.872 64.8809C136.378 64.8018 136.037 64.8102 135.833 64.8617C135.432 64.9628 135.024 64.7192 134.923 64.3175C134.822 63.9158 135.065 63.5082 135.467 63.4071C135.958 63.2835 136.531 63.3072 137.109 63.3997C137.699 63.4942 138.357 63.6711 139.045 63.9046C140.422 64.3719 141.98 65.0859 143.473 65.9027C144.965 66.7198 146.414 67.6521 147.568 68.5652C148.145 69.0216 148.658 69.4818 149.069 69.9286Z" fill="black"/>
<path d="M147.9 74.1343C146.82 71.3843 137.03 65.9943 134.25 66.6943L134.69 65.8843C138.14 65.6143 146.86 70.3743 148.34 73.3343L147.9 74.1343Z" fill="black"/>
<path fill-rule="evenodd" clip-rule="evenodd" d="M146.535 70.2966C147.633 71.1701 148.565 72.1065 149.011 72.999C149.121 73.2195 149.116 73.48 148.997 73.6959L148.557 74.4959C148.417 74.7508 148.142 74.9016 147.852 74.8829C147.562 74.8642 147.308 74.6794 147.202 74.4086C147.116 74.1895 146.915 73.8842 146.565 73.5043C146.224 73.1328 145.774 72.7261 145.237 72.3014C144.164 71.4524 142.79 70.5653 141.352 69.7786C139.915 68.9917 138.437 68.3176 137.163 67.8852C136.525 67.6688 135.953 67.518 135.472 67.441C134.978 67.3619 134.637 67.3703 134.433 67.4218C134.144 67.4945 133.84 67.3895 133.657 67.1543C133.475 66.919 133.449 66.5981 133.591 66.3365L134.031 65.5265C134.152 65.3032 134.378 65.1566 134.631 65.1368C135.651 65.0569 136.962 65.3457 138.313 65.8089C139.687 66.2797 141.185 66.9606 142.613 67.7399C144.041 68.519 145.415 69.4062 146.535 70.2966Z" fill="black"/>
<path d="M154.24 62.8643C153.16 60.1143 143.37 54.7243 140.59 55.4243L141.03 54.6143C144.48 54.3443 153.2 59.1043 154.68 62.0643L154.24 62.8643Z" fill="black"/>
<path fill-rule="evenodd" clip-rule="evenodd" d="M152.875 59.0266C153.973 59.9001 154.905 60.8365 155.351 61.7291C155.461 61.9495 155.456 62.21 155.337 62.4259L154.897 63.2259C154.757 63.4808 154.482 63.6316 154.192 63.6129C153.902 63.5942 153.648 63.4094 153.542 63.1386C153.456 62.9195 153.255 62.6142 152.906 62.2343C152.564 61.8627 152.114 61.4561 151.577 61.0314C150.504 60.1824 149.13 59.2953 147.692 58.5086C146.255 57.7217 144.777 57.0476 143.503 56.6151C142.865 56.3988 142.293 56.248 141.812 56.1709C141.318 56.0919 140.978 56.1003 140.773 56.1517C140.484 56.2244 140.18 56.1195 139.998 55.8842C139.815 55.649 139.789 55.3281 139.931 55.0664L140.371 54.2564C140.492 54.0332 140.718 53.8866 140.972 53.8667C141.991 53.7869 143.302 54.0757 144.653 54.5389C146.027 55.0097 147.526 55.6906 148.953 56.4699C150.381 57.249 151.755 58.1362 152.875 59.0266Z" fill="black"/>
<path fill-rule="evenodd" clip-rule="evenodd" d="M140.529 85.5885C140.933 86.027 141.274 86.4918 141.458 86.9601C141.61 87.3457 141.42 87.781 141.034 87.9324C140.649 88.0838 140.213 87.894 140.062 87.5084C139.976 87.2893 139.775 86.984 139.426 86.6041C139.084 86.2326 138.634 85.8259 138.097 85.4013C137.024 84.5522 135.65 83.6651 134.212 82.8784C132.775 82.0916 131.297 81.4174 130.023 80.985C129.385 80.7686 128.813 80.6178 128.332 80.5408C127.838 80.4617 127.497 80.4701 127.293 80.5216C126.891 80.6227 126.484 80.3791 126.383 79.9774C126.282 79.5757 126.525 79.1681 126.927 79.067C127.418 78.9434 127.991 78.9672 128.569 79.0596C129.159 79.1541 129.817 79.331 130.505 79.5645C131.882 80.0318 133.44 80.7458 134.933 81.5626C136.425 82.3797 137.874 83.312 139.028 84.2251C139.605 84.6815 140.118 85.1417 140.529 85.5885Z" fill="black"/>
<path fill-rule="evenodd" clip-rule="evenodd" d="M132.616 68.4862C133.001 68.3348 133.437 68.5246 133.588 68.9101C133.674 69.1293 133.875 69.4345 134.225 69.8144C134.566 70.186 135.017 70.5926 135.553 71.0173C136.626 71.8664 138 72.7534 139.438 73.5401C140.875 74.327 142.353 75.0011 143.627 75.4336C144.265 75.6499 144.837 75.8008 145.318 75.8778C145.812 75.9568 146.153 75.9484 146.357 75.897C146.759 75.7958 147.166 76.0395 147.267 76.4412C147.369 76.8428 147.125 77.2504 146.723 77.3516C146.233 77.4751 145.659 77.4514 145.081 77.3589C144.491 77.2645 143.833 77.0875 143.145 76.854C141.768 76.3868 140.21 75.6728 138.717 74.8559C137.225 74.0389 135.776 73.1066 134.622 72.1934C134.045 71.737 133.532 71.2769 133.121 70.83C132.717 70.3915 132.376 69.9268 132.192 69.4584C132.041 69.0729 132.23 68.6376 132.616 68.4862Z" fill="black"/>
<path opacity="0.98" d="M153.51 57.8044C161.29 53.1244 149.32 73.0944 148.74 74.9744C145.08 81.5144 141.5 91.3544 134.98 95.5144C131.29 98.1644 123.36 93.6244 123.87 89.1044C125.29 76.8444 134.73 65.9844 140.36 55.1144C141.19 53.7444 143.35 49.7844 145.15 51.6844C145.61 52.2344 145.91 53.2444 145.39 53.1544C144.67 52.6844 143.8 51.4844 143.1 52.6544C137.54 63.4544 127.25 76.4844 125.67 88.6944C127.18 97.2444 136.02 94.7744 139.47 88.7544C144.62 80.3344 151.02 67.9344 155.32 59.1444C155.55 57.9044 154.31 58.1244 153.51 57.8044Z" fill="black"/>
<path opacity="0.98" fill-rule="evenodd" clip-rule="evenodd" d="M140.796 55.3591C139.381 58.0901 137.729 60.8161 136.033 63.5506C135.69 64.1034 135.345 64.6563 135 65.2098C133.632 67.4043 132.259 69.6069 130.969 71.8384C127.737 77.428 125.065 83.1355 124.367 89.1611C124.257 90.1329 124.598 91.1424 125.279 92.0946C125.959 93.0463 126.96 93.9094 128.099 94.5647C129.239 95.2199 130.492 95.6533 131.665 95.7688C132.839 95.8845 133.893 95.6793 134.688 95.1082C134.696 95.1029 134.703 95.0978 134.711 95.0929C137.865 93.0807 140.34 89.6697 142.498 85.889C143.574 84.0038 144.563 82.0421 145.515 80.1345C145.591 79.9827 145.667 79.8312 145.742 79.6801C146.604 77.9533 147.44 76.2776 148.28 74.7721C148.384 74.4714 148.649 73.9336 148.986 73.2767C149.257 72.7473 149.593 72.1093 149.966 71.3992C150.1 71.1442 150.239 70.88 150.381 70.6081C151.464 68.5445 152.765 66.0301 153.804 63.7239C154.192 62.8644 154.541 62.038 154.828 61.278C150.57 69.8889 144.698 81.1648 139.9 89.0092C138.109 92.1305 134.909 94.3645 131.895 94.6853C130.375 94.8472 128.882 94.5215 127.666 93.5477C126.452 92.5756 125.57 91.0038 125.178 88.7814C125.169 88.7314 125.168 88.6805 125.174 88.6302C125.977 82.4237 128.987 76.0427 132.457 69.8997C133.906 67.3343 135.443 64.7991 136.939 62.3299C137.236 61.8393 137.532 61.3513 137.825 60.8663C139.484 58.1211 141.061 55.4679 142.389 52.9381C141.824 53.6382 141.328 54.4683 140.968 55.0725C140.907 55.1751 140.849 55.2712 140.796 55.3591ZM144.031 51.6822C144.196 51.7161 144.346 51.7802 144.474 51.8491C144.593 51.9127 144.708 51.989 144.817 52.0686C144.803 52.0509 144.79 52.0336 144.776 52.0169C144.603 51.8371 144.448 51.7485 144.316 51.7084C144.225 51.6808 144.131 51.6718 144.031 51.6822ZM155.63 58.1298C155.627 57.9178 155.595 57.7835 155.558 57.7062C155.526 57.6401 155.496 57.6199 155.444 57.607C155.37 57.589 155.223 57.585 154.97 57.6589C154.972 57.6593 154.973 57.6596 154.974 57.66C155.197 57.7421 155.451 57.8781 155.63 58.1298ZM144.607 50.7517C144.938 50.8525 145.241 51.053 145.513 51.3405C145.52 51.348 145.527 51.3557 145.534 51.3636C145.813 51.6977 146.041 52.1606 146.126 52.553C146.165 52.7338 146.197 52.9956 146.098 53.2325C146.042 53.3676 145.938 53.5048 145.769 53.5879C145.607 53.668 145.441 53.6706 145.305 53.6471C145.238 53.6355 145.174 53.6103 145.117 53.5731C144.936 53.4553 144.75 53.2997 144.587 53.1644C144.56 53.1418 144.534 53.1198 144.508 53.0987C144.312 52.9366 144.149 52.8095 144.001 52.7297C143.852 52.6498 143.787 52.6548 143.766 52.6597C143.754 52.6625 143.667 52.6847 143.537 52.8984C142.14 55.6107 140.449 58.458 138.681 61.3835C138.387 61.8708 138.09 62.3603 137.792 62.8518C136.296 65.3209 134.769 67.8407 133.328 70.3916C129.883 76.4901 126.968 82.7023 126.176 88.6823C126.544 90.6922 127.327 91.9952 128.291 92.7671C129.264 93.5466 130.48 93.8303 131.79 93.691C134.434 93.4095 137.377 91.4013 139.036 88.5058L139.043 88.4935C144.168 80.115 150.541 67.7728 154.839 58.9907C154.865 58.8016 154.83 58.7332 154.819 58.7164C154.806 58.6943 154.767 58.6496 154.629 58.5987C154.488 58.5468 154.315 58.5133 154.083 58.4683L154.067 58.4652C153.848 58.4226 153.575 58.3689 153.324 58.2686C153.148 58.1981 153.027 58.0338 153.012 57.8446C152.996 57.6554 153.09 57.4738 153.252 57.3759C153.757 57.0725 154.202 56.8561 154.59 56.7298C154.973 56.6055 155.346 56.5536 155.681 56.6357C156.045 56.7247 156.307 56.9572 156.459 57.2737C156.6 57.5672 156.639 57.9145 156.628 58.2634C156.607 58.9627 156.381 59.8607 156.046 60.8458C155.707 61.8414 155.242 62.9668 154.716 64.1348C153.663 66.4712 152.349 69.0093 151.267 71.0726C151.123 71.3471 150.983 71.6129 150.849 71.8687C150.476 72.5771 150.145 73.2084 149.875 73.7331C149.499 74.4677 149.274 74.9389 149.218 75.1218C149.207 75.1554 149.193 75.1879 149.176 75.2186C148.34 76.713 147.507 78.3826 146.635 80.1308C146.56 80.2804 146.485 80.4305 146.41 80.5812C145.458 82.4879 144.458 84.4725 143.367 86.3847C141.192 90.1948 138.621 93.7801 135.26 95.9287C134.212 96.6761 132.897 96.895 131.567 96.764C130.23 96.6323 128.841 96.1451 127.601 95.4316C126.36 94.7181 125.243 93.7644 124.465 92.6763C123.688 91.5891 123.228 90.3364 123.373 89.0483L123.373 89.0469C124.095 82.8128 126.853 76.9605 130.103 71.3379C131.403 69.0906 132.787 66.8699 134.156 64.674C134.5 64.1223 134.843 63.5721 135.183 63.0234C136.881 60.2863 138.518 57.5835 139.916 54.8844C139.921 54.8745 139.927 54.8648 139.932 54.8553C139.983 54.7722 140.039 54.6775 140.101 54.5734C140.53 53.852 141.228 52.6805 142.027 51.8306C142.481 51.3474 143.025 50.905 143.63 50.7431C143.942 50.6594 144.274 50.6503 144.607 50.7517Z" fill="black"/>
<path d="M119.359 96.0229L118.813 97.0237L131.068 103.708L131.614 102.708L119.359 96.0229Z" fill="black"/>
<path fill-rule="evenodd" clip-rule="evenodd" d="M118.693 97.2432C118.572 97.1771 118.527 97.0253 118.593 96.9041L119.139 95.9033C119.205 95.7821 119.357 95.7374 119.478 95.8035L131.734 102.488C131.855 102.554 131.9 102.706 131.834 102.827L131.288 103.828C131.222 103.949 131.07 103.994 130.949 103.928L118.693 97.2432ZM119.152 96.924L130.969 103.369L131.275 102.807L119.458 96.3622L119.152 96.924Z" fill="black"/>
<path fill-rule="evenodd" clip-rule="evenodd" d="M118.712 96.5053C118.91 96.1418 119.365 96.0077 119.729 96.2058L131.239 102.476C131.414 102.571 131.543 102.732 131.6 102.923C131.656 103.113 131.634 103.319 131.539 103.494L113.049 137.394C112.996 137.489 112.924 137.572 112.837 137.637C112.581 137.827 112.286 137.861 112.088 137.864C111.871 137.868 111.64 137.835 111.414 137.787C110.96 137.691 110.414 137.508 109.828 137.275C108.649 136.806 107.206 136.096 105.815 135.329C104.424 134.561 103.059 133.722 102.041 132.988C101.534 132.624 101.092 132.271 100.772 131.954C100.614 131.797 100.464 131.629 100.351 131.455C100.254 131.305 100.106 131.034 100.133 130.704C100.141 130.599 100.171 130.497 100.222 130.405L118.712 96.5053ZM119.67 97.8816L101.725 130.781C101.754 130.813 101.788 130.848 101.828 130.888C102.067 131.124 102.436 131.425 102.917 131.771C103.872 132.458 105.182 133.266 106.54 134.015C107.899 134.765 109.282 135.444 110.382 135.881C110.936 136.101 111.392 136.249 111.725 136.32C111.796 136.335 111.857 136.346 111.908 136.353L129.862 103.434L119.67 97.8816ZM112.094 136.362C112.094 136.362 112.091 136.363 112.085 136.363C112.091 136.362 112.094 136.362 112.094 136.362ZM101.595 130.613C101.596 130.613 101.598 130.617 101.601 130.625C101.597 130.617 101.595 130.613 101.595 130.613Z" fill="black"/>
<path fill-rule="evenodd" clip-rule="evenodd" d="M101.119 130.083C101.327 130.153 101.478 130.286 101.579 130.426C101.821 130.762 101.745 131.231 101.409 131.473C101.252 131.586 101.066 131.63 100.887 131.61C100.714 131.785 100.468 132.098 100.148 132.571C99.441 133.617 98.5021 135.258 97.4027 137.324C95.2088 141.448 92.4242 147.175 89.6589 153.002C87.6601 157.214 85.6751 161.471 83.934 165.205C83.267 166.635 82.6358 167.989 82.0533 169.234C81.0027 171.479 80.1095 173.374 79.4521 174.724C79.1239 175.398 78.8511 175.944 78.6454 176.331C78.5939 176.428 78.5453 176.518 78.5 176.599C78.6807 176.769 78.948 176.982 79.2915 177.227C80.0094 177.739 80.9862 178.338 82.0002 178.893C83.0149 179.448 84.0431 179.947 84.862 180.267C85.2698 180.426 85.6015 180.531 85.8422 180.581C85.8899 180.492 85.9448 180.393 86.0057 180.286C86.2214 179.907 86.5344 179.384 86.9268 178.744C87.7128 177.462 88.8326 175.682 90.1647 173.578C90.8464 172.502 91.584 171.339 92.3618 170.114C94.6263 166.545 97.231 162.441 99.7853 158.353C103.218 152.86 106.551 147.409 108.837 143.343C109.984 141.306 110.853 139.639 111.342 138.496C111.547 138.018 111.668 137.671 111.722 137.445C111.615 137.32 111.547 137.159 111.541 136.982C111.525 136.568 111.849 136.22 112.263 136.205C112.42 136.199 112.614 136.228 112.8 136.342C112.989 136.458 113.106 136.624 113.171 136.782C113.286 137.058 113.261 137.349 113.232 137.538C113.169 137.952 112.977 138.489 112.721 139.087C112.198 140.309 111.295 142.034 110.145 144.079C107.84 148.177 104.491 153.653 101.057 159.148C98.5 163.241 95.8908 167.352 93.6257 170.922C92.8487 172.146 92.1121 173.307 91.4321 174.381C90.0996 176.485 88.9853 178.256 88.2057 179.528C87.8154 180.165 87.5129 180.67 87.3099 181.027C87.2076 181.207 87.1362 181.34 87.0924 181.429C87.0833 181.447 87.0761 181.463 87.0705 181.475C87.0273 181.66 86.9146 181.824 86.7514 181.932C86.5199 182.083 86.2675 182.11 86.1 182.113C85.9177 182.115 85.7284 182.089 85.5486 182.052C85.1873 181.978 84.7629 181.838 84.3163 181.664C83.4171 181.313 82.3278 180.782 81.28 180.209C80.2315 179.635 79.2008 179.005 78.4206 178.449C78.0329 178.172 77.6883 177.9 77.4312 177.653C77.3036 177.529 77.18 177.396 77.082 177.256C76.9972 177.135 76.8651 176.918 76.8511 176.643C76.8402 176.43 76.9204 176.225 77.0665 176.077C77.0738 176.066 77.0837 176.051 77.0963 176.03C77.1488 175.944 77.223 175.812 77.3203 175.628C77.5135 175.264 77.7771 174.738 78.1035 174.067C78.7552 172.729 79.6439 170.844 80.6947 168.598C81.2757 167.356 81.906 166.005 82.5724 164.576C84.3142 160.84 86.3027 156.576 88.3038 152.359C91.0698 146.53 93.867 140.776 96.0784 136.62C97.1817 134.546 98.1513 132.847 98.9052 131.731C99.2753 131.183 99.6259 130.727 99.9396 130.441C100.086 130.308 100.302 130.136 100.572 130.067C100.722 130.028 100.915 130.014 101.119 130.083ZM77.0515 176.099C77.0416 176.113 77.0431 176.109 77.0551 176.094C77.0535 176.097 77.0523 176.098 77.0515 176.099ZM111.757 137.239C111.757 137.239 111.757 137.241 111.757 137.244C111.756 137.241 111.756 137.239 111.757 137.239ZM86.0925 180.612C86.0927 180.612 86.0902 180.613 86.0845 180.613C86.0895 180.612 86.0923 180.612 86.0925 180.612ZM78.3005 176.379C78.3007 176.379 78.303 176.382 78.3063 176.389C78.3019 176.382 78.3002 176.379 78.3005 176.379Z" fill="black"/>
<path fill-rule="evenodd" clip-rule="evenodd" d="M77.8126 175.877C78.2144 175.978 78.4584 176.385 78.3576 176.787L75.1588 189.534L76.8842 190.475L85.7375 180.827C86.0176 180.522 86.492 180.502 86.7972 180.782C87.1024 181.062 87.1228 181.536 86.8427 181.841L77.5927 191.922C77.3597 192.175 76.9835 192.238 76.681 192.073L73.931 190.573C73.6309 190.409 73.4795 190.063 73.5627 189.732L76.9027 176.422C77.0035 176.02 77.4109 175.776 77.8126 175.877Z" fill="black"/>
<path d="M74.62 190.094L73.78 194.304L76.73 191.244L74.62 190.094Z" fill="black"/>
<path fill-rule="evenodd" clip-rule="evenodd" d="M74.5141 189.868C74.5862 189.834 74.6699 189.837 74.7397 189.875L76.8497 191.025C76.9182 191.062 76.9653 191.129 76.9772 191.206C76.989 191.283 76.9642 191.362 76.91 191.418L73.96 194.478C73.883 194.558 73.7625 194.577 73.6642 194.526C73.5658 194.474 73.5132 194.364 73.5349 194.255L74.3749 190.045C74.3904 189.967 74.4421 189.901 74.5141 189.868ZM74.7987 190.476L74.1921 193.517L76.3225 191.307L74.7987 190.476Z" fill="black"/>
<path d="M93.8701 143.454C93.9101 144.674 104.38 150.404 105.44 149.734L97.3201 162.774C96.2701 163.494 87.1601 158.384 87.0701 157.424L93.8701 143.454Z" fill="black"/>
<path fill-rule="evenodd" clip-rule="evenodd" d="M94.6027 143.294C94.5408 143.011 94.3183 142.783 94.0265 142.721C93.6893 142.649 93.3466 142.816 93.1957 143.126L86.3957 157.096C86.3355 157.22 86.3105 157.358 86.3233 157.494C86.3508 157.787 86.5161 158.011 86.6026 158.119C86.7122 158.256 86.8502 158.392 86.9959 158.521C87.2897 158.781 87.6864 159.077 88.1391 159.386C89.0492 160.007 90.2525 160.727 91.4786 161.389C92.7032 162.051 93.9726 162.668 95.0147 163.076C95.5325 163.278 96.0196 163.44 96.4292 163.525C96.6331 163.567 96.8441 163.596 97.0443 163.593C97.2286 163.591 97.5006 163.56 97.7442 163.393C97.8296 163.334 97.902 163.259 97.9567 163.171L106.077 150.131C106.262 149.834 106.217 149.449 105.969 149.202C105.753 148.989 105.435 148.928 105.161 149.038C105.095 149.035 104.984 149.019 104.819 148.978C104.483 148.896 104.026 148.738 103.474 148.513C102.377 148.065 100.994 147.387 99.6314 146.645C98.2689 145.902 96.9483 145.107 95.974 144.429C95.4842 144.088 95.1008 143.79 94.8464 143.553C94.7193 143.435 94.6427 143.349 94.6027 143.294ZM105.204 149.038C105.204 149.038 105.201 149.038 105.193 149.039C105.2 149.038 105.204 149.038 105.204 149.038ZM94.5851 143.268C94.5808 143.261 94.5792 143.258 94.5795 143.258C94.5798 143.258 94.5819 143.262 94.5851 143.268ZM87.9395 157.352C87.9554 157.367 87.9725 157.382 87.9907 157.398C88.2164 157.598 88.5544 157.853 88.9848 158.147C89.841 158.732 90.9976 159.424 92.1916 160.07C93.387 160.715 94.5975 161.301 95.5617 161.679C96.047 161.869 96.4446 161.996 96.7345 162.056C96.7856 162.067 96.8302 162.075 96.8687 162.08L104.169 150.356C103.793 150.245 103.364 150.088 102.907 149.902C101.742 149.426 100.306 148.72 98.9137 147.962C97.5212 147.203 96.1505 146.379 95.1174 145.66C94.7043 145.373 94.3329 145.094 94.0317 144.836L87.9395 157.352ZM97.0449 162.092C97.0451 162.092 97.0425 162.093 97.0369 162.093C97.042 162.092 97.0448 162.092 97.0449 162.092ZM87.7632 157.168C87.7566 157.159 87.7541 157.155 87.7546 157.155C87.755 157.155 87.7583 157.159 87.7632 157.168Z" fill="black"/>
<path fill-rule="evenodd" clip-rule="evenodd" d="M99.2958 131.65C99.5689 131.609 99.8234 131.797 99.8644 132.07C99.8641 132.068 99.8639 132.067 99.864 132.067C99.8646 132.067 99.8766 132.11 99.9425 132.202C100.013 132.299 100.121 132.422 100.271 132.567C100.572 132.857 101.004 133.202 101.538 133.582C102.604 134.339 104.027 135.202 105.496 136C106.965 136.798 108.464 137.522 109.68 138.005C110.289 138.247 110.814 138.424 111.221 138.52C111.425 138.569 111.586 138.594 111.707 138.601C111.82 138.607 111.862 138.594 111.862 138.595C111.862 138.595 111.861 138.596 111.859 138.596C112.112 138.486 112.407 138.601 112.518 138.854C112.629 139.107 112.514 139.401 112.261 139.512C112.064 139.599 111.843 139.61 111.652 139.599C111.451 139.588 111.227 139.549 110.99 139.493C110.516 139.381 109.94 139.185 109.31 138.934C108.047 138.432 106.51 137.689 105.019 136.879C103.528 136.069 102.067 135.185 100.959 134.397C100.406 134.003 99.929 133.626 99.5772 133.287C99.4016 133.118 99.2474 132.949 99.1294 132.784C99.0172 132.627 98.9077 132.433 98.8755 132.219C98.8345 131.945 99.0227 131.691 99.2958 131.65Z" fill="black"/>
<path fill-rule="evenodd" clip-rule="evenodd" d="M98.8667 134.296C98.8353 134.027 98.5951 133.831 98.3243 133.856C98.0493 133.882 97.8469 134.125 97.8723 134.4C97.8927 134.622 98.0004 134.82 98.1069 134.973C98.2197 135.136 98.3691 135.301 98.5388 135.466C98.8791 135.797 99.3448 136.166 99.8852 136.55C100.969 137.321 102.405 138.19 103.87 138.985C105.336 139.78 106.846 140.511 108.081 141.002C108.697 141.247 109.258 141.438 109.718 141.546C109.948 141.6 110.166 141.637 110.362 141.645C110.545 141.653 110.768 141.64 110.965 141.541C111.212 141.417 111.311 141.116 111.187 140.869C111.065 140.627 110.772 140.527 110.528 140.642C110.523 140.642 110.488 140.65 110.405 140.646C110.295 140.641 110.143 140.619 109.947 140.573C109.556 140.481 109.046 140.31 108.451 140.073C107.264 139.601 105.791 138.889 104.347 138.106C102.904 137.323 101.505 136.475 100.465 135.735C99.9429 135.364 99.5236 135.029 99.2358 134.749C99.0915 134.609 98.991 134.493 98.9282 134.403C98.8806 134.334 98.8686 134.3 98.8667 134.296Z" fill="black"/>
<path fill-rule="evenodd" clip-rule="evenodd" d="M97.6866 136.456C97.6552 136.188 97.4149 135.992 97.1441 136.017C96.8691 136.042 96.6668 136.285 96.6921 136.56C96.7125 136.782 96.8202 136.98 96.9267 137.133C97.0396 137.296 97.1889 137.461 97.3587 137.626C97.6989 137.957 98.1646 138.326 98.705 138.711C99.789 139.481 101.225 140.35 102.69 141.145C104.156 141.941 105.666 142.671 106.901 143.162C107.517 143.407 108.078 143.598 108.538 143.706C108.768 143.76 108.986 143.797 109.182 143.805C109.365 143.813 109.588 143.8 109.785 143.701C110.032 143.577 110.131 143.276 110.007 143.03C109.884 142.787 109.592 142.687 109.348 142.802C109.343 142.802 109.308 142.81 109.225 142.806C109.115 142.802 108.963 142.779 108.767 142.733C108.375 142.641 107.866 142.47 107.271 142.233C106.083 141.761 104.61 141.05 103.167 140.266C101.724 139.483 100.325 138.636 99.2846 137.896C98.7627 137.524 98.3435 137.189 98.0556 136.909C97.9113 136.769 97.8108 136.653 97.748 136.563C97.7005 136.494 97.6885 136.46 97.6866 136.456Z" fill="black"/>
<path fill-rule="evenodd" clip-rule="evenodd" d="M96.5166 138.606C96.4852 138.337 96.245 138.142 95.9742 138.166C95.6992 138.192 95.4968 138.435 95.5222 138.71C95.5426 138.932 95.6503 139.13 95.7568 139.283C95.8696 139.446 96.019 139.611 96.1887 139.776C96.529 140.107 96.9947 140.476 97.5351 140.86C98.6191 141.631 100.055 142.5 101.52 143.295C102.986 144.09 104.496 144.821 105.731 145.312C106.347 145.557 106.908 145.748 107.368 145.856C107.598 145.91 107.816 145.947 108.012 145.955C108.195 145.963 108.418 145.95 108.615 145.851C108.862 145.727 108.961 145.426 108.837 145.179C108.714 144.937 108.422 144.837 108.178 144.952C108.173 144.952 108.138 144.96 108.055 144.956C107.945 144.951 107.793 144.929 107.597 144.883C107.205 144.791 106.696 144.62 106.101 144.383C104.914 143.911 103.441 143.199 101.997 142.416C100.554 141.633 99.1554 140.786 98.1147 140.045C97.5928 139.674 97.1735 139.339 96.8857 139.059C96.7414 138.919 96.6409 138.803 96.5781 138.713C96.5305 138.644 96.5185 138.61 96.5166 138.606Z" fill="black"/>
<path fill-rule="evenodd" clip-rule="evenodd" d="M95.3367 140.766C95.3053 140.497 95.0651 140.301 94.7943 140.326C94.5193 140.352 94.3169 140.595 94.3422 140.87C94.3627 141.092 94.4704 141.29 94.5768 141.443C94.6897 141.606 94.839 141.771 95.0088 141.936C95.3491 142.267 95.8147 142.636 96.3552 143.02C97.4392 143.791 98.8749 144.66 100.34 145.455C101.806 146.25 103.316 146.981 104.551 147.472C105.167 147.717 105.728 147.908 106.188 148.016C106.418 148.07 106.636 148.107 106.832 148.115C107.015 148.123 107.238 148.11 107.435 148.011C107.682 147.887 107.781 147.586 107.657 147.339C107.535 147.097 107.242 146.997 106.998 147.112C106.993 147.112 106.958 147.12 106.875 147.116C106.765 147.111 106.613 147.089 106.417 147.043C106.026 146.951 105.516 146.78 104.921 146.543C103.734 146.071 102.261 145.359 100.817 144.576C99.374 143.793 97.9754 142.945 96.9347 142.205C96.4128 141.834 95.9936 141.499 95.7058 141.219C95.5615 141.079 95.461 140.963 95.3982 140.873C95.3506 140.804 95.3386 140.77 95.3367 140.766Z" fill="black"/>
<path fill-rule="evenodd" clip-rule="evenodd" d="M151.109 58.1958C151.473 58.394 151.607 58.8496 151.409 59.2133L146.499 68.2233C146.3 68.587 145.845 68.7211 145.481 68.5229C145.117 68.3247 144.983 67.8692 145.181 67.5055L150.091 58.4955C150.29 58.1318 150.745 57.9976 151.109 58.1958Z" fill="black"/>
<path fill-rule="evenodd" clip-rule="evenodd" d="M146.589 55.7316C146.95 55.9355 147.077 56.393 146.873 56.7536L141.823 65.6836C141.619 66.0441 141.161 66.1711 140.801 65.9672C140.44 65.7633 140.313 65.3058 140.517 64.9452L145.567 56.0152C145.771 55.6547 146.229 55.5277 146.589 55.7316Z" fill="black"/>
<path fill-rule="evenodd" clip-rule="evenodd" d="M144.64 70.1528C144.983 70.3848 145.073 70.851 144.841 71.1942C144.325 71.9588 144.232 72.5542 144.375 73.1853C144.535 73.8887 145.002 74.701 145.804 75.8434C146.042 76.1825 145.96 76.6502 145.621 76.8882C145.282 77.1261 144.814 77.0441 144.576 76.7051C143.778 75.5675 143.145 74.5397 142.913 73.5181C142.664 72.4243 142.885 71.4097 143.599 70.3543C143.831 70.0111 144.297 69.9209 144.64 70.1528Z" fill="black"/>
<path fill-rule="evenodd" clip-rule="evenodd" d="M139.666 67.5068C140.051 67.659 140.24 68.0947 140.088 68.4799C139.617 69.67 138.901 70.4229 137.854 70.8266C136.878 71.2028 135.671 71.2491 134.287 71.2242C133.872 71.2168 133.543 70.875 133.55 70.4608C133.558 70.0467 133.899 69.717 134.314 69.7244C135.709 69.7495 136.643 69.6858 137.314 69.427C137.914 69.1957 138.353 68.7886 138.693 67.9287C138.845 67.5435 139.28 67.3546 139.666 67.5068Z" fill="black"/>
<path fill-rule="evenodd" clip-rule="evenodd" d="M129.76 88.6613C129.311 88.9286 128.99 89.3808 128.85 89.64L128.848 89.6437C128.193 90.8438 126.993 93.0414 125.957 94.9389L124.049 98.4327L124.048 98.4338L123.39 98.0744L122.732 97.7148L124.641 94.2199C125.676 92.3233 126.876 90.1271 127.531 88.9268C127.742 88.5355 128.225 87.8293 128.993 87.3725C129.815 86.8828 130.912 86.7163 132.159 87.3958C133.417 88.0808 133.877 89.1076 133.925 90.0666C133.971 90.9675 133.655 91.7647 133.452 92.1467L133.448 92.1539C132.768 93.3997 131.597 95.5329 130.597 97.3541C130.097 98.2648 129.64 99.0977 129.307 99.7029L128.768 100.685L128.767 100.686L128.11 100.324L127.453 99.963L127.993 98.9806C128.325 98.3755 128.783 97.5427 129.283 96.6322C130.282 94.8127 131.45 92.6834 132.13 91.4387C132.256 91.1993 132.454 90.6788 132.427 90.1421C132.403 89.6612 132.203 89.1281 131.441 88.713C130.688 88.3025 130.155 88.4259 129.76 88.6613ZM128.11 100.324L127.453 99.963C127.253 100.326 127.386 100.782 127.749 100.982C128.112 101.181 128.568 101.049 128.767 100.686L128.11 100.324ZM123.031 98.7326C122.667 98.5341 122.533 98.0783 122.732 97.7148L123.39 98.0744L124.048 98.4338C123.85 98.7973 123.394 98.9312 123.031 98.7326Z" fill="black"/>
<path d="M107.89 121.114L102.87 130.314C102.87 130.314 104.15 131.804 106.98 133.354C109.84 134.914 111.69 135.124 111.69 135.124L116.71 125.924L107.89 121.114Z" fill="black"/>
<path fill-rule="evenodd" clip-rule="evenodd" d="M107.671 120.995C107.737 120.873 107.889 120.829 108.01 120.895L116.83 125.705C116.888 125.737 116.931 125.79 116.95 125.854C116.969 125.917 116.961 125.986 116.93 126.044L111.91 135.244C111.861 135.333 111.763 135.384 111.662 135.373L111.69 135.124C111.662 135.373 111.662 135.373 111.662 135.373L111.659 135.372L111.654 135.372L111.635 135.369C111.619 135.367 111.596 135.364 111.566 135.359C111.507 135.35 111.42 135.335 111.307 135.312C111.081 135.267 110.753 135.19 110.335 135.064C109.5 134.811 108.306 134.362 106.86 133.574C105.43 132.79 104.388 132.02 103.703 131.444C103.36 131.157 103.107 130.917 102.938 130.748C102.853 130.664 102.79 130.597 102.747 130.551C102.726 130.528 102.71 130.51 102.699 130.498L102.686 130.483L102.682 130.479L102.681 130.478C102.681 130.478 102.681 130.477 102.87 130.314L102.681 130.478C102.613 130.399 102.601 130.286 102.651 130.195L107.671 120.995ZM103.175 130.277C103.207 130.31 103.246 130.349 103.291 130.394C103.45 130.554 103.694 130.783 104.025 131.062C104.687 131.618 105.701 132.369 107.1 133.135C108.514 133.906 109.676 134.342 110.48 134.585C110.882 134.706 111.195 134.78 111.406 134.822C111.463 134.834 111.513 134.843 111.555 134.85L116.371 126.024L107.99 121.453L103.175 130.277Z" fill="black"/>
<path fill-rule="evenodd" clip-rule="evenodd" d="M17.5184 0.434181C18.1527 0.347183 18.8789 0.521572 19.4163 1.21251C19.968 1.92035 19.9861 2.67009 19.7676 3.28302C19.566 3.84859 19.1751 4.27982 18.8994 4.52144C16.9147 6.28452 13.8892 8.96772 10.9073 11.6123C8.30725 13.9182 5.74029 16.1948 3.92517 17.8065C3.63656 18.0645 3.13538 18.4081 2.54472 18.535C2.23885 18.6007 1.88517 18.613 1.52346 18.4999C1.15475 18.3847 0.826687 18.1542 0.559678 17.8128L0.558923 17.8119C0.0112566 17.1094 0.0275372 16.3314 0.233048 15.7227C0.429485 15.1408 0.8092 14.6596 1.12595 14.3792C4.30314 11.5564 9.95266 6.54611 13.9333 3.01588C14.7357 2.30425 15.4703 1.65276 16.1032 1.09145L16.6009 1.65255L16.1019 1.09262C16.4154 0.813287 16.9308 0.514774 17.5184 0.434181ZM17.7222 1.92027C17.4844 1.95289 17.2359 2.09128 17.0998 2.21249L17.0985 2.21366C16.4657 2.77494 15.7312 3.42634 14.9289 4.13784C10.948 7.66831 5.29849 12.6786 2.1218 15.501L2.12052 15.5021C1.96271 15.6417 1.75248 15.9115 1.65424 16.2025C1.56495 16.4669 1.5819 16.6842 1.74162 16.8893C1.83733 17.0114 1.91725 17.0515 1.97098 17.0683C2.03181 17.0873 2.11504 17.0931 2.2296 17.0685C2.47908 17.0148 2.75234 16.8431 2.92607 16.6877L2.92817 16.6858C4.74569 15.0719 7.31337 12.7947 9.91364 10.4886C12.8953 7.84431 15.9198 5.16198 17.9053 3.39818L17.9096 3.39434L17.9096 3.39435C18.0768 3.24814 18.2697 3.01796 18.3547 2.77937C18.4234 2.58682 18.4306 2.38767 18.2329 2.13425L18.2323 2.13342C18.1396 2.0143 18.0553 1.96475 17.9896 1.94078C17.919 1.91504 17.8314 1.9053 17.7222 1.92027Z" fill="black"/>
</svg>
