<?xml version="1.0" encoding="utf-8"?>
<!-- Generator: Adobe Illustrator 26.3.1, SVG Export Plug-In . SVG Version: 6.00 Build 0)  -->
<svg version="1.1" id="Layer_1" xmlns="http://www.w3.org/2000/svg" xmlns:xlink="http://www.w3.org/1999/xlink" x="0px" y="0px"
	 viewBox="0 0 161 195" style="enable-background:new 0 0 161 195;" xml:space="preserve">
<style type="text/css">
	.st0{fill-rule:evenodd;clip-rule:evenodd;}
	.st1{opacity:0.98;enable-background:new    ;}
	.st2{opacity:0.98;fill-rule:evenodd;clip-rule:evenodd;enable-background:new    ;}
	.st3{fill-rule:evenodd;clip-rule:evenodd;fill:#FFFFFF;}
</style>
<path class="st0" d="M88.9,83.6c-0.3,0-0.5-0.2-0.5-0.4l0-4.2c0-0.2,0.2-0.4,0.5-0.4l1.4,0c0.3,0,0.5,0.2,0.5,0.4l0,4.2
	c0,0.2-0.2,0.4-0.5,0.4L88.9,83.6z M89.4,82.8l0.3,0l0-3.5l-0.3,0L89.4,82.8z"/>
<path class="st0" d="M85,75.7c0.2-0.1,0.6-0.1,0.7,0.1l3.6,3.6c0.1,0.1,0.1,0.1,0.1,0.2l0,3.2c0,0.1,0,0.2-0.1,0.2l-3.6,3.5
	c-0.2,0.2-0.5,0.2-0.7,0.1c-0.2-0.1-0.3-0.4-0.1-0.5l3.5-3.4l0-3l-3.5-3.5C84.7,76,84.7,75.8,85,75.7z"/>
<path class="st0" d="M90.3,82.9c-0.3,0-0.5-0.2-0.5-0.4l0-2.9c0-0.2,0.2-0.4,0.5-0.4l3.7,0c0.3,0,0.5,0.2,0.5,0.4l0,2.9
	c0,0.2-0.2,0.4-0.5,0.4L90.3,82.9z M90.8,82.2l2.6,0l0-2.1l-2.6,0L90.8,82.2z"/>
<path class="st0" d="M93.9,82.1c-0.3,0-0.5-0.2-0.5-0.4l0-1.2c0-0.2,0.2-0.4,0.5-0.4l2.5,0c0.3,0,0.5,0.2,0.5,0.4l0,1.2
	c0,0.2-0.2,0.4-0.5,0.4L93.9,82.1z M94.5,81.3l1.4,0l0-0.4l-1.4,0L94.5,81.3z"/>
<path class="st0" d="M96.3,80.9C96.4,80.8,96.4,80.8,96.3,80.9l18.4,0.2c0.1,0,0.1,0,0.1,0.1c0,0,0,0.1-0.1,0.1l-18.4,0.1
	c0,0-0.1,0-0.1,0c0,0,0,0,0-0.1L96.3,80.9C96.3,80.9,96.3,80.9,96.3,80.9z M96.5,81.2l9.8-0.1L96.5,81L96.5,81.2z"/>
<path class="st0" d="M114.3,43.8c0.3-0.3,0.8-0.3,1.1,0c0.2,0.1,0.5,0.3,0.9,0.5c0.5,0.2,1.1,0.3,1.8,0.5c1.4,0.3,3.1,0.4,4.8,0.5
	c1.7,0,3.4-0.1,4.7-0.3c0.7-0.1,1.3-0.3,1.7-0.4c0.5-0.2,0.8-0.3,0.9-0.5c0.3-0.3,0.8-0.3,1.1,0c0.3,0.3,0.3,0.8,0,1.1
	c-0.4,0.4-0.9,0.7-1.5,0.9c-0.6,0.2-1.3,0.4-2,0.5c-1.5,0.2-3.3,0.3-5,0.3c-1.8,0-3.5-0.2-5-0.5c-0.7-0.1-1.4-0.3-2-0.5
	c-0.6-0.2-1.1-0.5-1.5-0.8C114,44.6,113.9,44.1,114.3,43.8z"/>
<path class="st0" d="M118.3,11.4c-1.8,1.3-2.9,3.3-2.3,6.1c0,0.1,0,0.1,0,0.2l-0.7,53.1l0.3,0.4l13.4,0.2l0.2-0.3l0.8-53.5
	c0,0,0-0.1,0-0.1c0.7-4-2-6.7-5-7.1c0,0-0.1,0-0.1,0C122.8,9.7,120.2,10.1,118.3,11.4z M125.4,8.7c-2.7-0.7-5.7-0.2-7.9,1.4
	c-2.3,1.6-3.7,4.2-3,7.7L113.8,71c0,0.2,0.1,0.4,0.2,0.5l0.7,0.9c0.1,0.2,0.4,0.3,0.6,0.3l14.1,0.2c0.3,0,0.5-0.1,0.7-0.3l0.6-0.9
	c0.1-0.1,0.2-0.3,0.2-0.5l0.8-53.7C132.6,12.6,129.1,9.2,125.4,8.7z"/>
<path class="st0" d="M130.1,20.8c0.6,0.2,1.2,0.5,1.6,0.8c0.3,0.3,0.4,0.8,0.1,1.1c-0.3,0.3-0.8,0.4-1.1,0.1
	c-0.2-0.2-0.5-0.4-1.1-0.5c-0.5-0.2-1.1-0.3-1.9-0.5c-1.4-0.3-3.2-0.4-4.9-0.5c-1.7,0-3.5,0.1-4.9,0.3c-0.7,0.1-1.3,0.3-1.8,0.4
	c-0.5,0.2-0.8,0.3-1,0.5c-0.3,0.3-0.8,0.3-1.1-0.1c-0.3-0.3-0.3-0.8,0.1-1.1c0.4-0.4,1-0.6,1.5-0.8c0.6-0.2,1.3-0.4,2.1-0.5
	c1.5-0.2,3.4-0.3,5.2-0.3c1.8,0,3.6,0.2,5.2,0.5C128.8,20.4,129.5,20.6,130.1,20.8z"/>
<path class="st0" d="M129.9,32.2c0.6,0.2,1.2,0.5,1.6,0.8c0.3,0.3,0.4,0.8,0.1,1.1c-0.3,0.3-0.8,0.4-1.1,0.1
	c-0.2-0.2-0.5-0.4-1.1-0.5c-0.5-0.2-1.1-0.3-1.9-0.5c-1.4-0.3-3.2-0.4-4.9-0.5c-1.7,0-3.5,0.1-4.9,0.3c-0.7,0.1-1.3,0.3-1.8,0.4
	c-0.5,0.2-0.8,0.3-1,0.5c-0.3,0.3-0.8,0.3-1.1-0.1c-0.3-0.3-0.3-0.8,0.1-1.1c0.4-0.4,1-0.6,1.5-0.8c0.6-0.2,1.3-0.4,2.1-0.5
	c1.5-0.2,3.4-0.3,5.2-0.3c1.8,0,3.6,0.2,5.2,0.5C128.6,31.9,129.3,32,129.9,32.2z"/>
<path d="M130.9,36.8c-2.4-2.1-14.3-2.3-16.6-0.2l0-1c3.1-2,13.7-1.8,16.6,0.2L130.9,36.8z"/>
<path class="st0" d="M127.7,33.9c1.5,0.3,2.8,0.7,3.7,1.3c0.2,0.2,0.3,0.4,0.3,0.7l0,1c0,0.3-0.2,0.6-0.5,0.7
	c-0.3,0.1-0.6,0.1-0.9-0.1c-0.2-0.2-0.5-0.4-1.1-0.5c-0.5-0.2-1.1-0.3-1.9-0.5c-1.4-0.3-3.2-0.4-4.9-0.5c-1.7,0-3.5,0.1-4.9,0.3
	c-0.7,0.1-1.3,0.3-1.8,0.4c-0.5,0.2-0.8,0.3-1,0.5c-0.2,0.2-0.6,0.3-0.9,0.1c-0.3-0.1-0.5-0.4-0.5-0.7l0-1c0-0.3,0.1-0.5,0.4-0.7
	c0.9-0.6,2.3-1,3.8-1.2c1.5-0.2,3.3-0.3,5-0.3C124.5,33.4,126.2,33.6,127.7,33.9z"/>
<path d="M131.3,23c-2.4-2.1-14.3-2.3-16.6-0.2l0-1c3.1-2,13.7-1.8,16.6,0.2L131.3,23z"/>
<path class="st0" d="M128.1,20.1c1.5,0.3,2.8,0.7,3.7,1.3c0.2,0.2,0.3,0.4,0.3,0.7l0,1c0,0.3-0.2,0.6-0.5,0.7
	c-0.3,0.1-0.6,0.1-0.9-0.1c-0.2-0.2-0.5-0.4-1.1-0.5c-0.5-0.2-1.1-0.3-1.9-0.5c-1.4-0.3-3.2-0.4-4.9-0.5c-1.7,0-3.5,0.1-4.9,0.3
	c-0.7,0.1-1.3,0.3-1.8,0.4c-0.5,0.2-0.8,0.3-1,0.5c-0.2,0.2-0.6,0.3-0.9,0.1c-0.3-0.1-0.5-0.4-0.5-0.7l0-1c0-0.3,0.1-0.5,0.4-0.7
	c0.9-0.6,2.3-1,3.8-1.2c1.5-0.2,3.3-0.3,5-0.3C124.8,19.6,126.6,19.8,128.1,20.1z"/>
<path class="st0" d="M129.6,51.3c0.6,0.2,1.2,0.5,1.6,0.8c0.3,0.3,0.4,0.8,0.1,1.1c-0.3,0.3-0.8,0.4-1.1,0.1
	c-0.2-0.2-0.5-0.4-1.1-0.5c-0.5-0.2-1.1-0.3-1.9-0.5c-1.4-0.3-3.2-0.4-4.9-0.5c-1.7,0-3.5,0.1-4.9,0.3c-0.7,0.1-1.3,0.3-1.8,0.4
	c-0.5,0.2-0.8,0.3-1,0.5c-0.3,0.3-0.8,0.3-1.1-0.1c-0.3-0.3-0.3-0.8,0.1-1.1c0.4-0.4,1-0.6,1.5-0.8c0.6-0.2,1.3-0.4,2.1-0.5
	c1.5-0.2,3.4-0.3,5.2-0.3c1.8,0,3.6,0.2,5.2,0.5C128.3,50.9,129,51,129.6,51.3z"/>
<path class="st0" d="M113.7,39.1c0.3-0.3,0.8-0.4,1.1-0.1c0.2,0.2,0.5,0.4,1.1,0.5c0.5,0.2,1.1,0.3,1.9,0.5c1.4,0.3,3.2,0.4,4.9,0.5
	c1.7,0,3.5-0.1,4.9-0.3c0.7-0.1,1.3-0.3,1.8-0.4c0.5-0.2,0.8-0.3,1-0.5c0.3-0.3,0.8-0.3,1.1,0.1c0.3,0.3,0.3,0.8-0.1,1.1
	c-0.4,0.4-1,0.6-1.5,0.8c-0.6,0.2-1.3,0.4-2.1,0.5c-1.5,0.2-3.4,0.3-5.2,0.3c-1.8,0-3.6-0.2-5.2-0.5c-0.8-0.1-1.5-0.3-2.1-0.5
	c-0.6-0.2-1.2-0.5-1.6-0.8C113.4,39.9,113.4,39.4,113.7,39.1z"/>
<path class="st1" d="M128.1,18.6c5-8.3,3.6,16.5,4,18.5c-0.2,8,1.3,19-2.8,26.2c-2.2,4.3-11.9,4-13.7-0.5
	c-4.7-12.3-1.2-27.2-1.3-40.2c0.1-1.7,0.2-6.5,2.8-5.6c0.7,0.3,1.5,1.1,1,1.3c-0.9-0.1-2.3-0.8-2.4,0.7c0.1,13-3.1,30.3,1.4,42.6
	c5.6,7.3,12.9,0.5,13.1-6.8c0.7-10.5,0.6-25.4,0.3-35.8C130.1,17.7,129,18.5,128.1,18.6z"/>
<path class="st2" d="M114.9,22.6c0,3.3-0.2,6.7-0.4,10.1c0,0.7-0.1,1.4-0.1,2c-0.2,2.8-0.4,5.5-0.5,8.3c-0.3,6.9,0,13.6,2.4,19.6
	c0.4,1,1.2,1.7,2.3,2.3c1.1,0.6,2.5,0.9,3.9,0.9c1.4,0.1,2.8-0.2,4-0.6c1.2-0.5,2.1-1.2,2.5-2.1c0,0,0,0,0,0c2-3.5,2.6-7.9,2.8-12.5
	c0.1-2.3,0-4.7,0-6.9c0-0.2,0-0.4,0-0.6c0-2-0.1-4,0-5.8c-0.1-0.3-0.1-1-0.1-1.8c0-0.6,0-1.4,0-2.2c0-0.3,0-0.7,0-1
	c0-2.5,0-5.5-0.2-8.2c-0.1-1-0.1-2-0.3-2.9c0.3,10.2,0.3,23.8-0.3,33.6c-0.1,3.8-2,7.5-4.7,9.3c-1.4,0.9-2.9,1.4-4.6,1
	c-1.6-0.3-3.2-1.4-4.7-3.3c0,0-0.1-0.1-0.1-0.1c-2.3-6.3-2.6-13.8-2.4-21.3c0.1-3.2,0.3-6.3,0.5-9.4c0-0.6,0.1-1.2,0.1-1.8
	c0.2-3.4,0.4-6.7,0.4-9.7c-0.2,1-0.2,2-0.3,2.7C114.9,22.4,114.9,22.5,114.9,22.6z M116.1,17.5c0.2,0,0.3-0.1,0.5-0.1
	c0.1,0,0.3,0,0.4,0c0,0,0,0-0.1,0c-0.3-0.1-0.4-0.1-0.6-0.1C116.3,17.4,116.2,17.5,116.1,17.5z M130.3,17.9
	c-0.1-0.2-0.2-0.3-0.3-0.4c-0.1,0-0.1-0.1-0.2,0c-0.1,0-0.2,0.1-0.4,0.3c0,0,0,0,0,0C129.7,17.7,130,17.7,130.3,17.9z M116.2,16.4
	c0.4-0.1,0.7,0,1.1,0.1c0,0,0,0,0,0c0.4,0.2,0.9,0.5,1.2,0.8c0.1,0.2,0.3,0.4,0.3,0.7c0,0.2,0,0.3-0.1,0.5c-0.1,0.2-0.3,0.2-0.4,0.3
	c-0.1,0-0.1,0-0.2,0c-0.2,0-0.5-0.1-0.7-0.1c0,0-0.1,0-0.1,0c-0.3-0.1-0.5-0.1-0.7-0.1c-0.2,0-0.2,0-0.3,0c0,0-0.1,0.1-0.1,0.3
	c0,3.3-0.2,6.8-0.4,10.4c0,0.6-0.1,1.2-0.1,1.8c-0.2,3.1-0.4,6.2-0.5,9.4c-0.2,7.5,0.1,14.8,2.3,20.8c1.3,1.7,2.7,2.5,4,2.8
	c1.3,0.2,2.6-0.1,3.8-0.9c2.4-1.6,4.2-4.9,4.3-8.5c0,0,0,0,0,0c0.7-10.5,0.6-25.3,0.3-35.7c-0.1-0.2-0.1-0.2-0.1-0.2
	c0,0-0.1,0-0.3,0c-0.2,0-0.4,0.1-0.6,0.1c0,0,0,0,0,0c-0.2,0.1-0.5,0.1-0.7,0.2c-0.2,0-0.4-0.1-0.5-0.2c-0.1-0.2-0.1-0.4,0-0.6
	c0.3-0.5,0.6-1,0.9-1.3c0.3-0.3,0.6-0.5,1-0.6c0.4-0.1,0.8,0,1.1,0.2c0.3,0.2,0.5,0.5,0.7,0.8c0.3,0.7,0.6,1.6,0.7,2.7
	c0.2,1.1,0.3,2.4,0.4,3.8c0.2,2.7,0.2,5.8,0.2,8.3c0,0.3,0,0.7,0,1c0,0.8,0,1.6,0,2.2c0,0.9,0,1.4,0.1,1.6c0,0,0,0.1,0,0.1
	c0,1.8,0,3.8,0,5.8c0,0.2,0,0.4,0,0.6c0,2.3,0.1,4.6,0,7c-0.2,4.7-0.8,9.3-2.9,13c-0.6,1.2-1.7,2.1-3.1,2.6
	c-1.3,0.5-2.9,0.8-4.4,0.7c-1.5-0.1-3.1-0.4-4.3-1c-1.3-0.6-2.3-1.6-2.8-2.9l0,0c-2.4-6.2-2.7-13.1-2.4-20c0.1-2.8,0.3-5.6,0.5-8.3
	c0-0.7,0.1-1.4,0.1-2c0.2-3.4,0.4-6.8,0.4-10c0,0,0,0,0,0c0-0.1,0-0.2,0-0.3c0-0.9,0.1-2.4,0.5-3.6c0.2-0.7,0.5-1.4,1-1.8
	C115.5,16.6,115.8,16.4,116.2,16.4z"/>
<path d="M114.8,71.6l0,1.2l14.9,0.2l0-1.2L114.8,71.6z"/>
<path class="st0" d="M114.8,73.1c-0.1,0-0.3-0.1-0.3-0.3l0-1.2c0-0.1,0.1-0.3,0.3-0.3l14.9,0.2c0.1,0,0.3,0.1,0.3,0.3l0,1.2
	c0,0.1-0.1,0.3-0.3,0.3L114.8,73.1z M115.1,72.6l14.4,0.2l0-0.7l-14.4-0.2L115.1,72.6z"/>
<path class="st0" d="M114.4,72.4c0-0.4,0.4-0.8,0.8-0.8l14,0.2c0.2,0,0.4,0.1,0.6,0.2c0.1,0.2,0.2,0.4,0.2,0.6l-0.6,41.2
	c0,0.3-0.2,0.6-0.5,0.7l-0.3-0.7c0.3,0.7,0.3,0.7,0.3,0.7l0,0l0,0l0,0l0,0l0,0c0,0-0.1,0-0.1,0c-0.1,0-0.2,0.1-0.4,0.1
	c-0.3,0.1-0.8,0.3-1.4,0.4c-1.2,0.3-3,0.5-5.3,0.5c-2.3,0-4.1-0.3-5.4-0.7c-0.6-0.2-1.1-0.3-1.5-0.4c-0.2-0.1-0.3-0.1-0.4-0.1
	c0,0-0.1,0-0.1,0l0,0l0,0l0,0l0,0c0,0,0,0,0.3-0.7l-0.3,0.7c-0.3-0.1-0.5-0.4-0.5-0.7L114.4,72.4z M115.4,113
	c0.3,0.1,0.7,0.2,1.3,0.4c1.2,0.3,2.9,0.6,5.1,0.6c2.2,0,3.8-0.2,4.9-0.5c0.5-0.1,0.9-0.2,1.1-0.3l0.6-39.8L116,73.2L115.4,113z"/>
<path class="st0" d="M115.5,113.2c0.2,0.4,0.1,0.9-0.3,1.1c-0.2,0.1-0.5,0.4-0.6,0.9c-0.2,0.5-0.2,1-0.1,1.5c0,0,0,0.1,0,0.1l1.8,51
	c0,0,0,0,0,0c0.3,0.1,0.6,0.1,1.1,0.2c0.9,0.1,2.1,0.2,3.4,0.2c1.2,0,2.5,0,3.4-0.1c0.5-0.1,0.8-0.1,1.1-0.2c0-0.1,0-0.2,0-0.4
	c0-0.5,0.1-1.1,0.1-1.9c0.1-1.6,0.3-3.8,0.5-6.5c0.1-1.4,0.2-2.8,0.4-4.4c0.4-4.5,0.8-9.6,1.2-14.7c0.5-6.9,0.9-13.7,1.1-18.7
	c0.1-2.5,0.1-4.5,0-5.8c0-0.6-0.1-0.9-0.2-1.2c-0.2-0.1-0.3-0.2-0.4-0.3c-0.2-0.4-0.1-0.9,0.3-1.1c0.1-0.1,0.3-0.2,0.6-0.1
	c0.2,0,0.4,0.1,0.6,0.2c0.2,0.2,0.4,0.5,0.4,0.7c0.1,0.4,0.2,1,0.3,1.7c0.1,1.4,0.1,3.5,0,6c-0.1,5-0.6,11.8-1.1,18.7
	c-0.4,5.1-0.8,10.3-1.2,14.7c-0.1,1.6-0.2,3-0.4,4.4c-0.2,2.6-0.4,4.9-0.5,6.5c-0.1,0.8-0.1,1.4-0.1,1.9c0,0.2,0,0.4,0,0.5
	c0,0,0,0,0,0.1c0.1,0.2,0,0.4-0.1,0.6c-0.1,0.3-0.4,0.4-0.5,0.5c-0.2,0.1-0.4,0.2-0.5,0.2c-0.4,0.1-0.8,0.2-1.4,0.2
	c-1,0.1-2.3,0.2-3.6,0.1c-1.3,0-2.6-0.1-3.6-0.2c-0.5-0.1-1-0.2-1.3-0.3c-0.2-0.1-0.4-0.1-0.5-0.2c-0.1-0.1-0.4-0.2-0.5-0.5
	c-0.1-0.1-0.1-0.2-0.1-0.4l-1.8-51.4c-0.1-0.8,0-1.6,0.2-2.3c0.2-0.7,0.7-1.4,1.3-1.8C114.7,112.7,115.2,112.8,115.5,113.2z
	 M128.1,114.2C128.1,114.2,128.1,114.2,128.1,114.2C128.1,114.2,128.1,114.2,128.1,114.2z M125.4,167.9
	C125.4,167.9,125.4,167.9,125.4,167.9C125.4,167.9,125.4,167.9,125.4,167.9z M116,167.8C116,167.8,116,167.8,116,167.8
	C116,167.8,116,167.8,116,167.8z"/>
<path class="st0" d="M115.3,167.6c0.4-0.1,0.9,0.2,1,0.6l3.3,13.6l2.1,0l3.6-13.5c0.1-0.4,0.5-0.7,1-0.6s0.7,0.6,0.6,1l-3.7,14.1
	c-0.1,0.4-0.4,0.6-0.8,0.6l-3.3,0c-0.4,0-0.7-0.3-0.8-0.6l-3.5-14.2C114.6,168.1,114.8,167.7,115.3,167.6z"/>
<path d="M119.3,182.6l1.3,4.4l1.3-4.3L119.3,182.6z"/>
<path class="st0" d="M119.1,182.4c0.1-0.1,0.1-0.1,0.2-0.1l2.6,0c0.1,0,0.2,0,0.2,0.1c0,0.1,0.1,0.2,0,0.2l-1.3,4.3
	c0,0.1-0.1,0.2-0.3,0.2s-0.2-0.1-0.3-0.2l-1.3-4.4C119,182.5,119,182.5,119.1,182.4z M119.7,182.8l0.9,3.2l0.9-3.1L119.7,182.8z"/>
<path d="M114.3,129c0.7,1.1,13.4,1.3,14,0.2l-1.2,16.3c-0.6,1.2-11.8,0.9-12.3,0.1L114.3,129z"/>
<path class="st0" d="M114.9,128.5c-0.2-0.2-0.5-0.3-0.8-0.2c-0.4,0.1-0.6,0.4-0.6,0.8l0.5,16.6c0,0.1,0,0.3,0.1,0.4
	c0.2,0.3,0.4,0.4,0.6,0.5c0.2,0.1,0.4,0.1,0.6,0.2c0.4,0.1,0.9,0.2,1.5,0.2c1.2,0.1,2.7,0.2,4.1,0.2c1.5,0,3,0,4.2-0.2
	c0.6-0.1,1.1-0.2,1.6-0.3c0.2-0.1,0.4-0.1,0.6-0.2c0.2-0.1,0.4-0.3,0.6-0.5c0.1-0.1,0.1-0.2,0.1-0.3l1.2-16.3c0-0.4-0.2-0.7-0.6-0.8
	c-0.3-0.1-0.6,0-0.8,0.2c-0.1,0-0.2,0.1-0.4,0.1c-0.4,0.1-0.9,0.2-1.5,0.2c-1.3,0.1-2.9,0.2-4.6,0.1c-1.7,0-3.3-0.1-4.6-0.3
	c-0.6-0.1-1.1-0.2-1.5-0.3C115.1,128.6,115,128.5,114.9,128.5C114.9,128.5,114.9,128.5,114.9,128.5z M127.8,128.6
	C127.8,128.6,127.8,128.6,127.8,128.6C127.8,128.6,127.8,128.6,127.8,128.6z M114.9,128.5C114.9,128.5,114.9,128.5,114.9,128.5
	C114.9,128.5,114.9,128.5,114.9,128.5z M115.6,145.1C115.7,145.1,115.7,145.1,115.6,145.1c0.4,0.1,0.8,0.2,1.4,0.2
	c1.1,0.1,2.5,0.2,4,0.2c1.4,0,2.9,0,4-0.2c0.6-0.1,1-0.1,1.3-0.2c0.1,0,0.1,0,0.1,0l1.1-14.7c-0.4,0.1-0.9,0.1-1.4,0.2
	c-1.3,0.1-3,0.2-4.7,0.2c-1.7,0-3.4-0.1-4.7-0.3c-0.5-0.1-1-0.1-1.4-0.2L115.6,145.1z M126.6,145C126.6,145,126.6,145,126.6,145
	C126.6,145,126.6,145,126.6,145z M115.4,145C115.4,145,115.4,145,115.4,145C115.4,145,115.4,145,115.4,145z"/>
<path class="st0" d="M113.6,115.2c0.2-0.2,0.6-0.1,0.7,0.1c0,0,0,0,0,0c0,0,0,0,0.1,0.1c0.1,0.1,0.3,0.1,0.5,0.2
	c0.4,0.1,1,0.2,1.7,0.3c1.4,0.2,3.2,0.3,4.9,0.3c1.8,0,3.6,0,4.9-0.2c0.7-0.1,1.3-0.2,1.7-0.3c0.2-0.1,0.4-0.1,0.5-0.2
	c0.1-0.1,0.1-0.1,0.1-0.1c0,0,0,0,0,0c0.2-0.2,0.5-0.3,0.7-0.1c0.2,0.2,0.3,0.5,0.1,0.7c-0.1,0.2-0.3,0.3-0.5,0.4
	c-0.2,0.1-0.4,0.2-0.7,0.2c-0.5,0.1-1.1,0.2-1.9,0.3c-1.4,0.2-3.3,0.2-5.1,0.2c-1.8,0-3.6-0.1-5.1-0.3c-0.7-0.1-1.4-0.2-1.9-0.4
	c-0.2-0.1-0.5-0.2-0.7-0.3c-0.2-0.1-0.4-0.2-0.5-0.4C113.3,115.7,113.3,115.4,113.6,115.2z"/>
<path class="st0" d="M114.5,117.9c-0.2-0.2-0.5-0.3-0.7-0.1c-0.2,0.2-0.3,0.5-0.2,0.7c0.1,0.2,0.3,0.3,0.5,0.4
	c0.2,0.1,0.4,0.2,0.7,0.3c0.5,0.1,1.1,0.3,1.8,0.4c1.4,0.2,3.2,0.3,5,0.3c1.8,0,3.6,0,5-0.2c0.7-0.1,1.3-0.2,1.8-0.3
	c0.2-0.1,0.5-0.1,0.7-0.2c0.2-0.1,0.4-0.2,0.5-0.4c0.2-0.2,0.1-0.6-0.1-0.7c-0.2-0.2-0.6-0.1-0.7,0.1c0,0,0,0-0.1,0.1
	c-0.1,0.1-0.3,0.1-0.5,0.2c-0.4,0.1-1,0.2-1.7,0.3c-1.4,0.1-3.1,0.2-4.9,0.2c-1.8,0-3.5-0.1-4.8-0.3c-0.7-0.1-1.2-0.2-1.6-0.3
	c-0.2-0.1-0.4-0.1-0.5-0.2C114.5,117.9,114.5,117.9,114.5,117.9z"/>
<path class="st0" d="M114.4,120.5c-0.2-0.2-0.5-0.3-0.7-0.1c-0.2,0.2-0.3,0.5-0.2,0.7c0.1,0.2,0.3,0.3,0.5,0.4
	c0.2,0.1,0.4,0.2,0.7,0.3c0.5,0.1,1.1,0.3,1.8,0.4c1.4,0.2,3.2,0.3,5,0.3c1.8,0,3.6,0,5-0.2c0.7-0.1,1.3-0.2,1.8-0.3
	c0.2-0.1,0.5-0.1,0.7-0.2c0.2-0.1,0.4-0.2,0.5-0.4c0.2-0.2,0.1-0.6-0.1-0.7c-0.2-0.2-0.6-0.1-0.7,0.1c0,0,0,0-0.1,0.1
	c-0.1,0.1-0.3,0.1-0.5,0.2c-0.4,0.1-1,0.2-1.7,0.3c-1.4,0.1-3.1,0.2-4.9,0.2c-1.8,0-3.5-0.1-4.8-0.3c-0.7-0.1-1.2-0.2-1.6-0.3
	c-0.2-0.1-0.4-0.1-0.5-0.2C114.5,120.5,114.4,120.5,114.4,120.5z"/>
<path class="st0" d="M114.4,123.1c-0.2-0.2-0.5-0.3-0.7-0.1c-0.2,0.2-0.3,0.5-0.2,0.7c0.1,0.2,0.3,0.3,0.5,0.4
	c0.2,0.1,0.4,0.2,0.7,0.3c0.5,0.1,1.1,0.3,1.8,0.4c1.4,0.2,3.2,0.3,5,0.3c1.8,0,3.6,0,5-0.2c0.7-0.1,1.3-0.2,1.8-0.3
	c0.2-0.1,0.5-0.1,0.7-0.2c0.2-0.1,0.4-0.2,0.5-0.4c0.2-0.2,0.1-0.6-0.1-0.7c-0.2-0.2-0.6-0.1-0.7,0.1c0,0,0,0-0.1,0.1
	c-0.1,0.1-0.3,0.1-0.5,0.2c-0.4,0.1-1,0.2-1.7,0.3c-1.4,0.1-3.1,0.2-4.9,0.2c-1.8,0-3.5-0.1-4.8-0.3c-0.7-0.1-1.2-0.2-1.6-0.3
	c-0.2-0.1-0.4-0.1-0.5-0.2C114.4,123.1,114.4,123.1,114.4,123.1z"/>
<path class="st0" d="M114.4,125.7c-0.2-0.2-0.5-0.3-0.7-0.1c-0.2,0.2-0.3,0.5-0.2,0.7c0.1,0.2,0.3,0.3,0.5,0.4
	c0.2,0.1,0.4,0.2,0.7,0.3c0.5,0.1,1.1,0.3,1.8,0.4c1.4,0.2,3.2,0.3,5,0.3c1.8,0,3.6,0,5-0.2c0.7-0.1,1.3-0.2,1.8-0.3
	c0.2-0.1,0.5-0.1,0.7-0.2c0.2-0.1,0.4-0.2,0.5-0.4c0.2-0.2,0.1-0.6-0.1-0.7c-0.2-0.2-0.6-0.1-0.7,0.1c0,0,0,0-0.1,0.1
	c-0.1,0.1-0.3,0.1-0.5,0.2c-0.4,0.1-1,0.2-1.7,0.3c-1.4,0.1-3.1,0.2-4.9,0.2c-1.8,0-3.5-0.1-4.8-0.3c-0.7-0.1-1.2-0.2-1.6-0.3
	c-0.2-0.1-0.4-0.1-0.5-0.2C114.4,125.8,114.4,125.7,114.4,125.7z"/>
<path class="st0" d="M126,20.2c0.4,0,0.8,0.4,0.8,0.8l-0.2,10.9c0,0.4-0.4,0.8-0.8,0.8c-0.4,0-0.8-0.4-0.8-0.8l0.2-10.9
	C125.2,20.5,125.6,20.2,126,20.2z"/>
<path class="st0" d="M120.5,20.1c0.4,0,0.8,0.4,0.8,0.8L121,31.8c0,0.4-0.4,0.8-0.8,0.8c-0.4,0-0.8-0.4-0.8-0.8l0.3-10.9
	C119.7,20.4,120.1,20.1,120.5,20.1z"/>
<path class="st0" d="M125.8,34.7c0.4,0.1,0.8,0.4,0.7,0.9c-0.1,1,0.1,1.6,0.5,2.1c0.5,0.6,1.3,1.1,2.7,1.8c0.4,0.2,0.6,0.7,0.3,1.1
	c-0.2,0.4-0.7,0.6-1.1,0.3c-1.3-0.7-2.4-1.3-3.2-2.2c-0.8-0.9-1.1-2-0.9-3.3C125,34.9,125.4,34.6,125.8,34.7z"/>
<path class="st0" d="M119.8,34.6c0.4,0,0.8,0.3,0.9,0.7c0.1,1.4-0.2,2.4-0.9,3.3c-0.7,0.8-1.8,1.5-3.2,2.2c-0.4,0.2-0.9,0-1.1-0.4
	c-0.2-0.4,0-0.9,0.4-1.1c1.3-0.7,2.2-1.2,2.7-1.8c0.4-0.5,0.7-1.1,0.6-2.1C119.1,35.1,119.4,34.7,119.8,34.6z"/>
<path class="st0" d="M121,59.5c-0.3,0.5-0.4,1.1-0.4,1.4c0,1.5-0.1,4.1-0.1,6.4c0,1.2,0,2.2,0,3l0,1.3l-0.8,0l-0.8,0l0-1.3
	c0-0.8,0-1.8,0-3c0-2.3,0.1-5,0.1-6.4c0-0.5,0.1-1.4,0.6-2.2c0.5-0.9,1.5-1.6,3-1.6l0,0c1.5,0,2.5,0.8,3,1.6
	c0.5,0.8,0.6,1.7,0.6,2.2l0,0c0,1.5-0.1,4.1-0.1,6.3c0,1.1,0,2.1-0.1,2.9l0,1.2l-0.8,0l-0.8,0l0-1.2c0-0.7,0-1.7,0.1-2.9
	c0-2.2,0.1-4.8,0.1-6.3c0-0.3-0.1-0.9-0.4-1.4c-0.3-0.4-0.7-0.8-1.6-0.9C121.7,58.7,121.3,59.1,121,59.5z M125.2,71.3l-0.8,0
	c0,0.4,0.3,0.8,0.8,0.8c0.4,0,0.8-0.3,0.8-0.8L125.2,71.3z M119.6,72.3c-0.4,0-0.8-0.4-0.8-0.8l0.8,0l0.8,0
	C120.5,72,120.1,72.4,119.6,72.3z"/>
<path d="M116.8,74.2l-0.6,37.9c-0.2,0.8,10.9,1,10.7,0.2l0.6-37.9L116.8,74.2z"/>
<path class="st0" d="M116.6,74.2c0-0.1,0.1-0.3,0.3-0.3l10.7,0.2c0.1,0,0.1,0,0.2,0.1c0,0.1,0.1,0.1,0.1,0.2l-0.6,37.9
	c0,0.2-0.1,0.3-0.2,0.4c-0.1,0.1-0.2,0.1-0.4,0.1c-0.3,0.1-0.7,0.1-1.2,0.2c-1,0.1-2.4,0.1-3.8,0.1c-1.4,0-2.7-0.1-3.8-0.2
	c-0.5-0.1-0.9-0.1-1.2-0.2c-0.2,0-0.3-0.1-0.4-0.2c-0.1-0.1-0.2-0.2-0.2-0.4L116.6,74.2z M117.1,74.5l-0.6,37.6c0,0,0.1,0,0.2,0.1
	c0.3,0.1,0.7,0.1,1.2,0.2c1,0.1,2.4,0.2,3.7,0.2s2.7,0,3.7-0.1c0.5,0,0.9-0.1,1.2-0.2c0.1,0,0.2,0,0.2-0.1l0.6-37.6L117.1,74.5z
	 M126.8,112.2C126.8,112.2,126.8,112.2,126.8,112.2L126.8,112.2z M116.5,112C116.5,112,116.5,112,116.5,112
	C116.5,112,116.5,112,116.5,112z"/>
<path class="st3" d="M117.4,73.4c0.3,0.1,0.4,0.4,0.3,0.7c0,0.1,0,0.3,0,0.6c0,0.3,0.1,0.7,0.2,1.1c0.2,0.9,0.5,1.9,0.8,2.9
	c0.4,1,0.8,2,1.2,2.8c0.2,0.4,0.4,0.7,0.6,0.9c0.2,0.3,0.4,0.4,0.5,0.4c0.3,0.1,0.4,0.5,0.2,0.7c-0.1,0.3-0.5,0.4-0.7,0.2
	c-0.3-0.2-0.6-0.4-0.8-0.7c-0.2-0.3-0.5-0.7-0.7-1.1c-0.5-0.8-0.9-1.9-1.3-2.9c-0.4-1-0.7-2.1-0.9-3c-0.1-0.5-0.2-0.9-0.2-1.2
	c0-0.3,0-0.7,0.1-1C116.8,73.5,117.1,73.4,117.4,73.4z"/>
<path class="st3" d="M122.5,103.1c0.1-0.3,0.5-0.4,0.7-0.2c0.3,0.2,0.6,0.4,0.8,0.7c0.2,0.3,0.5,0.7,0.7,1.1
	c0.5,0.8,0.9,1.9,1.3,2.9c0.4,1,0.7,2.1,0.9,3c0.1,0.5,0.2,0.9,0.2,1.2c0,0.4,0,0.7-0.1,1c-0.1,0.3-0.4,0.4-0.7,0.3
	c-0.3-0.1-0.4-0.4-0.3-0.7c0-0.1,0-0.3,0-0.6c0-0.3-0.1-0.7-0.2-1.1c-0.2-0.8-0.5-1.9-0.8-2.9c-0.4-1-0.8-2-1.2-2.8
	c-0.2-0.4-0.4-0.7-0.6-0.9c-0.2-0.3-0.4-0.4-0.5-0.4C122.5,103.7,122.4,103.4,122.5,103.1z"/>
<path class="st3" d="M127.1,73.5c0.3,0,0.5,0.2,0.5,0.5c0,3-1.2,5.4-2.7,7.6c-0.8,1.1-1.6,2.1-2.5,3c-0.2,0.2-0.3,0.4-0.5,0.6
	c-0.7,0.8-1.3,1.5-1.9,2.2c-1.5,1.9-2.6,3.7-2.6,5.7c-0.1,2.1,0.9,4.5,3.7,7.7c0.2,0.2,0.2,0.6,0,0.8c-0.2,0.2-0.6,0.2-0.8,0
	c-2.9-3.3-4-6-4-8.4c0.1-2.4,1.3-4.5,2.9-6.4c0.6-0.8,1.3-1.5,2-2.3c0.2-0.2,0.3-0.4,0.5-0.6c0.8-0.9,1.7-1.9,2.4-2.9
	c1.5-2,2.5-4.2,2.5-6.9C126.6,73.8,126.8,73.5,127.1,73.5z"/>
<path class="st3" d="M122.8,85.1c0.2-0.2,0.6-0.2,0.8,0c2.9,3.3,4,6,3.9,8.5c-0.1,2.4-1.4,4.5-2.9,6.4c-0.6,0.7-1.3,1.5-1.9,2.2
	c-0.2,0.2-0.4,0.4-0.5,0.6c-0.8,0.9-1.7,1.9-2.4,2.9c-1.4,2-2.5,4.2-2.4,6.9c0,0.3-0.2,0.5-0.5,0.5c-0.3,0-0.5-0.2-0.5-0.5
	c-0.1-3,1.1-5.4,2.6-7.5c0.8-1.1,1.6-2,2.5-3c0.2-0.2,0.4-0.4,0.6-0.6c0.7-0.7,1.3-1.5,1.9-2.2c1.5-1.9,2.6-3.7,2.7-5.8
	c0.1-2.1-0.8-4.6-3.7-7.7C122.5,85.6,122.5,85.3,122.8,85.1z"/>
<path class="st3" d="M120.6,80.2c0-0.1,0.1-0.3,0.3-0.3l2.5,0c0.1,0,0.3,0.1,0.3,0.3c0,0.1-0.1,0.3-0.3,0.3l-2.5,0
	C120.7,80.5,120.6,80.4,120.6,80.2z"/>
<path class="st3" d="M119.4,77.9c0-0.1,0.1-0.3,0.3-0.3l5,0.1c0.1,0,0.3,0.1,0.3,0.3c0,0.1-0.1,0.3-0.3,0.3l-5-0.1
	C119.5,78.2,119.4,78.1,119.4,77.9z"/>
<path class="st3" d="M118.9,75.7c0-0.1,0.1-0.3,0.3-0.3l6.1,0.1c0.1,0,0.3,0.1,0.3,0.3c0,0.1-0.1,0.3-0.3,0.3l-6.1-0.1
	C119,75.9,118.9,75.8,118.9,75.7z"/>
<path class="st3" d="M120.2,97.6c0-0.1,0.1-0.3,0.3-0.3l2.5,0c0.1,0,0.3,0.1,0.3,0.3c0,0.1-0.1,0.3-0.3,0.3l-2.5,0
	C120.3,97.8,120.2,97.7,120.2,97.6z"/>
<path class="st3" d="M119,95.3c0-0.1,0.1-0.3,0.3-0.3l5,0.1c0.1,0,0.3,0.1,0.3,0.3c0,0.1-0.1,0.3-0.3,0.3l-5-0.1
	C119.1,95.6,119,95.4,119,95.3z"/>
<path class="st3" d="M118.5,93c0-0.1,0.1-0.3,0.3-0.3l6.1,0.1c0.1,0,0.3,0.1,0.3,0.3c0,0.1-0.1,0.3-0.3,0.3l-6.1-0.1
	C118.6,93.3,118.5,93.2,118.5,93z"/>
<path class="st3" d="M120.2,106.4c0-0.1,0.1-0.3,0.3-0.3l2.5,0c0.1,0,0.3,0.1,0.3,0.3c0,0.1-0.1,0.3-0.3,0.3l-2.5,0
	C120.3,106.6,120.2,106.5,120.2,106.4z"/>
<path class="st3" d="M118.9,108.6c0-0.1,0.1-0.3,0.3-0.3l5,0.1c0.1,0,0.3,0.1,0.3,0.3c0,0.1-0.1,0.3-0.3,0.3l-5-0.1
	C119,108.9,118.9,108.8,118.9,108.6z"/>
<path class="st3" d="M120.4,88.6c0-0.1,0.1-0.3,0.3-0.3l2.5,0c0.1,0,0.3,0.1,0.3,0.3c0,0.1-0.1,0.3-0.3,0.3l-2.5,0
	C120.6,88.8,120.4,88.7,120.4,88.6z"/>
<path class="st3" d="M119.1,90.8c0-0.1,0.1-0.3,0.3-0.3l5,0.1c0.1,0,0.3,0.1,0.3,0.3c0,0.1-0.1,0.3-0.3,0.3l-5-0.1
	C119.3,91.1,119.1,91,119.1,90.8z"/>
<path class="st3" d="M118.4,110.8c0-0.1,0.1-0.3,0.3-0.3l6.1,0.1c0.1,0,0.3,0.1,0.3,0.3c0,0.1-0.1,0.3-0.3,0.3l-6.1-0.1
	C118.5,111.1,118.4,111,118.4,110.8z"/>
<path class="st0" d="M114.3,43.8c0.3-0.3,0.8-0.3,1.1,0c0.2,0.1,0.5,0.3,0.9,0.5c0.5,0.2,1.1,0.3,1.8,0.5c1.4,0.3,3.1,0.4,4.8,0.5
	c1.7,0,3.4-0.1,4.7-0.3c0.7-0.1,1.3-0.3,1.7-0.4c0.5-0.2,0.8-0.3,0.9-0.5c0.3-0.3,0.8-0.3,1.1,0c0.3,0.3,0.3,0.8,0,1.1
	c-0.4,0.4-0.9,0.7-1.5,0.9c-0.6,0.2-1.3,0.4-2,0.5c-1.5,0.2-3.3,0.3-5,0.3c-1.8,0-3.5-0.2-5-0.5c-0.7-0.1-1.4-0.3-2-0.5
	c-0.6-0.2-1.1-0.5-1.5-0.8C114,44.6,113.9,44.1,114.3,43.8z"/>
<path class="st0" d="M118.3,11.4c-1.8,1.3-2.9,3.3-2.3,6.1c0,0.1,0,0.1,0,0.2l-0.7,53.1l0.3,0.4l13.4,0.2l0.2-0.3l0.8-53.5
	c0,0,0-0.1,0-0.1c0.7-4-2-6.7-5-7.1c0,0-0.1,0-0.1,0C122.8,9.7,120.2,10.1,118.3,11.4z M125.4,8.7c-2.7-0.7-5.7-0.2-7.9,1.4
	c-2.3,1.6-3.7,4.2-3,7.7L113.8,71c0,0.2,0.1,0.4,0.2,0.5l0.7,0.9c0.1,0.2,0.4,0.3,0.6,0.3l14.1,0.2c0.3,0,0.5-0.1,0.7-0.3l0.6-0.9
	c0.1-0.1,0.2-0.3,0.2-0.5l0.8-53.7C132.6,12.6,129.1,9.2,125.4,8.7z"/>
<path class="st0" d="M130.1,20.8c0.6,0.2,1.2,0.5,1.6,0.8c0.3,0.3,0.4,0.8,0.1,1.1c-0.3,0.3-0.8,0.4-1.1,0.1
	c-0.2-0.2-0.5-0.4-1.1-0.5c-0.5-0.2-1.1-0.3-1.9-0.5c-1.4-0.3-3.2-0.4-4.9-0.5c-1.7,0-3.5,0.1-4.9,0.3c-0.7,0.1-1.3,0.3-1.8,0.4
	c-0.5,0.2-0.8,0.3-1,0.5c-0.3,0.3-0.8,0.3-1.1-0.1c-0.3-0.3-0.3-0.8,0.1-1.1c0.4-0.4,1-0.6,1.5-0.8c0.6-0.2,1.3-0.4,2.1-0.5
	c1.5-0.2,3.4-0.3,5.2-0.3c1.8,0,3.6,0.2,5.2,0.5C128.8,20.4,129.5,20.6,130.1,20.8z"/>
<path class="st0" d="M129.9,32.2c0.6,0.2,1.2,0.5,1.6,0.8c0.3,0.3,0.4,0.8,0.1,1.1c-0.3,0.3-0.8,0.4-1.1,0.1
	c-0.2-0.2-0.5-0.4-1.1-0.5c-0.5-0.2-1.1-0.3-1.9-0.5c-1.4-0.3-3.2-0.4-4.9-0.5c-1.7,0-3.5,0.1-4.9,0.3c-0.7,0.1-1.3,0.3-1.8,0.4
	c-0.5,0.2-0.8,0.3-1,0.5c-0.3,0.3-0.8,0.3-1.1-0.1c-0.3-0.3-0.3-0.8,0.1-1.1c0.4-0.4,1-0.6,1.5-0.8c0.6-0.2,1.3-0.4,2.1-0.5
	c1.5-0.2,3.4-0.3,5.2-0.3c1.8,0,3.6,0.2,5.2,0.5C128.6,31.9,129.3,32,129.9,32.2z"/>
<path d="M130.9,36.8c-2.4-2.1-14.3-2.3-16.6-0.2l0-1c3.1-2,13.7-1.8,16.6,0.2L130.9,36.8z"/>
<path class="st0" d="M127.7,33.9c1.5,0.3,2.8,0.7,3.7,1.3c0.2,0.2,0.3,0.4,0.3,0.7l0,1c0,0.3-0.2,0.6-0.5,0.7
	c-0.3,0.1-0.6,0.1-0.9-0.1c-0.2-0.2-0.5-0.4-1.1-0.5c-0.5-0.2-1.1-0.3-1.9-0.5c-1.4-0.3-3.2-0.4-4.9-0.5c-1.7,0-3.5,0.1-4.9,0.3
	c-0.7,0.1-1.3,0.3-1.8,0.4c-0.5,0.2-0.8,0.3-1,0.5c-0.2,0.2-0.6,0.3-0.9,0.1c-0.3-0.1-0.5-0.4-0.5-0.7l0-1c0-0.3,0.1-0.5,0.4-0.7
	c0.9-0.6,2.3-1,3.8-1.2c1.5-0.2,3.3-0.3,5-0.3C124.5,33.4,126.2,33.6,127.7,33.9z"/>
<path d="M131.3,23c-2.4-2.1-14.3-2.3-16.6-0.2l0-1c3.1-2,13.7-1.8,16.6,0.2L131.3,23z"/>
<path class="st0" d="M128.1,20.1c1.5,0.3,2.8,0.7,3.7,1.3c0.2,0.2,0.3,0.4,0.3,0.7l0,1c0,0.3-0.2,0.6-0.5,0.7
	c-0.3,0.1-0.6,0.1-0.9-0.1c-0.2-0.2-0.5-0.4-1.1-0.5c-0.5-0.2-1.1-0.3-1.9-0.5c-1.4-0.3-3.2-0.4-4.9-0.5c-1.7,0-3.5,0.1-4.9,0.3
	c-0.7,0.1-1.3,0.3-1.8,0.4c-0.5,0.2-0.8,0.3-1,0.5c-0.2,0.2-0.6,0.3-0.9,0.1c-0.3-0.1-0.5-0.4-0.5-0.7l0-1c0-0.3,0.1-0.5,0.4-0.7
	c0.9-0.6,2.3-1,3.8-1.2c1.5-0.2,3.3-0.3,5-0.3C124.8,19.6,126.6,19.8,128.1,20.1z"/>
<path class="st0" d="M129.6,51.3c0.6,0.2,1.2,0.5,1.6,0.8c0.3,0.3,0.4,0.8,0.1,1.1c-0.3,0.3-0.8,0.4-1.1,0.1
	c-0.2-0.2-0.5-0.4-1.1-0.5c-0.5-0.2-1.1-0.3-1.9-0.5c-1.4-0.3-3.2-0.4-4.9-0.5c-1.7,0-3.5,0.1-4.9,0.3c-0.7,0.1-1.3,0.3-1.8,0.4
	c-0.5,0.2-0.8,0.3-1,0.5c-0.3,0.3-0.8,0.3-1.1-0.1c-0.3-0.3-0.3-0.8,0.1-1.1c0.4-0.4,1-0.6,1.5-0.8c0.6-0.2,1.3-0.4,2.1-0.5
	c1.5-0.2,3.4-0.3,5.2-0.3c1.8,0,3.6,0.2,5.2,0.5C128.3,50.9,129,51,129.6,51.3z"/>
<path class="st0" d="M113.7,39.1c0.3-0.3,0.8-0.4,1.1-0.1c0.2,0.2,0.5,0.4,1.1,0.5c0.5,0.2,1.1,0.3,1.9,0.5c1.4,0.3,3.2,0.4,4.9,0.5
	c1.7,0,3.5-0.1,4.9-0.3c0.7-0.1,1.3-0.3,1.8-0.4c0.5-0.2,0.8-0.3,1-0.5c0.3-0.3,0.8-0.3,1.1,0.1c0.3,0.3,0.3,0.8-0.1,1.1
	c-0.4,0.4-1,0.6-1.5,0.8c-0.6,0.2-1.3,0.4-2.1,0.5c-1.5,0.2-3.4,0.3-5.2,0.3c-1.8,0-3.6-0.2-5.2-0.5c-0.8-0.1-1.5-0.3-2.1-0.5
	c-0.6-0.2-1.2-0.5-1.6-0.8C113.4,39.9,113.4,39.4,113.7,39.1z"/>
<path class="st1" d="M128.1,18.6c5-8.3,3.6,16.5,4,18.5c-0.2,8,1.3,19-2.8,26.2c-2.2,4.3-11.9,4-13.7-0.5
	c-4.7-12.3-1.2-27.2-1.3-40.2c0.1-1.7,0.2-6.5,2.8-5.6c0.7,0.3,1.5,1.1,1,1.3c-0.9-0.1-2.3-0.8-2.4,0.7c0.1,13-3.1,30.3,1.4,42.6
	c5.6,7.3,12.9,0.5,13.1-6.8c0.7-10.5,0.6-25.4,0.3-35.8C130.1,17.7,129,18.5,128.1,18.6z"/>
<path class="st2" d="M114.9,22.6c0,3.3-0.2,6.7-0.4,10.1c0,0.7-0.1,1.4-0.1,2c-0.2,2.8-0.4,5.5-0.5,8.3c-0.3,6.9,0,13.6,2.4,19.6
	c0.4,1,1.2,1.7,2.3,2.3c1.1,0.6,2.5,0.9,3.9,0.9c1.4,0.1,2.8-0.2,4-0.6c1.2-0.5,2.1-1.2,2.5-2.1c0,0,0,0,0,0c2-3.5,2.6-7.9,2.8-12.5
	c0.1-2.3,0-4.7,0-6.9c0-0.2,0-0.4,0-0.6c0-2-0.1-4,0-5.8c-0.1-0.3-0.1-1-0.1-1.8c0-0.6,0-1.4,0-2.2c0-0.3,0-0.7,0-1
	c0-2.5,0-5.5-0.2-8.2c-0.1-1-0.1-2-0.3-2.9c0.3,10.2,0.3,23.8-0.3,33.6c-0.1,3.8-2,7.5-4.7,9.3c-1.4,0.9-2.9,1.4-4.6,1
	c-1.6-0.3-3.2-1.4-4.7-3.3c0,0-0.1-0.1-0.1-0.1c-2.3-6.3-2.6-13.8-2.4-21.3c0.1-3.2,0.3-6.3,0.5-9.4c0-0.6,0.1-1.2,0.1-1.8
	c0.2-3.4,0.4-6.7,0.4-9.7c-0.2,1-0.2,2-0.3,2.7C114.9,22.4,114.9,22.5,114.9,22.6z M116.1,17.5c0.2,0,0.3-0.1,0.5-0.1
	c0.1,0,0.3,0,0.4,0c0,0,0,0-0.1,0c-0.3-0.1-0.4-0.1-0.6-0.1C116.3,17.4,116.2,17.5,116.1,17.5z M130.3,17.9
	c-0.1-0.2-0.2-0.3-0.3-0.4c-0.1,0-0.1-0.1-0.2,0c-0.1,0-0.2,0.1-0.4,0.3c0,0,0,0,0,0C129.7,17.7,130,17.7,130.3,17.9z M116.2,16.4
	c0.4-0.1,0.7,0,1.1,0.1c0,0,0,0,0,0c0.4,0.2,0.9,0.5,1.2,0.8c0.1,0.2,0.3,0.4,0.3,0.7c0,0.2,0,0.3-0.1,0.5c-0.1,0.2-0.3,0.2-0.4,0.3
	c-0.1,0-0.1,0-0.2,0c-0.2,0-0.5-0.1-0.7-0.1c0,0-0.1,0-0.1,0c-0.3-0.1-0.5-0.1-0.7-0.1c-0.2,0-0.2,0-0.3,0c0,0-0.1,0.1-0.1,0.3
	c0,3.3-0.2,6.8-0.4,10.4c0,0.6-0.1,1.2-0.1,1.8c-0.2,3.1-0.4,6.2-0.5,9.4c-0.2,7.5,0.1,14.8,2.3,20.8c1.3,1.7,2.7,2.5,4,2.8
	c1.3,0.2,2.6-0.1,3.8-0.9c2.4-1.6,4.2-4.9,4.3-8.5c0,0,0,0,0,0c0.7-10.5,0.6-25.3,0.3-35.7c-0.1-0.2-0.1-0.2-0.1-0.2
	c0,0-0.1,0-0.3,0c-0.2,0-0.4,0.1-0.6,0.1c0,0,0,0,0,0c-0.2,0.1-0.5,0.1-0.7,0.2c-0.2,0-0.4-0.1-0.5-0.2c-0.1-0.2-0.1-0.4,0-0.6
	c0.3-0.5,0.6-1,0.9-1.3c0.3-0.3,0.6-0.5,1-0.6c0.4-0.1,0.8,0,1.1,0.2c0.3,0.2,0.5,0.5,0.7,0.8c0.3,0.7,0.6,1.6,0.7,2.7
	c0.2,1.1,0.3,2.4,0.4,3.8c0.2,2.7,0.2,5.8,0.2,8.3c0,0.3,0,0.7,0,1c0,0.8,0,1.6,0,2.2c0,0.9,0,1.4,0.1,1.6c0,0,0,0.1,0,0.1
	c0,1.8,0,3.8,0,5.8c0,0.2,0,0.4,0,0.6c0,2.3,0.1,4.6,0,7c-0.2,4.7-0.8,9.3-2.9,13c-0.6,1.2-1.7,2.1-3.1,2.6
	c-1.3,0.5-2.9,0.8-4.4,0.7c-1.5-0.1-3.1-0.4-4.3-1c-1.3-0.6-2.3-1.6-2.8-2.9l0,0c-2.4-6.2-2.7-13.1-2.4-20c0.1-2.8,0.3-5.6,0.5-8.3
	c0-0.7,0.1-1.4,0.1-2c0.2-3.4,0.4-6.8,0.4-10c0,0,0,0,0,0c0-0.1,0-0.2,0-0.3c0-0.9,0.1-2.4,0.5-3.6c0.2-0.7,0.5-1.4,1-1.8
	C115.5,16.6,115.8,16.4,116.2,16.4z"/>
<path d="M114.8,71.6l0,1.2l14.9,0.2l0-1.2L114.8,71.6z"/>
<path class="st0" d="M114.8,73.1c-0.1,0-0.3-0.1-0.3-0.3l0-1.2c0-0.1,0.1-0.3,0.3-0.3l14.9,0.2c0.1,0,0.3,0.1,0.3,0.3l0,1.2
	c0,0.1-0.1,0.3-0.3,0.3L114.8,73.1z M115.1,72.6l14.4,0.2l0-0.7l-14.4-0.2L115.1,72.6z"/>
<path class="st0" d="M114.4,72.4c0-0.4,0.4-0.8,0.8-0.8l14,0.2c0.2,0,0.4,0.1,0.6,0.2c0.1,0.2,0.2,0.4,0.2,0.6l-0.6,41.2
	c0,0.3-0.2,0.6-0.5,0.7l-0.3-0.7c0.3,0.7,0.3,0.7,0.3,0.7l0,0l0,0l0,0l0,0l0,0c0,0-0.1,0-0.1,0c-0.1,0-0.2,0.1-0.4,0.1
	c-0.3,0.1-0.8,0.3-1.4,0.4c-1.2,0.3-3,0.5-5.3,0.5c-2.3,0-4.1-0.3-5.4-0.7c-0.6-0.2-1.1-0.3-1.5-0.4c-0.2-0.1-0.3-0.1-0.4-0.1
	c0,0-0.1,0-0.1,0l0,0l0,0l0,0l0,0c0,0,0,0,0.3-0.7l-0.3,0.7c-0.3-0.1-0.5-0.4-0.5-0.7L114.4,72.4z M115.4,113
	c0.3,0.1,0.7,0.2,1.3,0.4c1.2,0.3,2.9,0.6,5.1,0.6c2.2,0,3.8-0.2,4.9-0.5c0.5-0.1,0.9-0.2,1.1-0.3l0.6-39.8L116,73.2L115.4,113z"/>
<path class="st0" d="M115.5,113.2c0.2,0.4,0.1,0.9-0.3,1.1c-0.2,0.1-0.5,0.4-0.6,0.9c-0.2,0.5-0.2,1-0.1,1.5c0,0,0,0.1,0,0.1l1.8,51
	c0,0,0,0,0,0c0.3,0.1,0.6,0.1,1.1,0.2c0.9,0.1,2.1,0.2,3.4,0.2c1.2,0,2.5,0,3.4-0.1c0.5-0.1,0.8-0.1,1.1-0.2c0-0.1,0-0.2,0-0.4
	c0-0.5,0.1-1.1,0.1-1.9c0.1-1.6,0.3-3.8,0.5-6.5c0.1-1.4,0.2-2.8,0.4-4.4c0.4-4.5,0.8-9.6,1.2-14.7c0.5-6.9,0.9-13.7,1.1-18.7
	c0.1-2.5,0.1-4.5,0-5.8c0-0.6-0.1-0.9-0.2-1.2c-0.2-0.1-0.3-0.2-0.4-0.3c-0.2-0.4-0.1-0.9,0.3-1.1c0.1-0.1,0.3-0.2,0.6-0.1
	c0.2,0,0.4,0.1,0.6,0.2c0.2,0.2,0.4,0.5,0.4,0.7c0.1,0.4,0.2,1,0.3,1.7c0.1,1.4,0.1,3.5,0,6c-0.1,5-0.6,11.8-1.1,18.7
	c-0.4,5.1-0.8,10.3-1.2,14.7c-0.1,1.6-0.2,3-0.4,4.4c-0.2,2.6-0.4,4.9-0.5,6.5c-0.1,0.8-0.1,1.4-0.1,1.9c0,0.2,0,0.4,0,0.5
	c0,0,0,0,0,0.1c0.1,0.2,0,0.4-0.1,0.6c-0.1,0.3-0.4,0.4-0.5,0.5c-0.2,0.1-0.4,0.2-0.5,0.2c-0.4,0.1-0.8,0.2-1.4,0.2
	c-1,0.1-2.3,0.2-3.6,0.1c-1.3,0-2.6-0.1-3.6-0.2c-0.5-0.1-1-0.2-1.3-0.3c-0.2-0.1-0.4-0.1-0.5-0.2c-0.1-0.1-0.4-0.2-0.5-0.5
	c-0.1-0.1-0.1-0.2-0.1-0.4l-1.8-51.4c-0.1-0.8,0-1.6,0.2-2.3c0.2-0.7,0.7-1.4,1.3-1.8C114.7,112.7,115.2,112.8,115.5,113.2z
	 M128.1,114.2C128.1,114.2,128.1,114.2,128.1,114.2C128.1,114.2,128.1,114.2,128.1,114.2z M125.4,167.9
	C125.4,167.9,125.4,167.9,125.4,167.9C125.4,167.9,125.4,167.9,125.4,167.9z M116,167.8C116,167.8,116,167.8,116,167.8
	C116,167.8,116,167.8,116,167.8z"/>
<path class="st0" d="M115.3,167.6c0.4-0.1,0.9,0.2,1,0.6l3.3,13.6l2.1,0l3.6-13.5c0.1-0.4,0.5-0.7,1-0.6s0.7,0.6,0.6,1l-3.7,14.1
	c-0.1,0.4-0.4,0.6-0.8,0.6l-3.3,0c-0.4,0-0.7-0.3-0.8-0.6l-3.5-14.2C114.6,168.1,114.8,167.7,115.3,167.6z"/>
<path d="M119.3,182.6l1.3,4.4l1.3-4.3L119.3,182.6z"/>
<path class="st0" d="M119.1,182.4c0.1-0.1,0.1-0.1,0.2-0.1l2.6,0c0.1,0,0.2,0,0.2,0.1c0,0.1,0.1,0.2,0,0.2l-1.3,4.3
	c0,0.1-0.1,0.2-0.3,0.2s-0.2-0.1-0.3-0.2l-1.3-4.4C119,182.5,119,182.5,119.1,182.4z M119.7,182.8l0.9,3.2l0.9-3.1L119.7,182.8z"/>
<path d="M114.3,129c0.7,1.1,13.4,1.3,14,0.2l-1.2,16.3c-0.6,1.2-11.8,0.9-12.3,0.1L114.3,129z"/>
<path class="st0" d="M114.9,128.5c-0.2-0.2-0.5-0.3-0.8-0.2c-0.4,0.1-0.6,0.4-0.6,0.8l0.5,16.6c0,0.1,0,0.3,0.1,0.4
	c0.2,0.3,0.4,0.4,0.6,0.5c0.2,0.1,0.4,0.1,0.6,0.2c0.4,0.1,0.9,0.2,1.5,0.2c1.2,0.1,2.7,0.2,4.1,0.2c1.5,0,3,0,4.2-0.2
	c0.6-0.1,1.1-0.2,1.6-0.3c0.2-0.1,0.4-0.1,0.6-0.2c0.2-0.1,0.4-0.3,0.6-0.5c0.1-0.1,0.1-0.2,0.1-0.3l1.2-16.3c0-0.4-0.2-0.7-0.6-0.8
	c-0.3-0.1-0.6,0-0.8,0.2c-0.1,0-0.2,0.1-0.4,0.1c-0.4,0.1-0.9,0.2-1.5,0.2c-1.3,0.1-2.9,0.2-4.6,0.1c-1.7,0-3.3-0.1-4.6-0.3
	c-0.6-0.1-1.1-0.2-1.5-0.3C115.1,128.6,115,128.5,114.9,128.5C114.9,128.5,114.9,128.5,114.9,128.5z M127.8,128.6
	C127.8,128.6,127.8,128.6,127.8,128.6C127.8,128.6,127.8,128.6,127.8,128.6z M114.9,128.5C114.9,128.5,114.9,128.5,114.9,128.5
	C114.9,128.5,114.9,128.5,114.9,128.5z M115.6,145.1C115.7,145.1,115.7,145.1,115.6,145.1c0.4,0.1,0.8,0.2,1.4,0.2
	c1.1,0.1,2.5,0.2,4,0.2c1.4,0,2.9,0,4-0.2c0.6-0.1,1-0.1,1.3-0.2c0.1,0,0.1,0,0.1,0l1.1-14.7c-0.4,0.1-0.9,0.1-1.4,0.2
	c-1.3,0.1-3,0.2-4.7,0.2c-1.7,0-3.4-0.1-4.7-0.3c-0.5-0.1-1-0.1-1.4-0.2L115.6,145.1z M126.6,145C126.6,145,126.6,145,126.6,145
	C126.6,145,126.6,145,126.6,145z M115.4,145C115.4,145,115.4,145,115.4,145C115.4,145,115.4,145,115.4,145z"/>
<path class="st0" d="M113.6,115.2c0.2-0.2,0.6-0.1,0.7,0.1c0,0,0,0,0,0c0,0,0,0,0.1,0.1c0.1,0.1,0.3,0.1,0.5,0.2
	c0.4,0.1,1,0.2,1.7,0.3c1.4,0.2,3.2,0.3,4.9,0.3c1.8,0,3.6,0,4.9-0.2c0.7-0.1,1.3-0.2,1.7-0.3c0.2-0.1,0.4-0.1,0.5-0.2
	c0.1-0.1,0.1-0.1,0.1-0.1c0,0,0,0,0,0c0.2-0.2,0.5-0.3,0.7-0.1c0.2,0.2,0.3,0.5,0.1,0.7c-0.1,0.2-0.3,0.3-0.5,0.4
	c-0.2,0.1-0.4,0.2-0.7,0.2c-0.5,0.1-1.1,0.2-1.9,0.3c-1.4,0.2-3.3,0.2-5.1,0.2c-1.8,0-3.6-0.1-5.1-0.3c-0.7-0.1-1.4-0.2-1.9-0.4
	c-0.2-0.1-0.5-0.2-0.7-0.3c-0.2-0.1-0.4-0.2-0.5-0.4C113.3,115.7,113.3,115.4,113.6,115.2z"/>
<path class="st0" d="M114.5,117.9c-0.2-0.2-0.5-0.3-0.7-0.1c-0.2,0.2-0.3,0.5-0.2,0.7c0.1,0.2,0.3,0.3,0.5,0.4
	c0.2,0.1,0.4,0.2,0.7,0.3c0.5,0.1,1.1,0.3,1.8,0.4c1.4,0.2,3.2,0.3,5,0.3c1.8,0,3.6,0,5-0.2c0.7-0.1,1.3-0.2,1.8-0.3
	c0.2-0.1,0.5-0.1,0.7-0.2c0.2-0.1,0.4-0.2,0.5-0.4c0.2-0.2,0.1-0.6-0.1-0.7c-0.2-0.2-0.6-0.1-0.7,0.1c0,0,0,0-0.1,0.1
	c-0.1,0.1-0.3,0.1-0.5,0.2c-0.4,0.1-1,0.2-1.7,0.3c-1.4,0.1-3.1,0.2-4.9,0.2c-1.8,0-3.5-0.1-4.8-0.3c-0.7-0.1-1.2-0.2-1.6-0.3
	c-0.2-0.1-0.4-0.1-0.5-0.2C114.5,117.9,114.5,117.9,114.5,117.9z"/>
<path class="st0" d="M114.4,120.5c-0.2-0.2-0.5-0.3-0.7-0.1c-0.2,0.2-0.3,0.5-0.2,0.7c0.1,0.2,0.3,0.3,0.5,0.4
	c0.2,0.1,0.4,0.2,0.7,0.3c0.5,0.1,1.1,0.3,1.8,0.4c1.4,0.2,3.2,0.3,5,0.3c1.8,0,3.6,0,5-0.2c0.7-0.1,1.3-0.2,1.8-0.3
	c0.2-0.1,0.5-0.1,0.7-0.2c0.2-0.1,0.4-0.2,0.5-0.4c0.2-0.2,0.1-0.6-0.1-0.7c-0.2-0.2-0.6-0.1-0.7,0.1c0,0,0,0-0.1,0.1
	c-0.1,0.1-0.3,0.1-0.5,0.2c-0.4,0.1-1,0.2-1.7,0.3c-1.4,0.1-3.1,0.2-4.9,0.2c-1.8,0-3.5-0.1-4.8-0.3c-0.7-0.1-1.2-0.2-1.6-0.3
	c-0.2-0.1-0.4-0.1-0.5-0.2C114.5,120.5,114.4,120.5,114.4,120.5z"/>
<path class="st0" d="M114.4,123.1c-0.2-0.2-0.5-0.3-0.7-0.1c-0.2,0.2-0.3,0.5-0.2,0.7c0.1,0.2,0.3,0.3,0.5,0.4
	c0.2,0.1,0.4,0.2,0.7,0.3c0.5,0.1,1.1,0.3,1.8,0.4c1.4,0.2,3.2,0.3,5,0.3c1.8,0,3.6,0,5-0.2c0.7-0.1,1.3-0.2,1.8-0.3
	c0.2-0.1,0.5-0.1,0.7-0.2c0.2-0.1,0.4-0.2,0.5-0.4c0.2-0.2,0.1-0.6-0.1-0.7c-0.2-0.2-0.6-0.1-0.7,0.1c0,0,0,0-0.1,0.1
	c-0.1,0.1-0.3,0.1-0.5,0.2c-0.4,0.1-1,0.2-1.7,0.3c-1.4,0.1-3.1,0.2-4.9,0.2c-1.8,0-3.5-0.1-4.8-0.3c-0.7-0.1-1.2-0.2-1.6-0.3
	c-0.2-0.1-0.4-0.1-0.5-0.2C114.4,123.1,114.4,123.1,114.4,123.1z"/>
<path class="st0" d="M114.4,125.7c-0.2-0.2-0.5-0.3-0.7-0.1c-0.2,0.2-0.3,0.5-0.2,0.7c0.1,0.2,0.3,0.3,0.5,0.4
	c0.2,0.1,0.4,0.2,0.7,0.3c0.5,0.1,1.1,0.3,1.8,0.4c1.4,0.2,3.2,0.3,5,0.3c1.8,0,3.6,0,5-0.2c0.7-0.1,1.3-0.2,1.8-0.3
	c0.2-0.1,0.5-0.1,0.7-0.2c0.2-0.1,0.4-0.2,0.5-0.4c0.2-0.2,0.1-0.6-0.1-0.7c-0.2-0.2-0.6-0.1-0.7,0.1c0,0,0,0-0.1,0.1
	c-0.1,0.1-0.3,0.1-0.5,0.2c-0.4,0.1-1,0.2-1.7,0.3c-1.4,0.1-3.1,0.2-4.9,0.2c-1.8,0-3.5-0.1-4.8-0.3c-0.7-0.1-1.2-0.2-1.6-0.3
	c-0.2-0.1-0.4-0.1-0.5-0.2C114.4,125.8,114.4,125.7,114.4,125.7z"/>
<path class="st0" d="M126,20.2c0.4,0,0.8,0.4,0.8,0.8l-0.2,10.9c0,0.4-0.4,0.8-0.8,0.8c-0.4,0-0.8-0.4-0.8-0.8l0.2-10.9
	C125.2,20.5,125.6,20.2,126,20.2z"/>
<path class="st0" d="M120.5,20.1c0.4,0,0.8,0.4,0.8,0.8L121,31.8c0,0.4-0.4,0.8-0.8,0.8c-0.4,0-0.8-0.4-0.8-0.8l0.3-10.9
	C119.7,20.4,120.1,20.1,120.5,20.1z"/>
<path class="st0" d="M125.8,34.7c0.4,0.1,0.8,0.4,0.7,0.9c-0.1,1,0.1,1.6,0.5,2.1c0.5,0.6,1.3,1.1,2.7,1.8c0.4,0.2,0.6,0.7,0.3,1.1
	c-0.2,0.4-0.7,0.6-1.1,0.3c-1.3-0.7-2.4-1.3-3.2-2.2c-0.8-0.9-1.1-2-0.9-3.3C125,34.9,125.4,34.6,125.8,34.7z"/>
<path class="st0" d="M119.8,34.6c0.4,0,0.8,0.3,0.9,0.7c0.1,1.4-0.2,2.4-0.9,3.3c-0.7,0.8-1.8,1.5-3.2,2.2c-0.4,0.2-0.9,0-1.1-0.4
	c-0.2-0.4,0-0.9,0.4-1.1c1.3-0.7,2.2-1.2,2.7-1.8c0.4-0.5,0.7-1.1,0.6-2.1C119.1,35.1,119.4,34.7,119.8,34.6z"/>
<path class="st0" d="M121,59.5c-0.3,0.5-0.4,1.1-0.4,1.4c0,1.5-0.1,4.1-0.1,6.4c0,1.2,0,2.2,0,3l0,1.3l-0.8,0l-0.8,0l0-1.3
	c0-0.8,0-1.8,0-3c0-2.3,0.1-5,0.1-6.4c0-0.5,0.1-1.4,0.6-2.2c0.5-0.9,1.5-1.6,3-1.6l0,0c1.5,0,2.5,0.8,3,1.6
	c0.5,0.8,0.6,1.7,0.6,2.2l0,0c0,1.5-0.1,4.1-0.1,6.3c0,1.1,0,2.1-0.1,2.9l0,1.2l-0.8,0l-0.8,0l0-1.2c0-0.7,0-1.7,0.1-2.9
	c0-2.2,0.1-4.8,0.1-6.3c0-0.3-0.1-0.9-0.4-1.4c-0.3-0.4-0.7-0.8-1.6-0.9C121.7,58.7,121.3,59.1,121,59.5z M125.2,71.3l-0.8,0
	c0,0.4,0.3,0.8,0.8,0.8c0.4,0,0.8-0.3,0.8-0.8L125.2,71.3z M119.6,72.3c-0.4,0-0.8-0.4-0.8-0.8l0.8,0l0.8,0
	C120.5,72,120.1,72.4,119.6,72.3z"/>
<path class="st0" d="M68.4,86.7c-0.3,0-0.5-0.2-0.5-0.4l0-10.3c0-0.2,0.2-0.4,0.5-0.4l2,0c0.3,0,0.5,0.2,0.5,0.4l0,10.3
	c0,0.2-0.2,0.4-0.5,0.4L68.4,86.7z M68.9,86l0.9,0l0-9.5l-0.9,0L68.9,86z"/>
<path d="M71.9,77.1l0,8.1l11.4,0l0-8.1L71.9,77.1z"/>
<path class="st0" d="M71.9,85.5c-0.2,0-0.4-0.1-0.4-0.3l0-8.1c0-0.1,0.2-0.3,0.4-0.3l11.4,0c0.2,0,0.4,0.1,0.4,0.3l0,8.1
	c0,0.1-0.2,0.3-0.4,0.3L71.9,85.5z M72.2,85L83,85l0-7.6l-10.7,0L72.2,85z"/>
<path class="st0" d="M67.9,83.8l-28.4,0c0,0.2,0,0.5-0.1,0.7c0,0,0,0,0,0.1l28.5,0c0.3,0,0.5-0.2,0.5-0.4
	C68.4,83.9,68.2,83.8,67.9,83.8z"/>
<path class="st0" d="M67.9,77.9l-28.1,0c0,0.3,0,0.5,0,0.8l28.1,0c0.3,0,0.5-0.2,0.5-0.4C68.4,78.1,68.2,77.9,67.9,77.9z"/>
<path class="st0" d="M85.3,76c0-0.1-0.1-0.2-0.2-0.3c-0.1-0.1-0.2-0.1-0.4-0.1l-45.1,0.1c0,0.3,0,0.5,0,0.8l44.5-0.1l0,9.6L39.7,86
	c0,0.2-0.1,0.3-0.1,0.5c0,0.1,0.1,0.2,0.1,0.3l45.2-0.1c0.3,0,0.5-0.2,0.5-0.4L85.3,76z"/>
<path class="st0" d="M36.4,72.2c0.3-0.4,0.9-0.7,1.7-0.7c0.9,0,1.4,0.3,1.7,0.7c0.3,0.4,0.4,0.8,0.4,1c0,2.1,0,5.3,0,8.4
	c0,2.7,0,5.4,0,7.3c0,0.3-0.1,0.7-0.4,1.1c-0.3,0.4-0.8,0.7-1.7,0.7l0,0c-0.9,0-1.4-0.3-1.7-0.7C36.1,89.8,36,89.3,36,89
	c0-3.3,0-9.2,0-13.4c0-0.9,0-1.6,0-2.3C36,73,36.1,72.6,36.4,72.2z M37.3,72.6c-0.2,0.2-0.3,0.5-0.3,0.7l0,0c0,0.7,0,1.5,0,2.3
	c0,4.2,0,10.1,0,13.4l0,0c0,0.2,0.1,0.5,0.3,0.7c0.2,0.2,0.4,0.4,0.8,0.4c0.4,0,0.6-0.1,0.8-0.4c0.2-0.2,0.2-0.5,0.2-0.7l0,0
	c0-1.9,0-4.6,0-7.3c0-3.1,0-6.3,0-8.4l0,0l0,0c0-0.2-0.1-0.5-0.2-0.7c-0.1-0.2-0.4-0.3-0.8-0.3h0C37.7,72.3,37.4,72.4,37.3,72.6z"/>
<path class="st0" d="M25.3,83.7c0-0.2,0.2-0.4,0.5-0.4l10.6,0c0.3,0,0.5,0.2,0.5,0.4s-0.2,0.4-0.5,0.4l-10.6,0
	C25.5,84.1,25.3,84,25.3,83.7z"/>
<path class="st0" d="M25.2,78.8c0-0.2,0.2-0.4,0.5-0.4l10.6,0c0.3,0,0.5,0.2,0.5,0.4c0,0.2-0.2,0.4-0.5,0.4l-10.6,0
	C25.5,79.2,25.2,79,25.2,78.8z"/>
<path class="st0" d="M23.1,75.5c0.2-0.3,0.7-0.5,1.3-0.5c0.6,0,1,0.3,1.3,0.5c0.2,0.3,0.3,0.6,0.3,0.7c0,1.3,0.1,3.4,0.1,5.4
	c0,1.7,0.1,3.5,0.1,4.7c0,0.2,0,0.5-0.2,0.8c-0.1,0.1-0.3,0.3-0.5,0.4c-0.2,0.1-0.5,0.2-0.8,0.1l0,0c-0.6,0-1-0.3-1.3-0.6
	c-0.2-0.3-0.3-0.6-0.3-0.8c0-2.1-0.1-5.9-0.1-8.6c0-0.5,0-1,0-1.5l0.5,0l-0.5,0C22.8,76,22.8,75.7,23.1,75.5z M23.9,75.9
	c-0.1,0.1-0.1,0.2-0.1,0.3l0,0c0,0.4,0,0.9,0,1.5c0,2.7,0.1,6.5,0.1,8.6l0,0c0,0.1,0,0.3,0.2,0.4c0.1,0.1,0.2,0.2,0.4,0.2
	c0.1,0,0.2,0,0.2,0c0,0,0.1,0,0.1-0.1c0.1-0.1,0.1-0.3,0.1-0.4l0,0c0-1.2-0.1-2.9-0.1-4.7c0-2-0.1-4-0.1-5.4l0,0l0,0
	c0-0.1,0-0.3-0.1-0.4c-0.1-0.1-0.2-0.2-0.4-0.2l0,0c-0.1,0-0.2,0-0.2,0C24,75.8,24,75.8,23.9,75.9z"/>
<polygon points="96.9,80.9 106.6,81.1 96.7,81.3 "/>
</svg>
