<?xml version="1.0" encoding="UTF-8"?><svg id="Layer_1" xmlns="http://www.w3.org/2000/svg" viewBox="0 0 109.98 178.8"><defs><style>.cls-1,.cls-2{isolation:isolate;opacity:.98;}.cls-3{fill:#fff;}.cls-3,.cls-2,.cls-4{fill-rule:evenodd;}</style></defs><path class="cls-4" d="M66.14,75.19c-.29,0-.53-.17-.53-.38v-4.22c-.01-.21,.22-.38,.51-.38h1.37c.29,0,.53,.17,.53,.37v4.22c.01,.21-.22,.38-.51,.38h-1.37Zm.52-.75h.32v-3.47h-.33v3.47Z"/><path class="cls-4" d="M62.22,67.25c.24-.12,.56-.08,.73,.09l3.58,3.56c.06,.06,.1,.14,.1,.22v3.23c.01,.08-.02,.16-.09,.22l-3.56,3.53c-.17,.17-.5,.21-.73,.08s-.29-.36-.12-.53l3.46-3.43v-2.98l-3.5-3.47c-.17-.17-.12-.4,.12-.53Z"/><path class="cls-4" d="M67.5,74.51c-.29,0-.53-.17-.53-.38v-2.88c0-.21,.23-.38,.52-.38h3.68c.29,0,.53,.16,.53,.37v2.88c0,.21-.23,.38-.52,.38h-3.68Zm.52-.75h2.63v-2.13h-2.63v2.13Z"/><path class="cls-4" d="M71.17,73.66c-.29,0-.53-.17-.53-.38v-1.18c0-.21,.23-.38,.52-.38h2.48c.29,0,.53,.16,.53,.37v1.18c0,.21-.23,.38-.52,.38h-2.48Zm.52-.75h1.42v-.43h-1.43v.43Z"/><path class="cls-4" d="M73.57,72.46s.05-.02,.08-.02l18.36,.21c.06,0,.11,.04,.11,.08,0,.04-.05,.08-.11,.08l-18.35,.15s-.06,0-.08-.02c-.02-.02-.03-.04-.03-.06v-.35s0-.04,.03-.06Zm.2,.33l9.78-.08-9.78-.11v.19Z"/><path class="cls-4" d="M91.49,35.39c.3-.32,.81-.33,1.13-.03,.15,.14,.45,.33,.94,.51,.48,.18,1.07,.34,1.76,.47,1.38,.27,3.06,.43,4.76,.46,1.7,.03,3.38-.06,4.74-.29,.68-.11,1.27-.26,1.73-.42,.48-.17,.76-.35,.89-.48,.31-.31,.82-.32,1.13,0,.31,.31,.32,.82,0,1.13-.38,.39-.92,.66-1.49,.86-.58,.21-1.27,.37-2.01,.49-1.49,.25-3.27,.34-5.03,.31-1.77-.03-3.55-.2-5.04-.49-.74-.15-1.43-.32-2.02-.54-.57-.21-1.1-.49-1.48-.85-.32-.3-.33-.81-.03-1.13Z"/><path class="cls-4" d="M95.58,3c-1.8,1.25-2.89,3.3-2.3,6.09,.01,.06,.02,.12,.02,.18l-.66,53.06,.28,.36,13.35,.2,.24-.32,.84-53.49s0-.08,.01-.13c.71-4.04-2.02-6.73-5-7.08-.04,0-.07-.01-.11-.02-2.26-.58-4.84-.13-6.68,1.15Zm7.02-2.71c-2.67-.67-5.71-.15-7.94,1.4-2.26,1.58-3.66,4.22-2.97,7.65l-.66,53.25c0,.18,.06,.36,.17,.5l.68,.88c.15,.19,.38,.31,.62,.31l14.15,.21c.26,0,.5-.12,.65-.32l.64-.86c.1-.13,.16-.3,.16-.46l.84-53.68c.84-4.98-2.59-8.4-6.35-8.87Z"/><path class="cls-4" d="M107.31,12.39c.6,.21,1.15,.48,1.56,.83,.34,.29,.37,.79,.08,1.13-.29,.33-.79,.37-1.13,.08-.19-.16-.53-.35-1.05-.54-.51-.18-1.13-.34-1.85-.47-1.43-.27-3.17-.42-4.92-.45-1.75-.03-3.48,.07-4.9,.3-.71,.11-1.32,.26-1.82,.42-.51,.17-.82,.35-.99,.5-.33,.3-.83,.27-1.13-.06-.3-.33-.27-.83,.06-1.13,.4-.36,.96-.63,1.55-.83,.6-.21,1.31-.37,2.08-.49,1.53-.24,3.36-.35,5.17-.32,1.82,.03,3.65,.19,5.19,.48,.77,.14,1.48,.32,2.09,.54Z"/><path class="cls-4" d="M107.14,23.85c.6,.21,1.15,.48,1.56,.83,.34,.29,.37,.79,.08,1.13-.29,.33-.79,.37-1.13,.08-.19-.16-.53-.35-1.05-.54-.51-.18-1.13-.34-1.85-.47-1.43-.27-3.17-.42-4.92-.45-1.75-.03-3.48,.07-4.9,.3-.71,.11-1.32,.26-1.82,.42-.5,.17-.82,.35-.99,.5-.33,.3-.83,.27-1.13-.06-.3-.33-.27-.83,.06-1.13,.4-.36,.96-.63,1.55-.83,.6-.21,1.31-.37,2.08-.49,1.53-.24,3.36-.35,5.17-.32,1.82,.03,3.65,.19,5.19,.48,.77,.14,1.48,.32,2.09,.54Z"/><path d="M108.13,28.38c-2.39-2.05-14.31-2.28-16.59-.23l.02-.98c3.12-1.95,13.7-1.82,16.58,.24v.97Z"/><path class="cls-4" d="M104.92,25.45c1.47,.28,2.82,.7,3.68,1.32,.21,.15,.34,.4,.33,.66v.97c-.02,.31-.2,.59-.49,.72-.28,.13-.61,.08-.85-.12-.19-.16-.53-.35-1.05-.54-.51-.18-1.13-.34-1.85-.47-1.43-.27-3.17-.42-4.92-.45-1.75-.03-3.48,.07-4.9,.3-.71,.11-1.32,.26-1.82,.42-.51,.17-.82,.35-.99,.5-.24,.21-.58,.27-.87,.13-.29-.13-.47-.42-.47-.74l.02-.98c0-.27,.15-.52,.38-.66,.92-.58,2.3-.95,3.8-1.19,1.53-.24,3.28-.34,5.01-.32,1.73,.02,3.47,.18,4.97,.46Z"/><path d="M108.52,14.61c-2.39-2.05-14.31-2.28-16.59-.23l.02-.98c3.12-1.95,13.7-1.82,16.58,.24v.97Z"/><path class="cls-4" d="M105.32,11.68c1.47,.28,2.82,.7,3.69,1.32,.21,.15,.34,.4,.33,.66v.97c-.02,.31-.2,.59-.49,.72-.28,.13-.61,.08-.85-.12-.19-.16-.53-.35-1.05-.54-.51-.18-1.13-.34-1.85-.47-1.43-.27-3.17-.42-4.92-.45-1.75-.03-3.48,.07-4.9,.3-.71,.11-1.32,.26-1.82,.42-.51,.17-.82,.35-.99,.5-.24,.21-.58,.27-.87,.13-.29-.13-.47-.42-.47-.74l.02-.98c0-.27,.15-.52,.38-.66,.92-.58,2.3-.95,3.8-1.19,1.53-.24,3.28-.34,5.01-.32,1.73,.02,3.47,.18,4.97,.46Z"/><path class="cls-4" d="M106.86,42.85c.6,.21,1.15,.48,1.56,.83,.34,.29,.37,.79,.08,1.13-.29,.33-.79,.37-1.13,.08-.19-.16-.53-.35-1.05-.54-.51-.18-1.13-.34-1.85-.47-1.43-.27-3.17-.42-4.92-.45-1.75-.03-3.48,.07-4.9,.3-.71,.11-1.32,.26-1.82,.42-.51,.17-.82,.35-.99,.5-.33,.3-.83,.27-1.13-.06-.3-.33-.27-.83,.06-1.13,.4-.36,.96-.63,1.55-.83,.6-.21,1.31-.37,2.08-.49,1.53-.24,3.36-.35,5.17-.32,1.82,.03,3.65,.19,5.19,.48,.77,.14,1.48,.32,2.09,.54Z"/><path class="cls-4" d="M90.89,30.66c.29-.33,.79-.37,1.13-.08,.19,.16,.53,.35,1.05,.54,.51,.18,1.13,.34,1.85,.47,1.43,.27,3.17,.42,4.92,.45,1.75,.03,3.48-.07,4.9-.3,.71-.11,1.32-.26,1.82-.42,.5-.17,.82-.35,.99-.5,.33-.3,.83-.27,1.13,.06,.3,.33,.27,.83-.06,1.13-.4,.36-.96,.63-1.55,.83-.6,.21-1.31,.37-2.08,.49-1.53,.24-3.36,.35-5.17,.32-1.82-.03-3.65-.19-5.19-.48-.77-.14-1.48-.32-2.09-.54-.6-.21-1.15-.48-1.56-.83-.33-.29-.37-.79-.08-1.13Z"/><path class="cls-1" d="M105.31,10.2c5.02-8.3,3.65,16.5,4.03,18.55-.2,7.99,1.29,19.04-2.8,26.2-2.16,4.34-11.91,3.98-13.66-.52-4.74-12.26-1.24-27.19-1.31-40.23,.1-1.71,.18-6.52,2.82-5.62,.71,.29,1.49,1.1,.96,1.27-.91-.08-2.31-.79-2.41,.66,.11,12.96-3.11,30.35,1.44,42.65,5.58,7.32,12.85,.53,13.05-6.8,.68-10.51,.56-25.36,.26-35.8-.35-1.23-1.49-.48-2.37-.36Z"/><path class="cls-2" d="M92.1,14.22c.02,3.27-.19,6.66-.43,10.08-.05,.68-.1,1.36-.15,2.04-.2,2.76-.41,5.53-.52,8.29-.27,6.87,.04,13.58,2.37,19.61,.38,.96,1.2,1.74,2.31,2.3,1.11,.56,2.49,.88,3.89,.93,1.4,.05,2.8-.16,3.96-.63,1.17-.47,2.06-1.19,2.52-2.12v-.03c1.99-3.46,2.64-7.91,2.8-12.54,.08-2.31,.04-4.65,0-6.92,0-.2,0-.41-.01-.61-.04-2.03-.09-4.01-.04-5.82-.05-.33-.07-.97-.07-1.76,0-.62,0-1.37,0-2.21,0-.32,0-.66,0-1,0-2.48-.02-5.5-.19-8.19-.06-1.03-.15-2.01-.26-2.89,.25,10.25,.32,23.83-.32,33.64-.11,3.81-2.04,7.51-4.74,9.31-1.36,.91-2.94,1.35-4.57,1.04-1.63-.31-3.24-1.35-4.69-3.26-.03-.04-.06-.09-.08-.14-2.31-6.25-2.64-13.76-2.42-21.28,.09-3.15,.28-6.32,.47-9.4,.04-.6,.07-1.19,.11-1.79,.2-3.41,.37-6.69,.37-9.73-.19,.95-.24,1.99-.28,2.75,0,.12-.01,.23-.02,.33Zm1.24-5.09c.17-.05,.35-.06,.5-.06,.14,0,.28,.02,.41,.04-.02,0-.04-.02-.06-.03-.25-.08-.44-.09-.59-.06-.09,.02-.18,.05-.27,.11Zm14.15,.34c-.11-.21-.21-.33-.29-.38-.06-.05-.1-.05-.16-.04-.08,.02-.23,.09-.43,.3h.03c.25-.03,.56-.03,.85,.12Zm-14.08-1.49c.36-.07,.75-.03,1.15,.1h.03c.44,.19,.88,.51,1.16,.84,.13,.15,.29,.38,.31,.66,.01,.16-.02,.34-.14,.5-.12,.16-.27,.24-.41,.28-.07,.02-.14,.03-.21,.02-.23-.02-.49-.08-.71-.12-.03,0-.07-.01-.1-.02-.26-.06-.48-.1-.66-.1-.18,0-.24,.03-.26,.05-.01,0-.08,.07-.1,.34,.03,3.25-.16,6.78-.37,10.41-.04,.59-.07,1.19-.11,1.79-.19,3.08-.38,6.23-.47,9.36-.22,7.46,.11,14.77,2.32,20.8,1.32,1.71,2.7,2.55,3.99,2.79,1.31,.25,2.6-.09,3.78-.88,2.38-1.59,4.17-4.95,4.27-8.47v-.02c.68-10.46,.56-25.25,.26-35.67-.06-.17-.12-.21-.14-.22-.03-.02-.1-.04-.26-.02-.17,.02-.36,.07-.6,.14h-.04c-.22,.07-.48,.15-.73,.19-.2,.03-.41-.06-.52-.23-.11-.17-.12-.39-.01-.57,.33-.54,.64-.96,.94-1.28,.3-.31,.62-.54,.98-.63,.39-.1,.75-.01,1.05,.21,.28,.21,.49,.51,.65,.85,.33,.67,.56,1.63,.73,2.72,.17,1.11,.3,2.4,.38,3.76,.17,2.73,.19,5.77,.19,8.26,0,.35,0,.69,0,1.01,0,.83,0,1.57,0,2.19,0,.88,.03,1.43,.07,1.63,0,.04,0,.07,0,.11-.04,1.81,0,3.77,.04,5.83,0,.2,0,.4,.01,.6,.05,2.27,.09,4.64,0,6.98-.16,4.67-.82,9.33-2.92,13.02-.62,1.23-1.75,2.09-3.07,2.62-1.33,.54-2.88,.77-4.41,.71s-3.05-.4-4.33-1.04c-1.27-.64-2.33-1.59-2.83-2.87h0c-2.41-6.23-2.72-13.12-2.44-20.04,.11-2.78,.32-5.57,.52-8.33,.05-.68,.1-1.35,.15-2.03,.24-3.42,.45-6.78,.43-10.02v-.03c0-.1,.01-.21,.02-.33,.05-.89,.12-2.36,.46-3.57,.19-.68,.48-1.37,.97-1.82,.25-.23,.56-.41,.92-.48Z"/><path d="M92.07,63.21l-.02,1.22,14.88,.22,.02-1.22-14.88-.22Z"/><path class="cls-4" d="M92.04,64.69c-.15,0-.26-.12-.26-.27l.02-1.21c0-.15,.12-.26,.27-.26l14.88,.22c.15,0,.27,.12,.26,.27l-.02,1.21c0,.15-.12,.26-.27,.26l-14.88-.22Zm.27-.53l14.35,.21v-.68l-14.34-.21v.68Z"/><path class="cls-4" d="M91.68,63.98c0-.44,.37-.79,.81-.79l13.98,.2c.21,0,.41,.09,.56,.24,.15,.15,.23,.36,.23,.57l-.62,41.16c0,.31-.18,.58-.46,.71l-.34-.72,.34,.72h-.02l-.03,.02s-.06,.02-.1,.04c-.09,.03-.21,.08-.36,.14-.32,.11-.78,.25-1.38,.39-1.21,.28-2.99,.54-5.32,.51-2.31-.03-4.15-.35-5.42-.66-.64-.15-1.13-.31-1.47-.43-.17-.06-.3-.11-.39-.14-.05-.02-.08-.03-.11-.04h-.03v-.02h-.01s0,0,.32-.73l-.32,.73c-.29-.13-.48-.42-.48-.74l.62-41.15Zm.99,40.62c.29,.1,.72,.23,1.26,.36,1.17,.28,2.89,.58,5.06,.61,2.2,.03,3.85-.21,4.94-.46,.48-.11,.86-.22,1.12-.31l.6-39.81-12.38-.18-.6,39.79Z"/><path class="cls-4" d="M92.69,104.79c.22,.38,.1,.87-.28,1.09-.2,.12-.45,.42-.63,.92-.17,.48-.22,1.04-.14,1.54,0,.04,0,.07,.01,.11l1.77,51.01h.02c.26,.08,.63,.15,1.1,.22,.93,.12,2.15,.2,3.38,.22,1.23,.02,2.45-.02,3.38-.13,.46-.05,.83-.12,1.08-.19,0-.11,0-.23,0-.36,.01-.47,.05-1.11,.1-1.91,.11-1.6,.28-3.83,.49-6.48,.11-1.37,.23-2.85,.36-4.41,.36-4.48,.78-9.62,1.16-14.73,.51-6.89,.95-13.68,1.09-18.65,.07-2.49,.06-4.5-.04-5.82-.04-.56-.1-.95-.16-1.19-.16-.07-.3-.18-.4-.35-.22-.38-.08-.87,.3-1.09,.15-.08,.35-.15,.58-.13,.24,.02,.43,.12,.56,.24,.24,.2,.36,.49,.43,.68,.14,.42,.23,1.02,.28,1.72,.11,1.41,.11,3.49,.04,5.99-.14,5.01-.58,11.84-1.09,18.73-.38,5.11-.8,10.26-1.16,14.74-.13,1.56-.25,3.04-.36,4.4-.21,2.65-.38,4.87-.49,6.46-.05,.79-.09,1.42-.1,1.86,0,.22,0,.38,0,.49v.06c.05,.2,.03,.41-.07,.59-.14,.26-.37,.41-.53,.49-.17,.09-.36,.16-.55,.22-.38,.11-.85,.19-1.35,.24-1.02,.12-2.31,.16-3.59,.14-1.27-.02-2.56-.1-3.57-.24-.5-.07-.96-.15-1.33-.26-.18-.05-.36-.12-.53-.2-.14-.07-.37-.21-.52-.47-.07-.11-.1-.24-.11-.37l-1.79-51.4c-.12-.77-.03-1.58,.21-2.27,.24-.7,.67-1.39,1.33-1.78,.38-.22,.87-.1,1.09,.28Zm12.64,1.03h0Zm-2.68,53.67h0Zm-9.45-.11h0Z"/><path class="cls-4" d="M92.49,159.16c.43-.1,.86,.16,.97,.59l3.31,13.61,2.09,.03,3.56-13.49c.11-.43,.55-.68,.98-.57s.68,.55,.57,.98l-3.72,14.1c-.09,.35-.42,.6-.79,.6l-3.34-.05c-.36,0-.68-.26-.77-.61l-3.46-14.21c-.1-.43,.16-.86,.59-.97Z"/><path d="M96.54,174.15l1.29,4.39,1.28-4.35-2.57-.04Z"/><path class="cls-4" d="M96.33,173.99c.05-.07,.13-.11,.22-.1l2.57,.04c.08,0,.16,.04,.21,.11,.05,.07,.06,.15,.04,.23l-1.28,4.35c-.03,.11-.14,.19-.26,.19-.12,0-.22-.08-.26-.19l-1.29-4.39c-.02-.08,0-.17,.04-.24Zm.57,.43l.93,3.17,.92-3.14-1.85-.03Z"/><path d="M91.54,120.6c.65,1.12,13.37,1.34,14.05,.18l-1.18,16.34c-.64,1.21-11.78,.92-12.33,.05l-.53-16.56Z"/><path class="cls-4" d="M92.15,120.08c-.2-.24-.52-.34-.83-.25-.35,.1-.59,.43-.58,.79l.53,16.56c0,.14,.05,.28,.13,.41,.17,.27,.44,.4,.57,.46,.17,.07,.37,.14,.57,.18,.41,.1,.93,.18,1.51,.25,1.17,.13,2.66,.21,4.15,.23,1.49,.02,2.99-.03,4.18-.17,.59-.07,1.13-.16,1.56-.28,.21-.06,.43-.14,.62-.24,.17-.1,.41-.26,.56-.54,.05-.1,.08-.21,.09-.32l1.18-16.34c.03-.37-.21-.71-.56-.82-.31-.1-.64,0-.85,.25-.06,.03-.18,.07-.36,.12-.36,.09-.87,.17-1.5,.23-1.26,.12-2.9,.17-4.55,.15-1.65-.02-3.3-.12-4.55-.27-.63-.08-1.14-.17-1.5-.27-.18-.05-.3-.09-.36-.12h0Zm12.87,.15h0Zm-12.9-.17h0Zm.74,16.6s.05,.01,.07,.02c.31,.08,.76,.15,1.31,.21,1.1,.13,2.53,.2,3.98,.22,1.45,.01,2.88-.04,3.98-.16,.55-.06,.99-.14,1.3-.23,.05-.02,.1-.03,.14-.05l1.06-14.69c-.41,.08-.9,.15-1.42,.2-1.34,.13-3.04,.18-4.73,.15-1.69-.02-3.39-.12-4.73-.29-.53-.07-1.02-.15-1.44-.24l.48,14.84Zm10.95-.06h0Zm-11.2-.03h0Z"/><path class="cls-4" d="M90.81,106.78c.24-.17,.57-.12,.74,.11h0s.03,.03,.14,.09c.12,.06,.28,.12,.49,.18,.43,.13,1.01,.24,1.7,.33,1.38,.19,3.15,.29,4.93,.32,1.78,.02,3.56-.04,4.94-.19,.7-.07,1.28-.17,1.71-.28,.22-.06,.38-.11,.5-.17,.11-.05,.14-.08,.14-.08h0c.18-.23,.52-.27,.75-.08,.23,.18,.27,.52,.08,.75-.14,.18-.35,.3-.53,.38-.2,.09-.43,.16-.68,.23-.5,.13-1.14,.23-1.86,.31-1.44,.15-3.26,.21-5.07,.19-1.81-.02-3.63-.13-5.06-.33-.72-.1-1.36-.22-1.86-.36-.25-.07-.48-.16-.67-.25-.18-.09-.38-.22-.52-.41-.17-.24-.12-.57,.12-.75Z"/><path class="cls-4" d="M91.73,109.49c-.16-.24-.49-.3-.73-.15-.25,.16-.32,.49-.16,.74,.13,.2,.33,.33,.51,.43,.19,.1,.41,.18,.65,.25,.48,.14,1.11,.26,1.81,.35,1.41,.19,3.19,.3,4.97,.32,1.78,.02,3.57-.04,4.98-.19,.7-.07,1.33-.17,1.82-.3,.24-.06,.47-.14,.66-.23,.18-.08,.38-.21,.52-.4,.17-.24,.12-.57-.12-.74-.24-.17-.56-.12-.73,.11,0,0-.03,.03-.11,.07-.11,.05-.26,.1-.47,.16-.42,.11-.98,.2-1.66,.27-1.36,.14-3.1,.2-4.86,.18-1.75-.02-3.49-.13-4.85-.31-.68-.09-1.24-.2-1.65-.32-.21-.06-.36-.12-.46-.17-.08-.04-.1-.07-.11-.07Z"/><path class="cls-4" d="M91.68,112.11c-.16-.24-.48-.3-.73-.15-.25,.16-.32,.49-.16,.74,.13,.2,.33,.33,.51,.43,.19,.1,.41,.18,.65,.25,.48,.14,1.11,.26,1.81,.35,1.41,.19,3.19,.3,4.97,.32,1.78,.02,3.57-.04,4.98-.19,.7-.07,1.33-.17,1.82-.3,.24-.06,.47-.14,.66-.23,.18-.08,.38-.21,.52-.4,.17-.24,.12-.57-.12-.74-.24-.17-.56-.12-.74,.11,0,0-.03,.03-.11,.07-.11,.05-.26,.1-.47,.16-.42,.11-.98,.2-1.66,.27-1.36,.14-3.1,.2-4.86,.18-1.75-.02-3.49-.13-4.85-.31-.68-.09-1.24-.2-1.65-.32-.21-.06-.36-.12-.46-.17-.08-.04-.1-.07-.11-.07Z"/><path class="cls-4" d="M91.64,114.72c-.16-.24-.48-.3-.73-.15-.25,.16-.32,.49-.16,.74,.13,.2,.33,.33,.51,.43,.19,.1,.41,.18,.65,.25,.48,.14,1.11,.26,1.81,.35,1.41,.19,3.19,.3,4.97,.32,1.78,.02,3.57-.04,4.98-.19,.7-.07,1.33-.17,1.82-.3,.24-.06,.47-.14,.66-.23,.18-.08,.38-.21,.52-.4,.17-.24,.12-.57-.12-.74-.24-.17-.56-.12-.74,.11,0,0-.03,.03-.11,.07-.11,.05-.26,.1-.47,.16-.41,.11-.98,.2-1.66,.27-1.36,.14-3.1,.2-4.86,.18-1.75-.02-3.49-.13-4.85-.31-.68-.09-1.24-.2-1.65-.32-.21-.06-.36-.12-.46-.17-.08-.04-.1-.07-.11-.07Z"/><path class="cls-4" d="M91.6,117.33c-.16-.24-.48-.3-.73-.15-.25,.16-.32,.49-.16,.74,.13,.2,.33,.33,.51,.43,.19,.1,.41,.18,.65,.25,.48,.14,1.11,.26,1.81,.35,1.41,.19,3.19,.3,4.97,.32,1.78,.02,3.57-.04,4.98-.19,.7-.07,1.33-.17,1.82-.3,.24-.06,.47-.14,.66-.23,.18-.08,.38-.21,.52-.4,.17-.24,.12-.57-.12-.74-.24-.17-.56-.12-.74,.11,0,0-.03,.03-.11,.07-.11,.05-.26,.1-.47,.16-.42,.11-.98,.2-1.66,.27-1.36,.14-3.1,.2-4.86,.18-1.75-.02-3.49-.13-4.84-.31-.68-.09-1.24-.2-1.65-.32-.21-.06-.36-.12-.46-.17-.08-.04-.1-.07-.11-.07Z"/><path class="cls-4" d="M103.24,11.76c.44,0,.79,.37,.79,.81l-.16,10.93c0,.44-.37,.79-.81,.79-.44,0-.79-.37-.79-.81l.16-10.93c0-.44,.37-.79,.81-.79Z"/><path class="cls-4" d="M97.76,11.69c.44,.01,.79,.38,.77,.82l-.33,10.93c-.01,.44-.38,.79-.82,.78-.44-.01-.79-.38-.77-.82l.33-10.93c.01-.44,.38-.79,.82-.78Z"/><path class="cls-4" d="M103.08,26.26c.44,.05,.75,.45,.7,.89-.11,.98,.09,1.58,.54,2.11,.5,.58,1.34,1.12,2.67,1.79,.39,.2,.55,.68,.35,1.08-.2,.39-.68,.55-1.08,.35-1.32-.67-2.43-1.33-3.16-2.18-.78-.91-1.07-1.98-.91-3.33,.05-.44,.45-.75,.89-.7Z"/><path class="cls-4" d="M97.07,26.23c.44-.05,.83,.27,.88,.71,.14,1.35-.15,2.42-.94,3.32-.73,.84-1.85,1.49-3.18,2.15-.4,.2-.88,.04-1.07-.36-.2-.39-.04-.88,.36-1.07,1.33-.67,2.18-1.19,2.68-1.77,.45-.52,.66-1.12,.56-2.11-.05-.44,.27-.83,.71-.88Z"/><path class="cls-4" d="M98.23,51.1c-.29,.48-.37,1.06-.38,1.38-.02,1.46-.07,4.13-.1,6.43-.02,1.15-.03,2.21-.05,2.98l-.02,1.26h-.8l-.8-.02,.02-1.26c.01-.77,.03-1.83,.04-2.98,.04-2.3,.08-4.97,.1-6.43,0-.47,.11-1.38,.61-2.19,.53-.87,1.48-1.58,2.99-1.56h0c1.53,.02,2.47,.76,2.99,1.64,.49,.83,.58,1.74,.58,2.2h0c-.02,1.52-.07,4.11-.11,6.33-.02,1.11-.04,2.12-.05,2.86l-.02,1.2h-.8l-.8-.03,.02-1.2c.01-.74,.03-1.75,.05-2.86,.04-2.21,.09-4.81,.11-6.32,0-.29-.07-.87-.36-1.37-.26-.44-.71-.84-1.64-.86-.91-.01-1.35,.37-1.6,.79Zm4.21,11.82l-.8-.02c0,.44,.34,.81,.78,.81,.44,0,.81-.34,.82-.78h-.8Zm-5.56,1.01c-.44,0-.79-.37-.79-.81h.8l.8,.02c0,.44-.37,.79-.81,.79Z"/><path d="M94.08,65.81l-.57,37.93c-.17,.8,10.9,.96,10.71,.15l.57-37.93-10.71-.15Z"/><path class="cls-4" d="M93.82,65.81c0-.15,.12-.26,.27-.26l10.71,.15c.07,0,.14,.03,.19,.08,.05,.05,.08,.12,.08,.19l-.57,37.9c.03,.21-.13,.34-.22,.39-.11,.06-.25,.11-.4,.15-.31,.08-.74,.14-1.25,.18-1.02,.09-2.39,.12-3.76,.1-1.37-.02-2.74-.09-3.76-.21-.51-.06-.94-.13-1.25-.21-.15-.04-.29-.09-.39-.16-.08-.05-.25-.18-.22-.39l.57-37.91Zm.53,.27l-.57,37.59s.12,.05,.22,.08c.26,.07,.66,.14,1.17,.2,1,.11,2.35,.18,3.71,.2s2.71-.01,3.7-.09c.5-.04,.9-.1,1.16-.17,.1-.03,.17-.05,.21-.07l.57-37.6-10.18-.14Zm9.66,37.71h0Zm-10.27-.15h0Z"/><path class="cls-3" d="M94.63,65.05c.28,.09,.43,.39,.34,.67-.03,.08-.05,.26-.02,.58,.02,.3,.08,.67,.16,1.1,.18,.85,.47,1.87,.83,2.88,.36,1.01,.78,1.99,1.21,2.76,.21,.38,.42,.7,.62,.95,.2,.25,.36,.38,.46,.43,.26,.13,.37,.45,.24,.71s-.45,.37-.71,.24c-.31-.15-.58-.42-.82-.72-.25-.3-.49-.68-.72-1.1-.46-.83-.91-1.87-1.28-2.91-.37-1.04-.68-2.11-.87-3.02-.09-.45-.16-.88-.18-1.24-.02-.35-.02-.7,.07-.98,.09-.28,.39-.43,.67-.34Z"/><path class="cls-3" d="M99.75,94.72c.13-.26,.45-.37,.71-.24,.31,.15,.58,.42,.82,.72,.25,.3,.49,.68,.72,1.1,.46,.83,.91,1.87,1.28,2.91,.37,1.04,.68,2.12,.87,3.02,.09,.45,.16,.88,.18,1.24,.02,.35,.02,.7-.07,.98-.09,.28-.39,.43-.67,.34s-.43-.39-.34-.67c.03-.08,.05-.26,.02-.58-.02-.3-.08-.68-.16-1.1-.18-.85-.47-1.87-.83-2.88-.36-1.01-.78-1.99-1.21-2.75-.21-.38-.42-.71-.61-.95-.2-.25-.36-.38-.46-.43-.26-.13-.37-.45-.24-.71Z"/><path class="cls-3" d="M104.36,65.11c.29,0,.53,.24,.53,.53,0,3.01-1.18,5.43-2.72,7.56-.76,1.06-1.62,2.05-2.47,3.01-.17,.19-.34,.39-.52,.58-.67,.75-1.32,1.48-1.92,2.22-1.5,1.85-2.56,3.65-2.62,5.72-.06,2.06,.88,4.52,3.7,7.68,.2,.22,.18,.56-.04,.75-.22,.2-.56,.18-.75-.04-2.91-3.26-4.04-5.98-3.97-8.42,.07-2.43,1.32-4.47,2.86-6.37,.62-.76,1.29-1.51,1.96-2.27,.17-.19,.34-.38,.5-.57,.84-.95,1.67-1.91,2.4-2.92,1.46-2.02,2.51-4.24,2.51-6.94,0-.29,.24-.53,.53-.53Z"/><path class="cls-3" d="M100,76.66c.22-.19,.56-.17,.75,.05,2.91,3.29,4.02,6.03,3.93,8.49-.09,2.45-1.38,4.49-2.93,6.39-.61,.75-1.28,1.49-1.95,2.23-.18,.2-.36,.4-.54,.6-.85,.94-1.68,1.9-2.4,2.9-1.45,2.01-2.47,4.19-2.41,6.86,0,.29-.23,.54-.52,.54-.29,0-.54-.23-.55-.52-.07-2.98,1.09-5.39,2.61-7.5,.76-1.05,1.62-2.04,2.47-2.99,.18-.21,.37-.41,.55-.61,.66-.74,1.31-1.45,1.91-2.18,1.52-1.85,2.61-3.66,2.69-5.75,.08-2.08-.84-4.56-3.66-7.75-.19-.22-.17-.56,.05-.75Z"/><path class="cls-3" d="M97.84,71.81c0-.15,.12-.26,.27-.26l2.48,.04c.15,0,.26,.12,.26,.27,0,.15-.12,.26-.27,.26l-2.48-.04c-.15,0-.26-.12-.26-.27Z"/><path class="cls-3" d="M96.59,69.53c0-.15,.12-.26,.27-.26l5.04,.08c.15,0,.26,.12,.26,.27,0,.15-.12,.26-.27,.26l-5.04-.08c-.15,0-.26-.12-.26-.27Z"/><path class="cls-3" d="M96.1,67.27c0-.15,.12-.26,.27-.26l6.09,.1c.15,0,.26,.12,.26,.27,0,.15-.12,.26-.27,.26l-6.09-.1c-.15,0-.26-.12-.26-.27Z"/><path class="cls-3" d="M97.45,89.17c0-.15,.12-.27,.27-.26l2.49,.03c.15,0,.26,.12,.26,.27,0,.15-.12,.26-.27,.26l-2.49-.03c-.15,0-.27-.12-.26-.27Z"/><path class="cls-3" d="M96.21,86.89c0-.15,.12-.26,.27-.26l5.03,.07c.15,0,.26,.12,.26,.27,0,.15-.12,.27-.27,.26l-5.03-.07c-.15,0-.26-.12-.26-.27Z"/><path class="cls-3" d="M95.71,84.63c0-.15,.12-.26,.27-.26l6.1,.08c.15,0,.26,.12,.26,.27,0,.15-.12,.27-.27,.26l-6.1-.08c-.15,0-.26-.12-.26-.27Z"/><path class="cls-3" d="M97.46,97.97c0-.15,.12-.26,.27-.26l2.48,.04c.15,0,.26,.12,.26,.27,0,.15-.12,.27-.27,.26l-2.48-.04c-.15,0-.26-.12-.26-.27Z"/><path class="cls-3" d="M96.14,100.2c0-.15,.12-.26,.27-.26l5.04,.08c.15,0,.26,.12,.26,.27,0,.15-.12,.26-.27,.26l-5.04-.08c-.15,0-.26-.12-.26-.27Z"/><path class="cls-3" d="M97.68,80.18c0-.15,.12-.26,.27-.26l2.49,.04c.15,0,.26,.12,.26,.27,0,.15-.12,.26-.27,.26l-2.49-.04c-.15,0-.26-.12-.26-.27Z"/><path class="cls-3" d="M96.38,82.41c0-.15,.12-.26,.27-.26l5.04,.08c.15,0,.26,.12,.26,.27,0,.15-.12,.26-.27,.26l-5.04-.08c-.15,0-.26-.12-.26-.27Z"/><path class="cls-3" d="M95.59,102.45c0-.15,.12-.26,.27-.26l6.09,.1c.15,0,.26,.12,.26,.27,0,.15-.12,.26-.27,.26l-6.09-.1c-.15,0-.26-.12-.26-.27Z"/><path class="cls-4" d="M91.49,35.39c.3-.32,.81-.33,1.13-.03,.15,.14,.45,.33,.94,.51,.48,.18,1.07,.34,1.76,.47,1.38,.27,3.06,.43,4.76,.46,1.7,.03,3.38-.06,4.74-.29,.68-.11,1.27-.26,1.73-.42,.48-.17,.76-.35,.89-.48,.31-.31,.82-.32,1.13,0,.31,.31,.32,.82,0,1.13-.38,.39-.92,.66-1.49,.86-.58,.21-1.27,.37-2.01,.49-1.49,.25-3.27,.34-5.03,.31-1.77-.03-3.55-.2-5.04-.49-.74-.15-1.43-.32-2.02-.54-.57-.21-1.1-.49-1.48-.85-.32-.3-.33-.81-.03-1.13Z"/><path class="cls-4" d="M95.58,3c-1.8,1.25-2.89,3.3-2.3,6.09,.01,.06,.02,.12,.02,.18l-.66,53.06,.28,.36,13.35,.2,.24-.32,.84-53.49s0-.08,.01-.13c.71-4.04-2.02-6.73-5-7.08-.04,0-.07-.01-.11-.02-2.26-.58-4.84-.13-6.68,1.15Zm7.02-2.71c-2.67-.67-5.71-.15-7.94,1.4-2.26,1.58-3.66,4.22-2.97,7.65l-.66,53.25c0,.18,.06,.36,.17,.5l.68,.88c.15,.19,.38,.31,.62,.31l14.15,.21c.26,0,.5-.12,.65-.32l.64-.86c.1-.13,.16-.3,.16-.46l.84-53.68c.84-4.98-2.59-8.4-6.35-8.87Z"/><path class="cls-4" d="M107.31,12.39c.6,.21,1.15,.48,1.56,.83,.34,.29,.37,.79,.08,1.13-.29,.33-.79,.37-1.13,.08-.19-.16-.53-.35-1.05-.54-.51-.18-1.13-.34-1.85-.47-1.43-.27-3.17-.42-4.92-.45-1.75-.03-3.48,.07-4.9,.3-.71,.11-1.32,.26-1.82,.42-.51,.17-.82,.35-.99,.5-.33,.3-.83,.27-1.13-.06-.3-.33-.27-.83,.06-1.13,.4-.36,.96-.63,1.55-.83,.6-.21,1.31-.37,2.08-.49,1.53-.24,3.36-.35,5.17-.32,1.82,.03,3.65,.19,5.19,.48,.77,.14,1.48,.32,2.09,.54Z"/><path class="cls-4" d="M107.14,23.85c.6,.21,1.15,.48,1.56,.83,.34,.29,.37,.79,.08,1.13-.29,.33-.79,.37-1.13,.08-.19-.16-.53-.35-1.05-.54-.51-.18-1.13-.34-1.85-.47-1.43-.27-3.17-.42-4.92-.45-1.75-.03-3.48,.07-4.9,.3-.71,.11-1.32,.26-1.82,.42-.5,.17-.82,.35-.99,.5-.33,.3-.83,.27-1.13-.06-.3-.33-.27-.83,.06-1.13,.4-.36,.96-.63,1.55-.83,.6-.21,1.31-.37,2.08-.49,1.53-.24,3.36-.35,5.17-.32,1.82,.03,3.65,.19,5.19,.48,.77,.14,1.48,.32,2.09,.54Z"/><path d="M108.13,28.38c-2.39-2.05-14.31-2.28-16.59-.23l.02-.98c3.12-1.95,13.7-1.82,16.58,.24v.97Z"/><path class="cls-4" d="M104.92,25.45c1.47,.28,2.82,.7,3.68,1.32,.21,.15,.34,.4,.33,.66v.97c-.02,.31-.2,.59-.49,.72-.28,.13-.61,.08-.85-.12-.19-.16-.53-.35-1.05-.54-.51-.18-1.13-.34-1.85-.47-1.43-.27-3.17-.42-4.92-.45-1.75-.03-3.48,.07-4.9,.3-.71,.11-1.32,.26-1.82,.42-.51,.17-.82,.35-.99,.5-.24,.21-.58,.27-.87,.13-.29-.13-.47-.42-.47-.74l.02-.98c0-.27,.15-.52,.38-.66,.92-.58,2.3-.95,3.8-1.19,1.53-.24,3.28-.34,5.01-.32,1.73,.02,3.47,.18,4.97,.46Z"/><path d="M108.52,14.61c-2.39-2.05-14.31-2.28-16.59-.23l.02-.98c3.12-1.95,13.7-1.82,16.58,.24v.97Z"/><path class="cls-4" d="M105.32,11.68c1.47,.28,2.82,.7,3.69,1.32,.21,.15,.34,.4,.33,.66v.97c-.02,.31-.2,.59-.49,.72-.28,.13-.61,.08-.85-.12-.19-.16-.53-.35-1.05-.54-.51-.18-1.13-.34-1.85-.47-1.43-.27-3.17-.42-4.92-.45-1.75-.03-3.48,.07-4.9,.3-.71,.11-1.32,.26-1.82,.42-.51,.17-.82,.35-.99,.5-.24,.21-.58,.27-.87,.13-.29-.13-.47-.42-.47-.74l.02-.98c0-.27,.15-.52,.38-.66,.92-.58,2.3-.95,3.8-1.19,1.53-.24,3.28-.34,5.01-.32,1.73,.02,3.47,.18,4.97,.46Z"/><path class="cls-4" d="M106.86,42.85c.6,.21,1.15,.48,1.56,.83,.34,.29,.37,.79,.08,1.13-.29,.33-.79,.37-1.13,.08-.19-.16-.53-.35-1.05-.54-.51-.18-1.13-.34-1.85-.47-1.43-.27-3.17-.42-4.92-.45-1.75-.03-3.48,.07-4.9,.3-.71,.11-1.32,.26-1.82,.42-.51,.17-.82,.35-.99,.5-.33,.3-.83,.27-1.13-.06-.3-.33-.27-.83,.06-1.13,.4-.36,.96-.63,1.55-.83,.6-.21,1.31-.37,2.08-.49,1.53-.24,3.36-.35,5.17-.32,1.82,.03,3.65,.19,5.19,.48,.77,.14,1.48,.32,2.09,.54Z"/><path class="cls-4" d="M90.89,30.66c.29-.33,.79-.37,1.13-.08,.19,.16,.53,.35,1.05,.54,.51,.18,1.13,.34,1.85,.47,1.43,.27,3.17,.42,4.92,.45,1.75,.03,3.48-.07,4.9-.3,.71-.11,1.32-.26,1.82-.42,.5-.17,.82-.35,.99-.5,.33-.3,.83-.27,1.13,.06,.3,.33,.27,.83-.06,1.13-.4,.36-.96,.63-1.55,.83-.6,.21-1.31,.37-2.08,.49-1.53,.24-3.36,.35-5.17,.32-1.82-.03-3.65-.19-5.19-.48-.77-.14-1.48-.32-2.09-.54-.6-.21-1.15-.48-1.56-.83-.33-.29-.37-.79-.08-1.13Z"/><path class="cls-1" d="M105.31,10.2c5.02-8.3,3.65,16.5,4.03,18.55-.2,7.99,1.29,19.04-2.8,26.2-2.16,4.34-11.91,3.98-13.66-.52-4.74-12.26-1.24-27.19-1.31-40.23,.1-1.71,.18-6.52,2.82-5.62,.71,.29,1.49,1.1,.96,1.27-.91-.08-2.31-.79-2.41,.66,.11,12.96-3.11,30.35,1.44,42.65,5.58,7.32,12.85,.53,13.05-6.8,.68-10.51,.56-25.36,.26-35.8-.35-1.23-1.49-.48-2.37-.36Z"/><path class="cls-2" d="M92.1,14.22c.02,3.27-.19,6.66-.43,10.08-.05,.68-.1,1.36-.15,2.04-.2,2.76-.41,5.53-.52,8.29-.27,6.87,.04,13.58,2.37,19.61,.38,.96,1.2,1.74,2.31,2.3,1.11,.56,2.49,.88,3.89,.93,1.4,.05,2.8-.16,3.96-.63,1.17-.47,2.06-1.19,2.52-2.12v-.03c1.99-3.46,2.64-7.91,2.8-12.54,.08-2.31,.04-4.65,0-6.92,0-.2,0-.41-.01-.61-.04-2.03-.09-4.01-.04-5.82-.05-.33-.07-.97-.07-1.76,0-.62,0-1.37,0-2.21,0-.32,0-.66,0-1,0-2.48-.02-5.5-.19-8.19-.06-1.03-.15-2.01-.26-2.89,.25,10.25,.32,23.83-.32,33.64-.11,3.81-2.04,7.51-4.74,9.31-1.36,.91-2.94,1.35-4.57,1.04-1.63-.31-3.24-1.35-4.69-3.26-.03-.04-.06-.09-.08-.14-2.31-6.25-2.64-13.76-2.42-21.28,.09-3.15,.28-6.32,.47-9.4,.04-.6,.07-1.19,.11-1.79,.2-3.41,.37-6.69,.37-9.73-.19,.95-.24,1.99-.28,2.75,0,.12-.01,.23-.02,.33Zm1.24-5.09c.17-.05,.35-.06,.5-.06,.14,0,.28,.02,.41,.04-.02,0-.04-.02-.06-.03-.25-.08-.44-.09-.59-.06-.09,.02-.18,.05-.27,.11Zm14.15,.34c-.11-.21-.21-.33-.29-.38-.06-.05-.1-.05-.16-.04-.08,.02-.23,.09-.43,.3h.03c.25-.03,.56-.03,.85,.12Zm-14.08-1.49c.36-.07,.75-.03,1.15,.1h.03c.44,.19,.88,.51,1.16,.84,.13,.15,.29,.38,.31,.66,.01,.16-.02,.34-.14,.5-.12,.16-.27,.24-.41,.28-.07,.02-.14,.03-.21,.02-.23-.02-.49-.08-.71-.12-.03,0-.07-.01-.1-.02-.26-.06-.48-.1-.66-.1-.18,0-.24,.03-.26,.05-.01,0-.08,.07-.1,.34,.03,3.25-.16,6.78-.37,10.41-.04,.59-.07,1.19-.11,1.79-.19,3.08-.38,6.23-.47,9.36-.22,7.46,.11,14.77,2.32,20.8,1.32,1.71,2.7,2.55,3.99,2.79,1.31,.25,2.6-.09,3.78-.88,2.38-1.59,4.17-4.95,4.27-8.47v-.02c.68-10.46,.56-25.25,.26-35.67-.06-.17-.12-.21-.14-.22-.03-.02-.1-.04-.26-.02-.17,.02-.36,.07-.6,.14h-.04c-.22,.07-.48,.15-.73,.19-.2,.03-.41-.06-.52-.23-.11-.17-.12-.39-.01-.57,.33-.54,.64-.96,.94-1.28,.3-.31,.62-.54,.98-.63,.39-.1,.75-.01,1.05,.21,.28,.21,.49,.51,.65,.85,.33,.67,.56,1.63,.73,2.72,.17,1.11,.3,2.4,.38,3.76,.17,2.73,.19,5.77,.19,8.26,0,.35,0,.69,0,1.01,0,.83,0,1.57,0,2.19,0,.88,.03,1.43,.07,1.63,0,.04,0,.07,0,.11-.04,1.81,0,3.77,.04,5.83,0,.2,0,.4,.01,.6,.05,2.27,.09,4.64,0,6.98-.16,4.67-.82,9.33-2.92,13.02-.62,1.23-1.75,2.09-3.07,2.62-1.33,.54-2.88,.77-4.41,.71s-3.05-.4-4.33-1.04c-1.27-.64-2.33-1.59-2.83-2.87h0c-2.41-6.23-2.72-13.12-2.44-20.04,.11-2.78,.32-5.57,.52-8.33,.05-.68,.1-1.35,.15-2.03,.24-3.42,.45-6.78,.43-10.02v-.03c0-.1,.01-.21,.02-.33,.05-.89,.12-2.36,.46-3.57,.19-.68,.48-1.37,.97-1.82,.25-.23,.56-.41,.92-.48Z"/><path d="M92.07,63.21l-.02,1.22,14.88,.22,.02-1.22-14.88-.22Z"/><path class="cls-4" d="M92.04,64.69c-.15,0-.26-.12-.26-.27l.02-1.21c0-.15,.12-.26,.27-.26l14.88,.22c.15,0,.27,.12,.26,.27l-.02,1.21c0,.15-.12,.26-.27,.26l-14.88-.22Zm.27-.53l14.35,.21v-.68l-14.34-.21v.68Z"/><path class="cls-4" d="M91.68,63.98c0-.44,.37-.79,.81-.79l13.98,.2c.21,0,.41,.09,.56,.24,.15,.15,.23,.36,.23,.57l-.62,41.16c0,.31-.18,.58-.46,.71l-.34-.72,.34,.72h-.02l-.03,.02s-.06,.02-.1,.04c-.09,.03-.21,.08-.36,.14-.32,.11-.78,.25-1.38,.39-1.21,.28-2.99,.54-5.32,.51-2.31-.03-4.15-.35-5.42-.66-.64-.15-1.13-.31-1.47-.43-.17-.06-.3-.11-.39-.14-.05-.02-.08-.03-.11-.04h-.03v-.02h-.01s0,0,.32-.73l-.32,.73c-.29-.13-.48-.42-.48-.74l.62-41.15Zm.99,40.62c.29,.1,.72,.23,1.26,.36,1.17,.28,2.89,.58,5.06,.61,2.2,.03,3.85-.21,4.94-.46,.48-.11,.86-.22,1.12-.31l.6-39.81-12.38-.18-.6,39.79Z"/><path class="cls-4" d="M92.69,104.79c.22,.38,.1,.87-.28,1.09-.2,.12-.45,.42-.63,.92-.17,.48-.22,1.04-.14,1.54,0,.04,0,.07,.01,.11l1.77,51.01h.02c.26,.08,.63,.15,1.1,.22,.93,.12,2.15,.2,3.38,.22,1.23,.02,2.45-.02,3.38-.13,.46-.05,.83-.12,1.08-.19,0-.11,0-.23,0-.36,.01-.47,.05-1.11,.1-1.91,.11-1.6,.28-3.83,.49-6.48,.11-1.37,.23-2.85,.36-4.41,.36-4.48,.78-9.62,1.16-14.73,.51-6.89,.95-13.68,1.09-18.65,.07-2.49,.06-4.5-.04-5.82-.04-.56-.1-.95-.16-1.19-.16-.07-.3-.18-.4-.35-.22-.38-.08-.87,.3-1.09,.15-.08,.35-.15,.58-.13,.24,.02,.43,.12,.56,.24,.24,.2,.36,.49,.43,.68,.14,.42,.23,1.02,.28,1.72,.11,1.41,.11,3.49,.04,5.99-.14,5.01-.58,11.84-1.09,18.73-.38,5.11-.8,10.26-1.16,14.74-.13,1.56-.25,3.04-.36,4.4-.21,2.65-.38,4.87-.49,6.46-.05,.79-.09,1.42-.1,1.86,0,.22,0,.38,0,.49v.06c.05,.2,.03,.41-.07,.59-.14,.26-.37,.41-.53,.49-.17,.09-.36,.16-.55,.22-.38,.11-.85,.19-1.35,.24-1.02,.12-2.31,.16-3.59,.14-1.27-.02-2.56-.1-3.57-.24-.5-.07-.96-.15-1.33-.26-.18-.05-.36-.12-.53-.2-.14-.07-.37-.21-.52-.47-.07-.11-.1-.24-.11-.37l-1.79-51.4c-.12-.77-.03-1.58,.21-2.27,.24-.7,.67-1.39,1.33-1.78,.38-.22,.87-.1,1.09,.28Zm12.64,1.03h0Zm-2.68,53.67h0Zm-9.45-.11h0Z"/><path class="cls-4" d="M92.49,159.16c.43-.1,.86,.16,.97,.59l3.31,13.61,2.09,.03,3.56-13.49c.11-.43,.55-.68,.98-.57s.68,.55,.57,.98l-3.72,14.1c-.09,.35-.42,.6-.79,.6l-3.34-.05c-.36,0-.68-.26-.77-.61l-3.46-14.21c-.1-.43,.16-.86,.59-.97Z"/><path d="M96.54,174.15l1.29,4.39,1.28-4.35-2.57-.04Z"/><path class="cls-4" d="M96.33,173.99c.05-.07,.13-.11,.22-.1l2.57,.04c.08,0,.16,.04,.21,.11,.05,.07,.06,.15,.04,.23l-1.28,4.35c-.03,.11-.14,.19-.26,.19-.12,0-.22-.08-.26-.19l-1.29-4.39c-.02-.08,0-.17,.04-.24Zm.57,.43l.93,3.17,.92-3.14-1.85-.03Z"/><path d="M91.54,120.6c.65,1.12,13.37,1.34,14.05,.18l-1.18,16.34c-.64,1.21-11.78,.92-12.33,.05l-.53-16.56Z"/><path class="cls-4" d="M92.15,120.08c-.2-.24-.52-.34-.83-.25-.35,.1-.59,.43-.58,.79l.53,16.56c0,.14,.05,.28,.13,.41,.17,.27,.44,.4,.57,.46,.17,.07,.37,.14,.57,.18,.41,.1,.93,.18,1.51,.25,1.17,.13,2.66,.21,4.15,.23,1.49,.02,2.99-.03,4.18-.17,.59-.07,1.13-.16,1.56-.28,.21-.06,.43-.14,.62-.24,.17-.1,.41-.26,.56-.54,.05-.1,.08-.21,.09-.32l1.18-16.34c.03-.37-.21-.71-.56-.82-.31-.1-.64,0-.85,.25-.06,.03-.18,.07-.36,.12-.36,.09-.87,.17-1.5,.23-1.26,.12-2.9,.17-4.55,.15-1.65-.02-3.3-.12-4.55-.27-.63-.08-1.14-.17-1.5-.27-.18-.05-.3-.09-.36-.12h0Zm12.87,.15h0Zm-12.9-.17h0Zm.74,16.6s.05,.01,.07,.02c.31,.08,.76,.15,1.31,.21,1.1,.13,2.53,.2,3.98,.22,1.45,.01,2.88-.04,3.98-.16,.55-.06,.99-.14,1.3-.23,.05-.02,.1-.03,.14-.05l1.06-14.69c-.41,.08-.9,.15-1.42,.2-1.34,.13-3.04,.18-4.73,.15-1.69-.02-3.39-.12-4.73-.29-.53-.07-1.02-.15-1.44-.24l.48,14.84Zm10.95-.06h0Zm-11.2-.03h0Z"/><path class="cls-4" d="M90.81,106.78c.24-.17,.57-.12,.74,.11h0s.03,.03,.14,.09c.12,.06,.28,.12,.49,.18,.43,.13,1.01,.24,1.7,.33,1.38,.19,3.15,.29,4.93,.32,1.78,.02,3.56-.04,4.94-.19,.7-.07,1.28-.17,1.71-.28,.22-.06,.38-.11,.5-.17,.11-.05,.14-.08,.14-.08h0c.18-.23,.52-.27,.75-.08,.23,.18,.27,.52,.08,.75-.14,.18-.35,.3-.53,.38-.2,.09-.43,.16-.68,.23-.5,.13-1.14,.23-1.86,.31-1.44,.15-3.26,.21-5.07,.19-1.81-.02-3.63-.13-5.06-.33-.72-.1-1.36-.22-1.86-.36-.25-.07-.48-.16-.67-.25-.18-.09-.38-.22-.52-.41-.17-.24-.12-.57,.12-.75Z"/><path class="cls-4" d="M91.73,109.49c-.16-.24-.49-.3-.73-.15-.25,.16-.32,.49-.16,.74,.13,.2,.33,.33,.51,.43,.19,.1,.41,.18,.65,.25,.48,.14,1.11,.26,1.81,.35,1.41,.19,3.19,.3,4.97,.32,1.78,.02,3.57-.04,4.98-.19,.7-.07,1.33-.17,1.82-.3,.24-.06,.47-.14,.66-.23,.18-.08,.38-.21,.52-.4,.17-.24,.12-.57-.12-.74-.24-.17-.56-.12-.73,.11,0,0-.03,.03-.11,.07-.11,.05-.26,.1-.47,.16-.42,.11-.98,.2-1.66,.27-1.36,.14-3.1,.2-4.86,.18-1.75-.02-3.49-.13-4.85-.31-.68-.09-1.24-.2-1.65-.32-.21-.06-.36-.12-.46-.17-.08-.04-.1-.07-.11-.07Z"/><path class="cls-4" d="M91.68,112.11c-.16-.24-.48-.3-.73-.15-.25,.16-.32,.49-.16,.74,.13,.2,.33,.33,.51,.43,.19,.1,.41,.18,.65,.25,.48,.14,1.11,.26,1.81,.35,1.41,.19,3.19,.3,4.97,.32,1.78,.02,3.57-.04,4.98-.19,.7-.07,1.33-.17,1.82-.3,.24-.06,.47-.14,.66-.23,.18-.08,.38-.21,.52-.4,.17-.24,.12-.57-.12-.74-.24-.17-.56-.12-.74,.11,0,0-.03,.03-.11,.07-.11,.05-.26,.1-.47,.16-.42,.11-.98,.2-1.66,.27-1.36,.14-3.1,.2-4.86,.18-1.75-.02-3.49-.13-4.85-.31-.68-.09-1.24-.2-1.65-.32-.21-.06-.36-.12-.46-.17-.08-.04-.1-.07-.11-.07Z"/><path class="cls-4" d="M91.64,114.72c-.16-.24-.48-.3-.73-.15-.25,.16-.32,.49-.16,.74,.13,.2,.33,.33,.51,.43,.19,.1,.41,.18,.65,.25,.48,.14,1.11,.26,1.81,.35,1.41,.19,3.19,.3,4.97,.32,1.78,.02,3.57-.04,4.98-.19,.7-.07,1.33-.17,1.82-.3,.24-.06,.47-.14,.66-.23,.18-.08,.38-.21,.52-.4,.17-.24,.12-.57-.12-.74-.24-.17-.56-.12-.74,.11,0,0-.03,.03-.11,.07-.11,.05-.26,.1-.47,.16-.41,.11-.98,.2-1.66,.27-1.36,.14-3.1,.2-4.86,.18-1.75-.02-3.49-.13-4.85-.31-.68-.09-1.24-.2-1.65-.32-.21-.06-.36-.12-.46-.17-.08-.04-.1-.07-.11-.07Z"/><path class="cls-4" d="M91.6,117.33c-.16-.24-.48-.3-.73-.15-.25,.16-.32,.49-.16,.74,.13,.2,.33,.33,.51,.43,.19,.1,.41,.18,.65,.25,.48,.14,1.11,.26,1.81,.35,1.41,.19,3.19,.3,4.97,.32,1.78,.02,3.57-.04,4.98-.19,.7-.07,1.33-.17,1.82-.3,.24-.06,.47-.14,.66-.23,.18-.08,.38-.21,.52-.4,.17-.24,.12-.57-.12-.74-.24-.17-.56-.12-.74,.11,0,0-.03,.03-.11,.07-.11,.05-.26,.1-.47,.16-.42,.11-.98,.2-1.66,.27-1.36,.14-3.1,.2-4.86,.18-1.75-.02-3.49-.13-4.84-.31-.68-.09-1.24-.2-1.65-.32-.21-.06-.36-.12-.46-.17-.08-.04-.1-.07-.11-.07Z"/><path class="cls-4" d="M103.24,11.76c.44,0,.79,.37,.79,.81l-.16,10.93c0,.44-.37,.79-.81,.79-.44,0-.79-.37-.79-.81l.16-10.93c0-.44,.37-.79,.81-.79Z"/><path class="cls-4" d="M97.76,11.69c.44,.01,.79,.38,.77,.82l-.33,10.93c-.01,.44-.38,.79-.82,.78-.44-.01-.79-.38-.77-.82l.33-10.93c.01-.44,.38-.79,.82-.78Z"/><path class="cls-4" d="M103.08,26.26c.44,.05,.75,.45,.7,.89-.11,.98,.09,1.58,.54,2.11,.5,.58,1.34,1.12,2.67,1.79,.39,.2,.55,.68,.35,1.08-.2,.39-.68,.55-1.08,.35-1.32-.67-2.43-1.33-3.16-2.18-.78-.91-1.07-1.98-.91-3.33,.05-.44,.45-.75,.89-.7Z"/><path class="cls-4" d="M97.07,26.23c.44-.05,.83,.27,.88,.71,.14,1.35-.15,2.42-.94,3.32-.73,.84-1.85,1.49-3.18,2.15-.4,.2-.88,.04-1.07-.36-.2-.39-.04-.88,.36-1.07,1.33-.67,2.18-1.19,2.68-1.77,.45-.52,.66-1.12,.56-2.11-.05-.44,.27-.83,.71-.88Z"/><path class="cls-4" d="M98.23,51.1c-.29,.48-.37,1.06-.38,1.38-.02,1.46-.07,4.13-.1,6.43-.02,1.15-.03,2.21-.05,2.98l-.02,1.26h-.8l-.8-.02,.02-1.26c.01-.77,.03-1.83,.04-2.98,.04-2.3,.08-4.97,.1-6.43,0-.47,.11-1.38,.61-2.19,.53-.87,1.48-1.58,2.99-1.56h0c1.53,.02,2.47,.76,2.99,1.64,.49,.83,.58,1.74,.58,2.2h0c-.02,1.52-.07,4.11-.11,6.33-.02,1.11-.04,2.12-.05,2.86l-.02,1.2h-.8l-.8-.03,.02-1.2c.01-.74,.03-1.75,.05-2.86,.04-2.21,.09-4.81,.11-6.32,0-.29-.07-.87-.36-1.37-.26-.44-.71-.84-1.64-.86-.91-.01-1.35,.37-1.6,.79Zm4.21,11.82l-.8-.02c0,.44,.34,.81,.78,.81,.44,0,.81-.34,.82-.78h-.8Zm-5.56,1.01c-.44,0-.79-.37-.79-.81h.8l.8,.02c0,.44-.37,.79-.81,.79Z"/><path class="cls-4" d="M45.6,78.32c-.29,0-.53-.17-.53-.38l-.03-10.3c0-.21,.23-.38,.53-.38h1.95c.29,0,.53,.16,.53,.37l.03,10.3c0,.21-.23,.38-.53,.38h-1.95Zm.52-.75h.9l-.03-9.55h-.9l.03,9.55Z"/><path d="M49.11,68.74l.03,8.1,11.41-.02-.03-8.1-11.41,.02Z"/><path class="cls-4" d="M49.13,77.09c-.19,0-.35-.11-.35-.25l-.03-8.1c0-.14,.16-.25,.35-.25l11.41-.02c.19,0,.35,.11,.35,.25l.03,8.1c0,.14-.16,.25-.35,.25l-11.41,.02Zm.35-.5l10.7-.02-.02-7.6-10.7,.02,.02,7.6Z"/><path class="cls-4" d="M45.14,75.35l-28.43,.05c-.02,.23-.03,.46-.05,.69,0,.02,.02,.04,.02,.06l28.46-.05c.29,0,.53-.17,.53-.38,0-.21-.24-.38-.53-.38Z"/><path class="cls-4" d="M45.12,69.49l-28.12,.05c0,.25,0,.5-.01,.75l28.13-.05c.29,0,.53-.17,.53-.38s-.24-.38-.53-.38Z"/><path class="cls-4" d="M62.57,67.61c0-.1-.06-.2-.16-.27-.1-.07-.23-.11-.37-.11l-45.1,.08c.02,.25,.02,.5,.03,.75l44.55-.08,.03,9.57-44.65,.07c-.02,.15-.07,.3-.11,.45,.05,.1,.09,.2,.12,.3l45.17-.08c.29,0,.53-.17,.53-.38l-.03-10.32Z"/><path class="cls-4" d="M13.62,63.84c.33-.37,.89-.68,1.72-.68,.87,0,1.43,.31,1.74,.7,.29,.36,.35,.78,.35,1.04,0,2.09,.02,5.26,.03,8.39,0,2.73,.02,5.43,.02,7.34,0,.28-.07,.72-.36,1.09-.3,.4-.85,.75-1.72,.75h0c-.86,0-1.42-.34-1.74-.73-.31-.37-.42-.81-.42-1.11-.01-3.33-.03-9.24-.04-13.42,0-.85,0-1.64,0-2.31,0-.3,.12-.71,.43-1.07Zm.89,.4c-.19,.21-.27,.48-.27,.66h0c0,.67,0,1.46,0,2.31,.01,4.18,.03,10.09,.04,13.42h0c0,.2,.08,.49,.27,.73,.18,.22,.43,.36,.83,.36,.41,0,.64-.14,.8-.35,.17-.23,.24-.53,.23-.73h0c0-1.91-.02-4.61-.02-7.34,0-3.13-.02-6.31-.03-8.39h0c0-.2-.05-.47-.22-.67-.14-.18-.37-.32-.82-.32h0c-.4,0-.66,.14-.83,.33Z"/><path class="cls-4" d="M2.49,75.34c0-.21,.23-.38,.53-.38l10.62-.02c.29,0,.53,.17,.53,.38,0,.21-.23,.38-.53,.38l-10.62,.02c-.29,0-.53-.17-.53-.38Z"/><path class="cls-4" d="M2.47,70.4c0-.21,.23-.38,.53-.38l10.62-.02c.29,0,.53,.17,.53,.38,0,.21-.23,.38-.53,.38l-10.62,.02c-.29,0-.53-.17-.53-.38Z"/><path class="cls-4" d="M.3,67.06c.25-.27,.67-.49,1.28-.46,.63,.02,1.04,.26,1.26,.55,.21,.26,.26,.55,.26,.74,.02,1.33,.06,3.36,.09,5.36,.03,1.74,.06,3.46,.08,4.68,0,.19-.04,.5-.25,.76-.11,.14-.26,.28-.49,.38-.23,.1-.5,.15-.81,.14h0c-.62-.02-1.03-.28-1.26-.56-.22-.27-.3-.57-.3-.78-.04-2.13-.1-5.92-.15-8.59,0-.54-.02-1.03-.02-1.46h0c0-.21,.07-.5,.3-.75Zm.88,.41c-.09,.1-.13,.24-.13,.33h0l.02,1.46c.05,2.67,.11,6.46,.15,8.59h0c0,.11,.05,.27,.16,.41,.1,.12,.22,.19,.4,.19,.11,0,.17-.01,.2-.03,.04-.02,.08-.05,.12-.1,.09-.11,.12-.27,.12-.39h0c-.02-1.22-.05-2.94-.08-4.69-.03-2-.07-4.03-.09-5.36h0c0-.11-.03-.26-.12-.37-.07-.09-.17-.16-.4-.17h0c-.11,0-.17,.01-.21,.03-.05,.02-.09,.05-.13,.09Z"/><polygon points="74.17 72.48 83.79 72.69 73.96 72.91 74.17 72.48"/></svg>