<?xml version="1.0" encoding="UTF-8"?><svg id="Layer_1" xmlns="http://www.w3.org/2000/svg" viewBox="0 0 222.13 267.9"><defs><style>.cls-1,.cls-2{isolation:isolate;opacity:.97;}.cls-2,.cls-3{fill-rule:evenodd;}</style></defs><path class="cls-3" d="M1.53,11.15l.02,.54c.03,.9,.08,2.22,.14,3.92,.12,3.4,.28,8.29,.48,14.28,.38,11.98,.87,28.34,1.29,45.85,.82,34.51,1.36,73.56,.27,92.41,7.74-.12,21.58-.79,37.1-1.55,2.34-.11,4.72-.23,7.12-.34,18.89-.91,39.22-1.84,53.56-2,.41,0,.75,.33,.76,.74,0,.41-.33,.75-.74,.76-14.31,.16-34.6,1.08-53.5,1.99-2.4,.12-4.78,.23-7.12,.35-16.07,.78-30.37,1.47-37.96,1.56-.21,0-.41-.08-.55-.23-.14-.15-.22-.36-.2-.56,1.15-18.45,.61-58.06-.22-93.09-.42-17.51-.9-33.86-1.29-45.84-.19-5.99-.36-10.88-.48-14.28-.06-1.7-.11-3.02-.14-3.92-.02-.45-.03-.79-.04-1.02v-.35s-.01,0,.74-.03L0,10.37c0-.22,.08-.43,.24-.58,.16-.15,.38-.22,.59-.19,1.16,.13,4.04,.08,8.27-.12,4.2-.2,9.66-.55,15.95-1,12.58-.9,28.43-2.19,44.03-3.5,6.75-.57,13.44-1.14,19.8-1.68,8.34-.71,16.09-1.37,22.62-1.91,5.75-.48,10.55-.86,13.96-1.1,1.7-.12,3.06-.21,4.01-.25,.48-.02,.86-.03,1.14-.04,.14,0,.26,0,.37,0,.05,0,.11,0,.17,.02h0s.16,.03,.29,.1c.25,.14,.4,.42,.38,.7-1.66,25.11-.18,97.33,.8,136.81,.01,.41-.32,.76-.73,.77-.41,.01-.76-.32-.77-.73-.97-39.04-2.43-110.31-.85-136.18-.2,0-.45,.01-.73,.03-.94,.04-2.28,.13-3.98,.25-3.39,.24-8.19,.62-13.94,1.1-6.53,.54-14.28,1.2-22.61,1.91-6.36,.54-13.06,1.11-19.81,1.68-15.59,1.31-31.46,2.61-44.05,3.51-6.29,.45-11.77,.8-15.99,1-3.44,.17-6.08,.24-7.64,.17Z"/><path class="cls-3" d="M42.04,31.82c1.27,.22,2.36,1.05,3.02,2.45,.21,.44,.02,.96-.42,1.17-.44,.21-.96,.02-1.17-.42-.45-.94-1.08-1.36-1.74-1.48-.69-.12-1.54,.08-2.39,.63-1.69,1.11-3.15,3.52-2.87,6.59,0,.06,0,.12,0,.18-.39,3.56,1.27,5.78,3.15,6.62,1.91,.85,4.05,.33,5.07-1.66,.22-.43,.75-.6,1.18-.38,.43,.22,.6,.75,.38,1.18-1.51,2.96-4.73,3.62-7.34,2.46-2.62-1.17-4.61-4.11-4.18-8.32-.31-3.67,1.44-6.67,3.66-8.13,1.12-.73,2.41-1.11,3.65-.89Z"/><path class="cls-3" d="M51.35,35.04c-.61,2.29-1.1,6.39-1.38,12.87-.02,.48-.43,.86-.91,.84-.48-.02-.86-.43-.84-.91,.29-6.49,.78-10.75,1.44-13.24,.32-1.21,.72-2.16,1.28-2.71,.31-.3,.72-.52,1.2-.51,.47,0,.85,.22,1.15,.47,.57,.47,1.07,1.29,1.52,2.22,.46,.97,.92,2.18,1.37,3.57,.9,2.78,1.78,6.31,2.57,10.09,.1,.47-.2,.94-.68,1.04-.47,.1-.94-.2-1.04-.68-.78-3.75-1.65-7.22-2.52-9.91-.44-1.35-.87-2.48-1.28-3.36-.43-.9-.79-1.41-1.05-1.63-.02-.01-.03-.02-.04-.03-.19,.19-.48,.73-.79,1.88Zm.72-1.92h0Z"/><path class="cls-3" d="M49.93,43.44c-.47,.13-.95-.15-1.07-.62-.13-.47,.15-.95,.62-1.07l.23,.85q-.23-.84-.23-.85l.27-.07c.17-.05,.42-.11,.72-.19,.59-.15,1.38-.36,2.15-.55,.77-.19,1.55-.38,2.12-.5,.28-.06,.53-.11,.72-.13h0c.06,0,.23-.03,.39,0,.05,0,.14,.03,.25,.08,.1,.05,.31,.17,.44,.44,.13,.3,.07,.58,0,.73-.07,.14-.15,.23-.2,.27-.22,.21-.51,.29-.79,.23-.11,.02-.26,.05-.45,.09-.53,.11-1.28,.29-2.05,.48-.77,.19-1.55,.39-2.13,.55-.29,.08-.54,.14-.71,.19l-.27,.07Z"/><path class="cls-3" d="M69.29,27.89c.48-.07,.92,.26,.99,.74,.5,3.33,.79,7.62,.96,11.05,.09,1.72,.14,3.24,.17,4.32,.02,.54,.03,.98,.04,1.28,0,.15,0,.27,0,.35v.12s0,0-.87,.02l-.77,.42-.02-.03-.06-.1c-.05-.09-.12-.22-.22-.39-.19-.34-.46-.83-.8-1.43-.68-1.2-1.62-2.81-2.66-4.5-1.04-1.69-2.17-3.45-3.23-4.92-.58-.81-1.13-1.5-1.61-2.05,0,1.09,.09,2.61,.2,4.29,.21,3.08,.55,6.61,.75,8.81,.03,.3,.05,.58,.08,.83,.04,.48-.31,.91-.79,.95-.48,.04-.91-.31-.95-.79-.02-.25-.05-.52-.08-.82-.21-2.2-.54-5.76-.76-8.86-.12-1.76-.21-3.4-.21-4.56,0-.57,.02-1.08,.08-1.44,.02-.15,.08-.42,.23-.64,.08-.12,.27-.35,.61-.42,.35-.07,.63,.07,.78,.18,.92,.68,2.01,2.01,3.09,3.51,1.1,1.52,2.26,3.32,3.31,5.03,.76,1.23,1.46,2.42,2.05,3.44-.03-.75-.06-1.59-.11-2.48-.17-3.43-.46-7.64-.94-10.88-.07-.48,.26-.92,.74-.99Zm1.3,17.88l-.77,.42c.19,.35,.6,.53,.99,.43,.39-.1,.66-.46,.65-.86l-.87,.02Z"/><path class="cls-3" d="M89.43,38.38c-.06,.08-.17,.23-.37,.33h0c-.44,.24-.85,.09-1.07-.05-.21-.13-.36-.3-.47-.45-.23-.29-.46-.7-.68-1.14-.44-.89-.95-2.09-1.43-3.26l-.12-.28c-.34-.83-.67-1.63-.97-2.29,0,.05-.01,.1-.02,.16-.13,1.08-.23,2.5-.31,4.08-.05,1.04-.1,2.15-.15,3.27-.09,2.25-.19,4.53-.34,6.34-.04,.48-.46,.84-.94,.8-.48-.04-.84-.46-.8-.94,.15-1.77,.24-3.99,.33-6.21,.05-1.13,.09-2.26,.15-3.34,.08-1.59,.18-3.06,.32-4.2,.07-.57,.15-1.08,.25-1.49,.05-.21,.11-.41,.19-.58,.07-.17,.18-.38,.35-.55h0c.15-.16,.37-.28,.65-.3,.25-.01,.45,.07,.57,.14,.22,.13,.38,.32,.47,.45,.2,.28,.41,.67,.61,1.09,.37,.78,.81,1.85,1.25,2.91l.12,.29c.47,1.13,.92,2.23,1.32,3.04,.04-.18,.09-.38,.14-.6,.22-.98,.46-2.2,.7-3.44,.05-.25,.1-.51,.15-.77,.29-1.48,.59-2.95,.86-3.95,.13-.48,.27-.95,.43-1.25,.04-.08,.11-.18,.19-.28,.07-.09,.23-.25,.48-.33,.31-.1,.62-.02,.85,.15,.18,.14,.28,.31,.33,.41h0c1.35,2.79,2.32,6.43,3.05,9.68,.33,1.45,.61,2.85,.85,4.07,.03,.15,.06,.3,.09,.44,.27,1.33,.49,2.39,.68,3.08,.13,.47-.14,.95-.61,1.08-.47,.13-.95-.14-1.08-.61-.21-.76-.45-1.89-.71-3.2-.03-.14-.06-.29-.09-.44-.25-1.22-.52-2.59-.85-4.03-.57-2.53-1.26-5.21-2.14-7.49-.2,.86-.41,1.92-.63,3.03-.05,.25-.1,.5-.15,.76-.24,1.24-.49,2.49-.72,3.5-.14,.6-.27,1.15-.4,1.56-.06,.2-.13,.4-.21,.57-.04,.08-.09,.18-.16,.27Zm2.76-11.38h0Zm-8.59,2.86h0Z"/><path class="cls-3" d="M105.95,26.65c.09,.47-.22,.93-.7,1.02-1.22,.23-3.13,.46-4.71,.62-.76,.08-1.46,.15-1.97,.2l1.62,13.95h.07c.58-.08,1.37-.18,2.21-.3,1.72-.24,3.6-.53,4.48-.78,.47-.13,.95,.14,1.08,.6,.13,.46-.14,.95-.6,1.08-1.02,.29-3.03,.6-4.72,.83-.86,.12-1.65,.22-2.24,.29-.29,.04-.53,.06-.69,.08l-.19,.02h-.07l-.1-.86,.1,.87c-.48,.05-.91-.29-.97-.77l-1.83-15.71c-.03-.24,.04-.47,.19-.65,.15-.18,.37-.3,.6-.32h.06l.17-.02c.14-.01,.35-.03,.61-.06,.51-.05,1.23-.12,2.01-.2,1.58-.17,3.42-.39,4.56-.6,.47-.09,.93,.22,1.02,.7Z"/><path class="cls-3" d="M104.89,34.35c.1,.4-.15,.81-.56,.9-.66,.15-2.08,.31-3.27,.43-.61,.06-1.18,.11-1.6,.14-.21,.02-.38,.03-.5,.04h-.19c-.41,.05-.77-.26-.81-.67-.03-.41,.28-.77,.69-.81h.18c.12-.02,.29-.04,.5-.06,.42-.04,.98-.08,1.58-.14,1.23-.12,2.54-.27,3.07-.39,.4-.09,.81,.16,.9,.56Z"/><path class="cls-3" d="M28.62,33.16c1.08,.08,2.12,.59,2.74,1.69,.24,.42,.09,.95-.33,1.19-.42,.24-.95,.09-1.19-.33-.29-.51-.75-.76-1.35-.81-.62-.05-1.36,.15-2.03,.54-.67,.4-1.17,.95-1.41,1.53-.22,.54-.22,1.15,.21,1.82l.02,.03c.24,.4,.54,.58,.97,.69,.4,.09,.83,.11,1.38,.13,.16,0,.32,.01,.5,.02,.75,.03,1.63,.11,2.5,.49,.89,.39,1.7,1.07,2.36,2.2,1.79,3.03,.12,6.17-2.27,7.68-1.22,.77-2.7,1.19-4.19,.99-1.51-.2-2.94-1.03-4.02-2.61-.27-.4-.17-.94,.23-1.22s.94-.17,1.22,.23c.81,1.19,1.81,1.73,2.8,1.86,1.01,.14,2.09-.15,3.02-.73,1.9-1.2,2.84-3.39,1.7-5.31h0c-.49-.84-1.02-1.25-1.55-1.49-.56-.24-1.17-.31-1.88-.35-.12,0-.25-.01-.39-.01-.57-.02-1.23-.04-1.82-.18-.79-.19-1.54-.6-2.07-1.49-.72-1.15-.76-2.35-.34-3.39,.41-1.01,1.22-1.83,2.13-2.38,.91-.54,2.01-.87,3.06-.79Z"/><path d="M53.11,65.15l-24.09,.8,.8,24.09,24.09-.8-.8-24.09Zm-20.01,21.38l-.58-17.3,17.3-.58,.58,17.3-17.3,.58Z"/><path class="cls-3" d="M53.11,65.05c.06,0,.1,.04,.1,.1l.8,24.09s0,.05-.03,.07c-.02,.02-.04,.03-.07,.03l-24.09,.8c-.06,0-.1-.04-.1-.1l-.8-24.09s0-.05,.03-.07c.02-.02,.04-.03,.07-.03l24.09-.8Zm-23.98,1l.79,23.89,23.89-.79-.79-23.89-23.89,.79Zm20.76,2.53s.03,.04,.03,.07l.58,17.3c0,.06-.04,.1-.1,.1l-17.3,.58s-.05,0-.07-.03c-.02-.02-.03-.04-.03-.07l-.58-17.3c0-.06,.04-.1,.1-.1l17.3-.58s.05,0,.07,.03Zm-17.26,.75l.57,17.1,17.1-.57-.57-17.1-17.1,.57Z"/><path d="M45.66,73.1l-8.66,.29,.29,8.66,8.66-.29-.29-8.66Z"/><path class="cls-3" d="M36.91,73.39c0-.06,.04-.1,.1-.1l8.66-.29c.06,0,.1,.04,.1,.1l.29,8.66c0,.06-.04,.1-.1,.1l-8.66,.29c-.06,0-.1-.04-.1-.1l-.29-8.66Zm.2,.09l.28,8.46,8.46-.28-.28-8.46-8.46,.28Z"/><path d="M54.71,113.23l-24.09,.8,.8,24.09,24.09-.8-.8-24.09Zm-20,21.38l-.58-17.3,17.3-.58,.58,17.3-17.3,.58Z"/><path class="cls-3" d="M54.71,113.13c.06,0,.1,.04,.1,.1l.8,24.09s0,.05-.03,.07c-.02,.02-.04,.03-.07,.03l-24.09,.8c-.06,0-.1-.04-.1-.1l-.8-24.09s0-.05,.03-.07c.02-.02,.04-.03,.07-.03l24.09-.8Zm-23.98,1l.79,23.89,23.89-.79-.79-23.89-23.89,.79Zm20.77,2.53s.03,.04,.03,.07l.58,17.3c0,.06-.04,.1-.1,.1l-17.3,.58s-.05,0-.07-.03c-.02-.02-.03-.04-.03-.07l-.58-17.3c0-.06,.04-.1,.1-.1l17.3-.58s.05,0,.07,.03Zm-17.26,.75l.57,17.1,17.1-.57-.57-17.1-17.1,.57Z"/><path d="M47.26,121.18l-8.66,.29,.29,8.66,8.66-.29-.29-8.66Z"/><path class="cls-3" d="M38.51,121.47c0-.06,.04-.1,.1-.1l8.66-.29c.06,0,.1,.04,.1,.1l.29,8.65c0,.06-.04,.1-.1,.1l-8.66,.29c-.06,0-.1-.04-.1-.1l-.29-8.65Zm.2,.09l.28,8.46,8.46-.28-.28-8.46-8.46,.28Z"/><path d="M101.09,63.55l-24.09,.8,.8,24.09,24.09-.8-.8-24.09Zm-20,21.38l-.58-17.3,17.3-.58,.58,17.3-17.3,.58Z"/><path class="cls-3" d="M101.09,63.45c.06,0,.1,.04,.1,.1l.8,24.09c0,.06-.04,.1-.1,.1l-24.09,.8s-.05,0-.07-.03c-.02-.02-.03-.04-.03-.07l-.8-24.09s0-.05,.03-.07c.02-.02,.04-.03,.07-.03l24.09-.8Zm-23.98,1l.79,23.89,23.89-.79-.79-23.89-23.89,.79Zm20.77,2.53s.03,.04,.03,.07l.58,17.3c0,.06-.04,.1-.1,.1l-17.3,.58s-.05,0-.07-.03c-.02-.02-.03-.04-.03-.07l-.58-17.3c0-.06,.04-.1,.1-.1l17.3-.58s.05,0,.07,.03Zm-17.26,.75l.57,17.1,17.1-.57-.57-17.1-17.1,.57Z"/><path d="M93.63,71.49l-8.66,.29,.29,8.66,8.66-.29-.29-8.66Z"/><path class="cls-3" d="M84.88,71.79c0-.06,.04-.1,.1-.1l8.66-.29c.06,0,.1,.04,.1,.1l.29,8.66c0,.06-.04,.1-.1,.1l-8.66,.29c-.06,0-.1-.04-.1-.1l-.29-8.66Zm.2,.09l.28,8.46,8.46-.28-.28-8.46-8.46,.28Z"/><path d="M73.73,71.32l-.23-6.85-17.07,.57,.23,6.85,3.32-.11,.23,6.85,5.22-.17-1.84,.06-.12-3.64,3.67-.12,.12,3.64,3.38-.11-.23-6.85,3.32-.12Zm-6.83-3.42l.12,3.64c-.4,.01-3.22,.1-3.68,.12l-.12-3.64,3.68-.12Z"/><path class="cls-3" d="M73.5,64.37c.06,0,.1,.04,.1,.1l.23,6.85c0,.06-.04,.1-.1,.1l-3.22,.12,.23,6.75s0,.05-.03,.07c-.02,.02-.04,.03-.07,.03l-3.38,.11c-.06,0-.1-.04-.1-.1l-.12-3.54-3.47,.11,.11,3.44v.21l-3.47,.1c-.06,0-.1-.04-.1-.1l-.23-6.75-3.22,.11c-.06,0-.1-.04-.1-.1l-.23-6.85s0-.05,.03-.07,.04-.03,.07-.03l17.07-.57Zm-10.01,14.05l-.12-3.54s0-.05,.03-.07c.02-.02,.04-.03,.07-.03l3.67-.12c.06,0,.1,.04,.1,.1l.12,3.54,3.18-.1-.23-6.75c0-.06,.04-.1,.1-.1l3.22-.12-.22-6.65-16.87,.56,.22,6.65,3.22-.11c.06,0,.1,.04,.1,.1l.23,6.75,3.18-.1Zm3.41-10.62c.06,0,.1,.04,.1,.1l.12,3.64s0,.05-.03,.07c-.02,.02-.04,.03-.07,.03-.4,.01-3.22,.1-3.68,.12-.03,0-.05,0-.07-.03-.02-.02-.03-.04-.03-.07l-.12-3.64s0-.05,.03-.07c.02-.02,.04-.03,.07-.03l3.68-.12Zm-3.57,.32l.11,3.44c.63-.02,2.88-.1,3.48-.11l-.11-3.44-3.48,.11Z"/><path d="M73.84,74.57l-3.36,.11,.23,6.96,3.36-.11-.23-6.96Z"/><path class="cls-3" d="M70.39,74.69c0-.06,.04-.1,.1-.1l3.36-.11c.06,0,.1,.04,.1,.1l.23,6.96c0,.06-.04,.1-.1,.1l-3.36,.11c-.06,0-.1-.04-.1-.1l-.23-6.96Zm.2,.09l.23,6.76,3.16-.11-.23-6.76-3.16,.11Z"/><path d="M60.14,78.51l-3.26,.11,1.15,34.47,3.26-.11-1.15-34.47Z"/><path d="M64.68,106.34l-17.24,.57,.11,3.26,17.24-.58-.11-3.26Z"/><path class="cls-3" d="M47.33,106.92c0-.05,.04-.1,.1-.1l17.24-.57c.06,0,.1,.04,.1,.1l.11,3.26c0,.06-.04,.1-.1,.1l-17.24,.57c-.06,0-.1-.04-.1-.1l-.11-3.26Zm.2,.09l.1,3.06,17.04-.57-.1-3.06-17.04,.57Z"/><path d="M43.96,107.03l-13.53,.45,.11,3.26,13.53-.45-.11-3.26Z"/><path class="cls-3" d="M30.33,107.49c0-.06,.04-.1,.1-.1l13.53-.45c.06,0,.1,.04,.1,.1l.11,3.26c0,.06-.04,.1-.1,.1l-13.53,.45c-.06,0-.1-.04-.1-.1l-.11-3.26Zm.2,.09l.1,3.06,13.33-.44-.1-3.06-13.33,.44Z"/><path d="M43.73,96.31l-3.26,.11,.47,13.97,3.26-.11-.47-13.97Z"/><path class="cls-3" d="M40.38,96.42c0-.06,.04-.1,.1-.1l3.26-.11c.06,0,.1,.04,.1,.1l.47,13.97c0,.06-.04,.1-.1,.1l-3.26,.11c-.06,0-.1-.04-.1-.1l-.47-13.97Zm.2,.09l.46,13.77,3.06-.1-.46-13.77-3.06,.1Z"/><path d="M54.34,99.82l-13.72,.46,.11,3.26,13.72-.46-.11-3.26Z"/><path class="cls-3" d="M40.52,100.28c0-.05,.04-.1,.1-.1l13.72-.46c.06,0,.1,.04,.1,.1l.11,3.26c0,.06-.04,.1-.1,.1l-13.72,.46c-.06,0-.1-.04-.1-.1l-.11-3.26Zm.2,.09l.1,3.06,13.52-.45-.1-3.06-13.52,.45Z"/><path d="M54.04,92.7l-6.87,.23,.11,3.26,6.87-.23-.11-3.26Z"/><path class="cls-3" d="M47.07,92.94c0-.06,.04-.1,.1-.1l6.87-.23c.06,0,.1,.04,.1,.1l.11,3.26c0,.06-.04,.1-.1,.1l-6.87,.23c-.06,0-.1-.04-.1-.1l-.11-3.26Zm.2,.09l.1,3.06,6.67-.22-.1-3.06-6.67,.22Z"/><path d="M91.89,94.7l-6.87,.23,.11,3.26,6.87-.23-.11-3.26Z"/><path class="cls-3" d="M84.92,94.93c0-.06,.04-.1,.1-.1l6.87-.23c.06,0,.1,.04,.1,.1l.11,3.26c0,.06-.04,.1-.1,.1l-6.87,.23c-.06,0-.1-.04-.1-.1l-.11-3.26Zm.2,.09l.1,3.06,6.67-.22-.1-3.06-6.67,.22Z"/><path d="M91.91,94.48l-10.41,.35,.12,3.74,10.41-.35-.12-3.74Z"/><path class="cls-3" d="M81.39,94.83c0-.06,.04-.1,.1-.1l10.41-.35c.06,0,.1,.04,.1,.1l.12,3.74c0,.06-.04,.1-.1,.1l-10.41,.35c-.06,0-.1-.04-.1-.1l-.12-3.74Zm.2,.09l.12,3.54,10.21-.34-.12-3.54-10.21,.34Z"/><path d="M88.76,101.52l-10.41,.35,.12,3.48,10.41-.35-.12-3.48Z"/><path class="cls-3" d="M78.25,101.87c0-.06,.04-.1,.1-.1l10.41-.35c.06,0,.1,.04,.1,.1l.12,3.48c0,.06-.04,.1-.1,.1l-10.41,.35c-.06,0-.1-.04-.1-.1l-.12-3.48Zm.2,.09l.11,3.28,10.21-.34-.11-3.28-10.21,.34Z"/><path d="M103.26,125.36l-24.28,.81,.12,3.66,24.28-.81-.12-3.66Z"/><path class="cls-3" d="M78.89,126.18c0-.06,.04-.1,.1-.1l24.28-.81c.06,0,.1,.04,.1,.1l.12,3.66c0,.06-.04,.1-.1,.1l-24.28,.81c-.06,0-.1-.04-.1-.1l-.12-3.66Zm.2,.09l.12,3.46,24.08-.8-.12-3.46-24.08,.8Z"/><path d="M90,129.46l-7.22,.24,.11,3.45,7.22-.24-.12-3.45Z"/><path class="cls-3" d="M82.68,129.71c0-.06,.04-.1,.1-.1l7.22-.24c.06,0,.1,.04,.1,.1l.11,3.45c0,.06-.04,.1-.1,.1l-7.22,.24c-.06,0-.1-.04-.1-.1l-.11-3.45Zm.2,.09l.11,3.25,7.02-.23-.11-3.25-7.02,.23Z"/><path d="M82.3,115.73l-6.96,.23,.11,3.45,6.96-.23-.11-3.45Z"/><path class="cls-3" d="M75.25,115.96c0-.06,.04-.1,.1-.1l6.96-.23c.06,0,.1,.04,.1,.1l.11,3.45c0,.06-.04,.1-.1,.1l-6.96,.23c-.06,0-.1-.04-.1-.1l-.12-3.45Zm.2,.09l.11,3.25,6.76-.22-.11-3.25-6.76,.23Z"/><path d="M71.87,116.09l-6.96,.23,.11,3.45,6.96-.23-.11-3.45Z"/><path class="cls-3" d="M64.81,116.32c0-.06,.04-.1,.1-.1l6.96-.23c.06,0,.1,.04,.1,.1l.12,3.45c0,.06-.04,.1-.1,.1l-6.96,.23c-.06,0-.1-.04-.1-.1l-.11-3.45Zm.2,.09l.11,3.25,6.76-.22-.11-3.25-6.76,.23Z"/><path d="M68.74,123.07l-6.96,.23,.11,3.45,6.96-.23-.12-3.45Z"/><path d="M96.22,122.15l-10.25,.34,.11,3.45,10.25-.34-.11-3.45Z"/><path d="M69.14,133.62l-10.25,.34,.11,3.45,10.25-.34-.11-3.45Z"/><path class="cls-3" d="M58.78,133.96c0-.06,.04-.1,.1-.1l10.25-.34c.06,0,.1,.04,.1,.1l.11,3.45c0,.06-.04,.1-.1,.1l-10.25,.34c-.06,0-.1-.04-.1-.1l-.11-3.45Zm.2,.09l.11,3.25,10.05-.33-.11-3.25-10.05,.33Z"/><path d="M61.95,127l-3.45,.11,.34,10.25,3.45-.11-.34-10.25Z"/><path class="cls-3" d="M58.4,127.12c0-.06,.04-.1,.1-.1l3.45-.11c.06,0,.1,.04,.1,.1l.34,10.25c0,.06-.04,.1-.1,.1l-3.45,.12c-.06,0-.1-.04-.1-.1l-.34-10.25Zm.2,.09l.34,10.05,3.25-.11-.34-10.05-3.25,.11Z"/><path d="M102.1,91.1l-3.48,.12,.34,10.25,3.48-.12-.34-10.25Z"/><path class="cls-3" d="M98.52,91.22c0-.06,.04-.1,.1-.1l3.48-.12c.06,0,.1,.04,.1,.1l.34,10.25c0,.06-.04,.1-.1,.1l-3.48,.12c-.06,0-.1-.04-.1-.1l-.34-10.25Zm.2,.09l.34,10.05,3.28-.11-.34-10.05-3.28,.11Z"/><path d="M102.79,111.64l-3.45,.12,.11,3.45,3.45-.11-.11-3.45Z"/><path class="cls-3" d="M99.25,111.76c0-.06,.04-.1,.1-.1l3.45-.11c.06,0,.1,.04,.1,.1l.12,3.45c0,.06-.04,.1-.1,.1l-3.45,.11c-.06,0-.1-.04-.1-.1l-.11-3.45Zm.2,.09l.11,3.25,3.25-.11-.11-3.25-3.25,.11Z"/><path d="M99.54,118.57l-3.45,.11,.12,3.45,3.45-.11-.11-3.45Z"/><path class="cls-3" d="M95.99,118.69c0-.06,.04-.1,.1-.1l3.45-.12c.06,0,.1,.04,.1,.1l.11,3.45c0,.06-.04,.1-.1,.1l-3.45,.11c-.06,0-.1-.04-.1-.1l-.11-3.45Zm.2,.09l.11,3.25,3.25-.11-.11-3.25-3.25,.11Z"/><path d="M99.08,104.78l-3.45,.11,.11,3.45,3.45-.12-.11-3.45Z"/><path class="cls-3" d="M95.53,104.89c0-.06,.04-.1,.1-.1l3.45-.11c.06,0,.1,.04,.1,.1l.11,3.45c0,.06-.04,.1-.1,.1l-3.45,.11c-.06,0-.1-.04-.1-.1l-.11-3.45Zm.2,.09l.11,3.25,3.25-.11-.11-3.25-3.25,.11Z"/><path d="M98.62,91.22l-3.45,.11,.11,3.45,3.45-.12-.11-3.45Z"/><path class="cls-3" d="M95.08,91.34c0-.06,.04-.1,.1-.1l3.45-.11c.06,0,.1,.04,.1,.1l.11,3.45c0,.06-.04,.1-.1,.1l-3.45,.11c-.06,0-.1-.04-.1-.1l-.12-3.45Zm.2,.09l.11,3.25,3.25-.11-.11-3.25-3.25,.11Z"/><path d="M95.45,97.85l-3.45,.11,.12,3.45,3.45-.11-.11-3.45Z"/><path class="cls-3" d="M91.9,97.97c0-.06,.04-.1,.1-.1l3.45-.11c.06,0,.1,.04,.1,.1l.11,3.45c0,.06-.04,.1-.1,.1l-3.45,.11c-.06,0-.1-.04-.1-.1l-.12-3.45Zm.2,.09l.11,3.25,3.25-.11-.11-3.25-3.25,.11Z"/><path d="M92.11,97.96l-3.45,.11,.11,3.45,3.45-.12-.11-3.45Z"/><path class="cls-3" d="M88.56,98.08c0-.05,.04-.1,.1-.1l3.45-.11c.06,0,.1,.04,.1,.1l.11,3.45c0,.06-.04,.1-.1,.1l-3.45,.12c-.06,0-.1-.04-.1-.1l-.12-3.45Zm.2,.09l.11,3.25,3.25-.11-.11-3.25-3.25,.11Z"/><path d="M103.49,132.47l-3.45,.11,.11,3.45,3.45-.11-.11-3.45Z"/><path class="cls-3" d="M99.94,132.59c0-.06,.04-.1,.1-.1l3.45-.12c.06,0,.1,.04,.1,.1l.12,3.45c0,.06-.04,.1-.1,.1l-3.45,.12c-.06,0-.1-.04-.1-.1l-.11-3.45Zm.2,.09l.11,3.25,3.25-.11-.11-3.25-3.25,.11Z"/><path d="M82.86,133.16l-3.45,.12,.11,3.45,3.45-.11-.12-3.45Z"/><path class="cls-3" d="M79.31,133.28c0-.06,.04-.1,.1-.1l3.45-.12c.06,0,.1,.04,.1,.1l.11,3.45c0,.06-.04,.1-.1,.1l-3.45,.11c-.06,0-.1-.04-.1-.1l-.11-3.45Zm.2,.09l.11,3.25,3.25-.11-.11-3.25-3.25,.11Z"/><path d="M75.79,129.94l-3.45,.12,.11,3.45,3.45-.12-.11-3.45Z"/><path class="cls-3" d="M72.24,130.06c0-.05,.04-.1,.1-.1l3.45-.12c.06,0,.1,.04,.1,.1l.11,3.45c0,.06-.04,.1-.1,.1l-3.45,.11c-.06,0-.1-.04-.1-.1l-.12-3.45Zm.2,.09l.11,3.25,3.25-.11-.11-3.25-3.25,.11Z"/><path d="M61.6,116.42l-3.45,.12,.11,3.45,3.45-.11-.12-3.45Z"/><path class="cls-3" d="M58.05,116.54c0-.06,.04-.1,.1-.1l3.45-.11c.06,0,.1,.04,.1,.1l.11,3.45c0,.06-.04,.1-.1,.1l-3.45,.11c-.06,0-.1-.04-.1-.1l-.12-3.45Zm.2,.09l.11,3.25,3.25-.11-.11-3.25-3.25,.11Z"/><path d="M71.63,109.37l-3.45,.11,.12,3.45,3.45-.11-.11-3.45Z"/><path d="M78.21,98.42l-3.45,.12,.11,3.45,3.45-.11-.12-3.45Z"/><path class="cls-3" d="M74.66,98.54c0-.06,.04-.1,.1-.1l3.45-.11c.06,0,.1,.04,.1,.1l.12,3.45c0,.06-.04,.1-.1,.1l-3.45,.11c-.06,0-.1-.04-.1-.1l-.11-3.45Zm.2,.09l.11,3.25,3.25-.11-.11-3.25-3.25,.11Z"/><path d="M74.28,85.06l-3.45,.11,.11,3.45,3.45-.11-.12-3.45Z"/><path class="cls-3" d="M70.74,85.18c0-.06,.04-.1,.1-.1l3.45-.12c.06,0,.1,.04,.1,.1l.11,3.45c0,.06-.04,.1-.1,.1l-3.45,.11c-.06,0-.1-.04-.1-.1l-.11-3.45Zm.2,.09l.11,3.25,3.25-.11-.11-3.25-3.25,.11Z"/><path d="M65.38,130.29l-3.45,.11,.11,3.45,3.45-.12-.11-3.45Z"/><path class="cls-3" d="M61.83,130.41c0-.06,.04-.1,.1-.1l3.45-.12c.06,0,.1,.04,.1,.1l.11,3.45c0,.06-.04,.1-.1,.1l-3.45,.12c-.06,0-.1-.04-.1-.1l-.11-3.45Zm.2,.09l.11,3.25,3.25-.11-.11-3.25-3.25,.11Z"/><path d="M99.1,104.66l-20.63,.69,.12,3.58,20.63-.69-.12-3.58Z"/><path class="cls-3" d="M78.37,105.36c0-.06,.04-.1,.1-.1l20.63-.69c.06,0,.1,.04,.1,.1l.12,3.58c0,.06-.04,.1-.1,.1l-20.63,.69c-.06,0-.1-.04-.1-.1l-.12-3.58Zm.2,.09l.11,3.38,20.43-.68-.11-3.38-20.43,.68Z"/><path d="M78.61,112.4l-17.18,.57,.12,3.45,17.18-.57-.11-3.45Z"/><path d="M67.74,95.52l-7.6,.25,.11,3.26,7.6-.25-.11-3.26Z"/><path class="cls-3" d="M60.04,95.77c0-.06,.04-.1,.1-.1l7.6-.25c.06,0,.1,.04,.1,.1l.11,3.26c0,.06-.04,.1-.1,.1l-7.6,.25c-.06,0-.1-.04-.1-.1l-.11-3.26Zm.2,.09l.1,3.06,7.4-.25-.1-3.06-7.4,.25Z"/><path d="M67.25,81.89l-3.26,.11,.23,6.87,3.26-.11-.23-6.87Z"/><path class="cls-3" d="M63.89,82c0-.06,.04-.1,.1-.1l3.26-.11c.06,0,.1,.04,.1,.1l.23,6.87c0,.06-.04,.1-.1,.1l-3.26,.11c-.06,0-.1-.04-.1-.1l-.23-6.87Zm.2,.09l.22,6.67,3.06-.1-.22-6.67-3.06,.1Z"/><path d="M84.63,90.92l-3.26,.11,.23,6.87,3.26-.11-.23-6.87Z"/><path class="cls-3" d="M81.27,91.04c0-.06,.04-.1,.1-.1l3.26-.11c.06,0,.1,.04,.1,.1l.23,6.87c0,.06-.04,.1-.1,.1l-3.26,.11c-.06,0-.1-.04-.1-.1l-.23-6.87Zm.2,.09l.22,6.67,3.06-.1-.22-6.67-3.06,.1Z"/><path d="M33.22,93.41l-3.26,.11,.23,6.87,3.26-.11-.23-6.87Z"/><path class="cls-3" d="M29.87,93.52c0-.06,.04-.1,.1-.1l3.26-.11c.06,0,.1,.04,.1,.1l.23,6.87c0,.06-.04,.1-.1,.1l-3.26,.11c-.06,0-.1-.04-.1-.1l-.23-6.87Zm.2,.09l.22,6.67,3.06-.1-.22-6.67-3.06,.1Z"/><path d="M33.57,103.65l-3.26,.11,.23,6.87,3.26-.11-.23-6.87Z"/><path class="cls-3" d="M30.21,103.76c0-.06,.04-.1,.1-.1l3.26-.11c.06,0,.1,.04,.1,.1l.23,6.87c0,.06-.04,.1-.1,.1l-3.26,.11c-.06,0-.1-.04-.1-.1l-.23-6.87Zm.2,.09l.22,6.67,3.06-.1-.22-6.67-3.06,.1Z"/><path d="M40.37,93.17l-10.41,.35,.11,3.26,10.41-.35-.11-3.26Z"/><path class="cls-3" d="M29.85,93.52c0-.06,.04-.1,.1-.1l10.41-.35c.06,0,.1,.04,.1,.1l.11,3.26c0,.06-.04,.1-.1,.1l-10.41,.35c-.06,0-.1-.04-.1-.1l-.11-3.26Zm.2,.09l.1,3.06,10.21-.34-.1-3.06-10.21,.34Z"/><path d="M47.29,96.2l-6.39,.21,.15,4.47,6.39-.21-.15-4.47Z"/><path class="cls-3" d="M40.8,96.41c0-.06,.04-.1,.1-.1l6.39-.21c.06,0,.1,.04,.1,.1l.15,4.47c0,.06-.04,.1-.1,.1l-6.39,.21c-.06,0-.1-.04-.1-.1l-.15-4.47Zm.2,.09l.14,4.27,6.19-.21-.14-4.27-6.19,.21Z"/><path d="M92.11,101.44l-3.43,.11,1.16,34.77,3.43-.11-1.16-34.77Z"/><path class="cls-3" d="M88.58,101.56c0-.06,.04-.1,.1-.1l3.43-.11c.06,0,.1,.04,.1,.1l1.16,34.77c0,.05-.04,.1-.1,.1l-3.43,.11c-.06,0-.1-.04-.1-.1l-1.16-34.77Zm.2,.09l1.15,34.57,3.23-.11-1.15-34.57-3.23,.11Z"/><path class="cls-3" d="M144.9,245.48c.07-.41,.45-.69,.86-.62,2.81,.45,7.02,1.6,10.85,2.68,.6,.17,1.2,.34,1.77,.5,3.08,.87,5.69,1.61,6.92,1.82,13.46-.25,20.83,7.45,27.25,14.16,.85,.89,1.69,1.77,2.53,2.61,.29,.29,.29,.77,0,1.06-.29,.29-.77,.29-1.06,0-.86-.86-1.71-1.75-2.58-2.65-6.45-6.72-13.37-13.93-26.18-13.67-.05,0-.09,0-.13,0-1.29-.21-4.06-.99-7.18-1.88-.57-.16-1.16-.33-1.75-.49-3.85-1.09-7.98-2.21-10.68-2.64-.41-.07-.69-.45-.62-.86Z"/><path class="cls-3" d="M113.5,226.98c.22,.35,.12,.81-.23,1.04-1.27,.81-2.78,1.85-4,2.94-.61,.55-1.13,1.09-1.51,1.62-.38,.53-.59,1-.64,1.38h0c-.29,1.94,.32,3.38,1.27,4.15,.93,.75,2.33,.96,3.91,.16,1.28-.84,1.84-2.06,1.82-3.35-.02-1.32-.66-2.77-1.88-3.95-.3-.29-.31-.76-.02-1.06,.29-.3,.76-.3,1.06-.02,1.46,1.42,2.31,3.23,2.33,5.01,.03,1.8-.79,3.52-2.54,4.65-.02,.01-.04,.02-.06,.04-2.05,1.05-4.11,.86-5.57-.31-1.45-1.16-2.17-3.18-1.82-5.52,.1-.73,.45-1.43,.91-2.06,.46-.64,1.07-1.27,1.72-1.86,1.31-1.18,2.9-2.26,4.2-3.09,.35-.22,.81-.12,1.03,.23Z"/><path class="cls-3" d="M106.78,211.79c.25,.33,.18,.8-.15,1.05-2.23,1.66-3.12,4.22-3,6.85,.12,2.6,1.24,5.2,2.94,6.94,1.54,.64,3.18,.04,4.35-1.28,1.21-1.36,1.76-3.31,1.11-5.01,0-.01-.01-.03-.02-.05-.31-1.02-1.01-1.95-1.83-3.01-.03-.03-.05-.07-.08-.1-.76-.98-1.61-2.08-2.03-3.33-.13-.39,.08-.82,.47-.95,.39-.13,.82,.08,.95,.47,.34,1.01,1.05,1.93,1.88,2.99h0c.78,1.01,1.66,2.15,2.07,3.46,.88,2.32,.09,4.84-1.4,6.52-1.5,1.68-3.87,2.67-6.22,1.59-.08-.04-.15-.09-.21-.15-2.05-2.02-3.35-5.03-3.48-8.03-.14-3.01,.89-6.1,3.6-8.12,.33-.25,.8-.18,1.05,.15Z"/><path class="cls-3" d="M107,217.99c.8,.23,1.46,.83,1.88,1.76,.09,.2,.09,.44,0,.64-.15,.31-.47,.74-.78,1.16l-.02,.03-.03,.05c-.33,.45-.7,.95-1.05,1.49-.36,.56-.67,1.12-.88,1.65-.2,.54-.27,.99-.21,1.34,.07,.41-.2,.8-.61,.87-.41,.07-.8-.2-.87-.61-.13-.72,.03-1.46,.28-2.13,.26-.67,.63-1.34,1.02-1.93,.37-.57,.77-1.11,1.09-1.56,.01-.02,.03-.04,.04-.06,.2-.27,.36-.49,.47-.65-.24-.37-.51-.54-.75-.61-.32-.09-.71-.04-1.12,.18-.85,.46-1.5,1.5-1.35,2.54,.06,.41-.23,.79-.64,.85-.41,.06-.79-.23-.85-.64-.24-1.76,.82-3.36,2.13-4.07,.67-.36,1.47-.53,2.25-.3Z"/><path class="cls-3" d="M108,196.71c.03,.41-.28,.77-.7,.8-2.33,.16-3.72,1.47-4.72,3.44-.91,1.81-1.44,4.07-1.97,6.36-.06,.26-.12,.52-.18,.78-.11,1.01,.06,1.75,.36,2.28,.3,.54,.77,.92,1.37,1.16,1.22,.49,2.95,.33,4.5-.47,1.53-.79,2.78-2.17,3.12-3.98,.35-1.8-.16-4.21-2.47-7.13-.26-.33-.2-.8,.12-1.05,.33-.26,.8-.2,1.05,.12,2.49,3.15,3.22,5.98,2.76,8.34-.45,2.35-2.06,4.07-3.91,5.02-1.83,.95-4.02,1.22-5.74,.53-.87-.35-1.63-.95-2.12-1.82-.49-.87-.68-1.96-.54-3.23,0-.03,0-.06,.02-.09,.06-.27,.13-.55,.19-.83,.52-2.26,1.09-4.71,2.09-6.69,1.15-2.28,2.94-4.05,5.96-4.26,.41-.03,.77,.28,.8,.7Z"/><path class="cls-3" d="M104.03,204.21c-.06,.52-.09,.97-.04,1.33,.04,.28-.08,.55-.31,.71-.14,.1-.31,.18-.44,.23-.15,.06-.31,.12-.48,.19h-.03c-.33,.14-.69,.27-1.03,.43-.76,.36-1.16,.74-1.22,1.15-.07,.41-.45,.69-.86,.62-.41-.07-.69-.45-.62-.86,.19-1.22,1.27-1.88,2.06-2.26,.4-.19,.81-.35,1.14-.47l.04-.02,.24-.09c0-.39,.04-.79,.08-1.13,0-.07,.02-.14,.02-.2,.05-.45,.09-.79,.07-1.05h0s-.04,0-.07,.01c-.19,.06-.45,.17-.81,.37-.36,.2-.82,.07-1.02-.3-.2-.36-.07-.82,.3-1.02,.41-.22,.77-.39,1.1-.49,.32-.1,.65-.15,.99-.07,.37,.08,.64,.31,.81,.61,.15,.26,.19,.56,.21,.79,.03,.4-.03,.89-.08,1.32,0,.07-.01,.13-.02,.19Z"/><path class="cls-3" d="M95.55,173.68c1.59-1.18,4.05-1.69,7.35-1.27,.41,.05,.7,.43,.65,.84-.05,.41-.43,.7-.84,.65-3.1-.4-5.11,.12-6.26,.98-1.12,.83-1.53,2.07-1.29,3.44,.5,2.8,3.84,6.22,9.75,6.75,.41,.04,.72,.4,.68,.81-.04,.41-.4,.72-.81,.68-6.37-.57-10.44-4.32-11.1-7.98-.33-1.86,.25-3.69,1.87-4.9Z"/><path class="cls-3" d="M162.02,155.87c.03,.41-.28,.77-.69,.81-.38,.03-.59,.14-.72,.25-.13,.11-.23,.27-.29,.53-.13,.55-.04,1.39,.26,2.38,.3,.97,.75,1.98,1.23,2.85,.42,.77,.83,1.38,1.12,1.72,.07,0,.16,0,.28,0,.3-.02,.67-.09,1.05-.17,.38-.08,.74-.18,1.01-.25,.14-.04,.25-.07,.32-.09,.04-.01,.07-.02,.09-.03h.03c.4-.13,.81,.09,.94,.49,.12,.4-.1,.82-.5,.94l-.22-.72,.22,.72h-.04s-.06,.03-.1,.04c-.08,.02-.2,.06-.35,.1-.29,.08-.68,.18-1.1,.27-.41,.09-.86,.17-1.26,.2-.2,.01-.4,.02-.6,0-.17-.02-.44-.07-.67-.24-.03-.02-.06-.05-.09-.08-.42-.44-.96-1.25-1.46-2.17-.51-.93-1.01-2.04-1.35-3.13-.32-1.06-.52-2.21-.29-3.17,.12-.5,.36-.97,.78-1.32,.42-.36,.96-.55,1.57-.6,.41-.03,.77,.28,.81,.69Z"/><path class="cls-3" d="M158.05,154.37c1.96-.55,3.95,.48,5.6,2.99,.03,.04,.05,.08,.07,.12,4.64,11.18,12.45,19.72,20.59,28.18,.06,.07,.12,.14,.15,.23,4.04,9.61,5.67,15.86,6.53,20.3,.3,1.56,.5,2.9,.68,4.06,.07,.49,.14,.95,.21,1.38,.24,1.47,.49,2.62,.92,3.7,.87,2.12,2.55,4.07,6.86,7.4,4.13,3.19,10.58,7.57,20.82,14.52,.44,.3,.88,.6,1.33,.9,.34,.23,.43,.7,.2,1.04-.23,.34-.7,.43-1.04,.2-.47-.32-.93-.63-1.38-.93-10.19-6.92-16.67-11.32-20.84-14.54-4.35-3.36-6.31-5.51-7.33-8.02-.51-1.24-.77-2.53-1.02-4.02-.07-.45-.15-.93-.22-1.42-.18-1.15-.37-2.45-.67-3.97-.83-4.31-2.42-10.43-6.38-19.88-8.09-8.41-16.02-17.09-20.77-28.48-1.47-2.2-2.85-2.61-3.9-2.31-1.17,.33-2.37,1.63-3.16,3.77-1.56,4.23-1.24,11.02,3.45,16.53,.02,.02,.04,.04,.05,.07,2.92,4.33,3.42,8.38,3.05,12.61-.18,2.08-.57,4.21-.97,6.42v.05c-.42,2.24-.85,4.57-1.11,7.1-.65,9.64,3.72,20.4,6.97,25.44h0c1.08,1.76,1.61,3.24,1.83,4.6,.22,1.35,.13,2.52,0,3.59-.02,.17-.04,.33-.06,.49-.23,1.92-.43,3.59,.81,5.98,.19,.37,.05,.82-.32,1.01-.37,.19-.82,.05-1.01-.32-1.45-2.81-1.2-4.9-.96-6.84,.02-.17,.04-.33,.06-.5,.12-1.04,.19-2.04,0-3.18-.19-1.13-.64-2.43-1.63-4.03-3.37-5.22-7.89-16.3-7.2-26.36v-.03c.27-2.59,.71-4.99,1.12-7.22h0c.41-2.26,.79-4.33,.96-6.34,.35-3.97-.11-7.64-2.78-11.61-5.04-5.94-5.42-13.29-3.68-17.99,.86-2.32,2.31-4.18,4.16-4.7Z"/><path class="cls-1" d="M165.77,228.78c-.64-1.26-2.26-4.29-2.89-5.67,2.26,11.12,3.56,14.17-1.38,15.39l-37.13,7.39c-3.37,.62-5.68-2.3-6.37-6.25l-16.38-88.03c-.38-2.09,1.01-4.5,4.5-5.14l35.51-7.18c1.87-.29,5.87,.71,6.61,3.79l10.33,56.42s.84-4.81,1.43-7.5l-2.73-15.87s-3.56-5.71-4.01-9.84c-.33-3.04,.74-7.79,.74-7.79,0,0-2.5-14-3-17s-4-6-7.83-5.41c0,0-39.05,7.38-42.05,8.38s-3.5,4.5-2.9,7.65c.6,3.15,9.35,47.43,9.35,47.43,2.27,.8,4.19,7.7,1.89,10.1,0,0,.98,5.24,1.32,7.01,2.23,2.38,2.91,5.56,1.52,8.13,.49,2.29,1.05,6.56,2.1,8.87,.66,2.37,.25,3.62,.25,3.62,0,0,1.19,6.42,1.28,6.82,.83,3.67,4.88,5.52,7.8,5.01,0,0,20.27-3.61,28.11-5.19,5.82-1.17,14.16-2.92,14.6-4.28,.44-1.36,.65-9.62-.67-10.86Z"/><path class="cls-2" d="M148.63,137.05c1.5,1.11,2.59,2.72,2.86,4.37,.25,1.5,1,5.74,1.69,9.62,.34,1.94,.67,3.78,.91,5.14l.4,2.23s0,0-.49,.09l.49-.09c.01,.07,0,.13,0,.2h0v.05s-.03,.09-.04,.15c-.03,.13-.07,.33-.12,.57-.09,.49-.22,1.17-.33,1.94-.23,1.56-.4,3.46-.24,4.91,.22,1.97,1.18,4.37,2.13,6.3,.47,.96,.92,1.79,1.26,2.39,.17,.3,.31,.53,.4,.69,.05,.08,.09,.14,.11,.19l.03,.05h0c.03,.07,.06,.13,.07,.2l2.73,15.87c.01,.06,0,.13,0,.19-.29,1.34-.65,3.2-.93,4.74-.14,.77-.26,1.45-.35,1.95-.04,.25-.08,.44-.1,.58l-.04,.21h0c-.04,.24-.25,.42-.49,.42-.24,0-.45-.17-.49-.41l-10.33-56.41c-.32-1.33-1.36-2.25-2.6-2.81-1.24-.56-2.61-.72-3.43-.59l-35.51,7.18c-3.27,.6-4.42,2.79-4.1,4.56h0l16.38,88.03c.34,1.91,1.06,3.53,2.05,4.58,.98,1.04,2.23,1.54,3.73,1.26h0l37.11-7.39c1.19-.29,1.91-.68,2.35-1.19,.43-.51,.65-1.21,.65-2.3,0-1.1-.21-2.52-.57-4.39-.2-1.03-.44-2.17-.71-3.46-.22-1.05-.46-2.2-.72-3.46-.05-.25,.09-.5,.33-.57,.24-.08,.5,.04,.61,.27,.43,.95,1.33,2.68,2.07,4.08,.31,.59,.58,1.12,.78,1.51,.22,.24,.37,.56,.49,.9,.13,.38,.24,.84,.32,1.34,.16,1,.25,2.22,.28,3.43,.03,1.21,0,2.42-.06,3.42-.06,.97-.16,1.81-.29,2.22-.11,.35-.43,.6-.72,.79-.32,.21-.74,.4-1.22,.6-.96,.38-2.25,.77-3.69,1.15-2.88,.76-6.44,1.49-9.35,2.08-3.93,.79-10.96,2.09-17.01,3.19-3.02,.55-5.8,1.05-7.83,1.42-1.01,.18-1.83,.33-2.4,.43l-.89,.16s0,0-.09-.49l.09,.49h0c-1.59,.28-3.45-.09-5.02-1-1.58-.91-2.9-2.4-3.35-4.4-.05-.21-.37-1.93-.68-3.58-.15-.83-.31-1.64-.42-2.25l-.19-1.01h0c-.01-.08,0-.17,.02-.24h0v-.03s.02-.07,.04-.14c.02-.13,.05-.34,.06-.62,.02-.55-.04-1.39-.35-2.51-.54-1.21-.95-2.89-1.28-4.51-.16-.81-.31-1.62-.45-2.36v-.05c-.15-.76-.27-1.45-.39-2.01-.02-.12,0-.24,.05-.34,1.26-2.34,.68-5.29-1.44-7.55-.06-.07-.11-.15-.13-.25-.17-.89-.5-2.64-.79-4.17-.14-.77-.28-1.48-.37-1.99l-.16-.85c-.03-.16,.02-.32,.13-.44,.47-.49,.76-1.25,.86-2.19,.1-.93,.01-1.99-.22-3.01-.23-1.02-.59-1.99-1.03-2.73-.44-.77-.91-1.22-1.31-1.36-.17-.06-.29-.2-.32-.38l.49-.1-.49,.1-1.38-6.97c-.83-4.2-1.94-9.83-3.07-15.56-2.26-11.46-4.6-23.32-4.9-24.9-.31-1.63-.35-3.38,.11-4.88,.46-1.51,1.43-2.79,3.12-3.35,.79-.26,3.83-.92,7.89-1.75,4.08-.83,9.25-1.85,14.32-2.83,5.07-.99,10.04-1.94,13.75-2.65,1.85-.35,3.39-.65,4.46-.85,.54-.1,.96-.18,1.25-.24l.44-.08,.09,.49-.09-.49h.02c2.07-.32,4.03,.33,5.54,1.45Zm-5.38-.46c1.76-.27,3.46,.28,4.78,1.27,1.33,.99,2.25,2.38,2.47,3.73,.25,1.5,1,5.76,1.69,9.63,.34,1.94,.67,3.78,.91,5.14l.38,2.14s-.01,.07-.03,.12c-.03,.14-.07,.34-.12,.59-.1,.5-.22,1.2-.34,1.99-.15,1.05-.29,2.29-.31,3.48l-3.97-21.67v-.03c-.43-1.74-1.76-2.86-3.17-3.5-1.4-.63-2.97-.83-4.01-.67h-.02l-35.51,7.18c-3.7,.68-5.33,3.31-4.9,5.72h0l16.38,88.03h0c.36,2.04,1.14,3.86,2.31,5.1,1.19,1.26,2.77,1.9,4.64,1.56h0l37.13-7.39h.02c1.28-.32,2.24-.77,2.88-1.52,.64-.76,.89-1.74,.89-2.95,0-1.21-.22-2.71-.59-4.58-.18-.95-.41-2.02-.66-3.2,.13,.26,.26,.51,.39,.75,.32,.61,.6,1.15,.79,1.52,.03,.05,.06,.1,.1,.14,.07,.07,.18,.24,.29,.57,.11,.31,.2,.71,.28,1.18,.15,.94,.24,2.1,.27,3.29,.03,1.18,0,2.37-.06,3.34-.06,.99-.16,1.7-.24,1.97h0s-.07,.11-.31,.26c-.24,.16-.59,.33-1.05,.51-.9,.36-2.15,.74-3.57,1.11-2.85,.75-6.38,1.48-9.29,2.06-3.92,.79-10.94,2.08-16.99,3.18-3.02,.55-5.8,1.05-7.82,1.41-1.01,.18-1.83,.33-2.4,.43l-.88,.16h0c-1.33,.23-2.95-.07-4.35-.88-1.39-.8-2.5-2.08-2.88-3.75-.04-.19-.36-1.88-.67-3.54-.15-.83-.31-1.64-.42-2.25l-.17-.9s.02-.1,.03-.16c.03-.18,.07-.43,.08-.76,.02-.66-.05-1.62-.39-2.85,0-.02-.02-.05-.03-.07-.5-1.1-.89-2.69-1.23-4.34-.16-.8-.31-1.6-.44-2.35v-.04c-.13-.68-.25-1.32-.36-1.86,1.38-2.73,.63-6-1.58-8.44-.18-.92-.49-2.57-.76-4.03-.14-.76-.28-1.48-.37-1.99l-.11-.61c.56-.69,.85-1.61,.96-2.57,.11-1.06,.01-2.23-.23-3.33-.25-1.1-.65-2.17-1.14-3.01-.42-.72-.95-1.36-1.57-1.68l-1.33-6.71c-.83-4.2-1.94-9.83-3.07-15.56-2.26-11.46-4.6-23.32-4.9-24.89-.29-1.53-.31-3.1,.08-4.4,.39-1.27,1.17-2.25,2.48-2.69,.71-.24,3.67-.88,7.78-1.72,4.08-.83,9.24-1.85,14.31-2.83,5.07-.98,10.04-1.94,13.75-2.65,1.85-.35,3.39-.65,4.46-.85,.54-.1,.96-.18,1.24-.24l.43-.08Zm10.4,33.28l4.91,26.83v-.03c.28-1.5,.63-3.33,.92-4.68l-2.7-15.68s-.06-.1-.11-.18c-.1-.17-.24-.41-.42-.71-.34-.61-.81-1.46-1.29-2.44-.46-.94-.93-2.01-1.33-3.11Z"/><path d="M125.5,176.61l-10.14,1.82,1.82,10.14,10.14-1.82-1.82-10.14Zm-8.46,2.99l7.29-1.31,1.31,7.29-7.29,1.31-1.31-7.29Z"/><path class="cls-3" d="M125.53,176.57s.02,.02,.02,.03l1.82,10.14s-.01,.05-.04,.06l-10.14,1.82s-.03,0-.04,0c-.01,0-.02-.02-.02-.03l-1.82-10.14s.01-.05,.04-.06l10.14-1.82s.03,0,.04,0Zm-10.11,1.9l1.8,10.04,10.04-1.8-1.8-10.04-10.04,1.8Zm8.9-.23s.05,.01,.06,.04l1.31,7.29s0,.03,0,.04c0,0-.02,.02-.03,.02l-7.29,1.31s-.05-.01-.06-.04l-1.31-7.29s0-.03,0-.04c0-.01,.02-.02,.03-.02l7.29-1.31Zm-7.22,1.4l1.29,7.19,7.19-1.29-1.29-7.19-7.19,1.29Z"/><path d="M122.86,180.42l-3.64,.65,.65,3.64,3.64-.65-.65-3.64Z"/><path class="cls-3" d="M119.17,181.08s.01-.05,.04-.06l3.64-.65s.05,.01,.06,.04l.65,3.64s-.01,.05-.04,.06l-3.64,.65s-.05-.01-.06-.04l-.66-3.64Zm.11,.03l.64,3.54,3.54-.64-.64-3.54-3.54,.64Z"/><path d="M129.14,196.86l-10.14,1.82,1.82,10.14,10.14-1.82-1.82-10.14Zm-8.46,2.99l7.29-1.31,1.31,7.29-7.29,1.31-1.31-7.29Z"/><path class="cls-3" d="M129.17,196.82s.02,.02,.02,.03l1.82,10.14s-.01,.05-.04,.06l-10.14,1.82s-.03,0-.04,0c-.01,0-.02-.02-.02-.03l-1.82-10.14s.01-.05,.04-.06l10.14-1.82s.03,0,.04,0Zm-10.11,1.9l1.8,10.04,10.04-1.8-1.8-10.04-10.04,1.8Zm8.9-.23s.05,.01,.06,.04l1.31,7.29s0,.03,0,.04c0,0-.02,.02-.03,.02l-7.29,1.31s-.05-.01-.06-.04l-1.31-7.29s0-.03,0-.04c0-.01,.02-.02,.03-.02l7.29-1.31Zm-7.22,1.4l1.29,7.19,7.19-1.29-1.29-7.19-7.19,1.29Z"/><path d="M126.51,200.66l-3.64,.65,.65,3.64,3.64-.65-.66-3.64Z"/><path class="cls-3" d="M122.82,201.33s.01-.05,.04-.06l3.64-.65s.05,.01,.06,.04l.65,3.64s-.01,.05-.04,.06l-3.64,.65s-.05-.01-.06-.04l-.65-3.64Zm.11,.03l.64,3.54,3.54-.64-.64-3.54-3.54,.64Z"/><path d="M145.71,172.98l-10.14,1.82,1.82,10.14,10.14-1.82-1.82-10.14Zm-8.46,2.99l7.29-1.31,1.31,7.29-7.29,1.31-1.31-7.29Z"/><path class="cls-3" d="M145.74,172.94s.02,.02,.02,.03l1.82,10.14s-.01,.05-.04,.06l-10.14,1.82s-.03,0-.04,0c0,0-.02-.02-.02-.03l-1.82-10.14s.01-.05,.04-.06l10.14-1.82s.03,0,.04,0Zm-10.11,1.9l1.8,10.04,10.04-1.8-1.8-10.04-10.04,1.8Zm8.9-.23s.05,.01,.06,.04l1.31,7.29s0,.03,0,.04c0,.01-.02,.02-.03,.02l-7.29,1.31s-.05-.01-.06-.04l-1.31-7.29s0-.03,0-.04c0,0,.02-.02,.03-.02l7.29-1.31Zm-7.22,1.4l1.29,7.19,7.19-1.29-1.29-7.19-7.19,1.29Z"/><path d="M143.07,176.78l-3.64,.65,.65,3.64,3.64-.65-.65-3.64Z"/><path class="cls-3" d="M139.38,177.44s.01-.05,.04-.06l3.64-.65s.05,.01,.06,.04l.65,3.64s-.01,.05-.04,.06l-3.64,.65s-.05-.01-.06-.04l-.65-3.64Zm.11,.03l.64,3.54,3.54-.64-.64-3.54-3.54,.64Z"/><path d="M131.15,178.57l3.46-.62-.52-2.89-7.19,1.29,.52,2.89,1.4-.25,.52,2.88,4.4-.79-.52-2.89-2.07,.38Zm.36-1.65l.28,1.53c-.38,.07-1.17,.21-1.55,.28l-.28-1.53,1.55-.28Zm-.79,4.7l-.24-1.53,1.55-.28,.29,1.52-1.61,.29Z"/><path d="M134.89,179.3l-1.42,.26,.53,2.93,1.42-.26-.53-2.93Z"/><path class="cls-3" d="M143.12,196.78s.01-.05,.04-.06l1.42-.26s.05,.01,.06,.04l.53,2.93s-.01,.05-.04,.06l-1.42,.25s-.05-.01-.06-.04l-.53-2.93Zm.11,.03l.51,2.83,1.32-.24-.51-2.84-1.32,.24Z"/><path d="M129.32,181.81l-1.37,.25,2.61,14.52,1.37-.25-2.61-14.52Z"/><path class="cls-3" d="M127.9,182.06s.01-.05,.04-.06l1.37-.25s.05,.01,.06,.04l2.61,14.52s-.01,.05-.04,.06l-1.37,.25s-.05-.01-.06-.04l-2.61-14.52Zm.11,.03l2.59,14.42,1.27-.23-2.59-14.42-1.27,.23Z"/><path d="M142.07,185.59l-12.2,2.19,.24,1.37,12.21-2.19-.25-1.37Z"/><path class="cls-3" d="M129.81,187.79s.01-.05,.04-.06l12.2-2.19s.05,.01,.06,.04l.25,1.37s-.01,.05-.04,.06l-12.21,2.19s-.05-.01-.06-.04l-.25-1.37Zm.11,.03l.23,1.27,12.11-2.18-.23-1.27-12.11,2.18Z"/><path d="M144.13,197.09l-11.61,2.09,.26,1.48,11.61-2.09-.26-1.48Z"/><path class="cls-3" d="M132.47,199.19s.01-.05,.04-.06l11.61-2.09s.05,.01,.06,.04l.27,1.48s-.01,.05-.04,.06l-11.61,2.09s-.05-.01-.06-.04l-.26-1.48Zm.11,.03l.25,1.38,11.51-2.07-.25-1.38-11.52,2.07Z"/><path d="M132.97,193.3l-7.26,1.31,.25,1.37,7.26-1.31-.25-1.37Z"/><path class="cls-3" d="M125.65,194.62s.01-.05,.04-.06l7.26-1.31s.05,.01,.06,.04l.25,1.37s-.01,.05-.04,.06l-7.26,1.31s-.05-.01-.06-.04l-.25-1.37Zm.11,.03l.23,1.27,7.17-1.29-.23-1.27-7.17,1.29Z"/><path d="M124.23,194.88l-5.7,1.02,.25,1.37,5.7-1.02-.25-1.37Z"/><path class="cls-3" d="M118.48,195.91s.01-.05,.04-.06l5.7-1.02s.05,.01,.06,.04l.25,1.37s-.01,.05-.04,.06l-5.7,1.02s-.05-.01-.06-.04l-.25-1.37Zm.11,.03l.23,1.27,5.6-1.01-.23-1.27-5.6,1.01Z"/><path d="M123.48,190.35l-1.37,.25,1.06,5.89,1.37-.25-1.06-5.89Z"/><path class="cls-3" d="M122.06,190.61s.01-.05,.04-.06l1.37-.25s.05,.01,.06,.04l1.06,5.89s-.01,.05-.04,.06l-1.37,.25s-.05-.01-.06-.04l-1.06-5.88Zm.11,.03l1.04,5.79,1.27-.23-1.04-5.79-1.27,.23Z"/><path d="M128.17,191.18l-5.78,1.04,.25,1.37,5.78-1.04-.25-1.37Z"/><path class="cls-3" d="M122.35,192.23s.01-.05,.04-.06l5.78-1.04s.05,.01,.06,.04l.25,1.37s-.01,.05-.04,.06l-5.78,1.04s-.05-.01-.06-.04l-.25-1.37Zm.11,.03l.23,1.27,5.68-1.02-.23-1.27-5.68,1.02Z"/><path d="M127.62,188.19l-2.89,.52,.25,1.37,2.89-.52-.25-1.37Z"/><path class="cls-3" d="M124.67,188.72s.01-.05,.04-.06l2.89-.52s.05,.01,.06,.04l.25,1.37s-.01,.05-.04,.06l-2.89,.52s-.05-.01-.06-.04l-.25-1.37Zm.11,.03l.23,1.27,2.79-.5-.23-1.27-2.79,.5Z"/><path d="M143.76,186.71l-2.89,.52,.25,1.37,2.89-.52-.25-1.37Z"/><path class="cls-3" d="M140.82,187.24s.01-.05,.04-.06l2.89-.52s.05,.01,.06,.04l.25,1.37s-.01,.05-.04,.06l-2.89,.52s-.05-.01-.06-.04l-.25-1.37Zm.11,.03l.23,1.27,2.8-.5-.23-1.27-2.79,.5Z"/><path d="M142.57,188.34l-4.39,.79,.28,1.57,4.39-.79-.28-1.57Z"/><path class="cls-3" d="M138.13,189.14s.01-.05,.04-.06l4.39-.79s.05,.01,.06,.04l.28,1.57s-.01,.05-.04,.06l-4.39,.79s-.05-.01-.06-.04l-.28-1.57Zm.11,.03l.26,1.48,4.29-.77-.27-1.48-4.29,.77Z"/><path d="M141.67,191.52l-4.39,.79,.26,1.47,4.39-.79-.26-1.47Z"/><path class="cls-3" d="M137.23,192.32s.01-.05,.04-.06l4.39-.79s.05,.01,.06,.04l.26,1.47s-.01,.05-.04,.06l-4.39,.79s-.05-.01-.06-.04l-.26-1.47Zm.11,.03l.25,1.37,4.29-.77-.25-1.37-4.29,.77Z"/><path d="M150.46,198.99l-10.23,1.84,.28,1.54,10.23-1.84-.28-1.54Z"/><path class="cls-3" d="M140.19,200.83s.01-.05,.04-.06l10.23-1.84s.05,.01,.06,.04l.28,1.54s-.01,.05-.04,.06l-10.23,1.84s-.05-.01-.06-.04l-.28-1.54Zm.11,.03l.26,1.44,10.13-1.82-.26-1.44-10.13,1.82Z"/><path d="M145.1,201.54l-3.04,.55,.26,1.46,3.04-.55-.26-1.46Z"/><path class="cls-3" d="M142,202.09s.01-.05,.04-.06l3.04-.55s.05,.01,.06,.04l.26,1.46s-.01,.05-.04,.06l-3.04,.55s-.05-.01-.06-.04l-.26-1.46Zm.11,.03l.24,1.36,2.94-.53-.24-1.36-2.94,.53Z"/><path d="M141,196.2l-2.93,.53,.26,1.46,2.93-.53-.26-1.46Z"/><path d="M136.61,196.99l-2.93,.53,.26,1.46,2.93-.53-.26-1.46Z"/><path class="cls-3" d="M133.63,197.53s.01-.05,.04-.06l2.93-.53s.05,.01,.06,.04l.26,1.46s-.01,.05-.04,.06l-2.93,.53s-.05-.01-.06-.04l-.26-1.46Zm.11,.03l.24,1.36,2.83-.51-.24-1.36-2.84,.51Z"/><path d="M135.72,200.14l-2.93,.53,.26,1.46,2.93-.53-.26-1.46Z"/><path class="cls-3" d="M132.74,200.68s.01-.05,.04-.06l2.93-.53s.05,.01,.06,.04l.26,1.46s-.01,.05-.04,.06l-2.93,.53s-.05-.01-.06-.04l-.26-1.46Zm.11,.03l.24,1.36,2.83-.51-.24-1.36-2.83,.51Z"/><path d="M147.29,198.06l-4.32,.78,.26,1.46,4.32-.78-.26-1.46Z"/><path class="cls-3" d="M142.92,198.85s.01-.05,.04-.06l4.32-.78s.05,.01,.06,.04l.26,1.46s-.01,.05-.04,.06l-4.32,.78s-.05-.01-.06-.04l-.26-1.46Zm.11,.03l.24,1.36,4.22-.76-.25-1.36-4.22,.76Z"/><path d="M136.53,204.57l-4.32,.78,.26,1.46,4.32-.78-.26-1.46Z"/><path class="cls-3" d="M132.16,205.36s.01-.05,.04-.06l4.32-.78s.05,.01,.06,.04l.26,1.46s-.01,.05-.04,.06l-4.32,.78s-.05-.01-.06-.04l-.26-1.46Zm.11,.03l.24,1.36,4.22-.76-.24-1.36-4.22,.76Z"/><path d="M133.09,202.22l-1.46,.26,.78,4.32,1.46-.26-.78-4.32Z"/><path class="cls-3" d="M131.59,202.49s.01-.05,.04-.06l1.46-.26s.05,.01,.06,.04l.78,4.32s-.01,.05-.04,.06l-1.46,.26s-.05-.01-.06-.04l-.78-4.32Zm.11,.03l.76,4.22,1.36-.24-.76-4.22-1.36,.24Z"/><path d="M147.86,184.56l-1.47,.26,.78,4.32,1.47-.26-.78-4.32Z"/><path class="cls-3" d="M146.35,184.83s.01-.05,.04-.06l1.47-.26s.05,.01,.06,.04l.78,4.32s-.01,.05-.04,.06l-1.47,.26s-.05-.01-.06-.04l-.78-4.32Zm.11,.03l.76,4.22,1.37-.25-.76-4.22-1.37,.25Z"/><path d="M149.43,193.2l-1.46,.26,.26,1.46,1.46-.26-.26-1.46Z"/><path class="cls-3" d="M147.92,193.47s.01-.05,.04-.06l1.46-.26s.05,.01,.06,.04l.26,1.46s-.01,.05-.04,.06l-1.46,.26s-.05-.01-.06-.04l-.26-1.46Zm.11,.03l.24,1.36,1.36-.24-.24-1.36-1.36,.24Z"/><path d="M148.48,196.34l-1.46,.26,.26,1.46,1.46-.26-.26-1.46Z"/><path class="cls-3" d="M146.97,196.61s.01-.05,.04-.06l1.46-.26s.05,.01,.06,.04l.26,1.46s-.01,.05-.04,.06l-1.46,.26s-.05-.01-.06-.04l-.26-1.46Zm.11,.03l.24,1.36,1.36-.24-.24-1.36-1.36,.24Z"/><path d="M147.44,190.53l-1.46,.26,.26,1.46,1.46-.26-.26-1.46Z"/><path d="M146.4,184.83l-1.46,.26,.26,1.46,1.46-.26-.26-1.46Z"/><path class="cls-3" d="M144.9,185.1s.01-.05,.04-.06l1.46-.26s.05,.01,.06,.04l.26,1.46s-.01,.05-.04,.06l-1.46,.26s-.05-.01-.06-.04l-.26-1.46Zm.11,.03l.24,1.36,1.36-.24-.24-1.36-1.36,.24Z"/><path d="M145.47,187.82l-1.46,.26,.26,1.46,1.46-.26-.26-1.46Z"/><path class="cls-3" d="M143.96,188.09s.01-.05,.04-.06l1.46-.26s.05,.01,.06,.04l.26,1.46s-.01,.05-.04,.06l-1.46,.26s-.05-.01-.06-.04l-.26-1.46Zm.11,.03l.24,1.36,1.36-.24-.24-1.36-1.36,.24Z"/><path d="M142.86,189.8l-1.46,.26,.26,1.46,1.46-.26-.26-1.46Z"/><path class="cls-3" d="M141.35,190.07s.01-.05,.04-.06l1.46-.26s.05,.01,.06,.04l.26,1.46s-.01,.05-.04,.06l-1.46,.26s-.05-.01-.06-.04l-.26-1.46Zm.11,.03l.24,1.36,1.36-.24-.24-1.36-1.36,.24Z"/><path d="M151.01,201.98l-1.46,.26,.26,1.46,1.46-.26-.26-1.46Z"/><path class="cls-3" d="M149.51,202.25s.01-.05,.04-.06l1.46-.26s.05,.01,.06,.04l.26,1.46s-.01,.05-.04,.06l-1.46,.26s-.05-.01-.06-.04l-.26-1.46Zm.11,.03l.24,1.36,1.36-.24-.24-1.36-1.36,.24Z"/><path d="M142.32,203.54l-1.46,.26,.26,1.46,1.46-.26-.26-1.46Z"/><path class="cls-3" d="M140.81,203.81s.01-.05,.04-.06l1.46-.26s.05,.01,.06,.04l.26,1.46s-.01,.05-.04,.06l-1.46,.26s-.05-.01-.06-.04l-.26-1.46Zm.11,.03l.24,1.36,1.36-.24-.24-1.36-1.36,.24Z"/><path d="M139.12,202.61l-1.46,.26,.26,1.46,1.46-.26-.26-1.46Z"/><path class="cls-3" d="M137.62,202.88s.01-.05,.04-.06l1.46-.26s.05,.01,.06,.04l.26,1.46s-.01,.05-.04,.06l-1.46,.26s-.05-.01-.06-.04l-.26-1.46Zm.11,.03l.24,1.36,1.36-.24-.25-1.36-1.36,.24Z"/><path d="M132.29,197.77l-1.46,.26,.26,1.46,1.46-.26-.26-1.46Z"/><path class="cls-3" d="M130.79,198.04s.01-.05,.04-.06l1.46-.26s.05,.01,.06,.04l.26,1.46s-.01,.05-.04,.06l-1.46,.26s-.05-.01-.06-.04l-.26-1.46Zm.11,.03l.24,1.36,1.36-.24-.24-1.36-1.36,.24Z"/><path d="M136.11,194.16l-1.46,.26,.26,1.46,1.46-.26-.26-1.46Z"/><path d="M137.02,190.85l-1.46,.26,.26,1.46,1.46-.26-.26-1.46Z"/><path class="cls-3" d="M135.51,191.12s.01-.05,.04-.06l1.46-.26s.05,.01,.06,.04l.26,1.46s-.01,.05-.04,.06l-1.46,.26s-.05-.01-.06-.04l-.26-1.46Zm.11,.03l.24,1.36,1.36-.24-.24-1.36-1.36,.24Z"/><path d="M135.72,183.71l-1.46,.26,.26,1.46,1.46-.26-.26-1.46Z"/><path class="cls-3" d="M134.22,183.98s.01-.05,.04-.06l1.46-.26s.05,.01,.06,.04l.26,1.46s-.01,.05-.04,.06l-1.46,.26s-.05-.01-.06-.04l-.26-1.46Zm.11,.03l.24,1.36,1.36-.24-.24-1.36-1.36,.24Z"/><path d="M134.74,203.39l-1.46,.26,.26,1.46,1.46-.26-.26-1.46Z"/><path class="cls-3" d="M133.24,203.67s.01-.05,.04-.06l1.46-.26s.05,.01,.06,.04l.26,1.46s-.01,.05-.04,.06l-1.46,.26s-.05-.01-.06-.04l-.26-1.46Zm.11,.03l.24,1.36,1.36-.24-.25-1.36-1.36,.24Z"/><path d="M146.44,193.41l-5.76,1.03,.32,1.77,5.76-1.04-.32-1.77Z"/><path class="cls-3" d="M140.63,194.45s.01-.05,.04-.06l5.76-1.04s.05,.01,.06,.04l.32,1.77s-.01,.05-.04,.06l-5.76,1.04s-.05-.01-.06-.04l-.32-1.77Zm.11,.03l.3,1.67,5.66-1.02-.3-1.67-5.66,1.02Z"/><path d="M132.54,182.8l-1.37,.25,.52,2.89,1.37-.25-.52-2.89Z"/><path d="M139.25,187.28l-1.37,.25,.52,2.89,1.37-.25-.52-2.89Z"/><path d="M118.85,189.77l-1.37,.25,.52,2.89,1.37-.25-.52-2.89Z"/><path class="cls-3" d="M117.43,190.02s.01-.05,.04-.06l1.37-.25s.05,.01,.06,.04l.52,2.89s-.01,.05-.04,.06l-1.37,.25s-.05-.01-.06-.04l-.52-2.89Zm.11,.03l.5,2.79,1.27-.23-.5-2.79-1.27,.23Z"/><path d="M119.62,194.08l-1.37,.25,.52,2.89,1.37-.25-.52-2.89Z"/><path class="cls-3" d="M118.2,194.34s.01-.05,.04-.06l1.37-.25s.05,.01,.06,.04l.52,2.89s-.01,.05-.04,.06l-1.37,.25s-.05-.01-.06-.04l-.52-2.89Zm.11,.03l.5,2.8,1.27-.23-.5-2.79-1.27,.23Z"/><path d="M121.86,189.23l-4.39,.79,.25,1.37,4.39-.79-.25-1.37Z"/><path class="cls-3" d="M117.43,190.03s.01-.05,.04-.06l4.39-.79s.05,.01,.06,.04l.25,1.37s-.01,.05-.04,.06l-4.39,.79s-.05-.01-.06-.04l-.25-1.37Zm.11,.03l.23,1.27,4.29-.77-.23-1.27-4.29,.77Z"/><path d="M124.98,190.08l-2.69,.48,.34,1.88,2.69-.48-.34-1.88Z"/><path class="cls-3" d="M122.24,190.57s.01-.05,.04-.06l2.69-.48s.05,.01,.06,.04l.34,1.88s-.01,.05-.04,.06l-2.69,.48s-.05-.01-.06-.04l-.34-1.88Zm.11,.03l.32,1.78,2.59-.47-.32-1.78-2.59,.47Z"/><path d="M134.52,185.43l-4.64,.84,.39,2.15,4.65-.84-.39-2.15Z"/><path d="M144.26,189.55l-1.45,.26,2.63,14.65,1.45-.26-2.63-14.65Z"/><path class="cls-3" d="M142.77,189.82s.01-.05,.04-.06l1.45-.26s.05,.01,.06,.04l2.63,14.65s-.01,.05-.04,.06l-1.45,.26s-.05-.01-.06-.04l-2.63-14.65Zm.11,.03l2.62,14.55,1.35-.24-2.62-14.55-1.35,.24Z"/><path d="M110.57,145.46c.43,4.04,7.43,3.04,7.43,3.04l15-3.04s6-.96,5.04-5.01l-13.41,2.23-14.06,2.78Z"/><path class="cls-3" d="M169.68,169.31c.26,.33,.2,.8-.12,1.05-1.25,.98-2.93,1.13-4.04,1.19-.41,.02-.77-.3-.79-.71-.02-.41,.3-.77,.71-.79,1.14-.06,2.36-.21,3.2-.87,.32-.26,.8-.2,1.05,.12Z"/><path class="cls-3" d="M170.5,171.52c.29-.3,.28-.77-.02-1.06l.02,1.06Zm0,0h0v.02s-.05,.04-.07,.06c-.05,.06-.13,.14-.22,.25-.19,.21-.44,.51-.69,.84-.25,.33-.72,.39-1.05,.14-.33-.25-.39-.72-.14-1.05,.28-.37,.56-.7,.76-.93,.1-.12,.19-.21,.25-.27,.03-.03,.05-.06,.07-.07l.02-.02h0s0,0,.52,.5l-.52-.5c.29-.3,.76-.31,1.06-.02"/><path class="cls-3" d="M191.81,214.61c.41-.08,.8,.19,.88,.6,.12,.65,.13,1.38,.11,2.12-.01,.38-.04,.82-.06,1.26-.02,.37-.04,.74-.05,1.08-.07,1.62-.02,3.25,.54,4.7,.15,.39-.04,.82-.43,.97-.39,.15-.82-.04-.97-.43-.68-1.76-.71-3.65-.64-5.31,.02-.41,.04-.79,.06-1.14,.02-.4,.04-.79,.06-1.19,.02-.71,0-1.31-.08-1.79-.08-.41,.19-.8,.6-.88Z"/></svg>