<?xml version="1.0" encoding="UTF-8"?><svg id="Layer_1" xmlns="http://www.w3.org/2000/svg" xmlns:xlink="http://www.w3.org/1999/xlink" viewBox="0 0 305.58 233.77"><defs><style>.cls-1{letter-spacing:0em;}.cls-2{letter-spacing:-.04em;}.cls-3{font-family:MyriadPro-Regular, 'Myriad Pro';font-size:9px;}.cls-4{letter-spacing:.02em;}.cls-5{letter-spacing:-.01em;}.cls-6{letter-spacing:0em;}.cls-7{letter-spacing:0em;}.cls-8{clip-path:url(#clippath);}.cls-9{stroke:#000;stroke-miterlimit:10;stroke-width:.1px;}.cls-9,.cls-10{fill-rule:evenodd;}.cls-11{fill:none;}.cls-12{letter-spacing:-.01em;}.cls-13{letter-spacing:0em;}.cls-14{letter-spacing:-.01em;}.cls-15{letter-spacing:0em;}.cls-16{letter-spacing:0em;}.cls-17{letter-spacing:0em;}</style><clipPath id="clippath"><rect class="cls-11" x="0" width="305.58" height="233.77"/></clipPath></defs><g class="cls-8"><path class="cls-10" d="M210.75,169.37s.01-.08,.02-.13h0m-.02,.13s.01-.08,.02-.13l-.02,.13Zm-.33,.62c-.05,.06-.1,.13-.15,.21-.23,.3-.56,.71-.94,1.17-.76,.93-1.78,2.13-2.79,3.31-1.01,1.18-2.02,2.36-2.78,3.23-.38,.44-.69,.8-.91,1.06l-.35,.4s0,0-.57-.49l-.56-.49,.35-.4c.22-.25,.54-.62,.91-1.05,.76-.87,1.77-2.04,2.77-3.22,1.01-1.18,2.02-2.37,2.77-3.29,.38-.46,.69-.85,.9-1.13,.11-.14,.18-.25,.23-.32v-.02c.09-.21,.25-.33,.33-.38,.11-.06,.21-.09,.24-.09,.08-.02,.15-.02,.18-.02,.07,0,.15,0,.21,.01,.14,.01,.34,.04,.57,.07,.48,.07,1.18,.18,2.05,.33,1.76,.3,4.26,.75,7.26,1.3,6,1.1,13.99,2.61,21.99,4.13,7.99,1.52,15.98,3.05,21.98,4.21,3,.58,5.49,1.06,7.24,1.4l2.75,.53-.14,.74,.14-.74c.25,.05,.46,.23,.56,.47,.09,.24,.05,.51-.1,.72-5.1,6.8-9.76,13.21-13.83,18.79-.99,1.36-1.95,2.68-2.86,3.93-4.67,6.4-8.38,11.42-10.82,14.15-.39,.44-.98,.53-1.52,.53-.57,0-1.32-.1-2.29-.28-1.29-.24-3.06-.62-5.46-1.15-1.22-.27-2.6-.57-4.16-.9-9.29-1.99-25.15-5.2-52.07-9.31-.26-.04-.49-.22-.59-.47-.1-.25-.06-.53,.11-.74l8.57-10.81c.26-.32,.73-.38,1.05-.12,.32,.26,.38,.73,.12,1.05l-7.77,9.8c26.18,4.02,41.71,7.17,50.88,9.14,1.59,.34,2.98,.65,4.2,.91,2.37,.52,4.1,.9,5.37,1.13,.96,.17,1.6,.25,2.02,.25,.28,0,.39-.04,.42-.05,2.38-2.67,6.04-7.6,10.71-14.02,.92-1.26,1.87-2.57,2.86-3.93,3.87-5.32,8.29-11.4,13.12-17.85l-1.57-.3c-1.75-.34-4.24-.82-7.24-1.4-5.99-1.15-13.98-2.69-21.98-4.21s-15.98-3.03-21.98-4.13c-3-.55-5.49-1-7.24-1.3-.87-.15-1.55-.26-2.01-.33-.08-.01-.15-.02-.22-.03Zm-8.98,9.45c-.31-.27-.35-.75-.07-1.06l.56,.49,.57,.49c-.27,.31-.75,.35-1.06,.07Z"/><path class="cls-10" d="M115.27,96.33c.13-.39,.55-.61,.95-.48,8.57,2.81,14.1,7.52,17.81,13.09,3.69,5.54,5.56,11.9,6.88,18,.59,1.92,1.32,4.36,2.12,7.06,2.33,7.81,5.29,17.76,7.32,23.28,.97,2.65,2.7,6.15,4.57,9.94,.64,1.3,1.3,2.64,1.96,3.99,2.51,5.19,4.9,10.55,5.51,14.47,.62,3.09,.46,7.1-.4,10.76-.86,3.65-2.45,7.12-4.84,8.98-.07,.05-.14,.09-.22,.12-3.17,1.08-7.18,.88-11,.09-3.84-.8-7.6-2.23-10.33-3.7-.03-.01-.05-.03-.08-.05-1.97-1.41-4.05-3.99-6.06-7.04-2.02-3.07-4.03-6.69-5.83-10.25-3.62-7.12-6.48-14.05-7.22-15.99-.15-.39,.05-.82,.43-.97s.82,.05,.97,.43c.72,1.89,3.56,8.77,7.15,15.84,1.79,3.53,3.77,7.1,5.75,10.11,1.98,3,3.92,5.37,5.64,6.62,2.6,1.39,6.2,2.76,9.88,3.53,3.67,.76,7.31,.91,10.09,0,1.94-1.57,3.39-4.59,4.21-8.06,.82-3.5,.96-7.3,.38-10.14v-.03h0c-.57-3.67-2.85-8.83-5.38-14.08-.63-1.31-1.28-2.62-1.91-3.91-1.88-3.82-3.67-7.43-4.67-10.16h0c-2.04-5.57-5.03-15.61-7.36-23.42-.81-2.7-1.53-5.13-2.11-7.03,0-.02-.01-.04-.02-.06-1.3-6.05-3.12-12.2-6.66-17.51-3.53-5.29-8.78-9.79-17.03-12.49-.39-.13-.61-.55-.48-.95Z"/><path class="cls-10" d="M50.64,82.32c.27-.31,.75-.35,1.06-.07l-.49,.57,.49-.57h0l.02,.03,.08,.07c.07,.06,.17,.15,.29,.27,.25,.23,.58,.55,.96,.93,.73,.74,1.62,1.73,2.17,2.67,4.85,7.34,12.01,10.35,19.62,11.16,7.65,.82,15.7-.57,22.2-1.99,.4-.09,.8,.17,.89,.57,.09,.4-.17,.8-.57,.89-6.52,1.42-14.77,2.86-22.68,2.02-7.93-.85-15.56-4.02-20.73-11.85l-.02-.03c-.45-.77-1.24-1.66-1.96-2.39-.35-.36-.67-.66-.91-.88-.12-.11-.21-.19-.28-.25l-.07-.07-.02-.02h0c-.31-.28-.35-.75-.07-1.06Z"/><path class="cls-10" d="M270.87,106.16c.05-.41,.42-.71,.83-.66l33.22,3.95c.41,.05,.71,.42,.66,.83-.05,.41-.42,.71-.83,.66l-33.22-3.95c-.41-.05-.7-.42-.66-.83Z"/><path class="cls-10" d="M36.6,77.78c-.93,.42-1.56,.91-1.87,1.45-.02,.03-.04,.06-.06,.09-4.83,6.26-6.8,9.12-8.54,13.11-3.52,8.08-5.22,13.59-6.12,18.08-.73,3.66-.94,6.65-1.16,9.84-.05,.73-.1,1.47-.16,2.23-.61,7.95-1.58,16.85-2.48,24.74-.18,1.61-.36,3.17-.54,4.68-.68,5.9-1.26,10.9-1.51,14.04h0c-.48,5.89-2.86,14.51-5.5,22.95-1.28,4.1-2.62,8.14-3.84,11.85-1.32,3.99-2.51,7.6-3.36,10.44-.12,.4-.54,.62-.93,.51-.4-.12-.62-.54-.5-.93,.85-2.84,2.05-6.49,3.38-10.52,1.23-3.72,2.56-7.76,3.82-11.79,2.65-8.46,4.97-16.93,5.43-22.63,.26-3.17,.84-8.21,1.52-14.11,.17-1.5,.35-3.06,.54-4.66,.9-7.89,1.87-16.77,2.48-24.69h0c.06-.74,.11-1.47,.16-2.19,.22-3.2,.43-6.3,1.19-10.06,.93-4.62,2.67-10.24,6.22-18.38h0c1.82-4.16,3.88-7.15,8.69-13.39,.54-.91,1.49-1.56,2.53-2.03,1.07-.48,2.33-.81,3.57-1.02,2.46-.42,5.03-.43,6.23-.2,.41,.08,.67,.47,.6,.88-.08,.41-.47,.67-.88,.6-.96-.18-3.34-.2-5.69,.21-1.17,.2-2.29,.5-3.21,.91Z"/><path class="cls-10" d="M116.14,59.76c.39-.15,.82,.04,.97,.42,4.53,11.53,3.17,22.92,.61,35.68-.08,.41-.48,.67-.88,.59-.41-.08-.67-.48-.59-.88,2.56-12.73,3.82-23.75-.53-34.84-.15-.39,.04-.82,.42-.97Z"/><path class="cls-10" d="M102.25,75.6c.4-.09,.81,.17,.89,.57,1.05,4.82,1,7.94,.94,12.34-.03,1.98-.06,4.21,0,6.97,0,.41-.32,.76-.73,.77-.42,0-.76-.32-.77-.73-.06-2.9-.03-5.19,0-7.18,.06-4.29,.11-7.2-.9-11.84-.09-.4,.17-.8,.57-.89Z"/><path class="cls-10" d="M61.86,56.56c.41,.02,.73,.38,.71,.79-.26,4.74-1.38,8.88-2.58,13.14-.07,.24-.13,.47-.2,.71-1.14,4.05-2.33,8.25-2.97,13.29-.05,.41-.43,.7-.84,.65-.41-.05-.7-.43-.65-.84,.65-5.15,1.86-9.45,3.01-13.49,.07-.24,.14-.49,.21-.73,1.2-4.26,2.27-8.27,2.52-12.82,.02-.41,.38-.73,.79-.71Z"/><path class="cls-10" d="M89.29,58.53c.41,.05,.71,.42,.66,.83-.86,7.47-2.01,12.21-3.21,16.98l-.12,.5c-1.15,4.59-2.33,9.31-3.33,16.66-.06,.41-.43,.7-.84,.64s-.7-.43-.64-.84c1.01-7.43,2.21-12.21,3.36-16.81l.13-.5c1.19-4.75,2.32-9.41,3.17-16.79,.05-.41,.42-.71,.83-.66Z"/><path class="cls-10" d="M102.94,2.3c.18-.37,.63-.52,1.01-.34,3.84,1.89,6.22,4.19,7.7,6.82,1.48,2.62,2.04,5.5,2.34,8.51,.13,1.26,.22,2.54,.31,3.83,.34,4.95,.7,10.16,3.49,15.54,.19,.37,.05,.82-.32,1.01-.37,.19-.82,.05-1.01-.32-2.96-5.68-3.33-11.28-3.67-16.26-.08-1.26-.17-2.48-.29-3.64-.3-2.93-.83-5.58-2.16-7.92-1.31-2.33-3.45-4.43-7.06-6.21-.37-.18-.52-.63-.34-1Z"/><path class="cls-10" d="M68.71,76.5c.39,.14,.59,.57,.45,.96-1.07,2.97-1.58,8.38-1.35,14.08,.02,.41-.3,.76-.72,.78-.41,.02-.76-.3-.78-.72-.24-5.77,.26-11.41,1.43-14.66,.14-.39,.57-.59,.96-.45Z"/><path class="cls-10" d="M111.87,104.79c3.64-3.4,8.59-5.5,13.84-4.24,.4,.1,.65,.5,.55,.9-.1,.4-.5,.65-.9,.55-4.62-1.11-9.08,.71-12.47,3.88-3.4,3.17-5.59,7.59-5.72,11.43-.01,.41-.36,.74-.78,.72-.41-.01-.74-.36-.72-.78,.14-4.31,2.57-9.09,6.19-12.48Z"/><path class="cls-10" d="M85.89,1.19c3.44-.19,6.23,.32,7.29,.58,.38,.1,.88,.11,1.51,.06,.59-.05,1.24-.15,1.97-.26l.16-.02c1.55-.24,3.4-.5,5.26-.29,5.44,.62,9.75,2.25,13.36,5.08,3.6,2.82,6.46,6.79,9.07,12.01,2.67,5.34,2.97,11.7,2.5,18.08-.24,3.2-.67,6.42-1.11,9.55-.05,.39-.11,.77-.16,1.16-.38,2.71-.75,5.34-.99,7.82,0,2.25,.5,5.34,1.03,8.68,.08,.5,.16,1,.24,1.5,.61,3.86,1.18,7.93,.94,11.07h0c-.28,3.62-.96,9.55-1.56,14.57-.3,2.51-.59,4.8-.79,6.46-.1,.83-.19,1.5-.25,1.97l-.09,.72s0,0-.74-.1l.74,.1c-.03,.25-.19,.46-.41,.58-.22,.11-.49,.1-.71-.02-4.09-2.35-8.87-3.59-13.37-3.17-.23,.02-.46-.07-.62-.24-.2-.22-.36-.55-.47-.84-.13-.32-.26-.71-.4-1.14-.22-.7-.44-1.53-.65-2.37-.03,.45-.06,.89-.08,1.29-.04,.8-.04,1.39,0,1.66,.06,.44-.18,.76-.4,.93-.2,.15-.44,.24-.65,.29-.43,.11-.99,.17-1.62,.19-1.27,.05-2.96-.02-4.68-.15-3.43-.25-7.1-.71-7.86-.87-.28-.06-.5-.28-.57-.56-.41-1.75-.91-6.55-1.12-11.33-.06-1.35-.1-2.7-.1-3.99-.4,1.9-.75,4.14-.93,6.62-.04,.72-.4,2.66-.76,4.37-.18,.87-.38,1.71-.54,2.34-.08,.31-.16,.59-.24,.8-.04,.1-.08,.21-.13,.31-.02,.05-.06,.12-.12,.19-.04,.04-.19,.23-.46,.28-.03,0-.06,0-.09,.01-2.72,.22-8.89,.58-15.38-.56-6.45-1.13-13.35-3.77-17.4-9.68-.28-.28-.83-.58-1.64-.89-.82-.31-1.81-.58-2.83-.85-.28-.07-.56-.14-.84-.22-.74-.19-1.47-.38-2.12-.57-.88-.26-1.72-.55-2.28-.93-.3-.2-.46-.5-.53-.78-.07-.27-.08-.57-.06-.85,.04-.56,.21-1.25,.45-2,.47-1.51,1.27-3.46,2.14-5.55l.06-.15c.85-2.06,1.76-4.27,2.5-6.38,.77-2.18,1.34-4.21,1.51-5.86,.41-3.97,2.38-8.93,4.21-13.1,.47-1.07,.92-2.06,1.33-2.98,.42-.92,.8-1.78,1.14-2.56,.33-.76,.6-1.42,.78-1.94,.2-.55,.27-.88,.27-1.02,.11-5.47,1.55-12.01,4.22-18.07,2.67-6.06,6.61-11.7,11.75-15.29,3.72-2.6,7.87-3.5,11.32-3.7Zm6.14,71.6l-.68-.32c.17-.37,.61-.54,.99-.37,.37,.17,.55,.6,.38,.98-.32,.75-.53,2.26-.62,4.29-.09,1.99-.06,4.36,.05,6.73,.19,4.36,.62,8.65,.99,10.57,1.23,.19,4.26,.55,7.17,.76,1.71,.12,3.34,.19,4.52,.14,.54-.02,.95-.07,1.21-.12-.02-.42,0-.96,.03-1.52,.04-.8,.11-1.74,.19-2.62,.08-.89,.16-1.73,.22-2.35,.03-.31,.06-.56,.08-.74l.02-.21v-.07h0s0,0,.75,.08l.73-.15h0v.02l.02,.06c.01,.06,.03,.14,.05,.24,.04,.21,.11,.51,.19,.88,.16,.73,.39,1.71,.63,2.72,.25,1.01,.52,2.03,.77,2.85,.13,.41,.25,.76,.36,1.02,.02,.04,.03,.08,.05,.11,4.35-.29,8.85,.82,12.8,2.87,.05-.43,.12-.97,.2-1.6,.21-1.66,.49-3.94,.79-6.45,.6-5.02,1.27-10.93,1.55-14.51,.22-2.94-.32-6.83-.93-10.73-.08-.5-.16-.99-.24-1.49-.53-3.33-1.05-6.57-1.05-8.96,0-.01,0-.03,0-.04v-.03c.25-2.53,.62-5.21,1.01-7.93,.05-.38,.11-.77,.16-1.15,.44-3.13,.87-6.31,1.1-9.45,.46-6.3,.14-12.32-2.35-17.3-2.55-5.1-5.28-8.86-8.65-11.5-3.35-2.63-7.38-4.18-12.61-4.77-1.64-.19-3.29,.05-4.86,.28l-.18,.03c-.71,.11-1.41,.22-2.05,.27-.69,.06-1.38,.06-2-.1-.94-.24-3.58-.72-6.85-.54-3.27,.18-7.12,1.03-10.54,3.43-4.84,3.39-8.63,8.77-11.23,14.67-2.6,5.89-3.99,12.24-4.1,17.49,0,.41-.16,.95-.36,1.49-.2,.58-.49,1.27-.82,2.04-.33,.76-.73,1.64-1.16,2.59-.42,.94-.87,1.94-1.32,2.95-1.84,4.19-3.71,8.94-4.09,12.65-.19,1.83-.81,4-1.59,6.21-.76,2.15-1.68,4.39-2.53,6.44l-.07,.16c-.87,2.11-1.64,4-2.09,5.43-.23,.72-.35,1.28-.38,1.66-.01,.16,0,.27,0,.32,.35,.21,.96,.44,1.79,.69,.62,.18,1.32,.36,2.04,.55,.29,.07,.58,.15,.87,.23,1.02,.27,2.07,.56,2.98,.9,.87,.33,1.72,.74,2.25,1.31,.03,.03,.05,.06,.07,.09,3.7,5.44,10.14,7.99,16.45,9.1,5.97,1.05,11.7,.79,14.56,.57,.04-.14,.09-.31,.14-.51,.16-.6,.34-1.41,.53-2.27,.37-1.74,.69-3.57,.73-4.16h0c.3-4.28,1.1-7.83,1.83-10.31,.36-1.24,.71-2.22,.97-2.89,.13-.33,.23-.59,.31-.77,.04-.09,.07-.16,.09-.2l.02-.05h0v-.02h0l.68,.31Zm15.3,15.24l.73-.15c-.08-.36-.4-.61-.77-.6-.37,.02-.67,.3-.71,.67l.75,.08Z"/><path class="cls-10" d="M118.71,162.43c.39,.13,.61,.55,.48,.95-1.68,5.18-3.26,9.5-4.65,13.33-.21,.57-.41,1.14-.62,1.69-1.55,4.26-2.85,7.95-3.82,11.71-1.94,7.48-2.6,15.25-1.22,28.2,.04,.41-.25,.78-.67,.82-.41,.04-.78-.26-.82-.67-1.39-13.08-.73-21.04,1.26-28.73,.99-3.83,2.32-7.58,3.86-11.84,.2-.55,.41-1.12,.62-1.69,1.4-3.84,2.96-8.13,4.64-13.28,.13-.39,.55-.61,.94-.48Z"/><path class="cls-10" d="M81.15,7.03c2.02-2.32,5.09-5.84,10.83-5.05,.41,.06,.7,.44,.64,.85s-.44,.7-.85,.64c-4.87-.68-7.35,2.14-9.39,4.44-.39,.44-.75,.85-1.12,1.23h0c-.68,.69-1.42,1.35-2.19,2.04-2.89,2.58-6.16,5.5-7.72,11.3-.11,.4-.52,.64-.92,.53-.4-.11-.64-.52-.53-.92,1.69-6.27,5.36-9.54,8.28-12.14,.73-.65,1.41-1.26,2.01-1.86,.29-.3,.61-.66,.96-1.06Z"/><path class="cls-10" d="M94.34,2.44c.16-.38,.6-.56,.98-.4,4.25,1.77,6.52,4.96,7.72,8.92,1.18,3.92,1.31,8.62,1.28,13.49,0,.96-.02,1.93-.03,2.9-.05,3.99-.1,8.06,.28,11.96,.47,4.85,1.6,9.37,4.17,13.12,.23,.34,.15,.81-.19,1.04-.34,.23-.81,.15-1.04-.19-2.77-4.04-3.94-8.85-4.43-13.82-.39-4-.34-8.16-.29-12.17,.01-.96,.02-1.92,.03-2.86,.03-4.88-.11-9.38-1.22-13.05-1.09-3.63-3.11-6.41-6.86-7.97-.38-.16-.56-.6-.4-.98Z"/><path class="cls-10" d="M94.12,2.22c.28,.3,.27,.78-.04,1.06-3.81,3.55-5.81,6.88-6.88,10.19-1.07,3.32-1.22,6.66-1.24,10.29,0,.5,0,1,0,1.5-.02,6.88-.05,14.68-5.68,24.46-.21,.36-.67,.48-1.02,.28-.36-.21-.48-.67-.28-1.02,5.43-9.43,5.46-16.87,5.48-23.73,0-.5,0-1,0-1.49,.03-3.64,.17-7.18,1.32-10.74,1.15-3.58,3.31-7.12,7.28-10.82,.3-.28,.78-.27,1.06,.04Z"/><path class="cls-10" d="M128.02,5.51c.77-.47,1.67-.59,2.39-.52h.01l143.3,15.04c.07,0,.15,.02,.21,.05,1.56,.26,2.64,1.73,2.46,3.33h0l-11.74,95.52h0c-.18,1.71-1.71,2.94-3.4,2.67h0l-136.58-20.67c-.49-.07-.85-.49-.85-.99v-1.45c0-.29,.13-.57,.35-.76,.22-.19,.51-.27,.8-.23l136.58,20.79,11.4-94.95L130.18,8.65l-2.54,18.53c-.07,.48-.47,.85-.96,.86s-.92-.33-1.01-.81l-1.11-5.69c-.01-.06-.02-.13-.02-.19v-.5c0-.05,0-.1,.01-.15l1.93-12.66c.11-1.21,.72-2.05,1.54-2.54Z"/><path class="cls-10" d="M166.22,133.58c.07-.41,.46-.68,.87-.61l39.63,7.1c.41,.07,.68,.46,.61,.87-.07,.41-.46,.68-.87,.61l-39.63-7.1c-.41-.07-.68-.46-.61-.87Z"/><path class="cls-10" d="M164.09,128.03c.4-.09,.8,.17,.89,.58,.37,1.74,1.03,2.87,1.58,3.55,.28,.35,.52,.58,.7,.73,.09,.07,.15,.12,.2,.15l.04,.03h0c.21,.13,.34,.34,.36,.58,.02,.24-.08,.48-.27,.63l-.92,.77c-.58,.49-1.4,1.17-2.34,1.96-1.9,1.59-4.31,3.61-6.4,5.35-.46,.38-.83,.71-1.12,.98-.13,.12-.23,.22-.31,.31,9.08,2.01,34.43,7.28,39.39,8.09,.81,.13,1.04,.15,1.22,.1,.16-.05,.37-.18,.96-.77h0c1.65-1.65,3.94-4.28,5.83-6.51,.94-1.11,1.78-2.12,2.38-2.85,.21-.25,.39-.47,.54-.65-.28-.29-.63-.69-.98-1.17-.71-.97-1.49-2.41-1.33-3.94,.04-.41,.41-.71,.82-.67s.71,.41,.67,.82c-.1,.96,.4,2.01,1.05,2.9,.31,.43,.64,.79,.88,1.04,.12,.13,.22,.22,.29,.29,.03,.03,.06,.06,.08,.07l.02,.02h0c.3,.27,.34,.73,.09,1.04l-.58-.47,.58,.47h0l-.07,.08c-.04,.05-.11,.13-.19,.24-.17,.21-.41,.5-.71,.87-.61,.73-1.45,1.75-2.39,2.87-1.89,2.23-4.21,4.9-5.91,6.6-.55,.55-1.01,.99-1.61,1.16-.55,.16-1.13,.06-1.78-.04-.03,0-.06,0-.09-.02-5.02-.81-30.62-6.14-39.59-8.13h0l.16-.73-.16,.73h0c-.35-.08-.82-.23-1.09-.62-.34-.5-.14-1.02,.03-1.31,.18-.3,.46-.61,.78-.91,.32-.31,.73-.66,1.19-1.04,2.09-1.74,4.51-3.77,6.4-5.35,.95-.79,1.76-1.48,2.34-1.96l.24-.2c-.17-.17-.36-.37-.55-.62-.69-.86-1.46-2.2-1.88-4.18-.09-.4,.17-.8,.58-.89Z"/><path class="cls-10" d="M130.14,.09h0l148.79,14.21c.96,.11,1.75,.39,2.37,.83,.62,.45,1.03,1.03,1.28,1.68,.48,1.25,.4,2.75,.25,4.03-.79,6.72-4.29,34.63-7.7,61.77-.51,4.08-1.02,8.13-1.52,12.1-2.82,22.46-5.28,42-5.65,45.16-.36,3.07-3.28,6.29-7.12,5.65-6.88-1.15-37.18-6.15-65.76-10.87-14.29-2.36-28.15-4.64-38.43-6.34l-17-2.8h0s0,0,.12-.74q.12-.74,.12-.74l17,2.8c10.29,1.7,24.15,3.98,38.43,6.34,28.58,4.71,58.88,9.72,65.77,10.87,2.78,.46,5.1-1.9,5.38-4.35,.37-3.17,2.83-22.72,5.65-45.18,.5-3.97,1.01-8.02,1.52-12.09,3.41-27.15,6.91-55.04,7.7-61.76M139.76,124.78l.12-.74c-.41-.07-.79,.21-.86,.62-.07,.41,.21,.79,.62,.86l.12-.74ZM130.14,.09c-1.81-.2-3.4-.08-4.64,.56-1.29,.66-2.08,1.83-2.4,3.45-.25,1.23-.71,3.97-1.11,6.39-.2,1.21-.39,2.35-.52,3.18-.07,.42-.12,.76-.16,.99l-.06,.37s0,0,.74,.12l-.74-.12c-.07,.41,.21,.79,.62,.86,.41,.07,.79-.21,.86-.62l.06-.37c.04-.24,.09-.58,.16-.99,.13-.83,.32-1.97,.52-3.18,.4-2.43,.86-5.14,1.1-6.34h0c.25-1.26,.81-2,1.62-2.41,.86-.44,2.1-.59,3.79-.4l148.79,14.21h0c.77,.09,1.29,.3,1.65,.56,.36,.26,.6,.59,.76,1,.34,.87,.3,2.03,.15,3.32"/><path class="cls-10" d="M107.33,194.48c.16-.38,.6-.56,.98-.41,1.85,.76,10.05,3.34,18.24,5.64,4.08,1.15,8.14,2.22,11.36,2.96,1.61,.37,3.01,.66,4.1,.83,.54,.09,1,.14,1.35,.16,.38,.03,.59,.01,.68,0,.4-.09,.81,.16,.9,.57,.09,.4-.16,.81-.57,.9-.31,.07-.7,.07-1.1,.04-.42-.03-.92-.09-1.49-.18-1.14-.18-2.57-.47-4.2-.85-3.26-.75-7.34-1.83-11.43-2.98-8.16-2.3-16.46-4.89-18.4-5.7-.38-.16-.56-.6-.41-.98Z"/><path class="cls-10" d="M107.79,205.78c.08-.41,.47-.68,.88-.6l144.31,27.1c.41,.08,.68,.47,.6,.88-.08,.41-.47,.68-.88,.6l-144.31-27.1c-.41-.08-.67-.47-.6-.88Z"/><path class="cls-10" d="M224.37,190.65c-1.49,.47-3.47,.77-6.03,.86l-.77,.03v-.06c-2.59,0-4.91,.8-7.08,1.95-1.72,.91-3.29,2.01-4.84,3.09-.6,.42-1.2,.84-1.8,1.24-2.08,1.39-4.2,2.6-6.41,2.74-2.3,.14-4.53-.88-6.81-3.51l-.08-.1-.05-.12c-1.91-4.82-.07-9.68,3.51-13.22,3.55-3.52,8.91-5.86,14.39-5.77,3.01-.63,6.43-.19,9.51,.81,3.11,1,5.98,2.6,7.85,4.33,.93,.86,1.66,1.8,2.02,2.77,.37,.99,.35,2.03-.26,2.96-.59,.89-1.66,1.56-3.14,2.02Zm-5.94-.65c2.41-.09,4.2-.38,5.48-.78,1.32-.42,2.02-.94,2.34-1.43,.3-.45,.35-.96,.11-1.6-.25-.66-.8-1.41-1.64-2.19-1.68-1.55-4.33-3.05-7.29-4s-6.12-1.33-8.82-.75l-.09,.02h-.09c-5.08-.11-10.09,2.06-13.39,5.33-3.26,3.23-4.76,7.42-3.22,11.48,2.04,2.32,3.83,3,5.5,2.9,1.77-.11,3.59-1.09,5.67-2.49,.55-.37,1.12-.76,1.7-1.17,1.57-1.09,3.26-2.27,5.06-3.23,2.51-1.33,5.33-2.29,8.57-2.1h.07Z"/><path class="cls-10" d="M227.49,186.99c.37,.19,.52,.64,.33,1.01-1.43,2.84-4.6,4.88-7.86,6.52-1.58,.8-3.23,1.52-4.78,2.19l-.19,.08c-1.61,.7-3.09,1.35-4.3,2-4.69,2.57-12.82,4.5-19.02-.7-.32-.27-.36-.74-.09-1.06,.27-.32,.74-.36,1.06-.09,5.49,4.6,12.85,2.98,17.34,.53h0c1.27-.69,2.81-1.36,4.41-2.06,.06-.03,.12-.05,.18-.08,1.56-.68,3.17-1.38,4.72-2.16,3.25-1.64,6.01-3.5,7.19-5.86,.19-.37,.64-.52,1.01-.33Z"/><path class="cls-10" d="M210.8,178.35c.24-.14,.54-.06,.68,.18,.28,.48,.32,1.03,.27,1.54-.05,.51-.21,1.02-.37,1.48-.07,.21-.15,.42-.22,.62v.04c-.09,.21-.16,.39-.21,.55-.04,.13-.07,.23-.09,.31l.07,.04c1.14,.57,2.67,1.34,4.11,2.38,1.59,1.14,3.13,2.64,3.96,4.62,.11,.25-.01,.55-.27,.66-.25,.11-.55-.01-.65-.27-.74-1.75-2.11-3.11-3.62-4.2-1.38-.99-2.83-1.72-3.98-2.3-.11-.06-.22-.11-.33-.17-.1-.05-.18-.13-.23-.24-.1-.21-.08-.44-.06-.6,.03-.18,.08-.36,.14-.55,.06-.19,.14-.39,.21-.59v-.04c.09-.19,.16-.39,.23-.6,.15-.44,.27-.86,.32-1.25,.04-.39,0-.7-.14-.93-.14-.24-.06-.54,.18-.68Z"/><path class="cls-10" d="M210.62,182.98c5.22-.8,9.75-.84,13.38-.35,.27,.04,.47,.29,.43,.56-.04,.27-.29,.47-.56,.43-3.52-.47-7.96-.44-13.1,.35-.27,.04-.53-.15-.57-.42-.04-.27,.15-.53,.42-.57Z"/><path d="M214.35,182.79c.75-2.2,5.57-1.3,5.86,.22-1.11,.57-4.59,.81-5.86-.22Z"/><path class="cls-10" d="M214.66,182.7c.27,.17,.62,.3,1.04,.39,.5,.11,1.07,.16,1.64,.15,.57,0,1.14-.05,1.62-.14,.38-.07,.7-.15,.94-.24-.11-.21-.36-.43-.74-.63-.47-.25-1.09-.43-1.74-.49-.64-.07-1.29-.02-1.8,.16-.45,.16-.79,.42-.97,.78Zm4.74-.9c.52,.27,.97,.66,1.06,1.16,.02,.11-.03,.22-.13,.27-.31,.16-.76,.29-1.28,.38-.52,.09-1.11,.14-1.71,.14-.6,0-1.2-.05-1.75-.17-.54-.12-1.04-.31-1.4-.6-.08-.07-.11-.18-.08-.27,.22-.64,.73-1.04,1.34-1.26,.61-.22,1.33-.26,2.02-.19,.69,.07,1.38,.27,1.91,.55Z"/><path class="cls-10" d="M224.37,190.65c-1.49,.47-3.47,.77-6.03,.86l-.77,.03v-.06c-2.59,0-4.91,.8-7.08,1.95-1.72,.91-3.29,2.01-4.84,3.09-.6,.42-1.2,.84-1.8,1.24-2.08,1.39-4.2,2.6-6.41,2.74-2.3,.14-4.53-.88-6.81-3.51l-.08-.1-.05-.12c-1.91-4.82-.07-9.68,3.51-13.22,3.55-3.52,8.91-5.86,14.39-5.77,3.01-.63,6.43-.19,9.51,.81,3.11,1,5.98,2.6,7.85,4.33,.93,.86,1.66,1.8,2.02,2.77,.37,.99,.35,2.03-.26,2.96-.59,.89-1.66,1.56-3.14,2.02Zm-5.94-.65c2.41-.09,4.2-.38,5.48-.78,1.32-.42,2.02-.94,2.34-1.43,.3-.45,.35-.96,.11-1.6-.25-.66-.8-1.41-1.64-2.19-1.68-1.55-4.33-3.05-7.29-4s-6.12-1.33-8.82-.75l-.09,.02h-.09c-5.08-.11-10.09,2.06-13.39,5.33-3.26,3.23-4.76,7.42-3.22,11.48,2.04,2.32,3.83,3,5.5,2.9,1.77-.11,3.59-1.09,5.67-2.49,.55-.37,1.12-.76,1.7-1.17,1.57-1.09,3.26-2.27,5.06-3.23,2.51-1.33,5.33-2.29,8.57-2.1h.07Z"/><path class="cls-10" d="M210.8,178.35c.24-.14,.54-.06,.68,.18,.28,.48,.32,1.03,.27,1.54-.05,.51-.21,1.02-.37,1.48-.07,.21-.15,.42-.22,.62v.04c-.09,.21-.16,.39-.21,.55-.04,.13-.07,.23-.09,.31l.07,.04c1.14,.57,2.67,1.34,4.11,2.38,1.59,1.14,3.13,2.64,3.96,4.62,.11,.25-.01,.55-.27,.66-.25,.11-.55-.01-.65-.27-.74-1.75-2.11-3.11-3.62-4.2-1.38-.99-2.83-1.72-3.98-2.3-.11-.06-.22-.11-.33-.17-.1-.05-.18-.13-.23-.24-.1-.21-.08-.44-.06-.6,.03-.18,.08-.36,.14-.55,.06-.19,.14-.39,.21-.59v-.04c.09-.19,.16-.39,.23-.6,.15-.44,.27-.86,.32-1.25,.04-.39,0-.7-.14-.93-.14-.24-.06-.54,.18-.68Z"/><path class="cls-10" d="M210.62,182.98c5.22-.8,9.75-.84,13.38-.35,.27,.04,.47,.29,.43,.56-.04,.27-.29,.47-.56,.43-3.52-.47-7.96-.44-13.1,.35-.27,.04-.53-.15-.57-.42-.04-.27,.15-.53,.42-.57Z"/><path d="M214.35,182.79c.75-2.2,5.57-1.3,5.86,.22-1.11,.57-4.59,.81-5.86-.22Z"/><path class="cls-10" d="M214.66,182.7c.27,.17,.62,.3,1.04,.39,.5,.11,1.07,.16,1.64,.15,.57,0,1.14-.05,1.62-.14,.38-.07,.7-.15,.94-.24-.11-.21-.36-.43-.74-.63-.47-.25-1.09-.43-1.74-.49-.64-.07-1.29-.02-1.8,.16-.45,.16-.79,.42-.97,.78Zm4.74-.9c.52,.27,.97,.66,1.06,1.16,.02,.11-.03,.22-.13,.27-.31,.16-.76,.29-1.28,.38-.52,.09-1.11,.14-1.71,.14-.6,0-1.2-.05-1.75-.17-.54-.12-1.04-.31-1.4-.6-.08-.07-.11-.18-.08-.27,.22-.64,.73-1.04,1.34-1.26,.61-.22,1.33-.26,2.02-.19,.69,.07,1.38,.27,1.91,.55Z"/><path class="cls-10" d="M196.96,84.74c.11-.08,.24-.12,.38-.1l10.73,1.65c.27,.04,.45,.29,.42,.56l-1.41,11.32c-.02,.13-.09,.26-.2,.34-.11,.08-.25,.12-.38,.09l-10.71-1.72c-.27-.04-.45-.29-.42-.56l1.39-11.25c.02-.13,.09-.26,.19-.34Zm.74,.97l-1.27,10.26,9.72,1.56,1.29-10.32-9.74-1.5Z"/><path class="cls-9" d="M133.08,75.45c.11-.08,.24-.12,.37-.1l10.84,1.51c.27,.04,.46,.29,.43,.56l-1.4,10.95c-.02,.13-.09,.25-.19,.33-.1,.08-.24,.12-.37,.1l-10.83-1.39c-.27-.04-.47-.28-.43-.56l1.39-11.07c.02-.13,.09-.25,.19-.33Zm.74,.96l-1.26,10.07,9.84,1.26,1.27-9.96-9.85-1.37Z"/><path class="cls-10" d="M135.09,78.12c.22-.16,.54-.11,.7,.11l5.62,7.78c.16,.22,.11,.54-.11,.7-.22,.16-.54,.11-.7-.11l-5.62-7.78c-.16-.22-.11-.54,.11-.7Z"/><path class="cls-10" d="M142.18,79.13c.17,.22,.14,.53-.08,.7l-7.41,5.92c-.22,.17-.53,.14-.7-.08-.17-.22-.14-.53,.08-.7l7.41-5.92c.22-.17,.53-.14,.7,.08Z"/><text class="cls-3" transform="translate(146.68 24.98) rotate(6)"><tspan class="cls-13" x="0" y="0">A</tspan><tspan x="5.45" y="0">s the bea</tspan><tspan class="cls-6" x="39.28" y="0">r</tspan><tspan x="42.14" y="0">er of this pen, </tspan><tspan class="cls-6" x="-.9" y="10.8">w</tspan><tspan x="5.64" y="10.8">e u</tspan><tspan class="cls-7" x="17.01" y="10.8">r</tspan><tspan x="19.88" y="10.8">ge </tspan><tspan class="cls-6" x="31.33" y="10.8">y</tspan><tspan x="35.48" y="10.8">ou </tspan><tspan class="cls-17" x="47.29" y="10.8">t</tspan><tspan x="50.22" y="10.8">o ad</tspan><tspan class="cls-6" x="66.48" y="10.8">v</tspan><tspan x="70.72" y="10.8">oc</tspan><tspan class="cls-16" x="79.69" y="10.8">a</tspan><tspan class="cls-17" x="83.99" y="10.8">t</tspan><tspan x="86.92" y="10.8">e </tspan><tspan class="cls-14" x="93.34" y="10.8">f</tspan><tspan x="95.85" y="10.8">or </tspan><tspan x="-1.79" y="21.6">le</tspan><tspan class="cls-13" x="4.84" y="21.6">g</tspan><tspan x="9.82" y="21.6">isl</tspan><tspan class="cls-16" x="17.61" y="21.6">a</tspan><tspan x="21.91" y="21.6">tion th</tspan><tspan class="cls-16" x="46.81" y="21.6">a</tspan><tspan x="51.12" y="21.6">t sa</tspan><tspan class="cls-14" x="63.9" y="21.6">f</tspan><tspan x="66.42" y="21.6">egua</tspan><tspan class="cls-6" x="85.25" y="21.6">r</tspan><tspan x="88.11" y="21.6">ds </tspan><tspan x="-2.69" y="32.4">human </tspan><tspan class="cls-1" x="26.01" y="32.4">r</tspan><tspan x="28.99" y="32.4">ig</tspan><tspan class="cls-16" x="36.13" y="32.4">h</tspan><tspan x="41.09" y="32.4">t</tspan><tspan class="cls-12" x="44.07" y="32.4">s</tspan><tspan x="47.53" y="32.4">, civil libe</tspan><tspan class="cls-4" x="81.77" y="32.4">r</tspan><tspan x="84.93" y="32.4">tie</tspan><tspan class="cls-12" x="94.52" y="32.4">s</tspan><tspan x="97.98" y="32.4">, </tspan><tspan x="-3.58" y="43.2">and equali</tspan><tspan class="cls-15" x="35.83" y="43.2">t</tspan><tspan class="cls-2" x="38.89" y="43.2">y</tspan><tspan x="42.78" y="43.2">.</tspan></text><text class="cls-3" transform="translate(147.36 86.43) rotate(6)"><tspan class="cls-5" x="0" y="0">A</tspan><tspan class="cls-13" x="5.4" y="0">cc</tspan><tspan x="13.36" y="0">ept</tspan></text><text class="cls-3" transform="translate(211.23 96.69) rotate(6)"><tspan class="cls-1" x="0" y="0">D</tspan><tspan x="6.03" y="0">ecline</tspan></text></g></svg>