<svg width="343" height="283" viewBox="0 0 343 283" fill="none" xmlns="http://www.w3.org/2000/svg">
<path d="M98.6475 203.509C101.297 203.295 109.757 202.309 109.757 202.309" stroke="black" stroke-width="1.5" stroke-miterlimit="10" stroke-linecap="round" stroke-linejoin="round"/>
<path d="M1 216.96C1 216.96 28.3171 212.67 55.1709 208.892" stroke="black" stroke-width="1.5" stroke-miterlimit="10" stroke-linecap="round" stroke-linejoin="round"/>
<path d="M298.055 199.635C320.797 202.285 341.9 207.406 341.9 207.406" stroke="black" stroke-width="1.5" stroke-miterlimit="10" stroke-linecap="round" stroke-linejoin="round"/>
<path d="M209.972 22.2699C196.629 14.7604 173.993 1.6543 159.176 1.6543C148.779 1.6543 131.978 8.79549 124.325 13.5365C115.723 18.8716 107.049 34.865 104.601 46.569C102.831 55.0172 102.094 70.7492 108.641 79.1618C116.483 89.2379 129.269 85.5901 129.269 85.5901C129.269 85.5901 138.18 99.112 146.949 101.275C163.287 105.303 179.221 98.9695 186.339 91.1272C189.725 87.3962 198.363 77.2131 203.223 69.87C205.291 66.7568 214.499 44.5609 214.499 44.5609L209.972 22.2699Z" fill="black" stroke="black" stroke-width="1.5" stroke-miterlimit="10" stroke-linecap="round" stroke-linejoin="round"/>
<path d="M209.188 58.8551C209.188 58.8551 215.212 61.5404 219.3 60.3879C227.023 58.2134 241.021 56.6093 251.215 63.6792C260.412 70.06 262.824 74.5752 266.448 86.5643C268.575 93.5986 268.362 104.673 269.074 114.178C269.478 119.525 272.972 124.29 276.845 127.392C278.865 129.008 286.102 132.061 286.102 132.061C286.102 132.061 282.05 126.477 280.885 124.492C277.689 119.062 279.78 114.285 279.78 114.285C279.78 114.285 282.002 115.343 282.632 115.866C283.784 116.852 286.113 120.821 286.113 120.821L286.922 126.512C286.922 126.512 288.502 120.963 288.371 119.074C288.062 114.963 284.165 110.602 282.549 108.641C281.111 106.895 278.616 103.461 277.748 100.965C276.608 97.6623 277.309 90.937 277.748 86.7069C278.699 77.4269 278.972 66.6617 271.819 53.8527C270.037 50.6564 260.757 44.2043 256.372 42.1249C253.117 40.5802 242.518 38.1444 242.518 38.1444C242.518 38.1444 246.439 37.5146 247.758 37.3245C249.671 37.0512 250.526 37.0512 253.687 37.7761C259.105 39.0118 264.737 44.0499 264.737 44.0499C264.737 44.0499 261.434 36.3858 254.471 34.354C251.311 33.4272 247.484 32.7974 244.181 32.8687C241.116 32.94 234.842 32.3815 231.42 31.6211C226.275 30.4685 222.627 28.3416 219.526 27.2484C214.915 25.6206 202.249 18.0991 202.249 18.0991" fill="black"/>
<path d="M209.188 58.8551C209.188 58.8551 215.212 61.5404 219.3 60.3879C227.023 58.2134 241.021 56.6093 251.215 63.6792C260.412 70.06 262.824 74.5752 266.448 86.5643C268.575 93.5986 268.362 104.673 269.074 114.178C269.478 119.525 272.972 124.29 276.845 127.392C278.865 129.008 286.102 132.061 286.102 132.061C286.102 132.061 282.05 126.477 280.885 124.492C277.689 119.062 279.78 114.285 279.78 114.285C279.78 114.285 282.002 115.343 282.632 115.866C283.784 116.852 286.113 120.821 286.113 120.821L286.922 126.512C286.922 126.512 288.502 120.963 288.371 119.074C288.062 114.963 284.165 110.602 282.549 108.641C281.111 106.895 278.616 103.461 277.748 100.965C276.608 97.6623 277.309 90.937 277.748 86.7069C278.699 77.4269 278.972 66.6617 271.819 53.8527C270.037 50.6564 260.757 44.2043 256.372 42.1249C253.117 40.5802 242.518 38.1444 242.518 38.1444C242.518 38.1444 246.439 37.5146 247.758 37.3245C249.671 37.0512 250.526 37.0512 253.687 37.7761C259.105 39.0118 264.737 44.0499 264.737 44.0499C264.737 44.0499 261.434 36.3858 254.471 34.354C251.311 33.4272 247.484 32.7974 244.181 32.8687C241.116 32.94 234.842 32.3815 231.42 31.6211C226.275 30.4685 222.627 28.3416 219.526 27.2484C214.915 25.6206 202.249 18.0991 202.249 18.0991" stroke="black" stroke-width="1.5" stroke-miterlimit="10" stroke-linecap="round" stroke-linejoin="round"/>
<path d="M197.282 77.3086C199.694 73.9816 202.807 70.8922 208.511 70.8922C211.992 70.8922 215.747 71.2368 218.908 70.5595C221.736 69.9536 230.683 65.9849 233.939 65.9255C236.481 65.8661 240.438 67.2444 242.969 71.1061C245.06 74.2905 249.148 86.2084 252.32 88.3234C257.216 91.6029 262.468 92.4227 262.468 92.4227C262.468 92.4227 255.279 88.2283 253.889 86.5054C251.215 83.1903 247.152 72.6864 245.155 69.4188C242.553 65.1531 237.183 62.6579 233.891 62.6104C230.208 62.5628 221.807 65.2482 217.779 64.6778C214.583 64.2263 211.469 61.4578 209.034 58.7843C207.275 56.8475 205.861 54.9463 205.029 53.9839C200.74 49.0765 192.874 49.3023 189.06 52.0827" fill="black"/>
<path d="M197.282 77.3086C199.694 73.9816 202.807 70.8922 208.511 70.8922C211.992 70.8922 215.747 71.2368 218.908 70.5595C221.736 69.9536 230.683 65.9849 233.939 65.9255C236.481 65.8661 240.438 67.2444 242.969 71.1061C245.06 74.2905 249.148 86.2084 252.32 88.3234C257.216 91.6029 262.468 92.4227 262.468 92.4227C262.468 92.4227 255.279 88.2283 253.889 86.5054C251.215 83.1903 247.152 72.6864 245.155 69.4188C242.553 65.1531 237.183 62.6579 233.891 62.6104C230.208 62.5628 221.807 65.2482 217.779 64.6778C214.583 64.2263 211.469 61.4578 209.034 58.7843C207.275 56.8475 205.861 54.9463 205.029 53.9839C200.74 49.0765 192.874 49.3023 189.06 52.0827" stroke="black" stroke-miterlimit="10"/>
<path d="M67.3745 160.817C67.3745 160.817 68.8835 154.59 70.1787 150.61C72.1987 144.407 76.8802 130.458 80.1953 126.501C80.8132 125.764 81.4667 124.992 82.1321 124.231" stroke="black" stroke-width="1.5" stroke-miterlimit="10" stroke-linecap="round" stroke-linejoin="round"/>
<path d="M54.5649 206.908C54.6125 206.397 57.084 195.204 57.084 195.204" stroke="black" stroke-width="1.5" stroke-miterlimit="10" stroke-linecap="round" stroke-linejoin="round"/>
<path d="M56.0859 168.445C58.3554 166.888 59.2822 166.936 61.7062 165.771" stroke="black" stroke-width="1.5" stroke-miterlimit="10" stroke-linecap="round" stroke-linejoin="round"/>
<path d="M53.27 174.683C55.587 172.912 56.1455 173.364 59.924 171.7" stroke="black" stroke-width="1.5" stroke-miterlimit="10" stroke-linecap="round" stroke-linejoin="round"/>
<path d="M52.0459 180.897C52.0459 180.897 57.8088 179.875 60.4229 178.556" stroke="black" stroke-width="1.5" stroke-miterlimit="10" stroke-linecap="round" stroke-linejoin="round"/>
<path d="M52.4741 188.169C55.5278 186.803 57.3458 187.218 59.2945 185.959" stroke="black" stroke-width="1.5" stroke-miterlimit="10" stroke-linecap="round" stroke-linejoin="round"/>
<path d="M186.338 107.81C186.338 107.81 175.157 111.446 172.579 112.206C163.465 114.892 141.257 118.195 141.257 118.195" stroke="black" stroke-width="1.5" stroke-miterlimit="10" stroke-linecap="round" stroke-linejoin="round"/>
<path d="M188.418 89.6776L197.282 85.1743L213.192 83.9861C213.192 83.9861 219.87 83.4395 222.009 83.9861C226.833 85.2218 237.241 92.3036 238.453 95.1791C238.679 95.7138 238.679 97.4367 238.679 97.4367C238.679 97.4367 239.048 98.2091 239.107 98.9101C239.155 99.4567 241.103 104.744 241.305 106.776C241.448 108.166 240.925 111.208 239.939 112.194C239.44 112.693 237.218 112.907 237.218 112.907C237.218 112.907 237.55 117.47 234.473 117.589C232.31 117.672 231.419 114.535 231.419 114.535C231.419 114.535 228.472 115.795 227.914 115.652C226.346 115.272 224.159 112.04 222.757 111.006C221.331 109.949 215.628 108.927 215.628 108.927C215.628 108.927 210.709 108.582 208.997 108.927C204.577 109.818 193.812 111.47 189.76 109.818C187.277 108.808 185.411 107.144 180.278 104.827" stroke="black" stroke-width="1.5" stroke-miterlimit="10" stroke-linecap="round" stroke-linejoin="round"/>
<path d="M213.192 101.929L217.351 102.309C217.351 102.309 226.857 105.41 228.711 107.525C230.255 109.284 231.099 113.942 232.014 115.367" stroke="black" stroke-width="1.5" stroke-miterlimit="10" stroke-linecap="round" stroke-linejoin="round"/>
<path d="M217.779 95.1914C217.779 95.1914 222.33 95.6667 223.34 96.142C226.263 97.4965 233.558 101.548 233.558 101.548C233.558 101.548 237.586 108.44 237.218 112.516" stroke="black" stroke-width="1.5" stroke-miterlimit="10" stroke-linecap="round" stroke-linejoin="round"/>
<path d="M223.803 89.6777L227.011 90.5095C227.011 90.5095 235.483 95.0247 238.133 97.4012C238.989 98.1735 240.224 102.819 240.224 102.819" stroke="black" stroke-width="1.5" stroke-miterlimit="10" stroke-linecap="round" stroke-linejoin="round"/>
<path d="M127.581 237.967C127.581 237.967 122.543 243.171 120.725 246.796C118.907 250.396 120.048 264.298 116.839 267.506C115.188 269.158 111.326 271.879 109.116 272.283C101.583 273.649 84.3178 275.432 69.0848 280.28C62.9061 282.24 52.6755 281.896 48.8613 280.101C45.0827 278.319 37.5019 273.982 37.2762 269.954C37.1573 267.756 43.1698 261.185 45.3323 259.212C50.7387 254.293 60.2088 253.01 64.9736 250.942C71.6633 248.019 77.0459 244.134 82.4998 241.472C85.5892 239.963 91.7323 236.838 94.2751 234.616C96.6753 232.525 107.714 219.205 107.714 219.205" stroke="black" stroke-width="1.5" stroke-miterlimit="10" stroke-linecap="round" stroke-linejoin="round"/>
<path d="M144.145 149.98C144.145 149.98 158.059 128.937 167.03 117.566C170.951 112.599 174.183 111.577 174.183 111.577" stroke="black" stroke-width="1.5" stroke-miterlimit="10" stroke-linecap="round" stroke-linejoin="round"/>
<path d="M296.962 200.241C296.962 200.241 298.233 211.078 294.276 216.413C284.188 230.042 266.71 233.38 256.931 234.949C246.985 236.553 223.613 234.295 217.054 229.293C204.756 219.906 194.359 179.233 191.436 180.564C188.513 181.895 159.449 211.185 150.514 222.877C147.187 227.225 138.81 239.928 138.81 239.928C138.81 239.928 133.106 242.268 126.203 234.711C116.471 224.041 109.497 219.443 101.524 215.997C98.0183 214.488 109.009 202.808 110.875 200.229C115.141 194.324 125.217 180.897 125.217 180.897" stroke="black" stroke-width="1.5" stroke-miterlimit="10" stroke-linecap="round" stroke-linejoin="round"/>
<path d="M146.343 118.195C146.343 118.195 157.489 122.402 160.4 125.313" stroke="black" stroke-width="1.5" stroke-miterlimit="10" stroke-linecap="round" stroke-linejoin="round"/>
<path d="M110.388 180.078C105.552 184.914 99.8957 198.935 97.5193 204.21C95.7369 208.167 91.8038 218.98 90.3067 217.792C87.4193 215.487 82.1199 213.098 79.0186 212.48C73.3389 211.34 54.5532 207.728 54.5532 207.728" stroke="black" stroke-width="1.5" stroke-miterlimit="10" stroke-linecap="round" stroke-linejoin="round"/>
<path d="M172.579 140.795C175.941 133.57 177.902 128.33 179.803 124.231C181.3 120.999 186.338 108.653 186.338 108.653" stroke="black" stroke-width="1.5" stroke-miterlimit="10" stroke-linecap="round" stroke-linejoin="round"/>
<path d="M251.215 146.926C259.592 147.901 264.25 151.964 267.945 152.392C270.417 152.677 273.887 151.537 275.752 149.326" stroke="black" stroke-width="1.5" stroke-miterlimit="10" stroke-linecap="round" stroke-linejoin="round"/>
<path d="M257.156 152.439C259.319 154.756 265.854 159.141 269.133 160.709C271.106 161.66 274.968 162.848 277.724 162.444" stroke="black" stroke-width="1.5" stroke-miterlimit="10" stroke-linecap="round" stroke-linejoin="round"/>
<path d="M87.0034 215.985L84.8646 220.999H86.3023C86.3023 220.999 83.5456 227.962 82.4881 235.091C82.2742 236.565 82.4881 240.284 82.4881 240.284" stroke="black" stroke-width="1.5" stroke-miterlimit="10" stroke-linecap="round" stroke-linejoin="round"/>
<path d="M37.2644 267.827C37.2644 267.827 22.5187 267.685 19.1323 266.14C14.9498 264.239 9.6621 261.292 9.98292 256.705C10.2087 253.58 16.1261 245.619 19.8571 244.122C24.6813 242.185 29.9925 239.952 34.8879 238.169C39.3913 236.53 49.2536 234.557 52.4855 231.396C53.6381 230.268 55.6105 225.134 56.3116 223.495C56.5373 222.96 59.3297 215.973 59.3297 215.973L60.5298 216.27L62.3121 209.212" stroke="black" stroke-width="1.5" stroke-miterlimit="10" stroke-linecap="round" stroke-linejoin="round"/>
<path d="M146.343 178.913C146.343 178.913 128.258 179.744 120.464 179.685C113.584 179.637 95.0357 181.146 89.4511 182.596C86.6826 183.321 83.308 186.541 83.308 186.541C83.308 186.541 76.0837 191.935 74.3489 192.601C71.5566 193.682 65.4967 194.276 62.4905 194.383C61.1003 194.431 56.8345 195.167 56.8345 195.167L56.3117 197.425C56.3117 197.425 54.6838 197.877 53.5075 197.187C52.3311 196.498 50.0855 194.882 50.3231 191.33C50.4063 190.129 52.4856 188.169 52.4856 188.169C52.4856 188.169 51.1668 187.29 50.7628 185.638C49.9904 182.489 52.0936 180.588 52.0936 180.588C52.0936 180.588 51.6776 178.663 52.0222 177.095C52.652 174.29 54.3511 173.886 54.3511 173.886C54.3511 173.886 54.2322 171.189 55.0996 169.431C55.6343 168.349 57.084 166.9 57.084 166.9C57.084 166.9 59.5675 164.476 60.72 163.834C62.8945 162.61 71.9724 159.236 71.9724 159.236C71.9724 159.236 77.4382 158.463 79.375 158.57C81.7277 158.701 91.78 161.41 93.1346 161.208C101.309 160.008 112.217 157.869 118.539 156.503C126.024 154.887 148.387 149.659 148.387 149.659" stroke="black" stroke-width="1.5" stroke-miterlimit="10" stroke-linecap="round" stroke-linejoin="round"/>
<path d="M235.317 138.002C235.317 138.002 259.212 158.986 266.591 166.532C270.595 170.619 279.364 179.364 286.101 186.886" stroke="black" stroke-width="1.5" stroke-miterlimit="10" stroke-linecap="round" stroke-linejoin="round"/>
<path d="M159.176 213.335C159.176 213.335 170.309 229.828 184.057 232.715C198.411 235.745 220.357 230.719 220.357 230.719" stroke="black" stroke-width="1.5" stroke-miterlimit="10" stroke-linecap="round" stroke-linejoin="round"/>
<path d="M283.166 130.778C283.166 130.778 291.793 158.071 293.67 168.159C296.961 185.899 296.973 200.241 296.973 200.241C296.973 200.241 290.628 197.057 289.309 195.583C287.848 193.944 286.291 186.767 285.103 183.903C283.701 180.517 280.504 175.847 276.845 171.819" stroke="black" stroke-width="1.5" stroke-miterlimit="10" stroke-linecap="round" stroke-linejoin="round"/>
<path d="M104.137 69.0029C104.137 69.0029 84.6625 83.4873 76.9391 95.12C75.026 98.0073 71.1406 110.448 72.5665 114.559C76.0005 124.41 88.8569 127.38 95.0832 127.38C109.805 127.38 127.486 123.34 141.257 121.273C143.444 120.94 140.794 114.654 140.509 112.527C140.117 109.64 141.661 104.78 143.135 101.156" stroke="black" stroke-width="1.5" stroke-miterlimit="10" stroke-linecap="round" stroke-linejoin="round"/>
<path d="M95.0835 91.7569C95.0835 91.7569 103.651 90.6875 106.526 90.5687C113.097 90.3073 132.833 91.1628 132.833 91.1628" stroke="black" stroke-width="1.5" stroke-miterlimit="10" stroke-linecap="round" stroke-linejoin="round"/>
<path d="M249.433 112.207C244.621 129.614 235.59 136.874 227.867 145.702C220.892 153.664 203.164 175.17 198.898 176.56C184.485 181.278 148.244 182.003 148.244 182.003C148.244 182.003 146.569 179.056 145.464 175.764C143.717 170.536 149.516 155.731 147.436 149.505C146.497 146.712 169.822 139.785 172.579 140.795C176.31 142.162 189.297 155.814 189.297 155.814" stroke="black" stroke-width="1.5" stroke-miterlimit="10" stroke-linecap="round" stroke-linejoin="round"/>
<path d="M92.7063 178.556C89.5575 180.065 87.0029 183.487 87.0029 183.487" stroke="black" stroke-width="1.5" stroke-miterlimit="10" stroke-linecap="round" stroke-linejoin="round"/>
<path d="M103.686 224.861C103.686 224.861 107.88 230.22 110.387 231.86C113.678 234.011 124.895 240.201 124.895 240.201" stroke="black" stroke-width="1.5" stroke-miterlimit="10" stroke-linecap="round" stroke-linejoin="round"/>
<path d="M59.3179 215.985C59.3179 215.985 66.8393 218.741 69.4534 219.217C75.3707 220.262 85.6963 221.011 85.6963 221.011" stroke="black" stroke-width="1.5" stroke-miterlimit="10" stroke-linecap="round" stroke-linejoin="round"/>
<path d="M143.135 18.1113C137.586 21.9612 133.523 27.7953 131.859 32.1204C126.156 46.9613 127.451 73.9339 128.948 76.3103C129.316 76.8925 130.421 77.5104 130.35 77.1658C129.601 73.518 129.102 59.806 129.518 54.4114C129.994 48.1733 130.956 36.802 136.16 28.8409C137.503 26.7853 140.105 22.6979 142.066 21.0462C142.648 20.5353 143.135 18.1113 143.135 18.1113Z" fill="white" stroke="black" stroke-width="0.5" stroke-miterlimit="10" stroke-linecap="round" stroke-linejoin="round"/>
</svg>
