<svg width="481" height="858" viewBox="0 0 481 858" fill="none" xmlns="http://www.w3.org/2000/svg">
<path d="M238.603 320.974C238.603 320.974 241.184 320.959 243.615 320.959C385.748 321.454 467.339 344.62 467.339 344.62L468.09 335.948C468.09 335.948 396.536 310.081 242.955 310.081C237.613 310.081 231.251 310.111 226.135 310.156C225.775 310.156 225.865 310.441 225.865 310.441L235.122 317.748" fill="black"/>
<path d="M238.603 320.974C238.603 320.974 241.184 320.959 243.615 320.959C385.748 321.454 467.339 344.62 467.339 344.62L468.09 335.948C468.09 335.948 396.536 310.081 242.955 310.081C237.613 310.081 231.251 310.111 226.135 310.156C225.775 310.156 225.865 310.441 225.865 310.441L235.122 317.748" stroke="black" stroke-width="1.5" stroke-miterlimit="10" stroke-linecap="round" stroke-linejoin="round"/>
<path d="M219.158 321.199L210.996 317.118L204.064 312.916C204.064 312.916 201.183 310.801 200.028 310.846C69.0429 314.777 18.5544 335.933 18.5544 335.933L17.8042 344.605C17.8042 344.605 91.939 324.019 220.313 321.679" fill="black"/>
<path d="M219.158 321.199L210.996 317.118L204.064 312.916C204.064 312.916 201.183 310.801 200.028 310.846C69.0429 314.777 18.5544 335.933 18.5544 335.933L17.8042 344.605C17.8042 344.605 91.939 324.019 220.313 321.679" stroke="black" stroke-width="1.5" stroke-miterlimit="10" stroke-linecap="round" stroke-linejoin="round"/>
<path d="M200.478 311.431C70.9181 313.937 18.9292 334.102 18.9292 334.102" stroke="black" stroke-width="1.5" stroke-miterlimit="10" stroke-linecap="round" stroke-linejoin="round"/>
<path d="M467.714 334.477C467.714 334.477 401.681 311.221 238.813 311.221C230.831 311.221 229.42 311.311 229.42 311.311" stroke="black" stroke-width="1.5" stroke-miterlimit="10" stroke-linecap="round" stroke-linejoin="round"/>
<path d="M146.349 47.1572C146.349 47.1572 150.649 54.4454 152.869 56.9097C154.874 59.1399 162.065 64.5963 162.065 64.5963L152.613 89.3024C152.613 89.3024 144.186 82.6123 141.754 79.9944C138.572 76.563 130.209 65.2987 130.209 65.2987C130.209 65.2987 126.762 70.7448 126.303 72.805C125.813 74.9812 126.242 79.5275 126.637 81.7313C127.088 84.209 129.266 92.6139 129.266 92.6139L122.829 94.8979C122.829 94.8979 118.267 83.9079 117.391 76.6541C116.915 72.7183 117.461 64.693 119.783 60.307C121.252 57.5351 128.58 51.3383 128.58 51.3383C128.58 51.3383 133.309 52.9256 136.912 49.3697C139.036 47.2765 136.528 42.7427 136.528 42.7427C136.528 42.7427 151.903 31.5885 152.673 27.8291C153.788 22.358 152.773 14.0404 152.773 14.0404L158.762 13.1385C158.762 13.1385 161.921 26.8178 159.449 33.2421C157.971 37.1171 146.349 47.1572 146.349 47.1572Z" stroke="black" stroke-width="1.5" stroke-miterlimit="10" stroke-linecap="round" stroke-linejoin="round"/>
<path d="M137.196 42.1108C136.03 42.9541 134.145 42.9141 133.414 42.7089C132.602 42.4719 131.615 41.4712 131.615 41.4712" stroke="black" stroke-width="1.5" stroke-miterlimit="10" stroke-linecap="round" stroke-linejoin="round"/>
<path d="M158.112 12.6082C158.112 12.6082 158.7 10.2794 158.325 6.98349C158.163 5.58741 156.711 3.71775 155.482 3.04678C154.651 2.5922 153.38 4.09382 152.773 4.81498C151.889 5.87855 152.165 8.94802 152.413 9.84721C152.597 10.5188 153.99 13.7116 153.99 13.7116" stroke="black" stroke-width="1.5" stroke-miterlimit="10" stroke-linecap="round" stroke-linejoin="round"/>
<path d="M128.57 92.7631C128.57 92.7631 130.691 94.3461 132.597 97.3838C133.398 98.6665 133.358 101.23 132.692 102.619C132.241 103.565 130.067 103.144 129.015 102.926C127.477 102.622 125.648 99.8343 125.249 98.9057C124.962 98.2146 124.058 94.5689 124.058 94.5689" stroke="black" stroke-width="1.5" stroke-miterlimit="10" stroke-linecap="round" stroke-linejoin="round"/>
<path d="M126.558 53.3819C127.669 51.564 128.207 49.7998 127.666 48.7381C127.087 47.5858 123.925 46.1411 123.925 46.1411" stroke="black" stroke-width="1.5" stroke-miterlimit="10" stroke-linecap="round" stroke-linejoin="round"/>
<path d="M110.854 42.0884L115.313 44.1788C115.313 44.1788 119.573 46.1724 121.311 45.9532C123.37 45.6887 129.492 44.2769 130.714 41.3294C131.458 39.5468 129.716 35.217 128.547 33.5905C127.475 32.0987 126.099 31.1684 122.92 28.8742" stroke="black" stroke-width="1.5" stroke-miterlimit="10" stroke-linecap="round" stroke-linejoin="round"/>
<path d="M124.665 29.8722C124.665 29.8722 123.167 27.3377 122.082 26.5126C121.116 25.7868 117.615 23.4805 115.92 23.6408C115.233 23.6983 113.604 25.1431 113.604 25.1431C113.604 25.1431 110.747 24.9174 109.923 25.3471C107.733 26.4776 106.992 29.0528 106.083 30.7146C105.596 31.604 104.01 33.9778 104.056 35.3433C104.113 37.0416 105.42 40.0534 106.505 41.2232C107.697 42.5157 110.773 44.5032 113.656 45.5092C116.376 46.4632 119.128 45.6241 119.128 45.6241L115.168 44.7002L113.65 43.2578C113.65 43.2578 113.44 41.4613 113.244 41.0888C112.875 40.3659 112.574 39.2962 112.628 38.5017C112.715 37.3156 113.767 35.132 114.759 34.2256C115.472 33.5698 118.539 32.1687 118.744 31.7942C118.949 31.4082 118.926 29.3297 119.506 28.8162C119.907 28.4581 121.568 28.3219 121.568 28.3219L124.665 29.8722Z" fill="black" stroke="black" stroke-width="1.5" stroke-miterlimit="10" stroke-linecap="round" stroke-linejoin="round"/>
<path d="M153.993 86.6248C153.993 86.6248 158.895 88.9186 160.633 89.3542C164.966 90.4379 172.129 89.9445 178.481 89.915C179.503 89.9036 180.943 91.0385 181.21 91.8337C184.091 100.295 193.094 118.672 193.094 118.672L201.752 113.763C201.752 113.763 196.012 95.4147 192.865 82.4243C192.463 80.7376 191.387 77.0862 189.767 76.0492C186.151 73.7353 167.758 70.631 167.758 70.631" stroke="black" stroke-width="1.5" stroke-miterlimit="10" stroke-linecap="round" stroke-linejoin="round"/>
<path d="M162.248 64.9235C162.248 64.9235 184.425 56.5621 196.06 54.4252C197.293 54.2 200.237 54.2849 202.737 56.2343C209.002 61.1244 225.444 74.5643 225.444 74.5643L219.929 84.1121C219.929 84.1121 211.936 78.3725 209.312 76.1745C205.979 73.3916 199.338 68.2383 195.363 65.8216" stroke="black" stroke-width="1.5" stroke-miterlimit="10" stroke-linecap="round" stroke-linejoin="round"/>
<path d="M197.457 67.3022C197.457 67.3022 192.655 69.3361 190.569 70.5204C189.307 71.2406 184.311 73.683 184.311 73.683" stroke="black" stroke-width="1.5" stroke-miterlimit="10" stroke-linecap="round" stroke-linejoin="round"/>
<path d="M202.647 121.936C202.647 121.936 201.151 123.927 199.331 124.459C196.556 125.276 195.433 122.626 195.433 122.626C195.433 122.626 194.306 126.363 194.306 127.741C194.307 128.431 194.401 130.553 195.68 130.659C198.905 130.918 211.899 133.021 211.899 133.021C211.899 133.021 215.553 132.014 216.066 130.87C216.462 130.019 215.627 128.048 214.65 127.368C213.45 126.524 208.847 124.91 207.47 124.267C206.267 123.698 204.575 122.238 204.575 122.238L202.647 121.936Z" fill="black" stroke="black" stroke-width="1.5" stroke-miterlimit="10" stroke-linecap="round" stroke-linejoin="round"/>
<path d="M201.119 114.395L202.451 121.897" stroke="black" stroke-width="1.5" stroke-miterlimit="10" stroke-linecap="round" stroke-linejoin="round"/>
<path d="M195.065 118.204L196.187 122.853" stroke="black" stroke-width="1.5" stroke-miterlimit="10" stroke-linecap="round" stroke-linejoin="round"/>
<path d="M229.641 81.1777C229.641 81.1777 229.874 83.6512 228.906 85.2691C227.415 87.7431 224.79 86.5561 224.79 86.5561C224.79 86.5561 226.483 90.0834 227.412 91.0861C227.877 91.5874 230.682 93.3542 231.69 92.5622C234.242 90.5695 244.332 83.4988 244.332 83.4988C244.332 83.4988 246.338 80.2837 245.953 79.1019C245.67 78.2039 243.723 77.3273 242.544 77.4703C241.091 77.6569 236.607 79.5767 235.152 80.0391C233.879 80.438 231.641 80.5017 231.641 80.5017L229.641 81.1777Z" fill="black" stroke="black" stroke-width="1.5" stroke-miterlimit="10" stroke-linecap="round" stroke-linejoin="round"/>
<path d="M223.789 75.585L228.94 81.2018" stroke="black" stroke-width="1.5" stroke-miterlimit="10" stroke-linecap="round" stroke-linejoin="round"/>
<path d="M221.09 83.0967L224.7 86.2495" stroke="black" stroke-width="1.5" stroke-miterlimit="10" stroke-linecap="round" stroke-linejoin="round"/>
<path d="M416.867 164.8C416.867 164.8 415.924 176.437 414.666 180.821C413.524 184.793 407.894 195.903 407.894 195.903L434.513 220.855C434.513 220.855 440.934 207.481 442.365 202.761C444.235 196.582 447.831 177.568 447.831 177.568C447.831 177.568 455.394 182.248 457.217 184.53C459.137 186.939 461.344 192.839 462.177 195.794C463.12 199.147 465.479 210.875 465.479 210.875L474.838 209.822C474.838 209.822 473.86 193.446 470.577 183.914C468.789 178.748 463.273 169.117 457.759 165.08C454.269 162.525 441.443 159.266 441.443 159.266C441.443 159.266 436.533 164.093 429.926 161.85C426.041 160.533 426.394 153.399 426.394 153.399C426.394 153.399 400.601 148.842 397.383 144.636C392.694 138.516 388.944 127.601 388.944 127.601L380.966 130.096C380.966 130.096 385.287 148.971 392.239 155.446C396.377 159.366 416.867 164.8 416.867 164.8Z" stroke="black" stroke-width="1.5" stroke-miterlimit="10" stroke-linecap="round" stroke-linejoin="round"/>
<path d="M425.155 153.034C427.102 153.384 429.418 152.195 430.2 151.493C431.077 150.708 431.677 148.867 431.677 148.867" stroke="black" stroke-width="1.5" stroke-miterlimit="10" stroke-linecap="round" stroke-linejoin="round"/>
<path d="M381.439 129.044C381.439 129.044 379.316 126.517 377.788 122.209C377.138 120.393 377.825 117.19 378.948 115.623C379.708 114.56 382.179 115.65 383.377 116.193C385.115 116.981 386.619 120.957 386.869 122.221C387.049 123.165 387.236 127.973 387.236 127.973" stroke="black" stroke-width="1.5" stroke-miterlimit="10" stroke-linecap="round" stroke-linejoin="round"/>
<path d="M466.409 210.665C466.409 210.665 464.728 213.894 464.202 218.822C463.978 220.898 465.58 224.053 467.239 225.377C468.369 226.276 470.802 224.448 471.987 223.547C473.71 222.244 474.303 217.681 474.227 216.293C474.172 215.267 473.099 210.207 473.099 210.207" stroke="black" stroke-width="1.5" stroke-miterlimit="10" stroke-linecap="round" stroke-linejoin="round"/>
<path d="M445.162 160.588C442.693 159.001 440.963 157.146 440.979 155.493C441.002 153.721 444.051 150.022 444.051 150.022" stroke="black" stroke-width="1.5" stroke-miterlimit="10" stroke-linecap="round" stroke-linejoin="round"/>
<path d="M457.839 137.12L453.562 142.393C453.562 142.393 449.479 147.439 447.19 148.209C444.47 149.117 436.031 151.056 432.73 148.153C430.723 146.385 430.293 139.968 430.753 137.246C431.184 134.748 432.333 132.777 434.895 128.01" stroke="black" stroke-width="1.5" stroke-miterlimit="10" stroke-linecap="round" stroke-linejoin="round"/>
<path d="M433.335 130.285C433.335 130.285 433.655 126.231 434.515 124.557C435.271 123.072 438.236 118.105 440.425 117.268C441.318 116.935 444.214 117.737 444.214 117.737C444.214 117.737 447.635 115.732 448.896 115.767C452.288 115.85 454.758 118.594 456.902 120.1C458.038 120.91 461.443 122.902 462.22 124.621C463.18 126.758 463.355 131.294 462.724 133.389C462.034 135.705 459.396 140.031 456.438 143.014C453.641 145.841 449.723 146.447 449.723 146.447L454.07 142.907L455.071 140.189C455.071 140.189 454.26 137.837 454.267 137.251C454.294 136.14 454.029 134.635 453.475 133.667C452.649 132.246 450.031 130.168 448.26 129.649C446.977 129.266 442.339 129.374 441.85 129.027C441.361 128.68 440.13 126.075 439.112 125.784C438.403 125.588 436.245 126.412 436.245 126.412L433.335 130.285Z" fill="black" stroke="black" stroke-width="1.5" stroke-miterlimit="10" stroke-linecap="round" stroke-linejoin="round"/>
<path d="M431.169 218.37C431.169 218.37 426.482 224.174 424.59 225.766C419.87 229.733 410.686 233.444 402.791 237.222C401.519 237.832 400.411 240.106 400.563 241.259C402.093 253.49 402.01 281.72 402.01 281.72L388.308 280.856C388.308 280.856 384.368 254.638 380.428 236.613C379.917 234.28 379.046 229.097 380.424 226.84C383.515 221.792 404.47 206.854 404.47 206.854" stroke="black" stroke-width="1.5" stroke-miterlimit="10" stroke-linecap="round" stroke-linejoin="round"/>
<path d="M407.859 196.442C407.859 196.442 375.311 199.45 359.591 203.808C357.922 204.273 354.329 206.147 352.393 210.067C347.582 219.907 335.276 246.48 335.276 246.48L347.87 255.002C347.87 255.002 354.32 243.057 356.25 238.76C358.705 233.295 363.837 222.905 367.311 217.505" stroke="black" stroke-width="1.5" stroke-miterlimit="10" stroke-linecap="round" stroke-linejoin="round"/>
<path d="M365.61 220.598C365.61 220.598 372.79 220.232 376.084 220.443C378.075 220.571 385.757 220.583 385.757 220.583" stroke="black" stroke-width="1.5" stroke-miterlimit="10" stroke-linecap="round" stroke-linejoin="round"/>
<path d="M392.12 291.505C392.12 291.505 395.177 293.069 397.746 292.632C401.683 291.968 401.487 288.001 401.487 288.001C401.487 288.001 405.141 291.964 405.964 293.671C406.375 294.524 407.541 297.215 406.025 298.11C402.181 300.374 387.332 310.833 387.332 310.833C387.332 310.833 382.204 311.782 380.861 310.688C379.861 309.872 379.704 306.93 380.503 305.493C381.473 303.721 386.214 298.959 387.538 297.315C388.697 295.886 389.902 293.046 389.902 293.046L392.12 291.505Z" fill="black" stroke="black" stroke-width="1.5" stroke-miterlimit="10" stroke-linecap="round" stroke-linejoin="round"/>
<path d="M389.457 281.23L392.341 291.339" stroke="black" stroke-width="1.5" stroke-miterlimit="10" stroke-linecap="round" stroke-linejoin="round"/>
<path d="M399.267 282.295L400.686 288.761" stroke="black" stroke-width="1.5" stroke-miterlimit="10" stroke-linecap="round" stroke-linejoin="round"/>
<path d="M334.06 257.227C334.06 257.227 335.267 260.447 337.446 261.865C340.795 264.034 343.322 260.979 343.322 260.979C343.322 260.979 343.336 266.377 342.799 268.177C342.53 269.092 340.117 272.967 338.397 272.586C334.036 271.659 317.249 268.973 317.249 268.973C317.249 268.973 312.826 266.208 312.59 264.494C312.401 263.219 314.276 260.949 315.844 260.418C317.764 259.775 324.476 259.454 326.555 259.151C328.377 258.877 331.18 257.599 331.18 257.599L334.06 257.227Z" fill="black" stroke="black" stroke-width="1.5" stroke-miterlimit="10" stroke-linecap="round" stroke-linejoin="round"/>
<path d="M337.949 246.771L334.943 256.832" stroke="black" stroke-width="1.5" stroke-miterlimit="10" stroke-linecap="round" stroke-linejoin="round"/>
<path d="M345.815 254.463L343.23 260.537" stroke="black" stroke-width="1.5" stroke-miterlimit="10" stroke-linecap="round" stroke-linejoin="round"/>
<path d="M6.03415 122.378C6.03415 122.378 2.43067 117.118 1.68413 115.377C0.873788 113.477 1.77109 111.454 2.7553 110.826C3.97725 110.034 7.54846 111.386 8.43279 112.235C9.81005 113.554 10.667 119.874 10.667 119.874" stroke="black" stroke-width="1.5" stroke-miterlimit="10" stroke-linecap="round" stroke-linejoin="round"/>
<path d="M69.7779 119.515C69.7779 119.515 71.029 113.267 71.0356 111.378C71.0379 109.324 69.4111 107.806 68.2701 107.607C66.8355 107.351 64.0774 109.998 63.6045 111.126C62.8583 112.89 64.5393 119.023 64.5393 119.023" stroke="black" stroke-width="1.5" stroke-miterlimit="10" stroke-linecap="round" stroke-linejoin="round"/>
<path d="M28.4545 133.95C28.4914 133.1 29.3949 131.001 29.6451 130.685C30.4317 129.657 33.5497 128.025 34.814 127.726C35.8583 127.484 37.9702 127.978 39.0075 127.676C40.3096 127.313 43.2302 125.024 44.6159 125.12C45.9552 125.205 48.6462 128.985 48.6462 128.985C48.6462 128.985 47.3837 123.982 47.0877 122.218C46.8684 120.854 42.8066 116.977 37.6048 116.54C34.3409 116.271 25.0801 121.579 23.5446 124.477C22.3174 126.78 24.4248 133.332 25.8727 135.777C28.2032 139.705 29.842 140.027 29.842 140.027C29.842 140.027 28.3816 135.53 28.4545 133.95Z" fill="black" stroke="black" stroke-width="1.5" stroke-miterlimit="10" stroke-linecap="round" stroke-linejoin="round"/>
<path d="M5.22688 122.97C5.22688 122.97 11.0605 146.081 15.3865 152.617C18.226 156.893 27.6378 161.054 30.4442 165.047C33.0135 168.69 33.5618 181.829 34.2443 185.873C35.2054 191.531 39.5612 212.459 39.5612 212.459C39.5612 212.459 42.705 209.751 52.9195 205.888C57.1445 204.293 70.9015 203.869 70.9015 203.869C70.9015 203.869 61.3475 182.535 60.2018 178.016C59.2796 174.377 57.8037 166.634 58.943 163.057C60.2732 158.914 67.3022 152.084 68.7438 148.638C72.025 140.884 71.2096 119.228 71.2096 119.228L64.1379 120.504C64.1379 120.504 62.2407 139.622 60.7207 142.654C59.0549 145.99 52.1381 152.747 52.1381 152.747C52.1381 152.747 49.2871 156.931 47.1128 158.106C42.8501 160.415 40.0484 157.629 38.4891 156.044C34.8426 152.36 23.4607 147.885 22.3415 146.187C18.8469 140.824 11.1666 119.755 11.1666 119.755L5.22688 122.97Z" stroke="black" stroke-width="1.5" stroke-miterlimit="10" stroke-linecap="round" stroke-linejoin="round"/>
<path d="M38.5895 155.609C38.5895 155.609 40.0171 153.6 40.0682 152.612C40.1148 151.715 39.4524 147.714 39.4524 147.714" stroke="black" stroke-width="1.5" stroke-miterlimit="10" stroke-linecap="round" stroke-linejoin="round"/>
<path d="M52.2119 151.953C52.2119 151.953 50.3282 151.991 47.9465 150.607C47.1687 150.154 47.2132 147.294 47.2132 147.294" stroke="black" stroke-width="1.5" stroke-miterlimit="10" stroke-linecap="round" stroke-linejoin="round"/>
<path d="M30.4229 139.959C30.4229 139.959 32.5254 142.449 34.0598 144.339C35.5758 146.202 42.6579 148.776 45.593 147.649C47.5872 146.872 49.1402 142.568 49.4982 140.713C49.8687 138.707 50.4259 135.968 49.7909 134.018C49.1376 132.04 47.7765 128.135 47.7765 128.135" stroke="black" stroke-width="1.5" stroke-miterlimit="10" stroke-linecap="round" stroke-linejoin="round"/>
<path d="M38.8534 148.147C40.06 148.52 44.4848 149.288 46.8631 147.531C49.6047 145.52 50.6211 139.072 50.6211 139.072L50.074 136.191C50.074 136.191 49.563 139.196 49.342 140.022C48.8709 141.814 47.498 145.071 45.9322 146.023C43.6613 147.406 36.7961 146.695 35.2768 145.452C33.373 143.891 29.8082 140.001 29.8082 140.001C29.8082 140.001 32.6989 143.939 34.1341 145.887C35.2289 147.376 37.0975 147.596 38.8534 148.147Z" fill="black" stroke="black" stroke-width="1.5" stroke-miterlimit="10" stroke-linecap="round" stroke-linejoin="round"/>
<path d="M37.2305 145.496L41.8314 141.033L43.39 140.927L44.4015 139.495L49.0089 138.46L48.8503 139.173L44.7083 140.184L43.5568 141.451L41.9359 141.67L38.3393 145.548L37.2305 145.496Z" fill="black" stroke="black" stroke-miterlimit="10" stroke-linecap="round" stroke-linejoin="round"/>
<path d="M41.7467 211.116C41.7467 211.116 41.9445 214.371 44.7653 219.526C51.4978 231.808 57.5352 234.232 62.6124 239.305C66.7317 243.417 70.9708 250.114 70.9708 250.114C70.9708 250.114 81.862 288.376 82.1086 289.586C82.4878 291.415 91.96 288.182 91.96 288.182C91.96 288.182 88.3846 255.019 85.2599 244.401C84.7098 242.532 82.0723 237.265 82.0723 237.265C82.0723 237.265 73.7636 227.402 64.5344 217.677" stroke="black" stroke-width="1.5" stroke-miterlimit="10" stroke-linecap="round" stroke-linejoin="round"/>
<path d="M70.9033 203.884C70.9033 203.884 80.3014 212.336 84.4761 215.626C87.4527 217.968 93.2357 223.654 95.4876 225.869C96.5969 226.963 98.4346 229.514 99.1676 230.878C104.75 241.195 110.339 278.035 110.339 278.035L101.012 280.043L90.6056 247.374C90.6056 247.374 88.9764 241.038 87.6882 239.315C86.0446 237.135 78.8426 232.883 78.8426 232.883" stroke="black" stroke-width="1.5" stroke-miterlimit="10" stroke-linecap="round" stroke-linejoin="round"/>
<path d="M84.3393 296.034L83.3633 303.866C83.3633 303.866 95.3748 308.947 99.6269 309.011C101.851 309.039 107.537 306.761 107.53 304.888C107.512 302.141 100.829 300.14 98.4573 298.709C96.8482 297.734 92.3038 294.381 92.3038 294.381C92.3038 294.381 91.0765 298.24 87.3505 298.024C86.0296 297.967 83.8562 296.165 84.3393 296.034Z" fill="black" stroke="black" stroke-width="1.5" stroke-miterlimit="10" stroke-linecap="round" stroke-linejoin="round"/>
<path d="M83.8833 291.208L85.1124 297.091" stroke="black" stroke-width="1.5" stroke-miterlimit="10" stroke-linecap="round" stroke-linejoin="round"/>
<path d="M91.2793 288.956L91.5678 294.934" stroke="black" stroke-width="1.5" stroke-miterlimit="10" stroke-linecap="round" stroke-linejoin="round"/>
<path d="M102.412 285.318L101.436 293.151C101.436 293.151 113.447 298.232 117.699 298.296C119.923 298.324 125.609 296.045 125.602 294.173C125.585 291.426 118.902 289.425 116.53 287.994C114.92 287.018 110.376 283.666 110.376 283.666C110.376 283.666 109.149 287.524 105.423 287.309C104.102 287.251 101.928 285.45 102.412 285.318Z" fill="black" stroke="black" stroke-width="1.5" stroke-miterlimit="10" stroke-linecap="round" stroke-linejoin="round"/>
<path d="M101.956 280.492L103.185 286.376" stroke="black" stroke-width="1.5" stroke-miterlimit="10" stroke-linecap="round" stroke-linejoin="round"/>
<path d="M109.351 278.242L109.64 284.22" stroke="black" stroke-width="1.5" stroke-miterlimit="10" stroke-linecap="round" stroke-linejoin="round"/>
<path d="M341.006 69.9404C341.006 69.9404 344.517 65.2441 345.267 63.6687C346.078 61.9582 345.327 60.0677 344.457 59.4376C343.362 58.6573 340.031 59.7826 339.191 60.5178C337.87 61.6882 336.85 67.4647 336.85 67.4647" stroke="black" stroke-width="1.5" stroke-miterlimit="10" stroke-linecap="round" stroke-linejoin="round"/>
<path d="M282.491 64.9142C282.491 64.9142 281.576 59.1227 281.636 57.3822C281.711 55.4917 283.256 54.1564 284.321 54.0213C285.657 53.8413 288.087 56.3769 288.477 57.4422C289.093 59.0927 287.322 64.6742 287.322 64.6742" stroke="black" stroke-width="1.5" stroke-miterlimit="10" stroke-linecap="round" stroke-linejoin="round"/>
<path d="M319.955 79.7534C319.955 78.9582 319.19 77.0076 318.98 76.7076C318.305 75.7323 315.484 74.1119 314.329 73.7818C313.384 73.5117 311.418 73.8868 310.473 73.5867C309.288 73.1966 306.692 70.991 305.417 71.021C304.186 71.0511 301.561 74.427 301.561 74.427C301.561 74.427 302.911 69.8657 303.241 68.2603C303.496 67.015 307.382 63.5941 312.183 63.399C315.199 63.279 323.511 68.5004 324.817 71.2311C325.852 73.4067 323.676 79.3333 322.251 81.5389C319.955 85.0648 318.44 85.3048 318.44 85.3048C318.44 85.3048 319.955 81.1938 319.955 79.7534Z" fill="black" stroke="black" stroke-width="1.5" stroke-miterlimit="10" stroke-linecap="round" stroke-linejoin="round"/>
<path d="M341.727 70.5257C341.727 70.5257 335.485 91.5613 331.269 97.3979C328.493 101.224 319.686 104.705 316.955 108.261C314.45 111.517 313.459 123.58 312.679 127.271C311.584 132.432 306.783 151.517 306.783 151.517C306.783 151.517 303.992 148.907 294.749 144.976C290.923 143.34 278.29 142.455 278.29 142.455C278.29 142.455 287.878 123.205 289.108 119.079C290.098 115.763 291.749 108.696 290.818 105.365C289.753 101.494 283.556 94.9672 282.341 91.7414C279.625 84.4794 281.171 64.5991 281.171 64.5991L287.623 66.0395C287.623 66.0395 288.643 83.6992 289.933 86.535C291.343 89.6708 297.45 96.1525 297.45 96.1525C297.45 96.1525 299.911 100.099 301.876 101.269C305.702 103.55 308.403 101.089 309.888 99.6935C313.384 96.4376 324.022 92.7616 325.103 91.2312C328.523 86.4299 336.371 67.3449 336.371 67.3449L341.727 70.5257Z" stroke="black" stroke-width="1.5" stroke-miterlimit="10" stroke-linecap="round" stroke-linejoin="round"/>
<path d="M309.813 99.2733C309.813 99.2733 308.583 97.3678 308.568 96.4525C308.553 95.6273 309.318 91.9663 309.318 91.9663" stroke="black" stroke-width="1.5" stroke-miterlimit="10" stroke-linecap="round" stroke-linejoin="round"/>
<path d="M297.42 95.4026C297.42 95.4026 299.145 95.5076 301.396 94.3223C302.116 93.9322 302.191 91.2915 302.191 91.2915" stroke="black" stroke-width="1.5" stroke-miterlimit="10" stroke-linecap="round" stroke-linejoin="round"/>
<path d="M317.916 85.1994C317.916 85.1994 315.89 87.4199 314.405 89.0854C312.949 90.7508 306.317 92.8514 303.677 91.6961C301.876 90.9159 300.601 86.8948 300.346 85.1693C300.076 83.3088 299.671 80.7732 300.331 79.0027C301.006 77.2022 302.416 73.6763 302.416 73.6763" stroke="black" stroke-width="1.5" stroke-miterlimit="10" stroke-linecap="round" stroke-linejoin="round"/>
<path d="M309.843 92.4018C308.718 92.7019 304.622 93.242 302.491 91.5316C300.046 89.5811 299.355 83.6095 299.355 83.6095L299.971 80.9688C299.971 80.9688 300.331 83.7445 300.496 84.5247C300.871 86.1901 301.996 89.2359 303.407 90.1812C305.447 91.5465 311.779 91.1415 313.234 90.0612C315.05 88.7108 318.471 85.2599 318.471 85.2599C318.471 85.2599 315.665 88.7708 314.269 90.5113C313.204 91.8316 311.494 91.9667 309.843 92.4018Z" fill="black" stroke="black" stroke-width="1.5" stroke-miterlimit="10" stroke-linecap="round" stroke-linejoin="round"/>
<path d="M311.448 90.0306L307.367 85.7545L305.942 85.6044L305.072 84.2391L300.871 83.1138L300.991 83.7739L304.757 84.8693L305.777 86.0696L307.262 86.3396L310.413 90.0456L311.448 90.0306Z" fill="black" stroke="black" stroke-miterlimit="10" stroke-linecap="round" stroke-linejoin="round"/>
<path d="M304.817 150.212C304.817 150.212 304.502 153.198 301.727 157.834C295.08 168.877 289.423 170.888 284.577 175.359C280.631 178.99 276.475 184.977 276.475 184.977C276.475 184.977 265.012 219.756 264.742 220.851C264.322 222.532 255.739 219.201 255.739 219.201C255.739 219.201 260.285 188.848 263.556 179.185C264.126 177.49 266.752 172.748 266.752 172.748C266.752 172.748 274.764 163.986 283.617 155.404" stroke="black" stroke-width="1.5" stroke-miterlimit="10" stroke-linecap="round" stroke-linejoin="round"/>
<path d="M278.275 142.455C278.275 142.455 269.317 149.867 265.341 152.733C262.506 154.773 256.984 159.785 254.839 161.735C253.773 162.695 251.988 164.976 251.253 166.206C245.731 175.479 239.189 209.163 239.189 209.163L247.697 211.368L258.5 181.721C258.5 181.721 260.24 175.944 261.485 174.429C263.076 172.478 269.858 168.847 269.858 168.847" stroke="black" stroke-width="1.5" stroke-miterlimit="10" stroke-linecap="round" stroke-linejoin="round"/>
<path d="M262.446 226.703L263.046 233.95C263.046 233.95 251.808 238.166 247.892 238.061C245.836 238.001 240.705 235.69 240.78 233.965C240.9 231.444 247.127 229.854 249.362 228.623C250.878 227.798 255.184 224.887 255.184 224.887C255.184 224.887 256.159 228.488 259.61 228.428C260.81 228.398 262.881 226.838 262.446 226.703Z" fill="black" stroke="black" stroke-width="1.5" stroke-miterlimit="10" stroke-linecap="round" stroke-linejoin="round"/>
<path d="M263.031 222.276L261.695 227.632" stroke="black" stroke-width="1.5" stroke-miterlimit="10" stroke-linecap="round" stroke-linejoin="round"/>
<path d="M256.324 219.921L255.829 225.412" stroke="black" stroke-width="1.5" stroke-miterlimit="10" stroke-linecap="round" stroke-linejoin="round"/>
<path d="M246.226 216.17L246.826 223.417C246.826 223.417 235.588 227.633 231.672 227.528C229.617 227.468 224.485 225.157 224.56 223.432C224.68 220.911 230.907 219.321 233.143 218.09C234.658 217.265 238.964 214.354 238.964 214.354C238.964 214.354 239.939 217.955 243.39 217.895C244.591 217.865 246.661 216.305 246.226 216.17Z" fill="black" stroke="black" stroke-width="1.5" stroke-miterlimit="10" stroke-linecap="round" stroke-linejoin="round"/>
<path d="M246.826 211.743L245.476 217.1" stroke="black" stroke-width="1.5" stroke-miterlimit="10" stroke-linecap="round" stroke-linejoin="round"/>
<path d="M240.105 209.388L239.61 214.879" stroke="black" stroke-width="1.5" stroke-miterlimit="10" stroke-linecap="round" stroke-linejoin="round"/>
<path d="M137.146 212.074C137.342 216.725 138.212 228.609 142.698 232C144.588 233.44 152.871 232.315 152.871 232.315L157.477 231.219" stroke="black" stroke-width="1.5" stroke-miterlimit="10" stroke-linecap="round" stroke-linejoin="round"/>
<path d="M173.636 173.679C170.291 164.737 165.594 160.926 161.753 159.186C158.692 157.805 152.541 156.155 147.079 159.336C143.793 161.241 142.533 165.007 142.398 164.437C142.398 164.437 138.017 165.847 136.652 167.618C133.801 171.294 132.06 179.096 133.996 185.082C135.151 188.653 137.882 200.702 137.882 200.702" stroke="black" stroke-width="1.5" stroke-miterlimit="10" stroke-linecap="round" stroke-linejoin="round"/>
<path d="M179.772 223.403C179.772 223.403 189.405 217.641 190.26 215.72C192.166 211.489 186.644 204.722 183.478 197.25" stroke="black" stroke-width="1.5" stroke-miterlimit="10" stroke-linecap="round" stroke-linejoin="round"/>
<path d="M185.039 242.893C185.039 242.893 180.268 229.929 179.458 225.398C178.707 221.182 177.612 215.36 177.582 211.549C177.582 210.754 181.963 200.641 182.728 197.07C184.169 190.364 181.243 171.309 181.243 171.309L173.666 173.259L174.416 193.965L168.144 202.967C168.144 202.967 165.429 210.514 163.343 212.345C161.483 213.98 156.231 207.828 156.231 207.828C156.231 207.828 144.663 205.143 141.242 203.207C137.206 200.911 130.109 192.284 130.109 192.284L122.652 195.705C122.652 195.705 130.755 207.663 134.491 210.559C137.311 212.735 144.423 214.97 146.824 217.671C148.414 219.456 152 225.758 152 225.758C152 225.758 158.527 231.925 160.207 234.776C162.488 238.662 164.724 249.464 164.724 249.464C164.724 249.464 172.826 252.15 175.406 251.28C178.062 250.38 185.039 242.893 185.039 242.893Z" stroke="black" stroke-width="1.5" stroke-miterlimit="10" stroke-linecap="round" stroke-linejoin="round"/>
<path d="M164.919 248.94C164.919 248.94 164.514 258.573 165.054 261.708C166.044 267.545 168.19 275.617 168.19 275.617L190.666 303.99L196.742 308.566L235.903 330.247L240.659 322.76L202.354 290.966C202.354 290.966 192.046 277.222 189.975 273.306" stroke="black" stroke-width="1.5" stroke-miterlimit="10" stroke-linecap="round" stroke-linejoin="round"/>
<path d="M184.979 243.027C192.196 244.963 204.919 260.372 210.906 266.809C214.192 270.335 218.588 275.466 220.823 276.201C229.016 278.917 253.697 283.733 253.697 283.733L253.907 293.561C253.907 293.561 228.355 293.906 218.663 291.055C216.952 290.56 213.577 289.45 211.956 288.715C206.09 286.014 189.585 272.585 189.585 272.585L186.839 273.756L183.088 271.46" stroke="black" stroke-width="1.5" stroke-miterlimit="10" stroke-linecap="round" stroke-linejoin="round"/>
<path d="M169.345 200.777C168.895 201.917 165.939 201.452 165.099 200.567C164.439 199.877 162.503 196.906 162.503 196.906" stroke="black" stroke-width="1.5" stroke-miterlimit="10" stroke-linecap="round" stroke-linejoin="round"/>
<path d="M152.601 206.598C152.601 206.598 156.067 204.828 156.292 203.702C156.592 202.277 155.631 199.411 155.631 199.411" stroke="black" stroke-width="1.5" stroke-miterlimit="10" stroke-linecap="round" stroke-linejoin="round"/>
<path d="M142.848 185.743C142.848 185.743 144.874 191.639 146.179 193.185C148.325 195.75 156.007 200.462 159.127 199.636C161.228 199.081 164.139 193.905 164.559 191.744C164.964 189.689 163.929 184.107 163.929 184.107L161.573 177.625" stroke="black" stroke-width="1.5" stroke-miterlimit="10" stroke-linecap="round" stroke-linejoin="round"/>
<path d="M140.748 175.555C141.108 176.29 145.534 177.88 147.274 178.06C151.085 178.45 159.368 177.13 162.593 178.03C165.654 178.886 171.536 184.437 170.26 187.708" stroke="black" stroke-width="1.5" stroke-miterlimit="10" stroke-linecap="round" stroke-linejoin="round"/>
<path d="M143.133 176.875C143.133 176.875 144.303 181.166 144.078 182.607C143.748 184.677 141.047 188.713 141.632 191.819" stroke="black" stroke-width="1.5" stroke-miterlimit="10" stroke-linecap="round" stroke-linejoin="round"/>
<path d="M179.457 170.754L178.137 150.393C178.137 150.393 180.132 147.452 180.898 146.267C181.693 145.037 185.864 141.496 182.788 138.975C181.573 137.97 176.261 140.401 175.091 141.631C173.876 142.906 172.33 146.387 172.06 148.068C171.775 149.838 173.306 153.529 173.306 153.529L174.896 171.624" stroke="black" stroke-width="1.5" stroke-miterlimit="10" stroke-linecap="round" stroke-linejoin="round"/>
<path d="M124.078 195.135L113.845 175.87C113.845 175.87 110.364 174.535 108.999 173.965C107.574 173.379 101.752 172.959 103.162 168.638C103.718 166.928 109.959 165.577 111.73 165.907C113.575 166.252 116.936 168.368 118.136 169.703C119.397 171.114 120.072 175.465 120.072 175.465L128.789 192.87" stroke="black" stroke-width="1.5" stroke-miterlimit="10" stroke-linecap="round" stroke-linejoin="round"/>
<path d="M252.602 283.734L258.724 284.049" stroke="black" stroke-width="1.5" stroke-miterlimit="10" stroke-linecap="round" stroke-linejoin="round"/>
<path d="M253.697 291.746L259.819 292.061" stroke="black" stroke-width="1.5" stroke-miterlimit="10" stroke-linecap="round" stroke-linejoin="round"/>
<path d="M262.354 281.558L258.858 283.449C258.858 283.449 260.554 286.479 260.854 287.56C261.334 289.345 259.774 291.896 259.774 291.896C259.774 291.896 262.069 294.822 262.609 295.932C263.855 298.528 265.19 304.799 267.576 306.33C268.491 306.915 271.912 306.375 271.912 306.375C271.912 306.375 273.067 300.118 272.962 296.982C272.887 294.987 270.276 286.929 270.276 286.929L272.872 286.734L272.077 281.498L262.354 281.558Z" fill="black" stroke="black" stroke-width="1.5" stroke-miterlimit="10" stroke-linecap="round" stroke-linejoin="round"/>
<path d="M240.689 322.849L245.34 326.465" stroke="black" stroke-width="1.5" stroke-miterlimit="10" stroke-linecap="round" stroke-linejoin="round"/>
<path d="M237.538 329.646L242.189 333.276" stroke="black" stroke-width="1.5" stroke-miterlimit="10" stroke-linecap="round" stroke-linejoin="round"/>
<path d="M249.466 326.555L245.76 326.09C245.76 326.09 245.58 329.376 245.265 330.366C244.74 332.017 242.234 333.112 242.234 333.112C242.234 333.112 242.579 336.638 242.444 337.793C242.114 340.479 240.029 346.061 241.139 348.566C241.559 349.527 244.53 350.982 244.53 350.982C244.53 350.982 248.581 346.781 250.066 344.305C251.012 342.73 252.992 335.063 252.992 335.063L255.138 336.338L257.133 331.852L249.466 326.555Z" fill="black" stroke="black" stroke-width="1.5" stroke-miterlimit="10" stroke-linecap="round" stroke-linejoin="round"/>
<path d="M149.21 677.439L149.12 657.903H244.095L244.26 754.169" stroke="black" stroke-width="1.8" stroke-miterlimit="10" stroke-linecap="round" stroke-linejoin="round"/>
<path d="M101.587 754.576L101.692 763.969L87.3179 785.394H116.561H162.473L149.9 763.969L149.81 754.516" stroke="black" stroke-width="1.8" stroke-miterlimit="10" stroke-linecap="round" stroke-linejoin="round"/>
<path d="M18.0444 369.632C18.0444 369.632 28.7573 403.901 36.6794 412.168C77.2502 454.494 212.601 534.016 212.601 534.016L212.541 604.039H100.822L101.587 676.074" stroke="black" stroke-width="1.8" stroke-miterlimit="10" stroke-linecap="round" stroke-linejoin="round"/>
<path d="M372.139 716.194V724.897L360.406 742.736L385.447 742.871L431.18 743.127L419.507 724.897L419.522 717.29" stroke="black" stroke-width="1.8" stroke-miterlimit="10" stroke-linecap="round" stroke-linejoin="round"/>
<path d="M294.583 755.67L296.023 612.517L372.139 614.002L372.214 641.369" stroke="black" stroke-width="1.8" stroke-miterlimit="10" stroke-linecap="round" stroke-linejoin="round"/>
<path d="M419.597 641.37L419.672 560.528L277.824 558.743V535.546C277.824 535.546 402.522 464.848 450.415 412.559C458.442 403.796 466.574 369.842 466.574 369.842" stroke="black" stroke-width="1.8" stroke-miterlimit="10" stroke-linecap="round" stroke-linejoin="round"/>
<path d="M244.755 829.386L244.815 837.503L230.216 857.068H310.218L296.369 837.503L295.604 829.401" stroke="black" stroke-width="1.8" stroke-miterlimit="10" stroke-linecap="round" stroke-linejoin="round"/>
<path d="M18.5547 334.477L17.5044 369.301C17.5044 369.301 88.6834 399.94 242.264 399.94C404.908 399.94 467.024 369.301 467.024 369.301L468.075 334.477C468.075 334.477 384.757 364.365 242.264 364.365C100.146 363.255 18.5547 334.477 18.5547 334.477Z" stroke="black" stroke-width="1.8" stroke-miterlimit="10" stroke-linecap="round" stroke-linejoin="round"/>
<path d="M18.5544 334.477L17.8042 346.66C17.8042 346.66 88.9832 376.653 242.564 376.653C405.208 376.653 467.324 346.66 467.324 346.66L468.074 334.477C468.074 334.477 384.757 364.005 242.264 364.005C100.146 363.315 18.5544 334.477 18.5544 334.477Z" fill="black" stroke="black" stroke-width="1.5" stroke-miterlimit="10" stroke-linecap="round" stroke-linejoin="round"/>
<path d="M395.8 652.907C381.757 652.907 370.354 664.295 370.354 678.354C370.354 692.413 381.742 703.801 395.8 703.801C409.859 703.801 421.247 692.413 421.247 678.354C421.247 664.295 409.844 652.907 395.8 652.907ZM395.8 700.725C383.437 700.725 373.414 690.702 373.414 678.339C373.414 665.976 383.437 655.953 395.8 655.953C408.164 655.953 418.186 665.976 418.186 678.339C418.186 690.702 408.164 700.725 395.8 700.725Z" fill="black" stroke="black" stroke-width="1.5" stroke-miterlimit="10" stroke-linecap="round" stroke-linejoin="round"/>
<path d="M381.056 661.693L379.199 663.549L410.677 695.032L412.534 693.175L381.056 661.693Z" fill="black" stroke="black" stroke-width="1.5" stroke-miterlimit="10" stroke-linecap="round" stroke-linejoin="round"/>
<path d="M357.255 640.484C357.255 640.484 356.97 675.938 357.255 688.106C357.405 694.528 357.255 714.679 357.255 714.679C357.255 714.679 399.686 716.314 411.825 716.179C418.997 716.104 434.466 714.679 434.466 714.679C434.466 714.679 432.965 679.839 432.965 670.552C432.965 661.264 434.466 640.469 434.466 640.469C434.466 640.469 390.174 643.815 376.145 642.479C371.419 642.044 357.255 640.484 357.255 640.484Z" stroke="black" stroke-width="2.5" stroke-miterlimit="10" stroke-linecap="round" stroke-linejoin="round"/>
<path d="M125.129 691.843C111.355 691.843 100.192 702.931 100.192 716.599C100.192 730.268 111.355 741.356 125.129 741.356C138.902 741.356 150.065 730.268 150.065 716.599C150.065 702.931 138.887 691.843 125.129 691.843ZM125.129 738.385C113.005 738.385 103.193 728.633 103.193 716.599C103.193 704.566 113.02 694.814 125.129 694.814C137.237 694.814 147.064 704.566 147.064 716.599C147.064 728.633 137.237 738.385 125.129 738.385Z" fill="black" stroke="black" stroke-width="1.5" stroke-miterlimit="10" stroke-linecap="round" stroke-linejoin="round"/>
<path d="M88.1397 677.451C88.1397 677.451 87.8782 712.818 88.1397 725.28C88.2773 731.866 88.1397 752.511 88.1397 752.511C88.1397 752.511 115.86 753.309 127.45 753.189C134.29 753.113 161.791 752.511 161.791 752.511C161.791 752.511 163.057 728.686 163.043 718.59C163.03 709.684 161.791 677.466 161.791 677.466C161.791 677.466 126.995 676.17 107.781 676.908C103.253 677.074 88.1397 677.451 88.1397 677.451Z" stroke="black" stroke-width="2.5" stroke-miterlimit="10" stroke-linecap="round" stroke-linejoin="round"/>
<path d="M121.212 704.296H128.579L125.849 719.735H123.958L121.212 704.296Z" fill="black" stroke="black" stroke-width="0.8" stroke-miterlimit="10" stroke-linecap="round" stroke-linejoin="round"/>
<path d="M124.888 727.612C126.339 727.612 127.514 726.477 127.514 725.077C127.514 723.676 126.339 722.541 124.888 722.541C123.438 722.541 122.263 723.676 122.263 725.077C122.263 726.477 123.438 727.612 124.888 727.612Z" fill="black" stroke="black" stroke-width="0.5" stroke-miterlimit="10" stroke-linecap="round" stroke-linejoin="round"/>
<path d="M270.232 767.779C257.044 767.779 246.346 778.477 246.346 791.666C246.346 804.854 257.044 815.552 270.232 815.552C283.421 815.552 294.118 804.854 294.118 791.666C294.118 778.477 283.421 767.779 270.232 767.779ZM270.232 812.671C258.619 812.671 249.211 803.264 249.211 791.651C249.211 780.038 258.619 770.63 270.232 770.63C281.845 770.63 291.253 780.038 291.253 791.651C291.253 803.264 281.845 812.671 270.232 812.671Z" fill="black" stroke="black" stroke-width="1.5" stroke-miterlimit="10" stroke-linecap="round" stroke-linejoin="round"/>
<path d="M230.321 755.971C230.321 755.971 229.631 778.207 229.916 790.795C230.066 797.427 230.786 828.35 230.786 828.35C230.786 828.35 246.586 830.046 259.144 829.911C266.556 829.836 310.563 828.35 310.563 828.35C310.563 828.35 309.888 809.88 309.888 800.278C309.888 790.675 310.083 755.971 310.083 755.971C310.083 755.971 288.552 754.621 281.365 754.546C268.627 754.396 230.321 755.971 230.321 755.971Z" stroke="black" stroke-width="2.5" stroke-miterlimit="10" stroke-linecap="round" stroke-linejoin="round"/>
<path d="M255.962 794.141L266.36 803.279L284.5 784.104L281.514 781.148L266.045 797.052L258.693 790.961L255.962 794.141Z" fill="black" stroke="black" stroke-width="0.8" stroke-miterlimit="10" stroke-linecap="round" stroke-linejoin="round"/>
</svg>
