<svg width="310" height="237" viewBox="0 0 310 237" fill="none" xmlns="http://www.w3.org/2000/svg">
<path d="M179.011 186.712C179.011 186.712 176.791 212.382 174.671 220.672" stroke="black" stroke-width="1.5" stroke-miterlimit="10" stroke-linecap="round" stroke-linejoin="round"/>
<path d="M157.171 196.612C157.171 196.612 155.711 206.592 157.171 217.132" stroke="black" stroke-width="1.5" stroke-miterlimit="10" stroke-linecap="round" stroke-linejoin="round"/>
<path d="M274.681 188.592C274.681 188.592 276.541 203.492 276.551 208.492C276.561 211.802 278.211 217.132 278.211 217.132" stroke="black" stroke-width="1.5" stroke-miterlimit="10" stroke-linecap="round" stroke-linejoin="round"/>
<path d="M183.031 140.462C181.761 146.912 181.401 152.382 180.821 155.312C180.181 158.572 180.641 168.512 180.641 168.512" stroke="black" stroke-width="1.5" stroke-miterlimit="10" stroke-linecap="round" stroke-linejoin="round"/>
<path d="M132.371 206.052L134.301 224.772" stroke="black" stroke-width="1.5" stroke-miterlimit="10" stroke-linecap="round" stroke-linejoin="round"/>
<path d="M186.181 86.2319C186.181 86.2319 179.871 89.6219 178.291 90.7719C172.041 95.3119 167.391 115.242 165.871 121.092C162.991 132.182 157.181 160.962 157.181 160.962" stroke="black" stroke-width="1.5" stroke-miterlimit="10" stroke-linecap="round" stroke-linejoin="round"/>
<path d="M165.861 162.202C165.861 162.202 163.071 160.712 161.551 161.002C156.451 161.972 145.441 166.882 142.691 169.392C139.581 172.232 137.721 177.252 136.811 179.182" stroke="black" stroke-width="1.5" stroke-miterlimit="10" stroke-linecap="round" stroke-linejoin="round"/>
<path d="M134.381 202.572C134.381 202.572 139.731 198.692 141.641 197.722C143.331 196.862 145.631 196.492 147.001 196.452C148.861 196.392 152.601 196.592 154.451 196.462C160.651 196.032 174.601 190.722 178.411 187.512C179.501 186.592 180.911 185.872 181.751 183.972C182.171 183.002 181.661 179.692 181.661 179.692C181.661 179.692 182.651 175.632 182.201 174.072C181.581 171.912 180.611 170.812 180.611 170.812C180.611 170.812 181.191 167.062 178.691 164.752C177.431 163.592 175.921 163.442 175.921 163.442C175.921 163.442 174.011 161.592 172.081 160.972C170.201 160.372 166.541 162.162 166.541 162.162L158.861 165.932C158.861 165.932 157.181 166.472 152.881 166.922" stroke="black" stroke-width="1.5" stroke-miterlimit="10" stroke-linecap="round" stroke-linejoin="round"/>
<path d="M279.591 95.4722C279.431 97.3922 276.401 99.7922 274.461 100.562C270.831 102.002 264.691 99.9822 260.831 100.582C257.351 101.122 251.631 108.352 248.251 111.882" stroke="black" stroke-width="1.5" stroke-miterlimit="10" stroke-linecap="round"/>
<path d="M201.911 83.7222C191.731 87.4122 188.391 83.9422 183.021 88.5722C181.031 90.2822 185.301 95.9222 187.721 97.9522C190.581 100.352 192.871 106.962 195.951 108.742C200.461 111.362 207.221 121.412 210.651 122.342C216.211 123.852 225.911 129.222 234.441 126.252" stroke="black" stroke-width="1.5" stroke-miterlimit="10" stroke-linecap="round" stroke-linejoin="round"/>
<path d="M214.301 25.9819C214.301 25.9819 209.921 37.5819 209.361 42.7219C209.021 45.8519 209.841 47.9919 209.791 49.7419C209.711 52.2119 207.731 55.1019 207.651 57.5719C207.351 66.8219 209.871 84.6219 214.601 88.4219C221.451 93.9319 236.131 88.3319 243.031 85.7819C245.251 84.9619 250.751 81.6619 252.711 79.7619C254.261 78.2619 256.661 74.1319 257.261 72.4419" stroke="black" stroke-width="1.5" stroke-miterlimit="10" stroke-linecap="round" stroke-linejoin="round"/>
<path d="M284.851 101.012C284.851 101.012 291.211 105.872 292.471 108.162C295.591 113.792 299.931 121.132 300.941 125.962C303.571 138.482 304.211 156.712 305.101 169.482C305.441 174.442 309.091 196.622 309.091 196.622" stroke="black" stroke-width="1.5" stroke-miterlimit="10" stroke-linecap="round" stroke-linejoin="round"/>
<path d="M212.601 30.4921C212.601 30.4921 214.721 28.9621 215.491 28.5421C217.161 27.6321 220.511 27.0121 221.771 26.5921C223.901 25.8621 230.621 23.1221 230.621 23.1221C230.621 23.1221 238.531 26.2721 240.271 27.0121C242.411 27.9221 247.801 29.3921 249.701 30.7321C252.631 32.8021 254.601 37.3521 257.131 39.8921C257.991 40.7521 259.911 43.1721 259.911 43.1721C259.911 43.1721 258.211 37.1621 257.151 34.9821C256.411 33.4521 254.321 30.5621 252.681 29.1121C250.631 27.3021 245.411 23.8721 242.231 22.7921C239.681 21.9221 234.161 20.3121 231.381 20.4021C228.621 20.4921 222.971 22.4921 220.771 23.4421C219.061 24.1821 213.501 28.7421 213.501 28.7421L212.601 30.4921Z" fill="black" stroke="black" stroke-width="1.5" stroke-miterlimit="10" stroke-linecap="round" stroke-linejoin="round"/>
<path d="M214.211 26.932C215.371 22.622 221.291 16.612 224.781 14.482C227.621 12.752 237.991 10.242 242.781 9.97201C250.251 9.54201 257.611 12.292 261.881 14.712C269.101 18.812 277.641 28.202 279.781 34.532C282.751 43.322 282.581 61.842 279.291 70.112C277.511 74.582 276.201 79.872 276.791 84.022C277.101 86.222 279.291 88.182 279.751 90.352C280.191 92.402 279.591 95.472 279.591 95.472C279.591 95.472 282.441 98.992 286.561 102.152C287.961 103.232 283.221 109.972 281.811 111.752C277.991 116.552 266.451 120.272 260.241 120.292C248.241 120.322 241.751 127.062 235.251 126.192C230.071 125.492 225.341 122.772 221.081 118.732C217.891 115.702 211.321 106.982 208.911 103.502C206.901 100.582 202.721 95.002 201.891 91.322C201.431 89.262 200.981 80.432 208.981 74.842" stroke="black" stroke-width="1.5" stroke-miterlimit="10" stroke-linecap="round" stroke-linejoin="round"/>
<path d="M260.821 47.3921C261.451 51.1221 257.261 59.5221 256.681 64.1521C255.581 72.9321 259.891 76.2021 258.511 80.7321C257.681 83.4621 251.441 87.4921 248.971 89.2421C245.871 91.4421 242.651 101.002 229.841 96.9721" stroke="black" stroke-width="1.5" stroke-miterlimit="10" stroke-linecap="round" stroke-linejoin="round"/>
<path d="M259.741 42.0322C259.951 44.4122 261.221 49.3622 262.831 52.8822C264.091 55.6422 266.761 60.1322 263.561 65.9022" stroke="black" stroke-width="1.5" stroke-miterlimit="10" stroke-linecap="round" stroke-linejoin="round"/>
<path d="M222.911 48.8423C223.131 51.0523 223.131 51.8923 223.051 52.7523C222.971 53.7123 221.921 57.3423 220.441 59.6723C219.591 61.0123 217.601 63.8523 217.481 65.3723C217.331 67.3723 219.261 68.4223 220.121 68.5523C221.791 68.8023 223.321 68.2323 224.041 67.8623C224.841 67.4523 225.701 67.3423 226.421 67.8423" stroke="black" stroke-width="1.5" stroke-miterlimit="10" stroke-linecap="round" stroke-linejoin="round"/>
<path d="M228.551 65.9819C229.221 66.2819 229.411 66.8819 229.371 67.2919C229.261 68.3019 228.511 68.9419 227.691 69.1219" stroke="black" stroke-width="1.5" stroke-miterlimit="10" stroke-linecap="round" stroke-linejoin="round"/>
<path d="M232.341 44.4823C232.341 44.4823 234.721 44.3723 235.851 44.3623C237.501 44.3423 242.011 44.6223 243.201 44.9223C245.171 45.4223 246.301 46.3823 247.041 47.1223C247.561 47.6423 248.711 49.4223 248.711 49.4223C248.711 49.4223 246.851 48.1423 246.171 47.8123C245.601 47.5323 244.181 46.7623 242.901 46.7723C242.431 46.7823 238.171 46.6523 236.901 46.7223C235.581 46.8023 231.591 47.0123 231.591 47.0123L232.341 44.4823Z" fill="black" stroke="black" stroke-width="0.8" stroke-miterlimit="10" stroke-linecap="round" stroke-linejoin="round"/>
<path d="M221.411 43.592C221.411 43.592 218.721 42.802 217.821 42.552C216.661 42.222 213.581 41.502 212.351 41.452C210.311 41.372 209.391 42.332 209.391 42.332L209.281 43.672C209.281 43.672 210.971 43.082 212.111 43.302C212.571 43.392 215.701 44.262 217.121 44.782C218.301 45.212 221.691 46.212 221.691 46.212L221.411 43.592Z" fill="black" stroke="black" stroke-width="0.8" stroke-miterlimit="10" stroke-linecap="round" stroke-linejoin="round"/>
<path d="M84.9611 91.0919C84.9611 91.0919 84.6211 95.6419 84.4611 97.1419C83.8911 102.322 88.0109 105.442 87.7209 106.152C86.0009 110.302 74.251 115.122 69.541 115.092C62.551 115.032 48.861 109.402 43.991 104.492C42.461 102.952 38.771 96.9019 38.771 96.9019C38.771 96.9019 45.071 92.7719 46.421 90.7119C47.061 89.7419 47.661 86.2319 47.661 86.2319" stroke="black" stroke-width="1.5" stroke-miterlimit="10" stroke-linecap="round" stroke-linejoin="round"/>
<path d="M96.5 27.5C96.5 30.7678 101.151 24.8322 101.821 24.0522C102.671 23.0522 103.391 20.3922 103.391 20.3922C103.391 20.3922 100.241 18.9521 98.8411 18.7421C97.4311 18.5321 95.521 15.9321 95.101 14.7621C94.511 13.1121 92.761 9.37215 91.151 8.54215C90.011 7.95215 86.481 8.13216 85.271 7.69216C83.931 7.19216 82.5211 5.26215 81.4211 4.78215C79.5411 3.96215 75.281 4.45216 73.271 4.11216C70.221 3.60216 64.3411 0.612148 61.2811 1.04215C58.7111 1.40215 53.341 4.50215 50.951 5.51215C46.501 7.40215 40.0211 6.35215 36.7411 7.84215C32.9011 9.59215 30.1511 15.2222 27.3411 18.0622C25.4111 20.0122 20.6011 25.6722 19.4711 28.1722C18.1111 31.2022 17.781 37.5521 18.331 40.9621C18.871 44.3021 18.9811 51.1421 20.4311 54.1521C21.3511 56.0621 25.1811 59.3222 25.9111 60.6422C27.0411 62.6822 28.3711 66.7921 29.6011 68.6221C31.2111 71.0221 36.4311 75.7721 39.5411 79.0721C41.1211 80.7621 41.901 82.4722 41.901 82.4722C41.901 82.4722 42.0311 80.5821 42.0911 80.1021C42.1411 79.7721 42.521 78.8322 42.521 78.8322L47.641 86.2222C47.641 86.2222 47.7211 83.3421 48.2311 82.5721C49.0011 81.3921 53.211 79.5222 53.211 79.5222L53.4311 77.4821L53.4111 73.4422L55.1011 68.5921C55.1011 68.5921 53.0111 70.9721 52.1611 70.7421C49.7811 70.1021 48.081 62.9722 47.451 61.7522C45.681 58.2822 44.401 54.1122 45.571 50.5822C46.051 49.1522 48.591 48.8121 50.001 48.7421C51.651 48.6521 55.711 52.5822 55.711 52.5822C55.711 52.5822 58.7611 47.7522 59.9811 46.5322C65.8611 40.6522 69.761 40.1722 72.451 36.9722C74.921 34.0322 75 30.5 79.5 28.1722C81.35 25.1422 87.811 27.6722 91.151 28.1722C93.041 28.4622 93.81 26.82 96.5 27.5Z" fill="black" stroke="black" stroke-width="1.5" stroke-miterlimit="10" stroke-linecap="round" stroke-linejoin="round"/>
<path d="M93.5013 40.272L93.8795 38.0845L93.2578 37.0195C93.2578 37.0195 91.2806 36.7965 90.3985 36.7561C88.9247 36.6922 85.5932 36.5964 84.1802 37.0451C83.0332 37.4118 80.6541 38.2268 79.6098 38.9027C78.8791 39.3694 76.4956 40.7799 75.9208 41.3314C75.3348 41.9039 74.9998 43 74.9998 43C74.9998 43 77.7872 41.7321 78.5929 41.3564C79.6773 40.8562 81.461 40.429 82.6124 40.16C84.294 39.7594 87.653 39.5536 89.4837 39.7031C90.4153 39.7572 93.5013 40.272 93.5013 40.272Z" fill="black" stroke="black" stroke-width="0.8" stroke-miterlimit="10" stroke-linecap="round" stroke-linejoin="round"/>
<path d="M55.0914 57.3922C55.0914 57.3922 52.4314 52.5722 50.4314 53.5322C49.0014 54.2222 48.6714 56.9622 50.3814 58.3922C50.9814 58.8922 52.2914 59.8822 52.5914 60.6022C52.9014 61.3722 52.0914 62.9822 52.8914 63.9622C53.2014 64.3422 54.3514 64.2222 54.3514 64.2222" stroke="black" stroke-width="1.5" stroke-miterlimit="10" stroke-linecap="round" stroke-linejoin="round"/>
<path d="M55.2713 68.592C55.2713 68.592 53.2913 70.572 52.2613 70.242C49.6513 69.402 49.4514 65.5421 48.6814 63.1121C48.0114 61.0021 45.5713 58.2321 45.5713 54.8321C45.5713 53.1221 45.5213 50.022 49.1313 48.992C50.9913 48.462 54.3113 50.8921 55.2213 53.2521C55.8113 54.7721 59.0714 48.042 59.9814 46.602C61.4014 44.342 65.0413 42.2621 67.5913 40.9421C69.4913 39.9621 71.8413 38.282 72.7813 37.212C75.3113 34.322 75.5614 27.532 76.9314 24.402C77.9914 21.992 83.7914 19.0021 86.5714 18.7521C88.3914 18.5921 94.4913 21.072 94.4913 21.072" stroke="black" stroke-width="1.5" stroke-miterlimit="10" stroke-linecap="round" stroke-linejoin="round"/>
<path d="M100.371 63.0257C100.371 63.0257 100.004 64.9763 100.131 65.6075C100.261 66.2685 101.044 67.3829 101.109 68.1C101.162 68.6976 100.203 70.7618 100.203 70.7618C100.203 70.7618 101.573 72.2651 101.546 72.9604C101.507 74.0984 100.613 74.5402 100.165 75.2532C99.6647 76.0513 99.8586 76.8672 100.055 77.492C101.072 80.7542 102.116 84.4533 99.5361 87.4765C96.8559 90.6091 88.4296 90.3447 88.4296 90.3447C88.4296 90.3447 69.2482 91.2036 62.8276 86.8934" stroke="black" stroke-width="1.5" stroke-miterlimit="10" stroke-linecap="round" stroke-linejoin="round"/>
<path d="M98.0011 60.622C98.0011 60.622 96.1411 59.822 94.6711 60.262C94.3411 60.362 93.7012 61.242 93.7012 61.242" stroke="black" stroke-width="1.5" stroke-miterlimit="10" stroke-linecap="round" stroke-linejoin="round"/>
<path d="M94.5 25.5C96 26.5 98.0011 31.469 98.0011 35.532C98.0011 41.5 99 47.5 100.841 51.662C101.875 54 105.049 56.368 104.5 60C103.79 61.49 99.5 63 96 62.5" stroke="black" stroke-width="1.5" stroke-miterlimit="10" stroke-linecap="round" stroke-linejoin="round"/>
<path d="M84.791 98.1421C84.791 98.1421 106.051 102.522 112.211 107.602C116.381 111.052 124.301 129.362 126.261 135.362C130.131 147.192 129.281 179.062 129.281 179.062" stroke="black" stroke-width="1.5" stroke-miterlimit="10" stroke-linecap="round" stroke-linejoin="round"/>
<path d="M40.5312 95.3223C40.5312 95.3223 21.0312 101.492 11.4012 111.132C6.13119 116.402 0.531195 132.972 1.0312 141.352C2.2112 161.232 4.82119 183.582 4.84119 197.712C4.86119 206.452 2.92118 224.092 2.45118 232.592" stroke="black" stroke-width="1.5" stroke-miterlimit="10" stroke-linecap="round" stroke-linejoin="round"/>
<path d="M10.1514 153.532C16.6414 171.102 27.8113 189.022 35.3813 202.202C40.2713 210.712 48.8614 227.152 58.2314 231.762C61.7314 233.482 69.4714 236.092 73.3514 235.642C81.8314 234.662 97.2113 226.202 104.611 221.952C111.971 217.722 133.851 204.702 133.851 204.702C133.851 204.702 135.811 192.212 132.191 184.222C131.171 181.972 124.021 178.642 124.021 178.642C124.021 178.642 98.1914 190.132 90.1714 192.942C85.1114 194.712 79.2214 193.812 72.8314 198.052" stroke="black" stroke-width="1.5" stroke-miterlimit="10" stroke-linecap="round" stroke-linejoin="round"/>
<path d="M10.1514 112.552C14.4714 107.762 21.8114 106.172 24.9814 106.142C29.6314 106.102 35.1214 107.282 38.7714 110.172C44.9614 115.052 56.0014 136.632 58.3614 144.842C63.1614 161.482 72.1313 189.122 72.1313 189.122L75.2014 197.212C75.2014 197.212 71.0714 198.492 70.0314 199.752C67.0514 203.352 65.8214 207.012 65.8214 209.722" stroke="black" stroke-width="1.5" stroke-miterlimit="10" stroke-linecap="round" stroke-linejoin="round"/>
<path d="M111.711 133.912C111.711 133.912 113.571 152.672 113.781 158.952C113.971 164.602 113.431 181.572 113.431 181.572" stroke="black" stroke-width="1.5" stroke-miterlimit="10" stroke-linecap="round" stroke-linejoin="round"/>
<path d="M127.371 180.252C127.371 180.252 132.761 178.502 134.381 177.552C136.251 176.462 139.301 174.032 139.301 174.032" stroke="black" stroke-width="1.5" stroke-miterlimit="10" stroke-linecap="round" stroke-linejoin="round"/>
<path d="M269.921 153.422C268.011 164.222 274.861 187.592 274.861 187.592C274.861 187.592 278.131 196.562 278.591 200.872C279.061 205.182 284.841 218.992 284.841 218.992" stroke="black" stroke-width="1.5" stroke-miterlimit="10" stroke-linecap="round" stroke-linejoin="round"/>
</svg>
